<svg width="60" height="60" viewBox="0 0 60 60" fill="none" xmlns="http://www.w3.org/2000/svg">
<g clip-path="url(#clip0_345_30)">
<path d="M55.8984 29.5312H52.9688V27.7734C52.9688 24.2138 50.0831 21.3281 46.5234 21.3281H45.8203V19.5703C45.8203 16.6625 43.4546 14.2969 40.5469 14.2969H39.9609V10.2445C42.0069 9.51891 43.4766 7.56504 43.4766 5.27344C43.4766 2.36566 41.1109 0 38.2031 0C35.2954 0 32.9297 2.36566 32.9297 5.27344C32.9297 7.56504 34.3993 9.51891 36.4453 10.2445V14.2969H23.5547V10.2445C25.6007 9.51891 27.0703 7.56504 27.0703 5.27344C27.0703 2.36566 24.7046 0 21.7969 0C18.8891 0 16.5234 2.36566 16.5234 5.27344C16.5234 7.56504 17.9931 9.51891 20.0391 10.2445V14.2969H19.4531C16.5454 14.2969 14.1797 16.6625 14.1797 19.5703V21.3281H13.4766C9.91688 21.3281 7.03125 24.2138 7.03125 27.7734V29.5312H4.10156C1.83996 29.5312 0 31.3712 0 33.6328V43.0078C0 45.2694 1.83996 47.1094 4.10156 47.1094H7.03125V48.8672C7.03125 52.4269 9.91688 55.3125 13.4766 55.3125H34.2207H34.2253L42.0186 59.7659C43.1905 60.4355 44.6486 59.5894 44.6486 58.2396V55.3125H46.5236C50.0832 55.3125 52.9689 52.4269 52.9689 48.8672V47.1094H55.8986C58.1602 47.1094 60.0001 45.2694 60.0001 43.0078V33.6328C60 31.3712 58.16 29.5312 55.8984 29.5312ZM38.2031 3.51562C39.1724 3.51562 39.9609 4.30418 39.9609 5.27344C39.9609 6.2427 39.1724 7.03125 38.2031 7.03125C37.2339 7.03125 36.4453 6.2427 36.4453 5.27344C36.4453 4.30418 37.2339 3.51562 38.2031 3.51562ZM21.7969 3.51562C22.7661 3.51562 23.5547 4.30418 23.5547 5.27344C23.5547 6.2427 22.7661 7.03125 21.7969 7.03125C20.8276 7.03125 20.0391 6.2427 20.0391 5.27344C20.0391 4.30418 20.8276 3.51562 21.7969 3.51562ZM17.6953 19.5703C17.6953 18.6011 18.4839 17.8125 19.4531 17.8125H40.5469C41.5161 17.8125 42.3047 18.6011 42.3047 19.5703V21.3281H17.6953V19.5703ZM4.10156 43.5938C3.77848 43.5938 3.51562 43.3309 3.51562 43.0078V33.6328C3.51562 33.3097 3.77848 33.0469 4.10156 33.0469H7.03125V43.5938H4.10156ZM49.4531 48.8672C49.4531 50.4852 48.1414 51.7969 46.5234 51.7969H42.8906C41.9198 51.7969 41.1328 52.5839 41.1328 53.5547V55.2131L35.5596 52.0284C35.2941 51.8767 34.9934 51.7969 34.6875 51.7969H13.4766C11.8586 51.7969 10.5469 50.4852 10.5469 48.8672V27.7734C10.5469 26.1554 11.8586 24.8438 13.4766 24.8438H46.5234C48.1414 24.8438 49.4531 26.1554 49.4531 27.7734V48.8672ZM56.4844 43.0078C56.4844 43.3309 56.2215 43.5938 55.8984 43.5938H52.9688V33.0469H55.8984C56.2215 33.0469 56.4844 33.3097 56.4844 33.6328V43.0078Z" fill="#15D4EC"/>
<path d="M38.2031 28.3594C35.2954 28.3594 32.9297 30.725 32.9297 33.6328C32.9297 34.6036 33.7167 35.3906 34.6875 35.3906C35.6583 35.3906 36.4453 34.6036 36.4453 33.6328C36.4453 32.6636 37.2339 31.875 38.2031 31.875C39.1724 31.875 39.9609 32.6636 39.9609 33.6328C39.9609 34.6036 40.748 35.3906 41.7188 35.3906C42.6895 35.3906 43.4766 34.6036 43.4766 33.6328C43.4766 30.7249 41.1109 28.3594 38.2031 28.3594Z" fill="#15D4EC"/>
<path d="M23.5547 33.6328C23.5547 34.6036 24.3417 35.3906 25.3125 35.3906C26.2833 35.3906 27.0703 34.6036 27.0703 33.6328C27.0703 30.725 24.7046 28.3594 21.7969 28.3594C18.8891 28.3594 16.5234 30.725 16.5234 33.6328C16.5234 34.6036 17.3105 35.3906 18.2812 35.3906C19.252 35.3906 20.0391 34.6036 20.0391 33.6328C20.0391 32.6636 20.8276 31.875 21.7969 31.875C22.7661 31.875 23.5547 32.6634 23.5547 33.6328Z" fill="#15D4EC"/>
<path d="M34.4108 42.9367C31.9787 45.3688 28.0214 45.3688 25.5893 42.9367C24.9029 42.2503 23.7899 42.2503 23.1034 42.9367C22.4169 43.623 22.4169 44.7361 23.1034 45.4225C25.0048 47.324 27.5025 48.2747 30.0001 48.2747C32.4977 48.2747 34.9953 47.324 36.8968 45.4225C37.5833 44.7362 37.5833 43.6231 36.8968 42.9367C36.2102 42.2503 35.0972 42.2503 34.4108 42.9367Z" fill="#15D4EC"/>
</g>
<defs>
<clipPath id="clip0_345_30">
<rect width="60" height="60" fill="white"/>
</clipPath>
</defs>
</svg>
