<svg width="60" height="60" viewBox="0 0 60 60" fill="none" xmlns="http://www.w3.org/2000/svg">
<g clip-path="url(#clip0_345_12)">
<path d="M52.1698 38.2835L50.0977 37.5478V30.5859C50.0977 29.6152 49.3106 28.8281 48.3398 28.8281H42.8337C43.1048 27.7656 43.2422 26.6689 43.2422 25.5469H45C47.9078 25.5469 50.2734 23.1812 50.2734 20.2734C50.2734 17.3657 47.9078 15 45 15H43.3665C45.952 13.4966 47.6953 10.6976 47.6953 7.49742V1.75781C47.6953 0.787031 46.9083 0 45.9375 0H25.4323C20.6493 0 16.7578 3.89133 16.7578 8.67445V14.4141V15H15C12.0922 15 9.72656 17.3657 9.72656 20.2734C9.72656 23.1812 12.0922 25.5469 15 25.5469H16.7578C16.7578 26.6692 16.8953 27.7658 17.1666 28.8281H11.6602C10.6894 28.8281 9.90234 29.6152 9.90234 30.5859V37.5478L7.83023 38.2835C3.14672 39.9463 0 44.4026 0 49.3725V58.2422C0 59.213 0.787031 60 1.75781 60H58.2422C59.213 60 60 59.213 60 58.2422V49.3725C60 44.4026 56.8532 39.9463 52.1698 38.2835ZM46.7578 20.2734C46.7578 21.2427 45.9693 22.0312 45 22.0312H43.2422V18.5156H45C45.9693 18.5156 46.7578 19.3042 46.7578 20.2734ZM20.2734 8.67445C20.2734 5.82984 22.5878 3.51562 25.4323 3.51562H44.1797V7.49742C44.1797 10.342 41.8655 12.6562 39.0209 12.6562H20.2734V8.67445ZM15 22.0312C14.0307 22.0312 13.2422 21.2427 13.2422 20.2734C13.2422 19.3042 14.0307 18.5156 15 18.5156H16.7578V22.0312H15ZM20.2734 25.5469V23.7891V16.1719C20.2734 16.1719 39.4935 16.1596 39.7266 16.1407V23.7891C39.7512 25.4271 39.7688 27.3022 39.1604 28.8281H20.84C20.4639 27.7826 20.2734 26.6831 20.2734 25.5469ZM13.418 32.3438H46.582V56.4844H13.418V32.3438ZM3.51562 49.3725C3.48516 45.5127 6.22723 42.2613 9.90234 41.2784V56.4844H3.51562V49.3725ZM56.4844 56.4844H50.0977V41.2785C53.7728 42.2612 56.515 45.513 56.4844 49.3726V56.4844Z" fill="#15D4EC"/>
<path d="M38.8601 39.4796C38.1738 38.7933 37.0607 38.7933 36.3742 39.4796C35.6878 40.166 35.6878 41.279 36.3742 41.9655L38.8228 44.4139L36.3742 46.8624C35.6878 47.5488 35.6878 48.6618 36.3742 49.3483C37.0607 50.0348 38.1737 50.0348 38.8601 49.3483L42.5515 45.6569C43.238 44.9706 43.238 43.8575 42.5515 43.171L38.8601 39.4796Z" fill="#15D4EC"/>
<path d="M23.6258 39.4796C22.9394 38.7933 21.8263 38.7933 21.1399 39.4796L17.4485 43.171C16.762 43.8574 16.762 44.9704 17.4485 45.6569L21.1399 49.3483C21.4831 49.6916 21.933 49.8633 22.3828 49.8633C22.8325 49.8633 23.2825 49.6916 23.6256 49.3483C24.3121 48.662 24.3121 47.5489 23.6256 46.8624L21.1774 44.4139L23.6259 41.9654C24.3122 41.279 24.3122 40.166 23.6258 39.4796Z" fill="#15D4EC"/>
<path d="M32.0798 36.2689C31.1392 36.0288 30.182 36.5966 29.9417 37.5371L26.652 50.4205C26.4118 51.361 26.9797 52.3183 27.9203 52.5584C28.8358 52.8002 29.8218 52.2382 30.0584 51.2902L33.3481 38.4069C33.5882 37.4663 33.0204 36.509 32.0798 36.2689Z" fill="#15D4EC"/>
<path d="M25.5469 23.2031C26.5177 23.2031 27.3047 22.4161 27.3047 21.4453C27.3047 20.4745 26.5177 19.6875 25.5469 19.6875C24.5761 19.6875 23.7891 20.4745 23.7891 21.4453C23.7891 22.4161 24.5761 23.2031 25.5469 23.2031Z" fill="#15D4EC"/>
<path d="M34.4531 23.2031C35.4239 23.2031 36.2109 22.4161 36.2109 21.4453C36.2109 20.4745 35.4239 19.6875 34.4531 19.6875C33.4823 19.6875 32.6953 20.4745 32.6953 21.4453C32.6953 22.4161 33.4823 23.2031 34.4531 23.2031Z" fill="#15D4EC"/>
</g>
<defs>
<clipPath id="clip0_345_12">
<rect width="60" height="60" fill="white"/>
</clipPath>
</defs>
</svg>
