<svg width="60" height="60" viewBox="0 0 60 60" fill="none" xmlns="http://www.w3.org/2000/svg">
<path d="M55.8984 8.90625H35.9766C33.715 8.90625 31.875 10.7462 31.875 13.0078H4.10156C1.83996 13.0078 0 14.8478 0 17.1094V42.8906C0 45.1522 1.83996 46.9922 4.10156 46.9922H31.875C31.875 49.2538 33.715 51.0938 35.9766 51.0938H55.8984C58.16 51.0938 60 49.2538 60 46.9922V13.0078C60 10.7462 58.16 8.90625 55.8984 8.90625ZM31.875 43.4766H4.10156C3.77848 43.4766 3.51562 43.2137 3.51562 42.8906V41.1328H31.875V43.4766ZM31.875 37.6172H3.51562V17.1094C3.51562 16.7863 3.77848 16.5234 4.10156 16.5234H31.875V37.6172ZM50.2386 12.4219L49.7699 14.7656H42.1051L41.6364 12.4219H50.2386ZM56.4844 46.9922C56.4844 47.3153 56.2215 47.5781 55.8984 47.5781H35.9766C35.6535 47.5781 35.3906 47.3153 35.3906 46.9922V13.0078C35.3906 12.6847 35.6535 12.4219 35.9766 12.4219H38.0511L39.223 18.2812H52.652L53.8239 12.4219H55.8984C56.2215 12.4219 56.4844 12.6847 56.4844 13.0078V46.9922Z" fill="#15D4EC"/>
<path d="M21.9141 17.8125C18.6438 17.8125 15.8878 20.0568 15.1054 23.0859H9.49219V35.9766H22.3828V31.8577C26.0419 31.6154 28.9453 28.5632 28.9453 24.8438C28.9453 20.9667 25.7911 17.8125 21.9141 17.8125ZM18.8672 32.4609H13.0078V26.6016H15.1054C15.6268 28.6202 17.0248 30.2904 18.8672 31.18V32.4609ZM21.9141 28.3594C19.9755 28.3594 18.3984 26.7823 18.3984 24.8438C18.3984 22.9052 19.9755 21.3281 21.9141 21.3281C23.8526 21.3281 25.4297 22.9052 25.4297 24.8438C25.4297 26.7823 23.8526 28.3594 21.9141 28.3594Z" fill="#15D4EC"/>
<path d="M48.8672 20.8594C45.597 20.8594 42.8409 23.1036 42.0585 26.1328H36.4453V39.0234H49.3359V34.9045C52.995 34.6623 55.8984 31.61 55.8984 27.8906C55.8984 24.0136 52.7442 20.8594 48.8672 20.8594ZM45.8203 35.5078H39.9609V29.6484H42.0585C42.58 31.6671 43.9779 33.3373 45.8203 34.2268V35.5078ZM48.8672 31.4062C46.9287 31.4062 45.3516 29.8291 45.3516 27.8906C45.3516 25.9521 46.9287 24.375 48.8672 24.375C50.8057 24.375 52.3828 25.9521 52.3828 27.8906C52.3828 29.8291 50.8057 31.4062 48.8672 31.4062Z" fill="#15D4EC"/>
</svg>
