<svg width="60" height="60" viewBox="0 0 60 60" fill="none" xmlns="http://www.w3.org/2000/svg">
<path d="M26.9667 52.583C26.637 52.2504 26.4514 51.8014 26.45 51.333V48.8163C26.4393 48.4362 26.3074 48.0695 26.0735 47.7697C25.8397 47.4698 25.5161 47.2526 25.15 47.1497C23.8202 46.7732 22.5392 46.2417 21.3333 45.5663C20.9937 45.3769 20.6014 45.3036 20.2163 45.3578C19.8311 45.412 19.4742 45.5905 19.2 45.8663L17.4167 47.6497C17.0825 47.9825 16.63 48.1693 16.1583 48.1693C15.6867 48.1693 15.2342 47.9825 14.9 47.6497L12.4 45.083C12.0672 44.7488 11.8804 44.2963 11.8804 43.8247C11.8804 43.353 12.0672 42.9006 12.4 42.5663L14.1833 40.783C14.4554 40.51 14.6316 40.1562 14.6857 39.7746C14.7398 39.393 14.6688 39.0042 14.4833 38.6663C13.8073 37.4608 13.2758 36.1798 12.9 34.8497C12.7971 34.4836 12.5799 34.16 12.28 33.9261C11.9802 33.6923 11.6135 33.5604 11.2333 33.5497H8.66668C8.19505 33.5453 7.74398 33.356 7.41047 33.0225C7.07697 32.689 6.88769 32.238 6.88334 31.7663V28.2163C6.89201 27.7476 7.08319 27.3008 7.41623 26.9708C7.74928 26.6409 8.1979 26.4539 8.66668 26.4497H11.1833C11.5635 26.439 11.9302 26.3071 12.23 26.0732C12.5299 25.8393 12.7471 25.5157 12.85 25.1497C13.2252 23.8194 13.7567 22.5382 14.4333 21.333C14.6228 20.9933 14.696 20.6011 14.6419 20.2159C14.5877 19.8308 14.4091 19.4739 14.1333 19.1997L12.4 17.433C12.0712 17.0967 11.8871 16.645 11.8871 16.1747C11.8871 15.7043 12.0712 15.2527 12.4 14.9163L14.9167 12.3997C15.2509 12.0669 15.7033 11.88 16.175 11.88C16.6467 11.88 17.0991 12.0669 17.4333 12.3997L19.2167 14.183C19.4909 14.4588 19.8478 14.6374 20.2329 14.6915C20.6181 14.7457 21.0104 14.6725 21.35 14.483C22.5556 13.8071 23.8366 13.2756 25.1667 12.8997C25.5327 12.7968 25.8563 12.5795 26.0902 12.2797C26.3241 11.9799 26.456 11.6131 26.4667 11.233V8.66634C26.4667 8.19337 26.6546 7.73977 26.989 7.40533C27.3234 7.07089 27.777 6.88301 28.25 6.88301H31.8V3.33301H28.2167C26.8022 3.33301 25.4456 3.89491 24.4454 4.8951C23.4452 5.8953 22.8833 7.25185 22.8833 8.66634V9.88301C22.1743 10.1353 21.4789 10.4246 20.8 10.7497L20 9.88301C19.0002 8.88561 17.6456 8.32547 16.2333 8.32547C14.8211 8.32547 13.4665 8.88561 12.4667 9.88301L9.88334 12.3997C8.89797 13.4058 8.34611 14.758 8.34611 16.1663C8.34611 17.5746 8.89797 18.9269 9.88334 19.933L10.75 20.7997C10.4244 21.4783 10.1351 22.1737 9.88334 22.883H8.66668C7.25623 22.896 5.90724 23.4621 4.90986 24.4595C3.91247 25.4569 3.34638 26.8059 3.33334 28.2163V31.7663C3.34638 33.1768 3.91247 34.5258 4.90986 35.5232C5.90724 36.5205 7.25623 37.0866 8.66668 37.0997H9.88334C10.1357 37.8088 10.425 38.5042 10.75 39.183L9.88334 39.9997C8.88594 40.9995 8.32581 42.3541 8.32581 43.7663C8.32581 45.1786 8.88594 46.5332 9.88334 47.533L12.4 50.0497C13.402 51.043 14.7558 51.6004 16.1667 51.6004C17.5776 51.6004 18.9314 51.043 19.9333 50.0497L20.8 49.183C21.4789 49.5081 22.1743 49.7973 22.8833 50.0497V51.2663C22.8894 52.6792 23.4523 54.0326 24.45 55.033C24.9432 55.53 25.5301 55.9244 26.1766 56.1933C26.8231 56.4622 27.5165 56.6003 28.2167 56.5997H31.7667V53.1163H28.2167C27.7463 53.1087 27.2976 52.9173 26.9667 52.583Z" fill="#15D4EC"/>
<path d="M51.3333 46.0004C50.2825 46.0013 49.2557 46.3146 48.3833 46.9004L38.1833 39.2504C37.8753 39.0208 37.5008 38.898 37.1167 38.9004H30C28.5855 38.9004 27.229 38.3385 26.2288 37.3383C25.2286 36.3381 24.6667 34.9815 24.6667 33.567V26.4504C24.6667 25.0359 25.2286 23.6793 26.2288 22.6791C27.229 21.6789 28.5855 21.117 30 21.117H37.1167C37.5008 21.1195 37.8753 20.9966 38.1833 20.767L48.3333 13.1004C49.3171 13.7697 50.4965 14.0908 51.6838 14.0126C52.8711 13.9344 53.9982 13.4613 54.8857 12.6688C55.7732 11.8762 56.3702 10.8096 56.5817 9.6387C56.7932 8.46776 56.607 7.25973 56.0528 6.20678C55.4987 5.15383 54.6083 4.31644 53.5233 3.82783C52.4384 3.33922 51.2212 3.22745 50.0655 3.51031C48.9097 3.79317 47.8817 4.4544 47.145 5.38882C46.4083 6.32324 46.0053 7.47717 46 8.66705C46.0074 9.20535 46.0974 9.73933 46.2667 10.2504L36.5167 17.567H30C27.644 17.567 25.3845 18.503 23.7185 20.1689C22.0526 21.8349 21.1167 24.0944 21.1167 26.4504V33.567C21.1167 35.9231 22.0526 38.1826 23.7185 39.8485C25.3845 41.5145 27.644 42.4504 30 42.4504H36.5167L46.2667 49.767C46.0974 50.2781 46.0074 50.8121 46 51.3504C46 52.4052 46.3128 53.4364 46.8988 54.3134C47.4849 55.1905 48.3178 55.8741 49.2924 56.2777C50.2669 56.6814 51.3393 56.787 52.3738 56.5812C53.4084 56.3754 54.3587 55.8675 55.1046 55.1216C55.8505 54.3757 56.3584 53.4254 56.5642 52.3909C56.77 51.3563 56.6644 50.2839 56.2607 49.3094C55.857 48.3349 55.1734 47.5019 54.2964 46.9159C53.4193 46.3298 52.3882 46.017 51.3333 46.017V46.0004ZM51.3333 6.88371C51.686 6.88371 52.0308 6.9883 52.3241 7.18426C52.6174 7.38021 52.8459 7.65873 52.9809 7.98459C53.1159 8.31046 53.1512 8.66903 53.0824 9.01496C53.0136 9.36089 52.8437 9.67865 52.5943 9.92805C52.3449 10.1775 52.0272 10.3473 51.6812 10.4161C51.3353 10.4849 50.9767 10.4496 50.6509 10.3146C50.325 10.1797 50.0465 9.95108 49.8505 9.65781C49.6546 9.36455 49.55 9.01976 49.55 8.66705C49.55 8.19408 49.7379 7.74048 50.0723 7.40604C50.4068 7.0716 50.8604 6.88371 51.3333 6.88371ZM51.3333 53.1004C50.9806 53.1004 50.6358 52.9958 50.3426 52.7998C50.0493 52.6039 49.8207 52.3254 49.6858 51.9995C49.5508 51.6736 49.5155 51.3151 49.5843 50.9691C49.6531 50.6232 49.8229 50.3054 50.0723 50.056C50.3217 49.8066 50.6395 49.6368 50.9854 49.568C51.3314 49.4992 51.6899 49.5345 52.0158 49.6695C52.3416 49.8044 52.6202 50.033 52.8161 50.3263C53.0121 50.6195 53.1167 50.9643 53.1167 51.317C53.1189 51.5526 53.0744 51.7863 52.9857 52.0046C52.8971 52.2229 52.7661 52.4215 52.6003 52.5888C52.4345 52.7562 52.2371 52.8891 52.0197 52.9797C51.8022 53.0704 51.5689 53.1171 51.3333 53.117V53.1004Z" fill="#15D4EC"/>
<path d="M51.3333 24.6671C50.2354 24.6701 49.1652 25.0129 48.27 25.6486C47.3747 26.2842 46.6982 27.1815 46.3333 28.2171H30V31.7671H46.3333C46.6629 32.6831 47.2378 33.4911 47.9951 34.1029C48.7525 34.7147 49.6633 35.1068 50.6282 35.2364C51.5931 35.366 52.5751 35.2282 53.467 34.838C54.359 34.4478 55.1267 33.8201 55.6863 33.0235C56.246 32.2269 56.5762 31.2919 56.6409 30.3204C56.7056 29.349 56.5024 28.3785 56.0533 27.5146C55.6042 26.6508 54.9266 25.9269 54.0943 25.4218C53.2619 24.9167 52.3069 24.6499 51.3333 24.6504V24.6671ZM51.3333 31.7837C50.9806 31.7837 50.6358 31.6791 50.3426 31.4832C50.0493 31.2872 49.8207 31.0087 49.6857 30.6828C49.5508 30.357 49.5155 29.9984 49.5843 29.6525C49.6531 29.3065 49.8229 28.9888 50.0723 28.7394C50.3217 28.49 50.6395 28.3201 50.9854 28.2513C51.3314 28.1825 51.6899 28.2178 52.0158 28.3528C52.3416 28.4878 52.6202 28.7164 52.8161 29.0096C53.0121 29.3029 53.1167 29.6477 53.1167 30.0004C53.1167 30.4734 52.9288 30.927 52.5943 31.2614C52.2599 31.5958 51.8063 31.7837 51.3333 31.7837Z" fill="#15D4EC"/>
</svg>
