<svg width="60" height="60" viewBox="0 0 60 60" fill="none" xmlns="http://www.w3.org/2000/svg">
<path fill-rule="evenodd" clip-rule="evenodd" d="M58.125 7.5C58.125 6.0075 57.5325 4.57687 56.4769 3.52312C55.4231 2.4675 53.9925 1.875 52.5 1.875C42.8363 1.875 17.1637 1.875 7.5 1.875C6.0075 1.875 4.57687 2.4675 3.52312 3.52312C2.4675 4.57687 1.875 6.0075 1.875 7.5V52.5C1.875 53.9925 2.4675 55.4231 3.52312 56.4769C4.57687 57.5325 6.0075 58.125 7.5 58.125H52.5C53.9925 58.125 55.4231 57.5325 56.4769 56.4769C57.5325 55.4231 58.125 53.9925 58.125 52.5V7.5ZM16.875 5.625H7.5C7.00313 5.625 6.525 5.82187 6.17437 6.17437C5.82187 6.525 5.625 7.00313 5.625 7.5V52.5C5.625 52.9969 5.82187 53.475 6.17437 53.8256C6.525 54.1781 7.00313 54.375 7.5 54.375H52.5C52.9969 54.375 53.475 54.1781 53.8256 53.8256C54.1781 53.475 54.375 52.9969 54.375 52.5V7.5C54.375 7.00313 54.1781 6.525 53.8256 6.17437C53.475 5.82187 52.9969 5.625 52.5 5.625H43.125V22.5C43.125 23.145 42.795 23.7431 42.2494 24.0862C41.7038 24.4294 41.0213 24.4688 40.44 24.1913L29.925 19.1569L19.5694 24.1875C18.9881 24.4687 18.3019 24.4312 17.7544 24.09C17.2069 23.7469 16.875 23.1469 16.875 22.5V5.625ZM20.625 5.625V19.5056L29.1 15.3881C29.6138 15.1387 30.2137 15.1369 30.7294 15.3844L39.375 19.5225V5.625H20.625Z" fill="#15D4EC"/>
<path fill-rule="evenodd" clip-rule="evenodd" d="M31.7288 23.9929C31.4794 23.2204 30.7594 22.6973 29.9456 22.6973C29.1338 22.6973 28.4138 23.2204 28.1625 23.9929L25.6369 31.7666H17.4638C16.6519 31.7666 15.9319 32.2879 15.6806 33.0623C15.4294 33.8348 15.705 34.6804 16.3613 35.1585L22.9744 39.9623L20.4488 47.736C20.1975 48.5085 20.4731 49.3541 21.1294 49.8323C21.7875 50.3085 22.6763 50.3085 23.3344 49.8323L29.9456 45.0266L36.5588 49.8323C37.2169 50.3085 38.1056 50.3085 38.7638 49.8323C39.42 49.3541 39.6956 48.5085 39.4444 47.736L36.9188 39.9623L43.5319 35.1585C44.1881 34.6804 44.4638 33.8348 44.2125 33.0623C43.9613 32.2879 43.2413 31.7666 42.4294 31.7666H34.2544L31.7288 23.9929ZM29.9456 30.6398L31.11 34.221C31.3613 34.9935 32.0813 35.5166 32.8931 35.5166H36.6581L33.6113 37.7291C32.955 38.2073 32.6794 39.0529 32.9306 39.8254L34.095 43.4066L31.0481 41.1923C30.3919 40.716 29.5013 40.716 28.845 41.1923L25.7981 43.4066L26.9625 39.8254C27.2119 39.0529 26.9381 38.2073 26.28 37.7291L23.235 35.5166H27C27.8119 35.5166 28.5319 34.9935 28.7831 34.221L29.9456 30.6398Z" fill="#15D4EC"/>
</svg>
