<svg width="60" height="60" viewBox="0 0 60 60" fill="none" xmlns="http://www.w3.org/2000/svg">
<g clip-path="url(#clip0_345_42)">
<path d="M58.4565 24.733C57.4595 23.7359 56.134 23.1869 54.7241 23.1869C53.3142 23.1869 51.9887 23.7359 50.992 24.7326L48.8036 26.9199V6.16086C48.8036 2.79875 46.0683 0.0634766 42.7062 0.0634766H6.0975C2.73527 0.0634766 0 2.79875 0 6.16086C0 8.65766 1.50914 10.8077 3.6627 11.7495V59.9369H48.8037V41.8556L58.4565 32.1977C60.5145 30.1396 60.5145 26.791 58.4565 24.733ZM30.9258 44.7887V44.8085L27.9894 46.5037V34.5357L38.3539 28.5518V37.3643L30.9258 44.7887ZM26.2331 31.4937L15.8685 25.5098L26.2331 19.5259L36.5977 25.5098L26.2331 31.4937ZM14.1123 28.5518L24.4768 34.5357V46.5037L14.1123 40.5198V28.5518ZM34.4384 46.244L35.6037 45.0793L38.1101 47.5857L36.9454 48.751H34.4384V46.244ZM40.5932 45.1014L38.0879 42.5963L49.4817 31.2084L51.981 33.7078L40.5932 45.1014ZM6.0975 3.57605H37.1841C36.815 4.36121 36.6087 5.23754 36.6087 6.16086C36.6087 7.0843 36.815 7.96062 37.1841 8.74578H6.0975C4.67215 8.74578 3.51258 7.58621 3.51258 6.16086C3.51258 4.73562 4.67215 3.57605 6.0975 3.57605ZM45.291 56.4243H7.17516V12.2582H42.7059V8.74578C41.2807 8.74578 40.1211 7.58621 40.1211 6.16086C40.1211 4.73562 41.2807 3.57605 42.7061 3.57605C44.1313 3.57605 45.2909 4.73562 45.2909 6.16086V30.4307L41.8663 33.8536V24.4959L26.2329 15.47L10.5997 24.4958V42.5476L26.2331 51.5735L30.9258 48.8642V52.2636H38.4008L45.291 45.3698V56.4243ZM55.9724 29.7143L54.4642 31.2233L51.9661 28.7252L53.4754 27.2166C53.809 26.8831 54.2523 26.6994 54.724 26.6994C55.1957 26.6994 55.6391 26.883 55.9726 27.2166C56.6612 27.9052 56.6612 29.0255 55.9724 29.7143Z" fill="#15D4EC"/>
</g>
<defs>
<clipPath id="clip0_345_42">
<rect width="60" height="60" fill="white"/>
</clipPath>
</defs>
</svg>
