<svg width="60" height="60" viewBox="0 0 60 60" fill="none" xmlns="http://www.w3.org/2000/svg">
<g clip-path="url(#clip0_345_28)">
<path d="M45.0201 60C46.1386 59.9988 47.2109 59.5539 48.0018 58.763C48.7927 57.9721 49.2376 56.8998 49.2388 55.7812V4.21875C49.2376 3.10025 48.7927 2.02791 48.0018 1.23701C47.2109 0.446113 46.1386 0.00124071 45.0201 0L14.98 0C13.8615 0.00124071 12.7891 0.446113 11.9982 1.23701C11.2073 2.02791 10.7625 3.10025 10.7612 4.21875V55.7812C10.7625 56.8998 11.2073 57.9721 11.9982 58.763C12.7891 59.5539 13.8615 59.9988 14.98 60H45.0201ZM37.5487 3.75L36.8523 5.89301H23.1476L22.4514 3.75H37.5487ZM14.5112 55.7812V4.21875C14.5129 4.09494 14.5628 3.97666 14.6503 3.88911C14.7379 3.80155 14.8562 3.75164 14.98 3.75H18.5084L19.6601 7.2948C19.8808 7.97803 20.3127 8.57356 20.8935 8.99557C21.4744 9.41758 22.1743 9.64428 22.8922 9.64301H37.1078C37.8258 9.64431 38.5256 9.4176 39.1065 8.99556C39.6874 8.57352 40.1192 7.97795 40.3398 7.29469L41.4917 3.75H45.0201C45.1439 3.75164 45.2622 3.80155 45.3497 3.88911C45.4373 3.97666 45.4872 4.09494 45.4888 4.21875V55.7812C45.4872 55.9051 45.4373 56.0233 45.3497 56.1109C45.2622 56.1984 45.1439 56.2484 45.0201 56.25H14.98C14.8562 56.2484 14.7379 56.1984 14.6503 56.1109C14.5628 56.0233 14.5129 55.9051 14.5112 55.7812ZM34.2756 52.303C34.2756 52.8003 34.0781 53.2772 33.7264 53.6288C33.3748 53.9805 32.8979 54.178 32.4006 54.178H27.5994C27.1022 54.178 26.6252 53.9805 26.2736 53.6288C25.922 53.2772 25.7244 52.8003 25.7244 52.303C25.7244 51.8057 25.922 51.3288 26.2736 50.9772C26.6252 50.6256 27.1022 50.428 27.5994 50.428H32.4006C32.8979 50.428 33.3748 50.6256 33.7264 50.9772C34.0781 51.3288 34.2756 51.8057 34.2756 52.303ZM21.3164 33.8313L21.9818 34.6099C22.3007 34.9614 22.471 35.4227 22.4569 35.8971V39.429C22.4572 39.9724 22.5975 40.5066 22.8644 40.9799C23.1312 41.4533 23.5156 41.8499 23.9803 42.1315V42.6948C23.9816 43.7762 24.4117 44.8129 25.1764 45.5776C25.941 46.3423 26.9778 46.7724 28.0592 46.7736H32.0575C33.1389 46.7724 34.1756 46.3423 34.9403 45.5776C35.7049 44.8129 36.1351 43.7762 36.1363 42.6948V42.0573C36.5692 41.7689 36.9241 41.3781 37.1697 40.9197C37.4153 40.4612 37.5439 39.9491 37.5441 39.429V35.8971C37.53 35.4227 37.7002 34.9614 38.0192 34.6099L38.6846 33.8313C40.779 31.3809 41.9588 28.3409 42.0068 25.2714C42.0403 23.6966 41.7544 22.1314 41.1663 20.6703C40.5782 19.2091 39.7 17.8823 38.5849 16.7699C36.3064 14.4965 33.2191 13.2198 30.0004 13.2198C26.7817 13.2198 23.6945 14.4965 21.4159 16.7699C20.3008 17.8823 19.4227 19.2091 18.8346 20.6703C18.2465 22.1315 17.9605 23.6966 17.994 25.2714C18.0417 28.341 19.2215 31.3809 21.3164 33.8313ZM33.7941 38.4825V38.8393H26.2064V38.4825H33.7941ZM32.0575 43.0236H28.0587C27.9722 43.0215 27.8898 42.9861 27.8286 42.9249C27.7674 42.8637 27.732 42.7813 27.7299 42.6948V42.5893H32.3858V42.6948C32.3837 42.7813 32.3483 42.8637 32.2871 42.9249C32.2259 42.9861 32.1435 43.0215 32.057 43.0236H32.0575ZM24.0675 19.4221C25.6423 17.8509 27.776 16.9685 30.0005 16.9685C32.225 16.9685 34.3587 17.8509 35.9335 19.4221C39.0484 22.537 39.0056 27.6844 35.834 31.3954L35.1686 32.1739C34.5339 32.9034 34.0996 33.7852 33.9082 34.733H31.875V27.095C31.875 26.5978 31.6775 26.1208 31.3258 25.7692C30.9742 25.4176 30.4973 25.22 30 25.22C29.5027 25.22 29.0258 25.4176 28.6742 25.7692C28.3226 26.1208 28.125 26.5978 28.125 27.095V34.7325H26.0923C25.9009 33.7847 25.4667 32.9029 24.8321 32.1735L24.1667 31.3949C20.9949 27.6839 20.9521 22.5366 24.0671 19.4216L24.0675 19.4221Z" fill="#15D4EC"/>
</g>
<defs>
<clipPath id="clip0_345_28">
<rect width="60" height="60" fill="white"/>
</clipPath>
</defs>
</svg>
