<svg width="30" height="30" viewBox="0 0 30 30" fill="none" xmlns="http://www.w3.org/2000/svg">
<g clip-path="url(#clip0_742_1395)">
<path d="M9.79686 0.219186L11.1469 2.62856C8.63904 3.88106 6.90467 6.28106 6.90467 9.08606H23.0953C23.0953 6.29231 21.3609 3.88294 18.855 2.62856L20.205 0.219186C20.205 0.219186 20.3015 0.122623 20.1084 0.0260609C20.0119 -0.0705016 19.9153 0.122623 19.9153 0.122623L18.4687 2.53294C17.3472 2.02877 16.1321 1.7662 14.9025 1.76231C13.6728 1.7662 12.4578 2.02877 11.3362 2.53294L9.89248 0.123561C9.89248 0.123561 9.79686 0.0279359 9.69936 0.0279359C9.70953 0.101148 9.74345 0.168997 9.79592 0.221061L9.79686 0.219186ZM11.1562 4.94044C11.5312 4.94044 11.9269 5.31544 11.9269 5.71106C11.9269 6.10669 11.5519 6.48169 11.1562 6.48169C11.0546 6.4832 10.9537 6.46431 10.8595 6.42612C10.7654 6.38793 10.6798 6.33122 10.6079 6.25935C10.5361 6.18749 10.4794 6.10193 10.4412 6.00775C10.403 5.91357 10.3841 5.81268 10.3856 5.71106C10.3841 5.60944 10.403 5.50855 10.4412 5.41437C10.4794 5.32019 10.5361 5.23463 10.6079 5.16277C10.6798 5.0909 10.7654 5.0342 10.8595 4.99601C10.9537 4.95782 11.0546 4.93892 11.1562 4.94044ZM18.8662 4.94044C19.2412 4.94044 19.6369 5.31544 19.6369 5.71106C19.6369 6.10669 19.2619 6.48169 18.8662 6.48169C18.7646 6.4832 18.6637 6.46431 18.5695 6.42612C18.4754 6.38793 18.3898 6.33122 18.3179 6.25935C18.2461 6.18749 18.1894 6.10193 18.1512 6.00775C18.113 5.91357 18.0941 5.81268 18.0956 5.71106C18.0941 5.60944 18.113 5.50855 18.1512 5.41437C18.1894 5.32019 18.2461 5.23463 18.3179 5.16277C18.3898 5.0909 18.4754 5.0342 18.5695 4.99601C18.6637 4.95782 18.7646 4.93892 18.8662 4.94044ZM6.80811 10.0498V22.3873C6.80811 22.9657 7.57873 23.8329 8.15811 23.8329H10.0856V28.0732C10.0856 29.1326 10.8562 30.0007 11.82 30.0007C12.7837 30.0007 13.5544 29.1336 13.5544 28.0732V23.8311H16.3481V28.0714C16.3481 29.1307 17.1187 29.9989 18.0825 29.9989C19.0462 29.9989 19.8169 29.1317 19.8169 28.0714V23.8311H21.7444C22.3228 23.8311 23.0944 23.0604 23.0944 22.3854V10.0498H6.80811Z" fill="white"/>
<path d="M4.10913 9.76123C5.07288 9.76123 5.84351 10.6284 5.84351 11.6887V19.0134C5.84351 20.0728 5.07288 20.9409 4.10913 20.9409C3.14538 20.9409 2.37476 20.0737 2.37476 19.0134V11.6887C2.37476 10.6294 3.14538 9.76123 4.10913 9.76123Z" fill="white"/>
<path d="M25.8911 9.76123C26.8549 9.76123 27.6255 10.6284 27.6255 11.6887V19.0134C27.6255 20.0728 26.8549 20.9409 25.8911 20.9409C24.9274 20.9409 24.1567 20.0737 24.1567 19.0134V11.6887C24.1567 10.6294 24.9274 9.76123 25.8911 9.76123Z" fill="white"/>
</g>
<defs>
<clipPath id="clip0_742_1395">
<rect width="30" height="30" fill="white"/>
</clipPath>
</defs>
</svg>
