<svg width="50" height="50" viewBox="0 0 50 50" fill="none" xmlns="http://www.w3.org/2000/svg">
<g clip-path="url(#clip0_3273_73)">
<path d="M4.40353 50.0003C3.27505 50.0003 2.14666 49.5711 1.28853 48.7117C-0.429186 46.9939 -0.429186 44.1993 1.28853 42.4816L24.7106 19.0579C25.2826 18.4859 26.2095 18.4859 26.7816 19.0579L30.942 23.2171C31.2167 23.4917 31.3712 23.8635 31.3712 24.2525C31.3712 24.6415 31.2167 25.0134 30.942 25.2879L7.51853 48.7116C6.6604 49.5711 5.53192 50.0003 4.40353 50.0003Z" fill="url(#paint0_linear_3273_73)"/>
<path d="M34.0358 29.8482C33.8434 29.8482 33.653 29.8104 33.4753 29.7367C33.2977 29.6631 33.1362 29.5552 33.0003 29.4191L20.5816 17.0005C20.0096 16.4284 20.0096 15.5016 20.5816 14.9295L28.8712 6.63998C29.4432 6.06792 30.3701 6.06792 30.9421 6.63998L43.3608 19.0586C43.9329 19.6306 43.9329 20.5575 43.3608 21.1295L35.0712 29.4192C34.9353 29.5552 34.7738 29.6631 34.5962 29.7367C34.4185 29.8103 34.2281 29.8482 34.0358 29.8482Z" fill="url(#paint1_linear_3273_73)"/>
<path d="M30.4915 30.4653C30.4917 30.6581 30.53 30.8489 30.6041 31.0268C30.6782 31.2048 30.7868 31.3663 30.9235 31.5022L35.0826 35.6327C35.3572 35.9052 35.7284 36.058 36.1152 36.0575C36.49 36.0575 36.8647 35.9145 37.1507 35.6284L49.5707 23.2084C49.8454 22.9337 49.9998 22.5619 49.9998 22.1729C49.9998 21.7839 49.8454 21.412 49.5707 21.1375L45.4402 17.0084C44.8724 16.4407 43.9528 16.4364 43.3764 17.0013L30.9207 29.427C30.6445 29.7016 30.4915 30.0763 30.4915 30.4653ZM32.9915 4.55967L28.8625 0.429156C28.7265 0.293097 28.5651 0.185164 28.3875 0.111526C28.2098 0.0378885 28.0193 -9.06609e-06 27.827 1.62683e-09C27.6347 9.06934e-06 27.4443 0.0379246 27.2666 0.111579C27.0889 0.185233 26.9275 0.293182 26.7916 0.429254L14.3714 12.8493C13.8008 13.42 13.7994 14.3439 14.3672 14.9175L18.4977 19.0766C18.6336 19.2133 18.7951 19.3218 18.973 19.396C19.151 19.4701 19.3418 19.5083 19.5346 19.5085H19.5374C19.9264 19.5085 20.2983 19.3541 20.5728 19.0794L32.9988 6.62352C33.5637 6.05 33.5609 5.12889 32.9915 4.55967ZM42.6674 41.2028H33.8801C29.8426 41.2028 26.5574 44.488 26.5574 48.5255C26.5574 49.335 27.2124 49.9901 28.0219 49.9901H48.5256C49.3351 49.9901 49.9902 49.335 49.9902 48.5255C49.9902 44.488 46.7049 41.2028 42.6674 41.2028Z" fill="url(#paint2_linear_3273_73)"/>
</g>
<defs>
<linearGradient id="paint0_linear_3273_73" x1="15.6856" y1="50.0002" x2="15.6856" y2="18.6289" gradientUnits="userSpaceOnUse">
<stop stop-color="#FD5900"/>
<stop offset="1" stop-color="#FFDE00"/>
</linearGradient>
<linearGradient id="paint1_linear_3273_73" x1="31.9712" y1="29.8482" x2="31.9712" y2="6.21096" gradientUnits="userSpaceOnUse">
<stop stop-color="#FFEDAD"/>
<stop offset="1" stop-color="#FFFFE5"/>
</linearGradient>
<linearGradient id="paint2_linear_3273_73" x1="31.9711" y1="49.9901" x2="31.9711" y2="0.000143022" gradientUnits="userSpaceOnUse">
<stop stop-color="#FD5900"/>
<stop offset="1" stop-color="#FFDE00"/>
</linearGradient>
<clipPath id="clip0_3273_73">
<rect width="50" height="50" fill="white"/>
</clipPath>
</defs>
</svg>
