<svg width="50" height="50" viewBox="0 0 50 50" fill="none" xmlns="http://www.w3.org/2000/svg">
<g clip-path="url(#clip0_3534_3813)">
<path d="M34.7246 46.9212L34.7247 46.9216C34.7324 46.9546 34.7328 46.957 34.7246 46.9212ZM47.0676 11.8159V3.02734H2.92969V11.8159H5.95685V20.6044H2.92969V29.3929H10.644C10.488 30.3333 10.3511 31.3069 10.3511 32.3224C10.3511 33.0755 10.4791 34.193 10.6149 34.8711L8.12469 36.4237C7.50959 36.8045 7.24583 37.5662 7.53878 38.2108L8.82777 41.3451C9.12082 42.019 9.85319 42.3706 10.4976 42.1948L13.6616 41.4917C14.3352 42.3119 15.1263 43.1712 15.9758 43.8743L15.2727 46.9211C15.0969 47.5948 15.4778 48.3271 16.1221 48.5907L19.2567 49.8797C19.9013 50.1727 20.663 49.909 21.0438 49.3231L22.5964 46.8331C23.3824 46.9902 24.1838 47.0675 24.9986 47.0675C25.8134 47.0675 26.615 46.9903 27.4008 46.8331L28.9533 49.294C29.3341 49.9091 30.0958 50.1728 30.7404 49.8798L33.875 48.5908C34.5193 48.3273 34.9001 47.5952 34.7245 46.9215L34.0214 43.8743C34.8708 43.1712 35.6619 42.3119 36.3356 41.4917C36.0425 41.4265 39.2064 42.1295 39.4995 42.1948C40.1439 42.3706 40.8763 42.019 41.1694 41.3451L42.4583 38.2108C42.7512 37.5662 42.4874 36.8045 41.8724 36.4237L39.3823 34.8711C39.518 34.1931 39.646 33.0756 39.646 32.3224C39.646 31.2992 39.5071 30.3209 39.3532 29.3929H47.0674V20.6044H44.0403V11.8159H47.0676ZM24.9987 38.1815C21.7763 38.1815 19.1396 35.5448 19.1396 32.3224C19.1396 31.2385 19.4619 30.2718 19.96 29.3929H30.0373C30.5354 30.2718 30.8577 31.2385 30.8577 32.3224C30.8577 35.5448 28.221 38.1815 24.9987 38.1815Z" fill="url(#paint0_linear_3534_3813)"/>
<path d="M48.5322 17.6747H1.46476C0.655136 17.6747 0 18.3298 0 19.1395V30.8575C0 31.6671 0.655136 32.3223 1.46476 32.3223H48.5322C49.3418 32.3223 49.997 31.6671 49.997 30.8575V19.1395C49.997 18.3298 49.3418 17.6747 48.5322 17.6747ZM7.42143 26.4632C6.61249 26.4632 5.95667 25.8074 5.95667 24.9985C5.95667 24.1894 6.61249 23.5337 7.42143 23.5337C8.23036 23.5337 8.88618 24.1894 8.88618 24.9985C8.88618 25.8074 8.23026 26.4632 7.42143 26.4632ZM13.2804 26.4632C12.4715 26.4632 11.8157 25.8074 11.8157 24.9985C11.8157 24.1894 12.4715 23.5337 13.2804 23.5337C14.0894 23.5337 14.7452 24.1894 14.7452 24.9985C14.7452 25.8074 14.0893 26.4632 13.2804 26.4632ZM19.1395 26.4632C18.3305 26.4632 17.6747 25.8074 17.6747 24.9985C17.6747 24.1894 18.3305 23.5337 19.1395 23.5337C19.9484 23.5337 20.6042 24.1894 20.6042 24.9985C20.6042 25.8074 19.9483 26.4632 19.1395 26.4632ZM42.5755 26.4632H24.9985C24.1889 26.4632 23.5337 25.8081 23.5337 24.9985C23.5337 24.1889 24.1889 23.5337 24.9985 23.5337H42.5755C43.3852 23.5337 44.0403 24.1889 44.0403 24.9985C44.0403 25.8081 43.3852 26.4632 42.5755 26.4632ZM48.5322 0H1.46476C0.655136 0 0 0.655136 0 1.46476V13.2804C0 14.0901 0.655136 14.7452 1.46476 14.7452H48.5322C49.3418 14.7452 49.997 14.0901 49.997 13.2804V1.46476C49.997 0.655136 49.3418 0 48.5322 0ZM7.42143 8.88618C6.61249 8.88618 5.95667 8.23036 5.95667 7.42143C5.95667 6.61229 6.61249 5.95667 7.42143 5.95667C8.23036 5.95667 8.88618 6.61229 8.88618 7.42143C8.88618 8.23036 8.23026 8.88618 7.42143 8.88618ZM13.2804 8.88618C12.4715 8.88618 11.8157 8.23036 11.8157 7.42143C11.8157 6.61229 12.4715 5.95667 13.2804 5.95667C14.0894 5.95667 14.7452 6.61229 14.7452 7.42143C14.7452 8.23036 14.0893 8.88618 13.2804 8.88618ZM19.1395 8.88618C18.3305 8.88618 17.6747 8.23036 17.6747 7.42143C17.6747 6.61229 18.3305 5.95667 19.1395 5.95667C19.9484 5.95667 20.6042 6.61229 20.6042 7.42143C20.6042 8.23036 19.9483 8.88618 19.1395 8.88618ZM42.5755 8.88618H24.9985C24.1889 8.88618 23.5337 8.23104 23.5337 7.42143C23.5337 6.61181 24.1889 5.95667 24.9985 5.95667H42.5755C43.3852 5.95667 44.0403 6.61181 44.0403 7.42143C44.0403 8.23104 43.3852 8.88618 42.5755 8.88618Z" fill="url(#paint1_linear_3534_3813)"/>
</g>
<defs>
<linearGradient id="paint0_linear_3534_3813" x1="24.9987" y1="50.0002" x2="24.9987" y2="3.02734" gradientUnits="userSpaceOnUse">
<stop stop-color="#FFBEF9"/>
<stop offset="1" stop-color="#FFF1FF"/>
</linearGradient>
<linearGradient id="paint1_linear_3534_3813" x1="24.9985" y1="32.3223" x2="24.9985" y2="0" gradientUnits="userSpaceOnUse">
<stop stop-color="#A93AFF"/>
<stop offset="1" stop-color="#FF81FF"/>
</linearGradient>
<clipPath id="clip0_3534_3813">
<rect width="50" height="50" fill="white"/>
</clipPath>
</defs>
</svg>
