<svg width="50" height="50" viewBox="0 0 50 50" fill="none" xmlns="http://www.w3.org/2000/svg">
<g clip-path="url(#clip0_3533_3805)">
<path d="M48.647 30.7465L46.6615 29.2745C46.899 27.8568 46.9962 26.4221 46.9504 24.9987C46.9962 23.5754 46.899 22.1405 46.6615 20.7229L48.647 19.251C48.9096 19.0564 49.0995 18.7797 49.1866 18.4647C49.2738 18.1497 49.253 17.8147 49.1277 17.5129L46.8875 12.0998C46.63 11.479 45.9662 11.1156 45.3197 11.2114L42.8706 11.5748C41.4573 9.58779 39.7436 7.87402 37.7637 6.46357L38.2131 3.92206C38.3132 3.2583 37.947 2.61171 37.3262 2.35419L31.9131 0.112592C31.2922 -0.146294 30.577 0.0525337 30.1764 0.593256L28.6141 2.67558C26.2165 2.26933 23.7904 2.2707 21.3871 2.67412L19.8248 0.593256C19.6309 0.330317 19.3544 0.140042 19.0396 0.0528944C18.7247 -0.0342531 18.3897 -0.0132319 18.0882 0.112592L12.6751 2.35419C12.0543 2.61171 11.6881 3.2583 11.7882 3.92206L12.2376 6.46357C10.2521 7.87978 8.53832 9.59355 7.12787 11.5763L4.68168 11.2115C4.01508 11.1185 3.36849 11.4776 3.11381 12.0999L0.873669 17.5129C0.748367 17.8147 0.727616 18.1497 0.814717 18.4647C0.901819 18.7797 1.09177 19.0564 1.35433 19.251L3.33988 20.7216C3.10238 22.1464 3.00511 23.5826 3.05092 24.9502C3.00532 26.3981 3.1021 27.8471 3.33988 29.2761L1.35433 30.7467C1.09175 30.9412 0.901795 31.218 0.814692 31.5329C0.727589 31.8479 0.74835 32.183 0.873669 32.4848L3.11381 37.8978C3.3684 38.5186 4.01215 38.8706 4.68168 38.7862L7.12787 38.4215C8.53832 40.4042 10.2521 42.118 12.2376 43.5342L11.7795 46.078C11.6794 46.7418 12.0456 47.3884 12.6664 47.6459L18.0795 49.8875C18.381 50.0137 18.7161 50.0349 19.031 49.9477C19.346 49.8605 19.6225 49.67 19.8161 49.4068L21.3872 47.3236C23.7962 47.727 26.2166 47.7285 28.6142 47.3222L30.1853 49.4068C30.3797 49.6691 30.6562 49.8589 30.9709 49.946C31.2856 50.0331 31.6203 50.0125 31.9219 49.8875L37.335 47.6459C37.9558 47.3884 38.322 46.7418 38.2219 46.078L37.7638 43.5342C39.7436 42.1237 41.4574 40.41 42.8707 38.4229L45.3198 38.7863C45.9721 38.875 46.6301 38.5174 46.8876 37.8979L49.1278 32.4849C49.253 32.183 49.2738 31.8479 49.1866 31.5329C49.0995 31.2179 48.9096 30.9411 48.647 30.7465Z" fill="url(#paint0_linear_3533_3805)"/>
<path d="M25 8.88477C16.1229 8.88477 8.88672 16.121 8.88672 24.998C8.88672 33.8749 16.1229 41.1113 25 41.1113C33.8771 41.1113 41.1133 33.8749 41.1133 24.998C41.1133 16.121 33.8771 8.88477 25 8.88477ZM20.1659 26.9022C20.7519 27.4589 20.7519 28.3964 20.1659 28.953C19.639 29.539 18.6425 29.5392 18.1152 28.953L15.1855 26.0233C14.5996 25.4667 14.5996 24.5292 15.1855 23.9725L18.1152 21.0428C18.6719 20.4569 19.6092 20.4569 20.1659 21.0428C20.7519 21.5994 20.7519 22.5369 20.1659 23.0936L18.291 24.9979L20.1659 26.9022ZM27.168 22.4199L25.7031 28.2793C25.4535 29.2362 24.3725 29.5625 23.916 29.334C23.1249 29.1582 22.6563 28.3671 22.832 27.5763L24.2969 21.7169C24.502 20.9258 25.2929 20.4571 26.084 20.662C26.8751 20.8378 27.3438 21.6288 27.168 22.4199ZM34.8144 26.0233L31.8847 28.953C31.3577 29.539 30.3612 29.5392 29.834 28.953C29.248 28.3964 29.248 27.4589 29.834 26.9022L31.7089 24.998L29.834 23.0937C29.248 22.537 29.248 21.5995 29.834 21.0429C30.3906 20.457 31.3279 20.457 31.8847 21.0429L34.8144 23.9726C35.4004 24.5292 35.4004 25.4667 34.8144 26.0233Z" fill="url(#paint1_linear_3533_3805)"/>
</g>
<defs>
<linearGradient id="paint0_linear_3533_3805" x1="25.0006" y1="50" x2="25.0006" y2="-5.96046e-06" gradientUnits="userSpaceOnUse">
<stop stop-color="#A93AFF"/>
<stop offset="1" stop-color="#FF81FF"/>
</linearGradient>
<linearGradient id="paint1_linear_3533_3805" x1="25" y1="41.1113" x2="25" y2="8.88477" gradientUnits="userSpaceOnUse">
<stop stop-color="#FFBEF9"/>
<stop offset="1" stop-color="#FFF1FF"/>
</linearGradient>
<clipPath id="clip0_3533_3805">
<rect width="50" height="50" fill="white"/>
</clipPath>
</defs>
</svg>
