<svg width="142" height="142" viewBox="0 0 142 142" fill="none" xmlns="http://www.w3.org/2000/svg">
<g clip-path="url(#clip0_3273_4)">
<mask id="mask0_3273_4" style="mask-type:luminance" maskUnits="userSpaceOnUse" x="0" y="0" width="142" height="142">
<path d="M142 0H0V142H142V0Z" fill="white"/>
</mask>
<g mask="url(#mask0_3273_4)">
<path d="M32.0625 11.8045C32.5809 11.3803 33.2177 10.9129 33.9597 10.4736C35.3008 9.67582 36.441 9.41865 37.4272 9.63265C38.4227 9.83914 39.2961 10.453 39.993 11.6224C40.6955 12.8032 40.9059 13.9858 40.626 15.052C40.3518 16.1295 39.4539 17.1582 38.047 17.9954C37.3821 18.3915 36.8035 18.6918 36.3001 18.919L32.0644 11.8064L32.0625 11.8045ZM36.8035 17.6425C37.0646 17.5449 37.4159 17.3515 37.7803 17.1338C39.777 15.9456 40.1959 14.1866 39.0332 12.2344C38.0282 10.5224 36.4166 10.0137 34.4424 11.1888C33.9597 11.476 33.6197 11.737 33.4055 11.9359L36.8035 17.6425Z" fill="black"/>
<path d="M45.9467 9.43917L42.9582 10.7738L44.1961 13.5427L47.5264 12.0559L47.8983 12.8875L43.5762 14.8172L40.1406 7.13589L44.2918 5.28125L44.6638 6.11283L41.5043 7.52446L42.59 9.95164L45.5785 8.61697L45.9448 9.43729L45.9467 9.43917Z" fill="black"/>
<path d="M51.1506 11.7565L45.9531 4.59137L47.0708 4.23096L49.5897 7.77316C50.2828 8.74366 50.8933 9.62217 51.4098 10.4913L51.4342 10.4838C51.361 9.48514 51.3685 8.36823 51.3892 7.20626L51.4699 2.8137L52.5763 2.45703L52.2927 11.3867L51.1506 11.7546V11.7565Z" fill="black"/>
<path d="M59.5849 5.54212L56.3805 6.20851L56.9985 9.17819L60.5692 8.43671L60.7552 9.32836L56.1194 10.2913L54.4062 2.05435L58.8581 1.12891L59.044 2.02056L55.6554 2.7245L56.1964 5.32812L59.401 4.66173L59.5831 5.54212H59.5849Z" fill="black"/>
<path d="M61.3359 0.760915L62.416 0.644531L63.2181 8.10438L66.7945 7.71956L66.8922 8.62624L62.2357 9.12744L61.3359 0.762793V0.760915Z" fill="black"/>
<path d="M74.9328 4.32003C74.8858 7.2165 73.0995 8.72198 70.9506 8.6882C68.7266 8.65253 67.1939 6.90489 67.2352 4.35758C67.2784 1.68637 68.9689 -0.0349882 71.2174 0.00255513C73.5165 0.0400984 74.9741 1.8234 74.9328 4.32003ZM68.3979 4.35195C68.3679 6.15027 69.3164 7.77589 71.0276 7.80405C72.752 7.83221 73.7513 6.2629 73.7832 4.35195C73.8095 2.67939 72.9643 0.916734 71.1535 0.888577C69.354 0.858542 68.428 2.50482 68.3979 4.35195Z" fill="black"/>
<path d="M77.3346 0.476774C77.8662 0.454248 78.5575 0.463634 79.4253 0.570632C80.4922 0.702034 81.2417 1.04556 81.6831 1.55239C82.0926 2.00479 82.2917 2.6449 82.1997 3.39013C82.1076 4.14663 81.8108 4.71354 81.3356 5.0946C80.6913 5.63147 79.7221 5.82669 78.6683 5.69905C78.3452 5.65963 78.0503 5.61082 77.8099 5.51884L77.3985 8.86395L76.3203 8.73067L77.3346 0.478651V0.476774ZM77.9188 4.63657C78.1461 4.72668 78.441 4.78862 78.8017 4.83367C80.1034 4.99323 80.9749 4.45824 81.1158 3.30566C81.2511 2.20377 80.5354 1.57492 79.3445 1.4285C78.873 1.37031 78.5086 1.36467 78.317 1.39095L77.9188 4.63657Z" fill="black"/>
<path d="M90.5835 7.7312C90.8183 6.5805 91.1 5.19515 91.3762 4.18336L91.3405 4.17397C90.8145 5.05624 90.2116 5.98356 89.5091 7.00098L87.0446 10.5789L86.2463 10.3724L85.9364 6.1525C85.8481 4.90419 85.7936 3.7685 85.8162 2.7417L85.7917 2.73606C85.5043 3.7441 85.0892 5.09378 84.6985 6.29517L83.5734 9.73038L82.5703 9.46945L85.2545 1.47461L86.5957 1.82188L86.9638 6.12059C87.0427 7.21123 87.0878 8.17797 87.0728 9.07713L87.1085 9.08651C87.5274 8.31875 88.0496 7.50031 88.6788 6.56736L91.1526 3.0045L92.4938 3.35177L90.8859 11.6263L89.8584 11.3598L90.5816 7.72932L90.5835 7.7312Z" fill="black"/>
<path d="M97.9756 10.274L94.942 9.04634L93.8018 11.8583L97.1829 13.2268L96.841 14.0715L92.4531 12.2957L95.6144 4.49609L99.8295 6.20244L99.4877 7.04716L96.2794 5.74816L95.2801 8.21288L98.3137 9.44055L97.9756 10.274Z" fill="black"/>
<path d="M98.1719 14.6662L102.216 7.28516L103.257 7.85394L103.578 12.8829C103.651 14.0486 103.653 15.0585 103.589 16.0065H103.617C104.07 14.974 104.54 14.0636 105.169 12.9148L106.861 9.82684L107.759 10.3187L103.715 17.6997L102.751 17.1722L102.458 12.1433C102.393 11.0395 102.363 9.92821 102.428 8.92392L102.389 8.91641C101.934 9.87752 101.47 10.7767 100.798 12.0025L99.0697 15.1561L98.1719 14.6643V14.6662Z" fill="black"/>
<path d="M110.974 13.5971L108.885 12.116L109.421 11.3633L114.505 14.9674L113.97 15.7202L111.872 14.2335L107.537 20.3436L106.641 19.7073L110.976 13.5971H110.974Z" fill="black"/>
<path d="M113.375 23.2776C113.52 23.8295 113.864 24.5015 114.406 25.0196C115.21 25.7855 116.086 25.8099 116.672 25.196C117.215 24.6273 117.2 23.9909 116.679 22.8909C116.022 21.59 115.898 20.49 116.717 19.6321C117.622 18.6841 119.08 18.7292 120.265 19.8574C120.889 20.4524 121.202 21.0269 121.326 21.4398L120.498 21.8735C120.402 21.575 120.169 21.0081 119.617 20.4825C118.785 19.6903 117.996 19.8855 117.598 20.3004C117.055 20.8692 117.158 21.5018 117.688 22.6281C118.338 24.0078 118.389 25.0046 117.536 25.8981C116.64 26.8367 115.167 26.9868 113.73 25.6165C113.142 25.0571 112.665 24.2725 112.547 23.7469L113.375 23.2776Z" fill="black"/>
<path d="M122.85 29.4476L120.718 26.9659L118.415 28.9426L120.791 31.7077L120.1 32.3009L117.016 28.7117L123.402 23.2285L126.364 26.675L125.673 27.2682L123.419 24.6458L121.4 26.3784L123.532 28.86L122.85 29.4457V29.4476Z" fill="black"/>
<path d="M127.822 28.7499C128.228 29.1366 128.727 29.7486 129.154 30.3624C129.815 31.316 130.069 32.0519 129.976 32.7539C129.911 33.3152 129.575 33.8389 129.039 34.2087C128.126 34.8413 127.121 34.6874 126.37 34.1299L126.34 34.1505C126.526 34.8113 126.254 35.4721 125.649 36.1328C124.841 37.0263 124.287 37.6533 124.12 37.9818L123.479 37.0583C123.596 36.8105 124.084 36.2436 124.811 35.4514C125.622 34.5842 125.726 33.9666 125.194 33.135L124.61 32.294L121.612 34.3702L120.992 33.4785L127.818 28.748L127.822 28.7499ZM125.29 31.8266L125.923 32.7389C126.584 33.6925 127.529 33.9347 128.318 33.3884C129.21 32.7689 129.152 31.8529 128.508 30.903C128.209 30.4732 127.953 30.1935 127.813 30.0771L125.288 31.8266H125.29Z" fill="black"/>
<path d="M125.75 40.8993L131.868 34.5L132.424 35.5343L129.39 38.6485C128.56 39.5045 127.805 40.2629 127.042 40.9274L127.054 40.9499C128.025 40.6984 129.125 40.5051 130.271 40.3155L134.61 39.604L135.159 40.6271L126.317 41.9561L125.75 40.9011V40.8993Z" fill="black"/>
<path d="M136.23 43.2117L128.512 46.5737L128.078 45.5788L135.796 42.2168L136.23 43.2117Z" fill="black"/>
<path d="M131.472 53.9006C131.154 53.5872 130.709 52.8945 130.378 51.924C129.616 49.677 130.463 47.5051 133.078 46.621C135.574 45.7763 137.839 46.8932 138.677 49.3654C139.013 50.3584 139.013 51.0567 138.964 51.3777L138.04 51.4134C138.097 50.9591 138.051 50.3547 137.826 49.6939C137.193 47.8261 135.576 46.9889 133.483 47.6985C131.532 48.3592 130.658 49.9079 131.316 51.847C131.528 52.474 131.875 53.0672 132.215 53.4144L131.472 53.9044V53.9006Z" fill="black"/>
<path d="M136.336 58.7751L135.628 55.582L132.664 56.2372L133.453 59.7963L132.563 59.9934L131.539 55.3737L139.759 53.5547L140.741 57.9904L139.851 58.1875L139.103 54.8124L136.506 55.3868L137.214 58.5799L136.336 58.7732V58.7751Z" fill="black"/>
<path d="M134.086 61.1624C133.846 61.6805 133.681 62.4163 133.769 63.1615C133.9 64.2653 134.56 64.8397 135.403 64.7402C136.185 64.6483 136.579 64.1489 136.88 62.9701C137.203 61.5491 137.809 60.6217 138.987 60.4828C140.289 60.3289 141.384 61.2938 141.577 62.9175C141.679 63.7735 141.553 64.4155 141.388 64.8134L140.471 64.6201C140.588 64.3291 140.77 63.7435 140.68 62.987C140.544 61.8457 139.812 61.4927 139.241 61.5603C138.459 61.6523 138.134 62.2061 137.824 63.4112C137.445 64.8885 136.85 65.6882 135.621 65.8346C134.331 65.9867 133.102 65.1645 132.867 63.1935C132.772 62.3882 132.903 61.4796 133.149 60.9991L134.086 61.1642V61.1624Z" fill="black"/>
<path d="M110.753 129.633C110.242 130.064 109.611 130.539 108.876 130.992C107.546 131.808 106.41 132.082 105.422 131.883C104.424 131.69 103.542 131.089 102.828 129.931C102.108 128.762 101.881 127.581 102.146 126.511C102.403 125.43 103.288 124.388 104.682 123.53C105.341 123.125 105.914 122.817 106.416 122.582L110.755 129.633H110.753ZM105.927 123.862C105.666 123.964 105.32 124.163 104.958 124.384C102.978 125.601 102.584 127.367 103.775 129.302C104.804 130.999 106.423 131.485 108.38 130.282C108.859 129.987 109.196 129.723 109.406 129.52L105.925 123.862H105.927Z" fill="black"/>
<path d="M96.8911 132.199L99.8589 130.821L98.5816 128.069L95.2738 129.605L94.8906 128.779L99.1846 126.787L102.729 134.418L98.6042 136.331L98.221 135.505L101.36 134.048L100.24 131.636L97.2724 133.014L96.893 132.199H96.8911Z" fill="black"/>
<path d="M91.6733 129.955L96.9741 137.043L95.862 137.419L93.2905 133.914C92.5824 132.955 91.9588 132.084 91.4291 131.222L91.4047 131.23C91.4929 132.228 91.5005 133.345 91.4986 134.505L91.4835 138.9L90.3828 139.271L90.535 130.338L91.6714 129.953L91.6733 129.955Z" fill="black"/>
<path d="M83.3184 136.294L86.5135 135.583L85.8523 132.622L82.2928 133.416L82.0938 132.527L86.7145 131.496L88.5478 139.709L84.1092 140.698L83.91 139.808L87.2874 139.055L86.7088 136.459L83.5137 137.171L83.3184 136.294Z" fill="black"/>
<path d="M81.6376 141.1L80.5594 141.231L79.6503 133.784L76.0795 134.22L75.9688 133.315L80.6176 132.748L81.6376 141.1Z" fill="black"/>
<path d="M68.0478 137.805C68.0008 134.908 69.7365 133.345 71.8853 133.309C74.1093 133.273 75.6984 134.97 75.7398 137.516C75.783 140.187 74.1507 141.961 71.9022 141.999C69.6031 142.036 68.0891 140.3 68.0478 137.803V137.805ZM74.5789 137.561C74.5489 135.763 73.5496 134.169 71.8384 134.197C70.114 134.225 69.1654 135.826 69.1974 137.736C69.2237 139.408 70.1272 141.141 71.9379 141.113C73.7374 141.082 74.609 139.408 74.5789 137.561Z" fill="black"/>
<path d="M65.6483 141.61C65.1167 141.64 64.4254 141.642 63.5576 141.548C62.4888 141.432 61.7337 141.099 61.2867 140.598C60.8697 140.152 60.663 139.513 60.7438 138.77C60.8265 138.013 61.1138 137.441 61.5834 137.052C62.2202 136.506 63.1857 136.296 64.2414 136.41C64.5644 136.446 64.8612 136.489 65.1016 136.579L65.4642 133.229L66.5442 133.345L65.6483 141.61ZM65.004 137.46C64.7748 137.371 64.4799 137.315 64.1193 137.276C62.8157 137.135 61.9516 137.681 61.8276 138.836C61.7074 139.939 62.4325 140.559 63.6252 140.688C64.0967 140.739 64.4611 140.741 64.6527 140.711L65.004 137.46Z" fill="black"/>
<path d="M52.2955 134.547C52.0776 135.701 51.8147 137.09 51.5536 138.106L51.5893 138.115C52.1021 137.225 52.6919 136.289 53.3793 135.262L55.7931 131.648L56.5933 131.844L56.9652 136.06C57.0722 137.306 57.1417 138.442 57.1361 139.469L57.1605 139.474C57.4348 138.461 57.8292 137.105 58.2012 135.898L59.2756 132.446L60.2824 132.692L57.7147 140.726L56.3678 140.398L55.9377 136.103C55.8438 135.014 55.7837 134.047 55.7856 133.148L55.7499 133.139C55.3423 133.912 54.8313 134.74 54.2152 135.68L51.7921 139.279L50.4453 138.95L51.933 130.652L52.9642 130.903L52.2936 134.543L52.2955 134.547Z" fill="black"/>
<path d="M44.8701 132.115L47.9206 133.298L49.0176 130.469L45.6177 129.151L45.9483 128.301L50.3625 130.011L47.3176 137.856L43.0781 136.213L43.4087 135.363L46.6339 136.613L47.5956 134.133L44.5451 132.951L44.8701 132.113V132.115Z" fill="black"/>
<path d="M44.6112 127.724L40.676 135.163L39.626 134.61L39.2315 129.586C39.1414 128.422 39.1245 127.413 39.1733 126.463H39.1451C38.7075 127.503 38.251 128.419 37.6387 129.577L35.9913 132.689L35.0859 132.211L39.0211 124.771L39.9923 125.286L40.3586 130.309C40.4393 131.411 40.4863 132.524 40.4356 133.526L40.475 133.532C40.9164 132.565 41.3672 131.659 42.0209 130.424L43.7021 127.245L44.6075 127.724H44.6112Z" fill="black"/>
<path d="M31.8236 128.981L33.933 130.432L33.4089 131.192L28.2734 127.661L28.7975 126.901L30.9182 128.358L35.1652 122.186L36.0706 122.809L31.8236 128.981Z" fill="black"/>
<path d="M29.2843 119.333C29.1302 118.783 28.779 118.115 28.2286 117.606C27.4134 116.852 26.5381 116.84 25.9595 117.462C25.4242 118.038 25.4486 118.674 25.9858 119.767C26.662 121.058 26.801 122.157 25.9933 123.026C25.1011 123.987 23.6416 123.962 22.4432 122.851C21.8102 122.265 21.489 121.695 21.3594 121.284L22.1821 120.837C22.2817 121.133 22.524 121.698 23.0837 122.217C23.9271 122.997 24.7142 122.791 25.1049 122.371C25.6402 121.794 25.5275 121.162 24.9809 120.043C24.3103 118.672 24.2464 117.678 25.0861 116.771C25.9689 115.819 27.4397 115.648 28.8954 116.998C29.4909 117.55 29.9793 118.327 30.1051 118.851L29.2843 119.333Z" fill="black"/>
<path d="M19.7212 113.301L21.8889 115.751L24.1617 113.74L21.7461 111.011L22.4299 110.406L25.5668 113.95L19.261 119.524L16.25 116.12L16.9337 115.516L19.2254 118.106L21.2183 116.346L19.0507 113.896L19.725 113.301H19.7212Z" fill="black"/>
<path d="M14.76 114.072C14.3486 113.69 13.8396 113.086 13.4038 112.478C12.7276 111.534 12.4646 110.802 12.5454 110.098C12.6036 109.534 12.9323 109.007 13.4601 108.63C14.3636 107.984 15.3705 108.123 16.1312 108.671L16.1613 108.648C15.9659 107.99 16.2289 107.327 16.8243 106.655C17.6189 105.748 18.1636 105.114 18.327 104.783L18.9807 105.698C18.868 105.947 18.3871 106.52 17.6715 107.323C16.8713 108.202 16.7774 108.821 17.3221 109.645L17.9175 110.479L20.8835 108.359L21.5165 109.243L14.76 114.072ZM17.247 110.959L16.6008 110.056C15.9246 109.112 14.9779 108.883 14.1965 109.442C13.3118 110.075 13.385 110.989 14.0424 111.932C14.3467 112.358 14.606 112.634 14.7487 112.746L17.2488 110.959H17.247Z" fill="black"/>
<path d="M16.6551 101.893L10.6292 108.381L10.0582 107.356L13.0467 104.196C13.8638 103.327 14.6076 102.558 15.3609 101.882L15.3496 101.859C14.3822 102.126 13.2852 102.334 12.1413 102.541L7.81351 103.316L7.25 102.3L16.0728 100.844L16.6551 101.891V101.893Z" fill="black"/>
<path d="M6.13281 99.7228L13.8022 96.252L14.2512 97.2412L6.58175 100.712L6.13281 99.7228Z" fill="black"/>
<path d="M10.74 88.9766C11.0612 89.2863 11.5177 89.9715 11.8614 90.9363C12.656 93.172 11.8408 95.3552 9.2392 96.2787C6.75598 97.161 4.47375 96.076 3.6003 93.6169C3.24904 92.6295 3.23965 91.9293 3.28473 91.6102L4.2089 91.5614C4.15818 92.0157 4.21453 92.6201 4.44745 93.279C5.10864 95.1374 6.73532 95.9502 8.82032 95.2106C10.7626 94.5217 11.6135 92.9599 10.9279 91.0321C10.7062 90.4088 10.3512 89.8194 10.0037 89.4778L10.74 88.9784V88.9766Z" fill="black"/>
<path d="M5.80948 84.1712L6.56271 87.3548L9.5174 86.6565L8.67776 83.1087L9.56436 82.8984L10.6538 87.5031L2.46032 89.4404L1.41406 85.0178L2.30066 84.8075L3.09709 88.1714L5.6855 87.5594L4.93227 84.3776L5.8076 84.1712H5.80948Z" fill="black"/>
<path d="M8.02421 81.7484C8.25713 81.2265 8.41116 80.4888 8.3116 79.7455C8.16509 78.6436 7.49638 78.0785 6.65487 78.1893C5.87534 78.2925 5.4884 78.7975 5.20476 79.982C4.90234 81.4068 4.30877 82.3435 3.1329 82.4993C1.83306 82.672 0.722941 81.724 0.506927 80.104C0.392346 79.2499 0.508806 78.606 0.670347 78.2062L1.58888 78.3864C1.47617 78.6792 1.30336 79.2687 1.40292 80.0233C1.55506 81.1608 2.29327 81.5044 2.86242 81.4293C3.64195 81.326 3.95939 80.7666 4.25054 79.5577C4.60743 78.0748 5.19349 77.2657 6.41819 77.1024C7.70676 76.9316 8.9465 77.735 9.20947 79.7023C9.31654 80.5076 9.1982 81.4161 8.95964 81.9004L8.02045 81.7484H8.02421Z" fill="black"/>
</g>
<path d="M10.6367 40.2347C12.8111 41.1481 13.8333 43.6514 12.9199 45.8258C12.0064 48.0002 9.50321 49.0225 7.32877 48.109C5.15433 47.1956 4.1321 44.6923 5.04555 42.5179C5.959 40.3435 8.46223 39.3212 10.6367 40.2347Z" fill="#4842A8"/>
<path d="M129.245 98.6546C131.42 99.5681 132.442 102.071 131.528 104.246C130.615 106.42 128.112 107.442 125.937 106.529C123.763 105.615 122.74 103.112 123.654 100.938C124.567 98.7634 127.071 97.7412 129.245 98.6546Z" fill="#4842A8"/>
</g>
<defs>
<clipPath id="clip0_3273_4">
<rect width="142" height="142" fill="white"/>
</clipPath>
</defs>
</svg>
