<svg width="50" height="50" viewBox="0 0 50 50" fill="none" xmlns="http://www.w3.org/2000/svg">
<g clip-path="url(#clip0_3534_3821)">
<path d="M26.4648 16.1133C26.4648 15.3036 25.8097 14.6484 25 14.6484C24.1903 14.6484 23.5352 15.3036 23.5352 16.1133V33.8867C23.5352 34.6964 24.1903 35.3516 25 35.3516C25.8097 35.3516 26.4648 34.6964 26.4648 33.8867V16.1133ZM36.8164 35.3516H27.9297C27.12 35.3516 26.4648 36.0067 26.4648 36.8164C26.4648 37.6261 27.12 38.2812 27.9297 38.2812H36.8164C37.6261 38.2812 38.2812 37.6261 38.2812 36.8164C38.2812 36.0067 37.6261 35.3516 36.8164 35.3516ZM22.0703 35.3516H13.1836C12.3739 35.3516 11.7188 36.0067 11.7188 36.8164C11.7188 37.6261 12.3739 38.2812 13.1836 38.2812H22.0703C22.88 38.2812 23.5352 37.6261 23.5352 36.8164C23.5352 36.0067 22.88 35.3516 22.0703 35.3516ZM39.7461 42.6758C39.7461 44.318 41.0336 45.6055 42.6758 45.6055C44.318 45.6055 45.6055 44.318 45.6055 42.6758C45.6055 41.0336 44.318 39.7461 42.6758 39.7461C41.0336 39.7461 39.7461 41.0336 39.7461 42.6758ZM45.6055 36.8164C45.6055 35.1742 44.318 33.8867 42.6758 33.8867C41.0336 33.8867 39.7461 35.1742 39.7461 36.8164C39.7461 38.4586 41.0336 39.7461 42.6758 39.7461C44.318 39.7461 45.6055 38.4586 45.6055 36.8164ZM48.5352 23.6328H36.8164C36.0074 23.6328 35.3516 24.2887 35.3516 25.0977V29.4922C35.3516 31.1102 36.6632 32.4219 38.2812 32.4219H47.0703C48.6884 32.4219 50 31.1102 50 29.4922V25.0977C50 24.2887 49.3441 23.6328 48.5352 23.6328ZM4.39453 42.6758C4.39453 44.318 5.68203 45.6055 7.32422 45.6055C8.96641 45.6055 10.2539 44.318 10.2539 42.6758C10.2539 41.0336 8.96641 39.7461 7.32422 39.7461C5.68203 39.7461 4.39453 41.0336 4.39453 42.6758ZM10.2539 36.8164C10.2539 35.1742 8.96641 33.8867 7.32422 33.8867C5.68203 33.8867 4.39453 35.1742 4.39453 36.8164C4.39453 38.4586 5.68203 39.7461 7.32422 39.7461C8.96641 39.7461 10.2539 38.4586 10.2539 36.8164ZM14.6484 29.4922V25.0977C14.6484 24.2887 13.9926 23.6328 13.1836 23.6328H1.46484C0.655859 23.6328 0 24.2887 0 25.0977V29.4922C0 31.1102 1.31162 32.4219 2.92969 32.4219H11.7188C13.3368 32.4219 14.6484 31.1102 14.6484 29.4922Z" fill="url(#paint0_linear_3534_3821)"/>
<path d="M35.3516 29.4922V48.5352C35.3516 49.3554 35.996 50 36.8164 50H48.5352C49.3556 50 50 49.3554 50 48.5352V29.4922H35.3516ZM42.6758 44.1406C41.8554 44.1406 41.2109 43.496 41.2109 42.6758C41.2109 41.8554 41.8554 41.2109 42.6758 41.2109C43.4962 41.2109 44.1406 41.8554 44.1406 42.6758C44.1406 43.496 43.4962 44.1406 42.6758 44.1406ZM42.6758 38.2812C41.8554 38.2812 41.2109 37.6366 41.2109 36.8164C41.2109 35.996 41.8554 35.3516 42.6758 35.3516C43.4962 35.3516 44.1406 35.996 44.1406 36.8164C44.1406 37.6366 43.4962 38.2812 42.6758 38.2812ZM0 48.5352C0 49.3554 0.644434 50 1.46484 50H13.1836C14.004 50 14.6484 49.3554 14.6484 48.5352V29.4922H0V48.5352ZM7.32422 35.3516C8.14463 35.3516 8.78906 35.996 8.78906 36.8164C8.78906 37.6366 8.14463 38.2812 7.32422 38.2812C6.50381 38.2812 5.85938 37.6366 5.85938 36.8164C5.85938 35.996 6.50381 35.3516 7.32422 35.3516ZM7.32422 41.2109C8.14463 41.2109 8.78906 41.8554 8.78906 42.6758C8.78906 43.496 8.14463 44.1406 7.32422 44.1406C6.50381 44.1406 5.85938 43.496 5.85938 42.6758C5.85938 41.8554 6.50381 41.2109 7.32422 41.2109ZM39.6484 11.7188C39.6484 8.95215 37.7201 6.62617 35.1366 6.01533C34.5187 2.59922 31.5231 0 27.9297 0C25.5407 0 23.3206 1.18164 21.9645 3.09707C19.4524 2.46768 16.7803 3.69785 15.5271 5.89941C12.6175 6.23848 10.3516 8.71895 10.3516 11.7188C10.3516 14.9503 12.9809 17.5781 16.2109 17.5781H33.7891C37.0191 17.5781 39.6484 14.9503 39.6484 11.7188ZM25 32.4219C22.5768 32.4219 20.6055 34.3932 20.6055 36.8164C20.6055 39.2396 22.5768 41.2109 25 41.2109C27.4232 41.2109 29.3945 39.2396 29.3945 36.8164C29.3945 34.3932 27.4232 32.4219 25 32.4219Z" fill="url(#paint1_linear_3534_3821)"/>
</g>
<defs>
<linearGradient id="paint0_linear_3534_3821" x1="25" y1="45.6055" x2="25" y2="14.6484" gradientUnits="userSpaceOnUse">
<stop stop-color="#FFBEF9"/>
<stop offset="1" stop-color="#FFF1FF"/>
</linearGradient>
<linearGradient id="paint1_linear_3534_3821" x1="25" y1="50" x2="25" y2="0" gradientUnits="userSpaceOnUse">
<stop stop-color="#A93AFF"/>
<stop offset="1" stop-color="#FF81FF"/>
</linearGradient>
<clipPath id="clip0_3534_3821">
<rect width="50" height="50" fill="white"/>
</clipPath>
</defs>
</svg>
