<svg width="50" height="50" viewBox="0 0 50 50" fill="none" xmlns="http://www.w3.org/2000/svg">
<g clip-path="url(#clip0_3273_106)">
<path d="M35.2539 42.6758C35.2539 41.8554 35.8983 41.2109 36.7188 41.2109H43.8965C43.2226 37.8711 40.2637 35.3516 36.7188 35.3516C34.4335 35.3516 32.2655 36.4648 30.8887 38.2812H19.1113C17.7345 36.4648 15.5665 35.3516 13.2812 35.3516C9.73623 35.3516 6.77744 37.8711 6.10352 41.2109H13.2812C14.1017 41.2109 14.7461 41.8554 14.7461 42.6758C14.7461 43.496 14.1017 44.1406 13.2812 44.1406H6.10352C6.77744 47.4805 9.73633 50 13.2812 50C15.5665 50 17.7345 48.8867 19.1113 47.0703H30.8887C32.2655 48.8867 34.4335 50 36.7188 50C40.2638 50 43.2226 47.4805 43.8965 44.1406H36.7188C35.8983 44.1406 35.2539 43.496 35.2539 42.6758Z" fill="url(#paint0_linear_3273_106)"/>
<path d="M37.9204 8.18105C37.3425 8.18105 36.7674 8.22256 36.1952 8.30547C34.1381 3.35596 29.2113 0 23.7783 0C17.2151 0 11.6619 4.76787 10.5433 11.0937C4.77539 11.1365 0 15.8429 0 21.6207C0 27.4243 4.81836 32.1465 10.6233 32.1465H37.9203C44.5265 32.1465 50 26.7721 50 20.1645C50 13.5568 44.5265 8.18105 37.9204 8.18105Z" fill="url(#paint1_linear_3273_106)"/>
</g>
<defs>
<linearGradient id="paint0_linear_3273_106" x1="25" y1="50" x2="25" y2="35.3516" gradientUnits="userSpaceOnUse">
<stop stop-color="#FD5900"/>
<stop offset="1" stop-color="#FFDE00"/>
</linearGradient>
<linearGradient id="paint1_linear_3273_106" x1="25" y1="32.1465" x2="25" y2="0" gradientUnits="userSpaceOnUse">
<stop stop-color="#FFE59A"/>
<stop offset="1" stop-color="#FFFFD5"/>
</linearGradient>
<clipPath id="clip0_3273_106">
<rect width="50" height="50" fill="white"/>
</clipPath>
</defs>
</svg>
