<svg width="40" height="40" viewBox="0 0 40 40" fill="none" xmlns="http://www.w3.org/2000/svg">
<path d="M9.45312 31.7188H30.5469V12.9688H9.45312V31.7188ZM38.8281 4.76562H1.17188C0.524687 4.76562 0 5.29031 0 5.9375V9.45312C0 10.7475 1.0493 11.7969 2.34375 11.7969H37.6562C38.9507 11.7969 40 10.7475 40 9.45312V5.9375C40 5.29031 39.4753 4.76562 38.8281 4.76562Z" fill="url(#paint0_linear_2745_20)"/>
<path d="M0 9.45312V34.0625C0 34.7187 0.515547 35.2344 1.17188 35.2344H38.8281C39.4845 35.2344 40 34.7187 40 34.0625V9.45312H0ZM14.9609 23.8671C15.4298 24.3124 15.4298 25.0624 14.9609 25.5077C14.5393 25.9765 13.7421 25.9766 13.3203 25.5077L10.9766 23.164C10.5077 22.7187 10.5077 21.9687 10.9766 21.5234L13.3203 19.1796C13.7658 18.7109 14.5154 18.7109 14.9609 19.1796C15.4298 19.6249 15.4298 20.3749 14.9609 20.8202L13.4609 22.3438L14.9609 23.8671ZM22.3203 15.4998L19.9766 29.5623C19.862 30.2775 19.1112 30.6803 18.6405 30.5234C18.0079 30.4297 17.5624 29.8202 17.6798 29.1874L20.0235 15.1249C20.1173 14.492 20.7267 14.0467 21.3596 14.1641C21.9921 14.2578 22.4376 14.8672 22.3203 15.4998ZM29.0234 23.164L26.6796 25.5077C26.258 25.9765 25.4609 25.9766 25.0391 25.5077C24.5702 25.0624 24.5702 24.3124 25.0391 23.8671L26.5391 22.3438L25.0391 20.8202C24.5702 20.3749 24.5702 19.6249 25.0391 19.1796C25.4845 18.7109 26.2341 18.7109 26.6796 19.1796L29.0234 21.5234C29.4923 21.9687 29.4923 22.7187 29.0234 23.164Z" fill="url(#paint1_linear_2745_20)"/>
<defs>
<linearGradient id="paint0_linear_2745_20" x1="20" y1="31.7188" x2="20" y2="4.76562" gradientUnits="userSpaceOnUse">
<stop stop-color="#FFE59A"/>
<stop offset="1" stop-color="#FFFFD5"/>
</linearGradient>
<linearGradient id="paint1_linear_2745_20" x1="20" y1="35.2343" x2="20" y2="9.45308" gradientUnits="userSpaceOnUse">
<stop stop-color="#FD5900"/>
<stop offset="1" stop-color="#FFDE00"/>
</linearGradient>
</defs>
</svg>
