<svg width="50" height="50" viewBox="0 0 50 50" fill="none" xmlns="http://www.w3.org/2000/svg">
<path d="M50 40.2358V4H0V40.2358H15.7166V43.1704H12.783V46.1001H37.217V43.1704H34.2834V40.2358H50ZM47.0703 6.92969V29.4875H2.92969V6.92969H47.0703ZM2.92969 32.4172H47.0703V37.3062H2.92969V32.4172ZM31.3538 43.1704H18.6463V40.2358H31.3538V43.1704Z" fill="#15D4EC"/>
<path d="M20.5997 24.3583L15.7612 18.209L20.5997 12.0597L18.2975 10.2481L12.0334 18.2091L18.2975 26.1699L20.5997 24.3583ZM31.7024 26.1699L37.9665 18.209L31.7024 10.248L29.4002 12.0597L34.2387 18.2091L29.4002 24.3583L31.7024 26.1699ZM23.5351 10.305H26.4648V26.1131H23.5351V10.305Z" fill="#15D4EC"/>
</svg>
