<svg width="60" height="60" viewBox="0 0 60 60" fill="none" xmlns="http://www.w3.org/2000/svg">
<g clip-path="url(#clip0_345_20)">
<path d="M35.5686 20.2514C35.0636 19.9588 34.4462 19.9362 33.9211 20.1905C33.396 20.4449 33.0312 20.9434 32.9477 21.521L31.9936 28.1251H28.0065L27.0523 21.521C26.9688 20.9434 26.6041 20.4449 26.0789 20.1905C25.5538 19.9362 24.9366 19.9588 24.4314 20.2514C20.9992 22.2395 18.8672 25.9302 18.8672 29.8829C18.8672 33.7887 20.8617 37.3189 24.1406 39.34V58.2423C24.1406 59.2131 24.9277 60.0001 25.8984 60.0001H34.1016C35.0723 60.0001 35.8594 59.2131 35.8594 58.2423V39.34C39.1383 37.3189 41.1328 33.7887 41.1328 29.8829C41.1328 25.9302 39.0008 22.2395 35.5686 20.2514ZM33.3306 36.7236C32.7268 37.0184 32.3438 37.6315 32.3438 38.3033V56.4845H27.6562V38.3033C27.6562 37.6315 27.2732 37.0184 26.6694 36.7236C24.0254 35.433 22.3828 32.8118 22.3828 29.8829C22.3828 28.1532 22.9808 26.4964 24.0274 25.1707L24.7446 30.1343C24.8696 30.999 25.6106 31.6407 26.4844 31.6407H33.5156C34.3894 31.6407 35.1304 30.999 35.2554 30.1343L35.9726 25.1707C37.0192 26.4964 37.6172 28.1532 37.6172 29.8829C37.6172 32.8118 35.9746 35.433 33.3306 36.7236Z" fill="#15D4EC"/>
<path d="M58.4696 23.4716L54.0952 22.5968C53.6139 21.0015 52.976 19.4612 52.1903 17.9964L54.6645 14.2852C55.1293 13.5879 55.0375 12.6595 54.4448 12.0671L47.8158 5.43797C47.2233 4.84547 46.2949 4.75359 45.5978 5.21824L41.8863 7.69242C40.4216 6.9068 38.8813 6.26906 37.2859 5.78766L36.4111 1.41305C36.2469 0.591445 35.5254 0 34.6875 0H25.3125C24.4746 0 23.7531 0.591445 23.5888 1.41305L22.714 5.78766C21.1186 6.26906 19.5783 6.90691 18.1136 7.69242L14.4021 5.21824C13.7051 4.75359 12.7766 4.84547 12.1841 5.43797L5.55504 12.0671C4.96242 12.6596 4.87055 13.588 5.33543 14.2852L7.80961 17.9964C7.02387 19.4612 6.38613 21.0015 5.90473 22.5968L1.53023 23.4716C0.708633 23.6359 0.117188 24.3574 0.117188 25.1953V34.5703C0.117188 35.4082 0.708633 36.1297 1.53035 36.2939L5.90484 37.1688C6.38613 38.764 7.02398 40.3043 7.80973 41.7691L5.33555 45.4805C4.87066 46.1776 4.96266 47.106 5.55516 47.6985L12.1842 54.3275C12.7768 54.9202 13.7051 55.012 14.4022 54.5473L19.0127 51.4738C19.5018 51.1478 19.7955 50.599 19.7955 50.0112V41.0889C19.7955 40.6417 19.625 40.2112 19.3189 39.8852C16.7604 37.1621 15.3516 33.6098 15.3516 29.8828C15.3516 21.8057 21.9229 15.2344 30 15.2344C38.0771 15.2344 44.6484 21.8057 44.6484 29.8828C44.6484 33.6098 43.2396 37.1621 40.6812 39.8852C40.3751 40.2111 40.2046 40.6416 40.2046 41.0889V50.0112C40.2046 50.599 40.4984 51.1478 40.9874 51.4738L45.5979 54.5473C45.8953 54.7455 46.2348 54.8426 46.5723 54.8426C47.0259 54.8426 47.4762 54.6674 47.8158 54.3277L54.4448 47.6986C55.0373 47.1061 55.1293 46.1777 54.6645 45.4806L52.1903 41.7693C52.976 40.3044 53.6137 38.7641 54.0952 37.1689L58.4696 36.294C59.2914 36.1297 59.8828 35.4082 59.8828 34.5703V25.1953C59.8828 24.3574 59.2914 23.6359 58.4696 23.4716ZM56.3672 33.1293L52.3464 33.9334C51.6825 34.0662 51.1539 34.5683 50.9872 35.2246C50.4755 37.2408 49.6784 39.1656 48.618 40.9455C48.2714 41.5274 48.2899 42.2566 48.6656 42.8202L50.9399 46.2316L46.3487 50.8227L43.72 49.0704V41.765C46.5911 38.4626 48.1641 34.2707 48.1641 29.8828C48.1641 19.8671 40.0158 11.7187 30 11.7187C19.9842 11.7187 11.8359 19.8671 11.8359 29.8828C11.8359 34.2707 13.4089 38.4626 16.2798 41.765V49.0704L13.6511 50.8227L9.06 46.2316L11.3343 42.8202C11.71 42.2566 11.7285 41.5274 11.3818 40.9455C10.3215 39.1656 9.52441 37.2408 9.01266 35.2246C8.84602 34.5683 8.31738 34.0662 7.65352 33.9334L3.63281 33.1293V26.6365L7.65363 25.8323C8.3175 25.6996 8.84613 25.1973 9.01277 24.5411C9.52453 22.5246 10.3218 20.5998 11.382 18.82C11.7286 18.2381 11.7101 17.5089 11.3344 16.9453L9.06012 13.534L13.6513 8.94281L17.0627 11.2171C17.6263 11.5928 18.3554 11.6113 18.9373 11.2646C20.7171 10.2046 22.6419 9.40734 24.6585 8.89547C25.3146 8.72894 25.8169 8.20031 25.9496 7.53644L26.7536 3.51562H33.2464L34.0505 7.53644C34.1832 8.20031 34.6855 8.72894 35.3416 8.89547C37.3582 9.40746 39.2831 10.2046 41.0629 11.2646C41.6447 11.6113 42.3739 11.5925 42.9374 11.2171L46.3488 8.94281L50.94 13.534L48.6657 16.9453C48.29 17.5089 48.2715 18.2381 48.6182 18.82C49.6784 20.5998 50.4756 22.5247 50.9873 24.5411C51.154 25.1973 51.6826 25.6995 52.3465 25.8323L56.3672 26.6364V33.1293Z" fill="#15D4EC"/>
</g>
<defs>
<clipPath id="clip0_345_20">
<rect width="60" height="60" fill="white"/>
</clipPath>
</defs>
</svg>
