<svg width="50" height="50" viewBox="0 0 50 50" fill="none" xmlns="http://www.w3.org/2000/svg">
<g clip-path="url(#clip0_196_6)">
<mask id="mask0_196_6" style="mask-type:luminance" maskUnits="userSpaceOnUse" x="0" y="0" width="50" height="50">
<path d="M50 0H0V50H50V0Z" fill="white"/>
</mask>
<g mask="url(#mask0_196_6)">
<path fill-rule="evenodd" clip-rule="evenodd" d="M16.2109 0C17.0199 0 17.6758 0.655833 17.6758 1.46484V8.88672C17.6758 9.69573 17.0199 10.3516 16.2109 10.3516C15.4019 10.3516 14.7461 9.69573 14.7461 8.88672V1.46484C14.7461 0.655833 15.4019 0 16.2109 0ZM22.0703 0C22.8793 0 23.5352 0.655833 23.5352 1.46484V8.88672C23.5352 9.69573 22.8793 10.3516 22.0703 10.3516C21.2613 10.3516 20.6055 9.69573 20.6055 8.88672V1.46484C20.6055 0.655833 21.2613 0 22.0703 0ZM27.9297 0C28.7387 0 29.3945 0.655833 29.3945 1.46484V8.88672C29.3945 9.69573 28.7387 10.3516 27.9297 10.3516C27.1207 10.3516 26.4648 9.69573 26.4648 8.88672V1.46484C26.4648 0.655833 27.1207 0 27.9297 0ZM33.7891 0C34.5981 0 35.2539 0.655833 35.2539 1.46484V8.88672C35.2539 9.69573 34.5981 10.3516 33.7891 10.3516C32.9801 10.3516 32.3242 9.69573 32.3242 8.88672V1.46484C32.3242 0.655833 32.9801 0 33.7891 0ZM0 16.2109C0 15.4019 0.655833 14.7461 1.46484 14.7461H8.88672C9.69573 14.7461 10.3516 15.4019 10.3516 16.2109C10.3516 17.0199 9.69573 17.6758 8.88672 17.6758H1.46484C0.655833 17.6758 0 17.0199 0 16.2109ZM39.6484 16.2109C39.6484 15.4019 40.3043 14.7461 41.1133 14.7461H48.5352C49.3442 14.7461 50 15.4019 50 16.2109C50 17.0199 49.3442 17.6758 48.5352 17.6758H41.1133C40.3043 17.6758 39.6484 17.0199 39.6484 16.2109ZM25 20.6055C22.1746 20.6055 19.6128 21.7532 17.7533 23.6127C17.1812 24.1847 16.2537 24.1847 15.6817 23.6126C15.1096 23.0406 15.1096 22.1131 15.6817 21.541C18.0663 19.1565 21.3639 17.6758 25 17.6758C28.6361 17.6758 31.9337 19.1565 34.3183 21.541C34.8904 22.1131 34.8904 23.0406 34.3183 23.6126C33.7463 24.1847 32.8188 24.1847 32.2467 23.6127C30.3872 21.7532 27.8254 20.6055 25 20.6055ZM0 22.0703C0 21.2613 0.655833 20.6055 1.46484 20.6055H8.88672C9.69573 20.6055 10.3516 21.2613 10.3516 22.0703C10.3516 22.8793 9.69573 23.5352 8.88672 23.5352H1.46484C0.655833 23.5352 0 22.8793 0 22.0703ZM39.6484 22.0703C39.6484 21.2613 40.3043 20.6055 41.1133 20.6055H48.5352C49.3442 20.6055 50 21.2613 50 22.0703C50 22.8793 49.3442 23.5352 48.5352 23.5352H41.1133C40.3043 23.5352 39.6484 22.8793 39.6484 22.0703ZM25 26.4648C23.786 26.4648 22.6894 26.9551 21.8927 27.752C21.3207 28.324 20.3932 28.3241 19.8211 27.7521C19.249 27.18 19.249 26.2525 19.821 25.6805C21.1447 24.3566 22.9778 23.5352 25 23.5352C27.0222 23.5352 28.8553 24.3566 30.179 25.6805C30.751 26.2525 30.751 27.18 30.1789 27.7521C29.6068 28.3241 28.6793 28.324 28.1073 27.752C27.3106 26.9551 26.214 26.4648 25 26.4648ZM0 27.9297C0 27.1207 0.655833 26.4648 1.46484 26.4648H8.88672C9.69573 26.4648 10.3516 27.1207 10.3516 27.9297C10.3516 28.7387 9.69573 29.3945 8.88672 29.3945H1.46484C0.655833 29.3945 0 28.7387 0 27.9297ZM39.6484 27.9297C39.6484 27.1207 40.3043 26.4648 41.1133 26.4648H48.5352C49.3442 26.4648 50 27.1207 50 27.9297C50 28.7387 49.3442 29.3945 48.5352 29.3945H41.1133C40.3043 29.3945 39.6484 28.7387 39.6484 27.9297ZM0 33.7891C0 32.9801 0.655833 32.3242 1.46484 32.3242H8.88672C9.69573 32.3242 10.3516 32.9801 10.3516 33.7891C10.3516 34.5981 9.69573 35.2539 8.88672 35.2539H1.46484C0.655833 35.2539 0 34.5981 0 33.7891ZM39.6484 33.7891C39.6484 32.9801 40.3043 32.3242 41.1133 32.3242H48.5352C49.3442 32.3242 50 32.9801 50 33.7891C50 34.5981 49.3442 35.2539 48.5352 35.2539H41.1133C40.3043 35.2539 39.6484 34.5981 39.6484 33.7891ZM16.2109 39.6484C17.0199 39.6484 17.6758 40.3043 17.6758 41.1133V48.5352C17.6758 49.3442 17.0199 50 16.2109 50C15.4019 50 14.7461 49.3442 14.7461 48.5352V41.1133C14.7461 40.3043 15.4019 39.6484 16.2109 39.6484ZM22.0703 39.6484C22.8793 39.6484 23.5352 40.3043 23.5352 41.1133V48.5352C23.5352 49.3442 22.8793 50 22.0703 50C21.2613 50 20.6055 49.3442 20.6055 48.5352V41.1133C20.6055 40.3043 21.2613 39.6484 22.0703 39.6484ZM27.9297 39.6484C28.7387 39.6484 29.3945 40.3043 29.3945 41.1133V48.5352C29.3945 49.3442 28.7387 50 27.9297 50C27.1207 50 26.4648 49.3442 26.4648 48.5352V41.1133C26.4648 40.3043 27.1207 39.6484 27.9297 39.6484ZM33.7891 39.6484C34.5981 39.6484 35.2539 40.3043 35.2539 41.1133V48.5352C35.2539 49.3442 34.5981 50 33.7891 50C32.9801 50 32.3242 49.3442 32.3242 48.5352V41.1133C32.3242 40.3043 32.9801 39.6484 33.7891 39.6484Z" fill="#FC275E"/>
<path d="M26.418 31.709C26.418 32.6528 25.6528 33.418 24.709 33.418C23.7651 33.418 23 32.6528 23 31.709C23 30.7651 23.7651 30 24.709 30C25.6528 30 26.418 30.7651 26.418 31.709Z" fill="#FC275E"/>
<path fill-rule="evenodd" clip-rule="evenodd" d="M11.8164 10.3516C11.0074 10.3516 10.3516 11.0074 10.3516 11.8164V38.1836C10.3516 38.9926 11.0074 39.6484 11.8164 39.6484H38.1836C38.9926 39.6484 39.6484 38.9926 39.6484 38.1836V11.8164C39.6484 11.0074 38.9926 10.3516 38.1836 10.3516H11.8164ZM7.42188 11.8164C7.42188 9.38932 9.38932 7.42188 11.8164 7.42188H38.1836C40.6107 7.42188 42.5781 9.38932 42.5781 11.8164V38.1836C42.5781 40.6107 40.6107 42.5781 38.1836 42.5781H11.8164C9.38932 42.5781 7.42188 40.6107 7.42188 38.1836V11.8164Z" fill="#FC275E"/>
</g>
</g>
<defs>
<clipPath id="clip0_196_6">
<rect width="50" height="50" fill="white"/>
</clipPath>
</defs>
</svg>
