<svg width="50" height="50" viewBox="0 0 50 50" fill="none" xmlns="http://www.w3.org/2000/svg">
<g clip-path="url(#clip0_3273_98)">
<path d="M50 5.37109V34.668C50 37.6296 47.5905 40.0391 44.6289 40.0391H5.37109C2.40947 40.0391 0 37.6296 0 34.668V5.37109C0 2.40947 2.40947 0 5.37109 0H44.6289C47.5905 0 50 2.40947 50 5.37109ZM35.2539 48.5352C35.2539 47.7262 34.598 47.0703 33.7891 47.0703H16.2109C15.402 47.0703 14.7461 47.7262 14.7461 48.5352C14.7461 49.3441 15.402 50 16.2109 50H33.7891C34.598 50 35.2539 49.3441 35.2539 48.5352Z" fill="url(#paint0_linear_3273_98)"/>
<path d="M18.6523 47.0703V40.0391H31.3477V47.0703H18.6523ZM47.0703 5.37109V31.25H2.92969V5.37109C2.92969 4.0249 4.0249 2.92969 5.37109 2.92969H44.6289C45.9751 2.92969 47.0703 4.0249 47.0703 5.37109ZM25.4883 11.2305C25.4883 12.0395 26.1441 12.6953 26.9531 12.6953H28.418V14.1602C28.418 14.9691 29.0738 15.625 29.8828 15.625C30.6918 15.625 31.3477 14.9691 31.3477 14.1602V12.6953H32.8125C33.6215 12.6953 34.2773 12.0395 34.2773 11.2305C34.2773 10.4215 33.6215 9.76562 32.8125 9.76562H31.3477V8.30078C31.3477 7.4918 30.6918 6.83594 29.8828 6.83594C29.0738 6.83594 28.418 7.4918 28.418 8.30078V9.76562H26.9531C26.1441 9.76562 25.4883 10.4215 25.4883 11.2305ZM21.9727 15.1367H19.5312V9.76562C19.5312 8.95664 18.8754 8.30078 18.0664 8.30078C17.2574 8.30078 16.6016 8.95664 16.6016 9.76562V15.1367H12.6953V9.76562C12.6953 8.95664 12.0395 8.30078 11.2305 8.30078C10.4215 8.30078 9.76562 8.95664 9.76562 9.76562V15.1367H7.32422C6.37119 15.1367 5.67197 16.0323 5.90313 16.9568L7.85625 24.7693C7.93548 25.0863 8.11838 25.3676 8.37587 25.5687C8.63336 25.7697 8.95066 25.8789 9.27734 25.8789H20.0195C20.3462 25.8789 20.6635 25.7697 20.921 25.5687C21.1785 25.3676 21.3614 25.0863 21.4406 24.7693L23.3938 16.9568C23.6249 16.0323 22.9256 15.1367 21.9727 15.1367ZM44.1406 25.8789C44.1406 25.0699 43.4848 24.4141 42.6758 24.4141H26.9531C26.1441 24.4141 25.4883 25.0699 25.4883 25.8789C25.4883 26.6879 26.1441 27.3438 26.9531 27.3438H42.6758C43.4848 27.3438 44.1406 26.6879 44.1406 25.8789ZM44.1406 20.0195C44.1406 19.2105 43.4848 18.5547 42.6758 18.5547H26.9531C26.1441 18.5547 25.4883 19.2105 25.4883 20.0195C25.4883 20.8285 26.1441 21.4844 26.9531 21.4844H42.6758C43.4848 21.4844 44.1406 20.8285 44.1406 20.0195ZM44.1406 14.1602C44.1406 13.3512 43.4848 12.6953 42.6758 12.6953H37.6953C36.8863 12.6953 36.2305 13.3512 36.2305 14.1602C36.2305 14.9691 36.8863 15.625 37.6953 15.625H42.6758C43.4848 15.625 44.1406 14.9691 44.1406 14.1602ZM44.1406 8.30078C44.1406 7.4918 43.4848 6.83594 42.6758 6.83594H37.6953C36.8863 6.83594 36.2305 7.4918 36.2305 8.30078C36.2305 9.10977 36.8863 9.76562 37.6953 9.76562H42.6758C43.4848 9.76562 44.1406 9.10977 44.1406 8.30078Z" fill="url(#paint1_linear_3273_98)"/>
</g>
<defs>
<linearGradient id="paint0_linear_3273_98" x1="25" y1="50" x2="25" y2="0" gradientUnits="userSpaceOnUse">
<stop stop-color="#FD5900"/>
<stop offset="1" stop-color="#FFDE00"/>
</linearGradient>
<linearGradient id="paint1_linear_3273_98" x1="25" y1="47.0703" x2="25" y2="2.92969" gradientUnits="userSpaceOnUse">
<stop stop-color="#FFE59A"/>
<stop offset="1" stop-color="#FFFFD5"/>
</linearGradient>
<clipPath id="clip0_3273_98">
<rect width="50" height="50" fill="white"/>
</clipPath>
</defs>
</svg>
