<svg width="40" height="40" viewBox="0 0 40 40" fill="none" xmlns="http://www.w3.org/2000/svg">
<path d="M40 25.4688H0V5.9375C0 3.99898 1.57711 2.42188 3.51562 2.42188H36.4844C38.4229 2.42188 40 3.99898 40 5.9375V25.4688ZM14.1406 35.2344H25.8594V31.3281H14.1406V35.2344Z" fill="url(#paint0_linear_1117_475)"/>
<path d="M40 25.4688V27.8125C40 29.751 38.4229 31.3281 36.4844 31.3281H3.51562C1.57711 31.3281 0 29.751 0 27.8125V25.4688H40ZM28.9844 36.4062C28.9844 35.7591 28.4597 35.2344 27.8125 35.2344H12.1875C11.5403 35.2344 11.0156 35.7591 11.0156 36.4062C11.0156 37.0534 11.5403 37.5781 12.1875 37.5781H27.8125C28.4597 37.5781 28.9844 37.0534 28.9844 36.4062ZM35.2344 8.28125C35.2344 7.63406 34.7097 7.10938 34.0625 7.10938H29.375C28.7278 7.10938 28.2031 7.63406 28.2031 8.28125C28.2031 8.92844 28.7278 9.45312 29.375 9.45312H34.0625C34.7097 9.45312 35.2344 8.92844 35.2344 8.28125ZM35.2344 12.9688C35.2344 12.3216 34.7097 11.7969 34.0625 11.7969H29.375C28.7278 11.7969 28.2031 12.3216 28.2031 12.9688C28.2031 13.6159 28.7278 14.1406 29.375 14.1406H34.0625C34.7097 14.1406 35.2344 13.6159 35.2344 12.9688ZM35.2344 17.6562C35.2344 17.0091 34.7097 16.4844 34.0625 16.4844H29.375C28.7278 16.4844 28.2031 17.0091 28.2031 17.6562C28.2031 18.3034 28.7278 18.8281 29.375 18.8281H34.0625C34.7097 18.8281 35.2344 18.3034 35.2344 17.6562ZM25.8594 5.9375V20.7812C25.8594 21.4284 25.3347 21.9531 24.6875 21.9531H5.9375C5.29031 21.9531 4.76562 21.4284 4.76562 20.7812V5.9375C4.76562 5.29031 5.29031 4.76562 5.9375 4.76562H24.6875C25.3347 4.76562 25.8594 5.29031 25.8594 5.9375ZM11.0156 8.28125C11.0156 8.92844 11.5403 9.45312 12.1875 9.45312C12.8347 9.45312 13.3594 8.92844 13.3594 8.28125C13.3594 7.63406 12.8347 7.10938 12.1875 7.10938C11.5403 7.10938 11.0156 7.63406 11.0156 8.28125ZM23.5156 17.4405L18.1026 10.6741C17.6334 10.0877 16.7416 10.0877 16.2724 10.6741L13.3448 14.3337L12.3312 13.0305C11.8621 12.4273 10.9504 12.4273 10.4813 13.0305L7.10938 17.3658V19.6094H23.5156V17.4405Z" fill="url(#paint1_linear_1117_475)"/>
<defs>
<linearGradient id="paint0_linear_1117_475" x1="20" y1="35.2344" x2="20" y2="2.42188" gradientUnits="userSpaceOnUse">
<stop stop-color="#A93AFF"/>
<stop offset="1" stop-color="#FF81FF"/>
</linearGradient>
<linearGradient id="paint1_linear_1117_475" x1="20" y1="37.5781" x2="20" y2="4.76562" gradientUnits="userSpaceOnUse">
<stop stop-color="#FFBEF9"/>
<stop offset="1" stop-color="#FFF1FF"/>
</linearGradient>
</defs>
</svg>
