<svg width="65" height="65" viewBox="0 0 65 65" fill="none" xmlns="http://www.w3.org/2000/svg">
<g clip-path="url(#clip0_3331_34)">
<path d="M32.5 65C50.4493 65 65 50.4493 65 32.5C65 14.5507 50.4493 0 32.5 0C14.5507 0 0 14.5507 0 32.5C0 50.4493 14.5507 65 32.5 65Z" fill="url(#paint0_linear_3331_34)"/>
<path d="M37.0137 23.7585C37.6334 23.7585 38.1388 23.2542 38.1388 22.6334C38.1388 22.0126 37.6334 21.5084 37.0137 21.5084C36.394 21.5084 35.8886 22.0126 35.8886 22.6334C35.8886 23.2541 36.394 23.7585 37.0137 23.7585ZM28.9975 25.0066L30.7858 25.2303C30.9721 25.6752 31.2089 26.092 31.4818 26.4829L30.4987 28.8146C30.279 29.3376 30.4812 29.943 30.9734 30.2265L33.151 31.4835C33.6336 31.7639 34.2636 31.6452 34.6101 31.1879L36.0491 29.2863C36.3667 29.3322 36.6834 29.3838 37.0136 29.3838C37.3437 29.3838 37.6599 29.3324 37.9774 29.2864L39.4172 31.1879C39.5826 31.4065 39.8221 31.5572 40.0908 31.6116C40.3595 31.666 40.6388 31.6205 40.8762 31.4835L43.0517 30.2265C43.2892 30.0894 43.4685 29.8703 43.556 29.6103C43.6434 29.3503 43.6328 29.0674 43.5264 28.8146L42.5433 26.4856C42.817 26.094 43.0549 25.6765 43.2415 25.2305L45.0298 25.0066C45.3017 24.9724 45.5518 24.8401 45.7331 24.6345C45.9144 24.429 46.0144 24.1643 46.0143 23.8903V21.3765C46.0144 21.1024 45.9144 20.8377 45.7331 20.6322C45.5518 20.4266 45.3017 20.2943 45.0298 20.2602L43.2416 20.0365C43.0554 19.5914 42.8184 19.1746 42.5454 18.7838L43.5286 16.4521C43.7483 15.9292 43.5461 15.3237 43.0539 15.0402L40.8762 13.7833C40.3907 13.5019 39.7621 13.6251 39.4172 14.0788L37.9774 15.9803C37.6599 15.9344 37.3435 15.8829 37.0136 15.8829C36.6836 15.8829 36.3676 15.9345 36.0504 15.9803L34.61 14.0788C34.4445 13.8603 34.205 13.7096 33.9363 13.6552C33.6676 13.6008 33.3884 13.6463 33.1509 13.7833L30.9754 15.0402C30.7379 15.1773 30.5586 15.3965 30.4712 15.6564C30.3838 15.9164 30.3943 16.1993 30.5008 16.4521L31.4836 18.7813C31.2099 19.1728 30.9723 19.5901 30.7856 20.036L28.9972 20.2602C28.7253 20.2944 28.4753 20.4267 28.294 20.6322C28.1128 20.8378 28.0128 21.1024 28.0129 21.3765V23.8903C28.0129 24.1643 28.1129 24.429 28.2942 24.6345C28.4755 24.84 28.7256 24.9723 28.9975 25.0066ZM37.0137 19.2581C38.875 19.2581 40.3889 20.7722 40.3889 22.6333C40.3889 24.4946 38.8748 26.0085 37.0137 26.0085C35.1526 26.0085 33.6385 24.4944 33.6385 22.6333C33.6385 20.7722 35.1524 19.2581 37.0137 19.2581ZM51.31 35.697L51.278 35.6653C49.7485 34.1488 47.2808 34.1542 45.7577 35.6771L40.0775 41.357C38.9169 42.5174 37.343 43.1692 35.7019 43.1692H26.4485C25.8267 43.1692 25.3235 42.666 25.3235 42.0442C25.3235 41.4224 25.8267 40.9191 26.4485 40.9191H35.6073C37.0054 40.9191 38.1388 39.7857 38.1388 38.3877C38.1388 36.9895 37.0054 35.8562 35.6073 35.8562H22.2185C21.4055 35.8562 20.6004 36.0163 19.8493 36.3275C19.0982 36.6386 18.4157 37.0946 17.8409 37.6695L13.6597 41.8507C13.5552 41.9552 13.4723 42.0792 13.4157 42.2157C13.3592 42.3522 13.3301 42.4984 13.3301 42.6462C13.3301 42.7939 13.3592 42.9402 13.4157 43.0767C13.4723 43.2132 13.5552 43.3372 13.6597 43.4417L21.2539 51.0359C21.3583 51.1404 21.4823 51.2233 21.6188 51.2798C21.7553 51.3364 21.9016 51.3655 22.0494 51.3655C22.1971 51.3655 22.3434 51.3364 22.4799 51.2798C22.6164 51.2233 22.7404 51.1404 22.8448 51.0359L25.6487 48.232H35.7019C38.6862 48.232 41.5484 47.0467 43.6589 44.9367L51.31 37.2878C51.7512 36.8467 51.7475 36.1344 51.31 35.697Z" fill="url(#paint1_linear_3331_34)"/>
</g>
<defs>
<linearGradient id="paint0_linear_3331_34" x1="32.5" y1="65" x2="32.5" y2="0" gradientUnits="userSpaceOnUse">
<stop stop-color="#ADDCFF"/>
<stop offset="0.503" stop-color="#EAF6FF"/>
<stop offset="1" stop-color="#EAF6FF"/>
</linearGradient>
<linearGradient id="paint1_linear_3331_34" x1="32.4851" y1="51.3656" x2="32.4851" y2="13.6328" gradientUnits="userSpaceOnUse">
<stop stop-color="#00C0FF"/>
<stop offset="1" stop-color="#0176D3"/>
</linearGradient>
<clipPath id="clip0_3331_34">
<rect width="65" height="65" fill="white"/>
</clipPath>
</defs>
</svg>
