<svg width="50" height="50" viewBox="0 0 50 50" fill="none" xmlns="http://www.w3.org/2000/svg">
<g clip-path="url(#clip0_345_124)">
<path d="M39.7461 0H10.2539C4.5999 0 0 4.5999 0 10.2539V39.7461C0 45.4001 4.5999 50 10.2539 50H39.7461C45.4001 50 50 45.4001 50 39.7461V10.2539C50 4.5999 45.4001 0 39.7461 0ZM32.4219 47.0703H10.2539C6.21533 47.0703 2.92969 43.7847 2.92969 39.7461V30.4688H10.2325L12.695 26.9736L16.2829 30.5616L19.951 23.6521L25.053 36.0146L32.4219 21.6079V47.0703ZM32.4219 11.5257C31.5465 12.0323 30.957 12.9782 30.957 14.0625C30.957 14.9103 31.3175 15.6734 31.8931 16.2084L25.3376 29.0245L20.2834 16.7776L15.553 25.6884L12.305 22.4404L8.71279 27.5391H2.92969V10.2539C2.92969 6.21533 6.21533 2.92969 10.2539 2.92969H32.4219V11.5257ZM47.0703 39.7461C47.0703 43.7847 43.7847 47.0703 39.7461 47.0703H35.3516V22.6364L36.6719 25.7041L39.9158 22.7644L43.3539 29.2969H47.0703V39.7461ZM47.0703 26.3672H45.1227L40.7483 18.056L37.7422 20.7803L35.8039 16.2767C36.4238 15.7395 36.8164 14.9471 36.8164 14.0625C36.8164 12.9783 36.227 12.0323 35.3516 11.5257V2.92969H39.7461C43.7847 2.92969 47.0703 6.21533 47.0703 10.2539V26.3672Z" fill="#15D4EC"/>
</g>
<defs>
<clipPath id="clip0_345_124">
<rect width="50" height="50" fill="white"/>
</clipPath>
</defs>
</svg>
