<svg width="50" height="50" viewBox="0 0 50 50" fill="none" xmlns="http://www.w3.org/2000/svg">
<g clip-path="url(#clip0_345_105)">
<path fill-rule="evenodd" clip-rule="evenodd" d="M33.0566 32.4219C32.2476 32.4219 31.5918 33.0777 31.5918 33.8867C31.5918 34.6957 32.2476 35.3516 33.0566 35.3516C33.8657 35.3516 34.5215 34.6957 34.5215 33.8867C34.5215 33.0777 33.8657 32.4219 33.0566 32.4219ZM28.6621 33.8867C28.6621 31.4597 30.6296 29.4922 33.0566 29.4922C35.4837 29.4922 37.4512 31.4597 37.4512 33.8867C37.4512 36.3138 35.4837 38.2812 33.0566 38.2812C30.6296 38.2812 28.6621 36.3138 28.6621 33.8867Z" fill="#15D4EC"/>
<path fill-rule="evenodd" clip-rule="evenodd" d="M25 14.6484H30.127V17.5781H25V14.6484ZM30.127 35.3516H25V32.4219H30.127V35.3516Z" fill="#15D4EC"/>
<path fill-rule="evenodd" clip-rule="evenodd" d="M33.0566 14.6484C32.2476 14.6484 31.5918 15.3043 31.5918 16.1133C31.5918 16.9223 32.2476 17.5781 33.0566 17.5781C33.8657 17.5781 34.5215 16.9223 34.5215 16.1133C34.5215 15.3043 33.8657 14.6484 33.0566 14.6484ZM28.6621 16.1133C28.6621 13.6862 30.6296 11.7188 33.0566 11.7188C35.4837 11.7188 37.4512 13.6862 37.4512 16.1133C37.4512 18.5403 35.4837 20.5078 33.0566 20.5078C30.6296 20.5078 28.6621 18.5403 28.6621 16.1133Z" fill="#15D4EC"/>
<path fill-rule="evenodd" clip-rule="evenodd" d="M39.7461 23.5352C38.9371 23.5352 38.2812 24.191 38.2812 25C38.2812 25.809 38.9371 26.4648 39.7461 26.4648C40.5551 26.4648 41.2109 25.809 41.2109 25C41.2109 24.191 40.5551 23.5352 39.7461 23.5352ZM35.3516 25C35.3516 22.573 37.3191 20.6055 39.7461 20.6055C42.1731 20.6055 44.1406 22.573 44.1406 25C44.1406 27.427 42.1731 29.3945 39.7461 29.3945C37.3191 29.3945 35.3516 27.427 35.3516 25Z" fill="#15D4EC"/>
<path fill-rule="evenodd" clip-rule="evenodd" d="M36.8164 26.4648H13.1836V23.5352H36.8164V26.4648Z" fill="#15D4EC"/>
<path fill-rule="evenodd" clip-rule="evenodd" d="M10.2539 23.5352C9.4449 23.5352 8.78906 24.191 8.78906 25C8.78906 25.809 9.4449 26.4648 10.2539 26.4648C11.0629 26.4648 11.7188 25.809 11.7188 25C11.7188 24.191 11.0629 23.5352 10.2539 23.5352ZM5.85938 25C5.85938 22.573 7.82687 20.6055 10.2539 20.6055C12.6809 20.6055 14.6484 22.573 14.6484 25C14.6484 27.427 12.6809 29.3945 10.2539 29.3945C7.82687 29.3945 5.85938 27.427 5.85938 25Z" fill="#15D4EC"/>
<path fill-rule="evenodd" clip-rule="evenodd" d="M9.12586 7.56652C10.0465 3.69633 13.5238 0.818359 17.6758 0.818359C22.5298 0.818359 26.4648 4.75337 26.4647 9.60742C26.4647 9.60743 26.4647 9.60741 26.4647 9.60742V40.392C26.4647 45.246 22.5297 49.1811 17.6757 49.1811C13.5237 49.1811 10.0464 46.303 9.12577 42.4329C6.8638 41.8916 4.81549 40.458 3.55864 38.2809C2.30125 36.1031 2.08418 33.6113 2.74742 31.3809C1.05792 29.781 0 27.5145 0 24.9997C0 22.4849 1.05792 20.2184 2.7475 18.6185C2.08427 16.3882 2.30137 13.8963 3.55874 11.7185C4.81559 9.54145 6.86383 8.10781 9.12586 7.56652ZM17.6758 3.74805C14.6507 3.74805 12.1597 6.04193 11.8496 8.98466L11.7257 10.1611L10.5496 10.2876C8.74803 10.4814 7.06774 11.5 6.09595 13.1833C5.12398 14.8668 5.08213 16.8317 5.81535 18.4888L6.29306 19.5685L5.33954 20.2646C3.87586 21.3332 2.92969 23.0558 2.92969 24.9997C2.92969 26.9436 3.87587 28.6662 5.33947 29.7348L6.29294 30.431L5.81527 31.5106C5.08202 33.1678 5.12389 35.1327 6.09583 36.8161C7.06761 38.4994 8.74802 39.518 10.5495 39.7118L11.7256 39.8384L11.8496 41.0147C12.1596 43.9574 14.6506 46.2514 17.6757 46.2514C20.9117 46.2514 23.5351 43.628 23.5351 40.392V9.60742C23.5351 6.37145 20.9118 3.74805 17.6758 3.74805Z" fill="#15D4EC"/>
<path fill-rule="evenodd" clip-rule="evenodd" d="M32.3242 3.74805C29.0882 3.74805 26.4648 6.37141 26.4648 9.60742H23.5351C23.5351 4.75339 27.4701 0.818359 32.3242 0.818359C36.4761 0.818359 39.9534 3.69633 40.8741 7.56652C43.1361 8.10781 45.1844 9.54145 46.4412 11.7185C47.6986 13.8963 47.9157 16.3882 47.2525 18.6185C48.942 20.2184 50 22.4849 50 24.9997C50 27.5145 48.942 29.781 47.2525 31.3809C47.9158 33.6113 47.6987 36.1031 46.4413 38.2809C45.1845 40.458 43.1361 41.8916 40.8742 42.4329C39.9535 46.303 36.4762 49.1811 32.3243 49.1811C27.4702 49.1811 23.5352 45.246 23.5352 40.392H26.4649C26.4649 43.628 29.0883 46.2514 32.3243 46.2514C35.3494 46.2514 37.8403 43.9574 38.1504 41.0147L38.2744 39.8384L39.4505 39.7118C41.2519 39.518 42.9323 38.4994 43.9041 36.8161C44.876 35.1327 44.9179 33.1678 44.1847 31.5106L43.707 30.431L44.6605 29.7348C46.1241 28.6662 47.0703 26.9436 47.0703 24.9997C47.0703 23.0558 46.1241 21.3332 44.6604 20.2646L43.7069 19.5685L44.1846 18.4888C44.9178 16.8317 44.876 14.8668 43.904 13.1833C42.9322 11.5 41.2519 10.4814 39.4504 10.2876L38.2743 10.1611L38.1503 8.98466C37.8402 6.04193 35.3493 3.74805 32.3242 3.74805ZM3.97339 13.281H16.0852L20.4798 17.6755H25V20.6052H19.2662L14.8717 16.2106H3.97339V13.281ZM19.2662 29.3942H25V32.3239H20.4798L16.0852 36.7185H3.97339V33.7888H14.8717L19.2662 29.3942Z" fill="#15D4EC"/>
</g>
<defs>
<clipPath id="clip0_345_105">
<rect width="50" height="50" fill="white"/>
</clipPath>
</defs>
</svg>
