<svg width="50" height="50" viewBox="0 0 50 50" fill="none" xmlns="http://www.w3.org/2000/svg">
<g clip-path="url(#clip0_3535_10)">
<path d="M45.3318 19.5802C44.131 11.0547 33.8478 4.49219 25 4.49219C16.1522 4.49219 5.86904 11.0547 4.66816 19.5802C4.46289 21.0156 0 25 0 25C0 38.7402 11.26 50 25 50C38.74 50 50 38.7402 50 25C50 25 45.5371 21.0156 45.3318 19.5802ZM1.46484 11.8164H6.71807C7.52773 11.8164 8.18291 11.1612 8.18291 10.3516C8.18291 10.1665 8.14004 9.99287 8.07773 9.82998C8.19609 9.86006 8.31309 9.89951 8.43467 9.89951C8.80947 9.89951 9.18428 9.75645 9.47031 9.47031C9.84941 9.09121 9.95312 8.56035 9.82969 8.07627C9.99277 8.13887 10.1662 8.18145 10.3515 8.18145C11.1611 8.18145 11.8163 7.52627 11.8163 6.7166V1.46484C11.8163 0.655176 11.1611 0 10.3515 0C9.5418 0 8.88672 0.655176 8.88672 1.46484V6.7166C8.88672 6.76045 8.90781 6.79727 8.91172 6.84014L5.52783 3.45654C4.95566 2.88438 4.02861 2.88438 3.45645 3.45654C2.88428 4.02871 2.88428 4.95576 3.45645 5.52793L6.83965 8.91123C6.79746 8.90742 6.76133 8.88672 6.71807 8.88672H1.46484C0.655176 8.88672 0 9.54189 0 10.3516C0 11.1612 0.655176 11.8164 1.46484 11.8164ZM39.6484 8.18145C39.8337 8.18145 40.0071 8.13887 40.1702 8.07627C40.0469 8.56035 40.1506 9.09121 40.5296 9.47031C40.6654 9.60655 40.8268 9.71461 41.0046 9.78826C41.1823 9.86192 41.3728 9.89973 41.5652 9.89951C41.6868 9.89951 41.8038 9.85996 41.9222 9.82998C41.86 9.99287 41.817 10.1665 41.817 10.3516C41.817 11.1612 42.4722 11.8164 43.2818 11.8164H48.5352C49.3448 11.8164 50 11.1612 50 10.3516C50 9.54189 49.3448 8.88672 48.5352 8.88672H43.2819C43.2387 8.88672 43.2025 8.90742 43.1604 8.91123L46.5436 5.52793C47.1157 4.95576 47.1157 4.02871 46.5436 3.45654C45.9714 2.88438 45.0443 2.88438 44.4722 3.45654L41.0883 6.84023C41.0922 6.79736 41.1133 6.76045 41.1133 6.7167V1.46484C41.1133 0.655176 40.4581 0 39.6484 0C38.8388 0 38.1836 0.655176 38.1836 1.46484V6.7166C38.1836 7.52627 38.8388 8.18145 39.6484 8.18145Z" fill="url(#paint0_linear_3535_10)"/>
<path d="M32.3242 19.1406C32.3242 15.1022 29.0397 11.8164 25 11.8164C20.9603 11.8164 17.6758 15.1022 17.6758 19.1406C17.6758 23.179 20.9603 26.4648 25 26.4648C29.0397 26.4648 32.3242 23.179 32.3242 19.1406ZM25 41.1133C24.191 41.1133 23.5352 41.7691 23.5352 42.5781C23.5352 43.3871 24.191 44.043 25 44.043C25.809 44.043 26.4648 43.3871 26.4648 42.5781C26.4648 41.7691 25.809 41.1133 25 41.1133ZM15.6788 33.2555C15.1066 33.8276 15.1066 34.7547 15.6788 35.3269C16.251 35.899 17.178 35.899 17.7502 35.3269C21.7499 31.33 28.2502 31.33 32.2499 35.3269C32.8222 35.899 33.7491 35.899 34.3213 35.3269C34.8935 34.7547 34.8935 33.8276 34.3213 33.2555C29.1828 28.1143 20.8172 28.1143 15.6788 33.2555ZM19.8216 37.3997C19.2494 37.9719 19.2494 38.8989 19.8216 39.4711C20.3938 40.0433 21.3208 40.0433 21.893 39.4711C23.6039 37.7573 26.3962 37.7573 28.1071 39.4711C28.6794 40.0433 29.6063 40.0433 30.1785 39.4711C30.7507 38.8989 30.7507 37.9719 30.1785 37.3997C27.3231 34.5443 22.6769 34.5443 19.8216 37.3997ZM25 0C11.26 0 0 11.2598 0 25H4.72676C6.1623 25 7.39248 23.9453 7.59775 22.5099C8.79873 13.9844 16.1522 7.42188 25 7.42188C33.8478 7.42188 41.2013 13.9844 42.4021 22.5099C42.6074 23.9453 43.8377 25 45.2732 25H50C50 11.2598 38.74 0 25 0Z" fill="url(#paint1_linear_3535_10)"/>
</g>
<defs>
<linearGradient id="paint0_linear_3535_10" x1="25" y1="50" x2="25" y2="0" gradientUnits="userSpaceOnUse">
<stop stop-color="#A93AFF"/>
<stop offset="1" stop-color="#FF81FF"/>
</linearGradient>
<linearGradient id="paint1_linear_3535_10" x1="25" y1="44.043" x2="25" y2="0" gradientUnits="userSpaceOnUse">
<stop stop-color="#FFBEF9"/>
<stop offset="1" stop-color="#FFF1FF"/>
</linearGradient>
<clipPath id="clip0_3535_10">
<rect width="50" height="50" fill="white"/>
</clipPath>
</defs>
</svg>
