<svg width="50" height="50" viewBox="0 0 50 50" fill="none" xmlns="http://www.w3.org/2000/svg">
<g clip-path="url(#clip0_3535_6)">
<path d="M8.78906 36.7188C8.78906 35.9091 8.13389 35.2539 7.32422 35.2539C6.51455 35.2539 5.85938 35.9091 5.85938 36.7188V42.6758C5.85938 43.4854 6.51455 44.1406 7.32422 44.1406C8.13389 44.1406 8.78906 43.4854 8.78906 42.6758V36.7188ZM41.2109 4.39453C41.2109 3.58486 40.5558 2.92969 39.7461 2.92969H27.9297C27.12 2.92969 26.4648 3.58486 26.4648 4.39453C26.4648 5.2042 27.12 5.85938 27.9297 5.85938H39.7461C40.5558 5.85938 41.2109 5.2042 41.2109 4.39453ZM41.2109 13.2812C41.2109 14.0909 41.8661 14.7461 42.6758 14.7461C43.4854 14.7461 44.1406 14.0909 44.1406 13.2812V7.32422C44.1406 6.51455 43.4854 5.85938 42.6758 5.85938C41.8661 5.85938 41.2109 6.51455 41.2109 7.32422V13.2812ZM25 14.7461C25.8097 14.7461 26.4648 14.0909 26.4648 13.2812V7.32422C26.4648 6.51455 25.8097 5.85938 25 5.85938C24.1903 5.85938 23.5352 6.51455 23.5352 7.32422V13.2812C23.5352 14.0909 24.1903 14.7461 25 14.7461ZM22.0703 44.1406H10.2539C9.44424 44.1406 8.78906 44.7958 8.78906 45.6055C8.78906 46.4151 9.44424 47.0703 10.2539 47.0703H22.0703C22.88 47.0703 23.5352 46.4151 23.5352 45.6055C23.5352 44.7958 22.88 44.1406 22.0703 44.1406ZM10.2539 30.8594C10.2539 29.2443 8.94072 27.9297 7.32422 27.9297C5.70771 27.9297 4.39453 29.2443 4.39453 30.8594C4.39453 32.4744 5.70771 33.7891 7.32422 33.7891C8.94072 33.7891 10.2539 32.4744 10.2539 30.8594ZM25 35.2539C24.1903 35.2539 23.5352 35.9091 23.5352 36.7188V42.6758C23.5352 43.4854 24.1903 44.1406 25 44.1406C25.8097 44.1406 26.4648 43.4854 26.4648 42.6758V36.7188C26.4648 35.9091 25.8097 35.2539 25 35.2539ZM22.0703 30.8594C22.0703 32.4744 23.3835 33.7891 25 33.7891C26.6165 33.7891 27.9297 32.4744 27.9297 30.8594C27.9297 29.2443 26.6165 27.9297 25 27.9297C23.3835 27.9297 22.0703 29.2443 22.0703 30.8594ZM42.6758 27.9297C41.0593 27.9297 39.7461 29.2443 39.7461 30.8594C39.7461 32.4744 41.0593 33.7891 42.6758 33.7891C44.2923 33.7891 45.6055 32.4744 45.6055 30.8594C45.6055 29.2443 44.2923 27.9297 42.6758 27.9297ZM10.2539 25C10.2539 23.385 8.94072 22.0703 7.32422 22.0703C5.70771 22.0703 4.39453 23.385 4.39453 25C4.39453 26.615 5.70771 27.9297 7.32422 27.9297C8.94072 27.9297 10.2539 26.615 10.2539 25ZM27.9297 25C27.9297 23.385 26.6165 22.0703 25 22.0703C23.3835 22.0703 22.0703 23.385 22.0703 25C22.0703 26.615 23.3835 27.9297 25 27.9297C26.6165 27.9297 27.9297 26.615 27.9297 25ZM45.6055 25C45.6055 23.385 44.2923 22.0703 42.6758 22.0703C41.0593 22.0703 39.7461 23.385 39.7461 25C39.7461 26.615 41.0593 27.9297 42.6758 27.9297C44.2923 27.9297 45.6055 26.615 45.6055 25Z" fill="url(#paint0_linear_3535_6)"/>
<path d="M7.32422 41.2109C4.90098 41.2109 2.92969 43.1822 2.92969 45.6055C2.92969 48.0287 4.90098 50 7.32422 50C9.74746 50 11.7188 48.0287 11.7188 45.6055C11.7188 43.1822 9.74746 41.2109 7.32422 41.2109ZM13.1836 11.8164H1.46484C0.655176 11.8164 0 12.4716 0 13.2812V36.7188C0 37.5284 0.655176 38.1836 1.46484 38.1836H13.1836C13.9933 38.1836 14.6484 37.5284 14.6484 36.7188V13.2812C14.6484 12.4716 13.9933 11.8164 13.1836 11.8164ZM7.32422 32.3242C6.51523 32.3242 5.85938 31.6684 5.85938 30.8594C5.85938 30.0502 6.51523 29.3945 7.32422 29.3945C8.1332 29.3945 8.78906 30.0502 8.78906 30.8594C8.78906 31.6684 8.1332 32.3242 7.32422 32.3242ZM7.32422 26.4648C6.51523 26.4648 5.85938 25.809 5.85938 25C5.85938 24.1908 6.51523 23.5352 7.32422 23.5352C8.1332 23.5352 8.78906 24.1908 8.78906 25C8.78906 25.809 8.1332 26.4648 7.32422 26.4648ZM30.8594 11.8164H19.1406C18.331 11.8164 17.6758 12.4716 17.6758 13.2812V36.7188C17.6758 37.5284 18.331 38.1836 19.1406 38.1836H30.8594C31.669 38.1836 32.3242 37.5284 32.3242 36.7188V13.2812C32.3242 12.4716 31.669 11.8164 30.8594 11.8164ZM25 32.3242C24.191 32.3242 23.5352 31.6684 23.5352 30.8594C23.5352 30.0502 24.191 29.3945 25 29.3945C25.809 29.3945 26.4648 30.0502 26.4648 30.8594C26.4648 31.6684 25.809 32.3242 25 32.3242ZM25 26.4648C24.191 26.4648 23.5352 25.809 23.5352 25C23.5352 24.1908 24.191 23.5352 25 23.5352C25.809 23.5352 26.4648 24.1908 26.4648 25C26.4648 25.809 25.809 26.4648 25 26.4648ZM48.5352 11.8164H36.8164C36.0067 11.8164 35.3516 12.4716 35.3516 13.2812V36.7188C35.3516 37.5284 36.0067 38.1836 36.8164 38.1836H48.5352C49.3448 38.1836 50 37.5284 50 36.7188V13.2812C50 12.4716 49.3448 11.8164 48.5352 11.8164ZM42.6758 32.3242C41.8668 32.3242 41.2109 31.6684 41.2109 30.8594C41.2109 30.0502 41.8668 29.3945 42.6758 29.3945C43.4848 29.3945 44.1406 30.0502 44.1406 30.8594C44.1406 31.6684 43.4848 32.3242 42.6758 32.3242ZM42.6758 26.4648C41.8668 26.4648 41.2109 25.809 41.2109 25C41.2109 24.1908 41.8668 23.5352 42.6758 23.5352C43.4848 23.5352 44.1406 24.1908 44.1406 25C44.1406 25.809 43.4848 26.4648 42.6758 26.4648ZM25 41.2109C22.5768 41.2109 20.6055 43.1822 20.6055 45.6055C20.6055 48.0287 22.5768 50 25 50C27.4232 50 29.3945 48.0287 29.3945 45.6055C29.3945 43.1822 27.4232 41.2109 25 41.2109ZM42.6758 8.88672C45.099 8.88672 47.0703 6.81777 47.0703 4.39453C47.0703 1.97129 45.099 0 42.6758 0C40.2525 0 38.2812 1.97129 38.2812 4.39453C38.2812 6.81777 40.2525 8.88672 42.6758 8.88672ZM25 8.88672C27.4232 8.88672 29.3945 6.81777 29.3945 4.39453C29.3945 1.97129 27.4232 0 25 0C22.5768 0 20.6055 1.97129 20.6055 4.39453C20.6055 6.81777 22.5768 8.88672 25 8.88672Z" fill="url(#paint1_linear_3535_6)"/>
</g>
<defs>
<linearGradient id="paint0_linear_3535_6" x1="25" y1="47.0703" x2="25" y2="2.92969" gradientUnits="userSpaceOnUse">
<stop stop-color="#FFBEF9"/>
<stop offset="1" stop-color="#FFF1FF"/>
</linearGradient>
<linearGradient id="paint1_linear_3535_6" x1="25" y1="50" x2="25" y2="0" gradientUnits="userSpaceOnUse">
<stop stop-color="#A93AFF"/>
<stop offset="1" stop-color="#FF81FF"/>
</linearGradient>
<clipPath id="clip0_3535_6">
<rect width="50" height="50" fill="white"/>
</clipPath>
</defs>
</svg>
