<svg width="50" height="50" viewBox="0 0 50 50" fill="none" xmlns="http://www.w3.org/2000/svg">
<path d="M14.7461 35.1562H13.2812V21.9727C13.2812 19.541 11.3184 17.5781 8.88672 17.5781H5.95703C3.52529 17.5781 1.5625 19.541 1.5625 21.9727V33.6914C1.5625 35.5956 2.79287 37.2362 4.49219 37.8222L5.95703 41.0156L7.42188 38.0859H14.7461C15.5665 38.0859 16.2109 38.7304 16.2109 39.5508V48.5352C16.2109 49.3554 16.8554 50 17.6758 50C18.4962 50 19.1406 49.3554 19.1406 48.5352V39.5508C19.1406 37.1191 17.1777 35.1562 14.7461 35.1562ZM44.043 17.5781H41.1133C38.6816 17.5781 36.7188 19.541 36.7188 21.9727V35.1562H35.2539C32.8223 35.1562 30.8594 37.1191 30.8594 39.5508V48.5352C30.8594 49.3554 31.5038 50 32.3242 50C33.1446 50 33.7891 49.3554 33.7891 48.5352V39.5508C33.7891 38.7304 34.4335 38.0859 35.2539 38.0859H42.5781L44.043 41.0156L45.5078 37.8222C47.207 37.2362 48.4375 35.5956 48.4375 33.6914V21.9727C48.4375 19.541 46.4746 17.5781 44.043 17.5781ZM17.6758 27.832H32.3242C33.1446 27.832 33.7891 27.1874 33.7891 26.3672V16.1133C33.7891 13.6816 31.8262 11.7188 29.3945 11.7188H26.4648L25 14.6484L23.5352 11.7188H20.6055C18.1738 11.7188 16.2109 13.6816 16.2109 16.1133V26.3672C16.2109 27.1874 16.8554 27.832 17.6758 27.832ZM25 11.7188C28.2301 11.7188 30.8594 9.09092 30.8594 5.85938C30.8594 2.62783 28.2301 0 25 0C21.7699 0 19.1406 2.62783 19.1406 5.85938C19.1406 9.09092 21.7699 11.7188 25 11.7188ZM13.2812 11.7188C13.2812 8.48721 10.652 5.85938 7.42188 5.85938C4.1918 5.85938 1.5625 8.48721 1.5625 11.7188C1.5625 14.9503 4.1918 17.5781 7.42188 17.5781C10.652 17.5781 13.2812 14.9503 13.2812 11.7188ZM48.4375 11.7188C48.4375 8.48721 45.8082 5.85938 42.5781 5.85938C39.348 5.85938 36.7188 8.48721 36.7188 11.7188C36.7188 14.9503 39.348 17.5781 42.5781 17.5781C45.8082 17.5781 48.4375 14.9503 48.4375 11.7188Z" fill="url(#paint0_linear_3535_2)"/>
<path d="M8.88672 47.0703H7.42188V38.0859H5.95703C5.42969 38.0859 4.96084 37.998 4.49219 37.8222V47.0703H3.02734C2.20693 47.0703 1.5625 47.7147 1.5625 48.5352C1.5625 49.3554 2.20693 50 3.02734 50H8.88672C9.70713 50 10.3516 49.3554 10.3516 48.5352C10.3516 47.7147 9.70713 47.0703 8.88672 47.0703ZM46.9727 47.0703H45.5078V37.8222C45.0392 37.998 44.5703 38.0859 44.043 38.0859H42.5781V47.0703H41.1133C40.2929 47.0703 39.6484 47.7147 39.6484 48.5352C39.6484 49.3554 40.2929 50 41.1133 50H46.9727C47.7931 50 48.4375 49.3554 48.4375 48.5352C48.4375 47.7147 47.7931 47.0703 46.9727 47.0703ZM25 20.5078C25.8204 20.5078 26.4648 19.8632 26.4648 19.043V11.7188H23.5352V19.043C23.5352 19.8632 24.1796 20.5078 25 20.5078ZM42.5781 27.832C42.5781 27.0224 41.9229 26.3672 41.1133 26.3672H8.88672C8.07705 26.3672 7.42188 27.0224 7.42188 27.832C7.42188 28.6417 8.07705 29.2969 8.88672 29.2969H23.5352V48.5352C23.5352 49.3448 24.1903 50 25 50C25.8097 50 26.4648 49.3448 26.4648 48.5352V29.2969H41.1133C41.9229 29.2969 42.5781 28.6417 42.5781 27.832Z" fill="url(#paint1_linear_3535_2)"/>
<defs>
<linearGradient id="paint0_linear_3535_2" x1="25" y1="50" x2="25" y2="0" gradientUnits="userSpaceOnUse">
<stop stop-color="#A93AFF"/>
<stop offset="1" stop-color="#FF81FF"/>
</linearGradient>
<linearGradient id="paint1_linear_3535_2" x1="25" y1="50" x2="25" y2="11.7188" gradientUnits="userSpaceOnUse">
<stop stop-color="#FFBEF9"/>
<stop offset="1" stop-color="#FFF1FF"/>
</linearGradient>
</defs>
</svg>
