<svg width="50" height="50" viewBox="0 0 50 50" fill="none" xmlns="http://www.w3.org/2000/svg">
<g clip-path="url(#clip0_3535_18)">
<path d="M2.35156 25C2.35156 37.9232 12.8658 48.5352 25.7891 48.5352V1.46484C12.8658 1.46484 2.35156 12.0768 2.35156 25ZM40.4375 14.7461C34.9796 14.7461 30.8641 19.7379 31.9346 25.1173L36.0716 45.7953C36.1379 46.1273 36.3173 46.4261 36.5792 46.6408C36.8411 46.8554 37.1692 46.9727 37.5078 46.9727H43.3672C43.7058 46.9727 44.0339 46.8554 44.2958 46.6408C44.5577 46.4261 44.7371 46.1273 44.8034 45.7953L48.9404 25.1158C50.0078 19.7552 45.9124 14.7461 40.4375 14.7461Z" fill="url(#paint0_linear_3535_18)"/>
<path d="M40.4375 3.02734C37.2074 3.02734 34.5781 5.65518 34.5781 8.88672C34.5781 12.1183 37.2074 14.7461 40.4375 14.7461C43.6676 14.7461 46.2969 12.1183 46.2969 8.88672C46.2969 5.65518 43.6676 3.02734 40.4375 3.02734ZM25.7891 0C11.9592 0 0.886719 11.4496 0.886719 25C0.886719 38.4973 11.9122 50 25.7891 50C26.5987 50 27.2539 49.3448 27.2539 48.5352V1.46484C27.2539 0.655176 26.5987 0 25.7891 0ZM18.34 4.33506C16.8104 6.28262 15.5302 8.83975 14.5624 11.8164H8.23955C10.7895 8.43145 14.2849 5.80146 18.34 4.33506ZM6.36846 14.7461H13.7441C13.1147 17.4416 12.736 20.402 12.6434 23.5352H3.8876C4.09717 20.3789 4.96084 17.4012 6.36846 14.7461ZM6.36846 35.2539C4.96084 32.5988 4.09717 29.6211 3.8876 26.4648H12.6434C12.7359 29.598 13.1147 32.5584 13.7441 35.2539H6.36846ZM8.23955 38.1836H14.5624C15.5302 41.1603 16.8104 43.7174 18.34 45.6649C14.2849 44.1985 10.7895 41.5686 8.23955 38.1836ZM24.3242 46.7104C21.6435 45.8452 19.2688 42.6709 17.6645 38.1836H24.3242V46.7104ZM24.3242 35.2539H16.7661C16.0895 32.5856 15.6732 29.6021 15.5709 26.4648H24.3242V35.2539ZM24.3242 23.5352H15.5709C15.6731 20.3979 16.0895 17.4144 16.7661 14.7461H24.3242V23.5352ZM24.3242 11.8164H17.6645C19.2688 7.3291 21.6435 4.15479 24.3242 3.28965V11.8164Z" fill="url(#paint1_linear_3535_18)"/>
</g>
<defs>
<linearGradient id="paint0_linear_3535_18" x1="25.731" y1="48.5352" x2="25.731" y2="1.46484" gradientUnits="userSpaceOnUse">
<stop stop-color="#A93AFF"/>
<stop offset="1" stop-color="#FF81FF"/>
</linearGradient>
<linearGradient id="paint1_linear_3535_18" x1="23.5918" y1="50" x2="23.5918" y2="0" gradientUnits="userSpaceOnUse">
<stop stop-color="#FFBEF9"/>
<stop offset="1" stop-color="#FFF1FF"/>
</linearGradient>
<clipPath id="clip0_3535_18">
<rect width="50" height="50" fill="white"/>
</clipPath>
</defs>
</svg>
