<svg width="50" height="50" viewBox="0 0 50 50" fill="none" xmlns="http://www.w3.org/2000/svg">
<g clip-path="url(#clip0_3534_3809)">
<path d="M38.1836 5.95703V1.46484C38.1836 0.655176 37.5284 0 36.7188 0H1.46484C0.655176 0 0 0.655176 0 1.46484V5.95703C0 7.5751 1.31162 8.88672 2.92969 8.88672H35.2539C36.872 8.88672 38.1836 7.5751 38.1836 5.95703ZM48.5352 23.5352H38.1836L25.7324 22.0703H30.8594V10.3516H7.42188V22.0703H11.8164L8.88672 25L11.8164 26.4648V29.3945C11.8164 31.0059 13.1348 32.3242 14.7461 32.3242H47.0703C48.6816 32.3242 50 31.0059 50 29.3945V25C50 24.1796 49.3556 23.5352 48.5352 23.5352ZM19.1406 45.5078H42.5781V33.7891H19.1406V45.5078Z" fill="url(#paint0_linear_3534_3809)"/>
<path d="M1.46484 26.4648H11.8164V25C11.8164 24.1796 12.4608 23.5352 13.2812 23.5352H38.1836V5.95703H0V25C0 25.8202 0.644434 26.4648 1.46484 26.4648ZM23.9747 14.3065C23.3888 13.7499 23.3888 12.8124 23.9747 12.2558C24.5313 11.6699 25.4687 11.6699 26.0254 12.2558L28.9551 15.1854C29.541 15.7421 29.541 16.6796 28.9551 17.2362L26.0254 20.1659C25.4984 20.7519 24.502 20.7521 23.9747 20.1659C23.3888 19.6093 23.3888 18.6718 23.9747 18.1151L25.8495 16.2109L23.9747 14.3065ZM16.9727 18.7891L18.4375 12.9297C18.6426 12.1386 19.4335 11.6699 20.2246 11.8748C21.0157 12.0506 21.4844 12.8417 21.3086 13.6327L19.8437 19.4921C19.5941 20.449 18.5131 20.7753 18.0566 20.5468C17.2656 20.3711 16.7969 19.58 16.9727 18.7891ZM9.32627 15.1854L12.256 12.2558C12.8126 11.6699 13.7499 11.6699 14.3066 12.2558C14.8926 12.8124 14.8926 13.7499 14.3066 14.3065L12.4317 16.2109L14.3066 18.1151C14.8926 18.6718 14.8926 19.6093 14.3066 20.1659C13.7797 20.7519 12.7832 20.7521 12.256 20.1659L9.32627 17.2362C8.74023 16.6796 8.74023 15.7421 9.32627 15.1854ZM6.28857 34.8247C6.86074 35.3969 7.7877 35.3969 8.35996 34.8247C8.93213 34.2525 8.93213 33.3255 8.35996 32.7533L5.43203 29.8254C4.86016 29.252 3.92539 29.2556 3.35703 29.8254L0.429199 32.7534C-0.142969 33.3256 -0.142969 34.2526 0.429199 34.8248C1.00137 35.397 1.92842 35.397 2.50059 34.8248L2.92969 34.3956V39.6484C2.92969 42.0717 4.90098 44.043 7.32422 44.043C8.13389 44.043 8.78906 43.3878 8.78906 42.5781C8.78906 41.7685 8.13389 41.1133 7.32422 41.1133C6.51738 41.1133 5.85938 40.4566 5.85938 39.6484V34.3956L6.28857 34.8247ZM43.7114 15.1753C43.1393 14.6031 42.2122 14.6031 41.64 15.1753C41.0679 15.7475 41.0679 16.6745 41.64 17.2467L44.568 20.1746C44.8429 20.4502 45.2255 20.6055 45.6055 20.6055C45.9854 20.6055 46.3681 20.4502 46.643 20.1745L49.5709 17.2466C50.1431 16.6744 50.1431 15.7474 49.5709 15.1752C48.9987 14.603 48.0717 14.603 47.4995 15.1752L47.0703 15.6044V10.3516C47.0703 7.92832 45.099 5.95703 42.6758 5.95703C41.8661 5.95703 41.2109 6.61221 41.2109 7.42188C41.2109 8.23154 41.8661 8.88672 42.6758 8.88672C43.4826 8.88672 44.1406 9.54336 44.1406 10.3516V15.6044L43.7114 15.1753ZM11.8164 48.5352C11.8164 49.3554 12.4608 50 13.2812 50H48.5352C49.3556 50 50 49.3554 50 48.5352V29.3945H11.8164V48.5352ZM35.6935 37.744C35.1075 37.1874 35.1075 36.2499 35.6935 35.6933C36.2501 35.1074 37.1874 35.1074 37.7441 35.6933L40.6738 38.6229C41.2598 39.1796 41.2598 40.1171 40.6738 40.6737L37.7441 43.6034C37.2172 44.1894 36.2207 44.1896 35.6935 43.6034C35.1075 43.0468 35.1075 42.1093 35.6935 41.5526L37.5683 39.6484L35.6935 37.744ZM28.6914 42.2266L30.1562 36.3672C30.3613 35.5761 31.1522 35.1074 31.9434 35.3123C32.7345 35.4881 33.2031 36.2792 33.0273 37.0702L31.5625 42.9296C31.3129 43.8865 30.2318 44.2128 29.7754 43.9843C28.9844 43.8086 28.5156 43.0175 28.6914 42.2266ZM21.045 38.6229L23.9747 35.6933C24.5313 35.1074 25.4687 35.1074 26.0254 35.6933C26.6113 36.2499 26.6113 37.1874 26.0254 37.744L24.1505 39.6484L26.0254 41.5526C26.6113 42.1093 26.6113 43.0468 26.0254 43.6034C25.4984 44.1894 24.502 44.1896 23.9747 43.6034L21.045 40.6737C20.459 40.1171 20.459 39.1796 21.045 38.6229Z" fill="url(#paint1_linear_3534_3809)"/>
</g>
<defs>
<linearGradient id="paint0_linear_3534_3809" x1="25" y1="45.5078" x2="25" y2="0" gradientUnits="userSpaceOnUse">
<stop stop-color="#A93AFF"/>
<stop offset="1" stop-color="#FF81FF"/>
</linearGradient>
<linearGradient id="paint1_linear_3534_3809" x1="25" y1="50" x2="25" y2="5.95703" gradientUnits="userSpaceOnUse">
<stop stop-color="#FFBEF9"/>
<stop offset="1" stop-color="#FFF1FF"/>
</linearGradient>
<clipPath id="clip0_3534_3809">
<rect width="50" height="50" fill="white"/>
</clipPath>
</defs>
</svg>
