<svg width="50" height="50" viewBox="0 0 50 50" fill="none" xmlns="http://www.w3.org/2000/svg">
<g clip-path="url(#clip0_3535_22)">
<path d="M39.6484 20.5078H10.3516C9.54258 20.5078 8.88672 19.852 8.88672 19.043V1.46484C8.88672 0.655859 9.54258 0 10.3516 0H39.6484C40.4574 0 41.1133 0.655859 41.1133 1.46484V19.043C41.1133 19.852 40.4574 20.5078 39.6484 20.5078ZM31.3477 24.9023C31.3477 24.0934 30.6918 23.4375 29.8828 23.4375H20.1172C19.3082 23.4375 18.6523 24.0934 18.6523 24.9023C18.6523 25.7113 19.3082 26.3672 20.1172 26.3672H29.8828C30.6918 26.3672 31.3477 25.7113 31.3477 24.9023ZM25 50C22.5769 50 20.6055 48.0286 20.6055 45.6055C20.6055 43.1823 22.5769 41.2109 25 41.2109C27.4231 41.2109 29.3945 43.1823 29.3945 45.6055C29.3945 48.0286 27.4231 50 25 50ZM35.2539 45.1172C32.8308 45.1172 30.8594 43.1458 30.8594 40.7227C30.8594 38.2995 32.8308 36.3281 35.2539 36.3281C37.6771 36.3281 39.6484 38.2995 39.6484 40.7227C39.6484 43.1458 37.6771 45.1172 35.2539 45.1172ZM14.7461 45.1172C12.3229 45.1172 10.3516 43.1458 10.3516 40.7227C10.3516 38.2995 12.3229 36.3281 14.7461 36.3281C17.1692 36.3281 19.1406 38.2995 19.1406 40.7227C19.1406 43.1458 17.1692 45.1172 14.7461 45.1172ZM45.5078 50C43.0847 50 41.1133 48.0286 41.1133 45.6055C41.1133 43.1823 43.0847 41.2109 45.5078 41.2109C47.931 41.2109 49.9023 43.1823 49.9023 45.6055C49.9023 48.0286 47.931 50 45.5078 50ZM4.49219 50C2.06904 50 0.0976562 48.0286 0.0976562 45.6055C0.0976562 43.1823 2.06904 41.2109 4.49219 41.2109C6.91533 41.2109 8.88672 43.1823 8.88672 45.6055C8.88672 48.0286 6.91533 50 4.49219 50Z" fill="url(#paint0_linear_3535_22)"/>
<path d="M3.02734 41.4629V30.957C3.02734 30.148 3.6832 29.4922 4.49219 29.4922H23.5352V26.3672H26.4648V29.4922H45.5078C46.3168 29.4922 46.9727 30.148 46.9727 30.957V41.4629C46.5142 41.3003 46.0213 41.2109 45.5078 41.2109C44.9943 41.2109 44.5015 41.3003 44.043 41.4629V32.4219H36.7188V36.5801C36.2603 36.4175 35.7674 36.3281 35.2539 36.3281C34.7404 36.3281 34.2476 36.4175 33.7891 36.5801V32.4219H26.4648V41.4629C26.0063 41.3003 25.5135 41.2109 25 41.2109C24.4865 41.2109 23.9937 41.3003 23.5352 41.4629V32.4219H16.2109V36.5801C15.7524 36.4175 15.2596 36.3281 14.7461 36.3281C14.2326 36.3281 13.7397 36.4175 13.2812 36.5801V32.4219H5.95703V41.4629C5.49854 41.3003 5.00566 41.2109 4.49219 41.2109C3.97871 41.2109 3.48584 41.3003 3.02734 41.4629ZM11.8164 2.92969H38.1836V17.5781H11.8164V2.92969ZM21.0938 23.4375H28.9062V20.5078H21.0938V23.4375Z" fill="url(#paint1_linear_3535_22)"/>
</g>
<defs>
<linearGradient id="paint0_linear_3535_22" x1="25" y1="50" x2="25" y2="0" gradientUnits="userSpaceOnUse">
<stop stop-color="#A93AFF"/>
<stop offset="1" stop-color="#FF81FF"/>
</linearGradient>
<linearGradient id="paint1_linear_3535_22" x1="25" y1="41.4629" x2="25" y2="2.92969" gradientUnits="userSpaceOnUse">
<stop stop-color="#FFBEF9"/>
<stop offset="1" stop-color="#FFF1FF"/>
</linearGradient>
<clipPath id="clip0_3535_22">
<rect width="50" height="50" fill="white"/>
</clipPath>
</defs>
</svg>
