<svg width="50" height="50" viewBox="0 0 50 50" fill="none" xmlns="http://www.w3.org/2000/svg">
<path d="M17.6758 32.0138V35.2539H32.3242V32.0138C37.6943 29.27 41.1133 23.7439 41.1133 17.6758C41.1133 8.79092 33.8849 1.5625 25 1.5625C16.1151 1.5625 8.88672 8.79092 8.88672 17.6758C8.88672 23.744 12.3057 29.2701 17.6758 32.0138Z" fill="url(#paint0_linear_3535_14)"/>
<path d="M5.85938 17.6765C5.85938 16.8668 5.2042 16.2116 4.39453 16.2116H1.46484C0.655176 16.2116 0 16.8668 0 17.6765C0 18.4861 0.655176 19.1413 1.46484 19.1413H4.39453C5.2042 19.1413 5.85938 18.4861 5.85938 17.6765ZM7.97266 6.15371L5.43496 4.68886C4.73398 4.28398 3.83848 4.52431 3.43369 5.22529C3.02891 5.92627 3.26914 6.82177 3.97012 7.22656L6.50781 8.6914C7.20205 9.09238 8.10039 8.86054 8.50908 8.15498C8.91387 7.454 8.67354 6.55849 7.97266 6.15371ZM6.50781 26.6615L3.97012 28.1264C3.26914 28.5312 3.02881 29.4267 3.43369 30.1276C3.84307 30.8344 4.7418 31.0645 5.43496 30.6641L7.97266 29.1992C8.67363 28.7943 8.91397 27.8989 8.50908 27.1979C8.10137 26.4984 7.20439 26.2581 6.50781 26.6615ZM48.5352 16.2116H45.6055C44.7958 16.2116 44.1406 16.8668 44.1406 17.6765C44.1406 18.4861 44.7958 19.1413 45.6055 19.1413H48.5352C49.3448 19.1413 50 18.4861 50 17.6765C50 16.8668 49.3448 16.2116 48.5352 16.2116ZM43.4922 8.6914L46.0299 7.22656C46.7309 6.82168 46.9712 5.92627 46.5663 5.22529C46.1601 4.52431 45.2603 4.28398 44.565 4.68886L42.0273 6.15371C41.3264 6.55859 41.086 7.454 41.4909 8.15498C41.9003 8.86172 42.799 9.09179 43.4922 8.6914ZM46.03 28.1264L43.4923 26.6615C42.7913 26.2581 41.8944 26.4984 41.491 27.1979C41.0861 27.8989 41.3265 28.7944 42.0274 29.1992L44.5651 30.6641C45.2594 31.065 46.1577 30.8332 46.5664 30.1276C46.9712 29.4267 46.7309 28.5311 46.03 28.1264ZM16.1194 22.8034C16.5282 23.5091 17.4266 23.7408 18.1207 23.3398L19.5462 22.5169C20.5794 23.6797 21.9548 24.5304 23.5352 24.8523V26.4655C23.5352 27.2752 24.1903 27.9304 25 27.9304C25.8097 27.9304 26.4648 27.2752 26.4648 26.4655V24.8524C28.0452 24.5304 29.4206 23.6798 30.4538 22.517L31.8793 23.3399C32.5725 23.7403 33.4712 23.5103 33.8806 22.8035C34.2855 22.1025 34.0451 21.207 33.3441 20.8022L31.9176 19.9788C32.1609 19.2504 32.3242 18.4854 32.3242 17.6765C32.3242 16.8675 32.1609 16.1025 31.9176 15.3742L33.3441 14.5508C34.0451 14.1459 34.2855 13.2505 33.8806 12.5495C33.4743 11.8485 32.576 11.6068 31.8793 12.0131L30.4538 12.836C29.4206 11.6732 28.0452 10.8226 26.4648 10.5006V8.8874C26.4648 8.07773 25.8097 7.42256 25 7.42256C24.1903 7.42256 23.5352 8.07773 23.5352 8.8874V10.5005C21.9548 10.8226 20.5794 11.6731 19.5462 12.8359L18.1207 12.013C17.4184 11.6067 16.5229 11.8484 16.1194 12.5494C15.7146 13.2504 15.9549 14.1459 16.6559 14.5507L18.0824 15.3741C17.8391 16.1025 17.6758 16.8675 17.6758 17.6765C17.6758 18.4854 17.8391 19.2504 18.0824 19.9787L16.6559 20.8021C15.9549 21.2069 15.7146 22.1024 16.1194 22.8034ZM25 16.2116C25.809 16.2116 26.4648 16.8673 26.4648 17.6765C26.4648 18.4854 25.809 19.1413 25 19.1413C24.191 19.1413 23.5352 18.4854 23.5352 17.6765C23.5352 16.8673 24.191 16.2116 25 16.2116ZM33.7891 33.7897H16.2109C15.4013 33.7897 14.7461 34.4449 14.7461 35.2546C14.7461 36.0643 15.4013 36.7194 16.2109 36.7194H17.6758V38.1843C17.6758 40.6075 19.6471 42.5788 22.0703 42.5788H27.9297C30.3529 42.5788 32.3242 40.6075 32.3242 38.1843V36.7194H33.7891C34.5987 36.7194 35.2539 36.0643 35.2539 35.2546C35.2539 34.4449 34.5987 33.7897 33.7891 33.7897ZM27.9297 45.5085H22.0703C21.2606 45.5085 20.6055 46.1637 20.6055 46.9733C20.6055 47.783 21.2606 48.4382 22.0703 48.4382H27.9297C28.7394 48.4382 29.3945 47.783 29.3945 46.9733C29.3945 46.1637 28.7394 45.5085 27.9297 45.5085Z" fill="url(#paint1_linear_3535_14)"/>
<defs>
<linearGradient id="paint0_linear_3535_14" x1="25" y1="35.2539" x2="25" y2="1.5625" gradientUnits="userSpaceOnUse">
<stop stop-color="#A93AFF"/>
<stop offset="1" stop-color="#FF81FF"/>
</linearGradient>
<linearGradient id="paint1_linear_3535_14" x1="25" y1="48.4382" x2="25" y2="4.49219" gradientUnits="userSpaceOnUse">
<stop stop-color="#FFBEF9"/>
<stop offset="1" stop-color="#FFF1FF"/>
</linearGradient>
</defs>
</svg>
