<svg width="50" height="50" viewBox="0 0 50 50" fill="none" xmlns="http://www.w3.org/2000/svg">
<g clip-path="url(#clip0_3273_111)">
<path d="M50 9.375V40.625C50 41.434 49.3441 42.0898 48.5352 42.0898H28.0273C27.2184 42.0898 26.5625 41.434 26.5625 40.625V17.1875H34.375C35.184 17.1875 35.8398 16.5316 35.8398 15.7227V7.91016H48.5352C49.3441 7.91016 50 8.56602 50 9.375ZM21.9727 7.91016H9.27734V15.7227C9.27734 16.5316 8.62148 17.1875 7.8125 17.1875H0V40.625C0 41.434 0.655859 42.0898 1.46484 42.0898H21.9727C22.7816 42.0898 23.4375 41.434 23.4375 40.625V9.375C23.4375 8.56602 22.7816 7.91016 21.9727 7.91016Z" fill="url(#paint0_linear_3273_111)"/>
<path d="M35.8398 15.7227C35.8398 16.5316 35.184 17.1875 34.375 17.1875H26.5625C26.5625 16.799 26.7168 16.4264 26.9915 16.1517L34.804 8.33916C35.0788 8.06448 35.4513 7.91017 35.8398 7.91016V15.7227ZM9.27734 7.91016C8.88887 7.91016 8.51631 8.06445 8.2416 8.33916L0.429102 16.1517C0.293054 16.2877 0.185136 16.4492 0.111509 16.6269C0.0378832 16.8046 -8.01699e-06 16.9951 1.27231e-09 17.1875H7.8125C8.62148 17.1875 9.27734 16.5316 9.27734 15.7227V7.91016ZM34.9226 35.8015L38.8288 31.8952C39.7516 30.9724 39.098 29.3945 37.793 29.3945H14.1602C13.3512 29.3945 12.6953 30.0504 12.6953 30.8594C12.6953 31.6684 13.3512 32.3242 14.1602 32.3242H34.2565L32.8509 33.7299C32.2788 34.302 32.2788 35.2294 32.8509 35.8015C33.4229 36.3735 34.3505 36.3735 34.9226 35.8015ZM37.3047 25C37.3047 24.191 36.6488 23.5352 35.8398 23.5352H15.7435L17.1491 22.1295C17.7212 21.5574 17.7212 20.63 17.1491 20.0579C16.5771 19.4858 15.6496 19.4858 15.0775 20.0579L11.1713 23.9642C10.2484 24.887 10.902 26.4648 12.207 26.4648H35.8398C36.6488 26.4648 37.3047 25.809 37.3047 25Z" fill="url(#paint1_linear_3273_111)"/>
</g>
<defs>
<linearGradient id="paint0_linear_3273_111" x1="25" y1="42.0898" x2="25" y2="7.91016" gradientUnits="userSpaceOnUse">
<stop stop-color="#FFE59A"/>
<stop offset="1" stop-color="#FFFFD5"/>
</linearGradient>
<linearGradient id="paint1_linear_3273_111" x1="19.6304" y1="36.2305" x2="19.6304" y2="7.91016" gradientUnits="userSpaceOnUse">
<stop stop-color="#FD5900"/>
<stop offset="1" stop-color="#FFDE00"/>
</linearGradient>
<clipPath id="clip0_3273_111">
<rect width="50" height="50" fill="white"/>
</clipPath>
</defs>
</svg>
