<svg width="50" height="50" viewBox="0 0 50 50" fill="none" xmlns="http://www.w3.org/2000/svg">
<path d="M44.5312 16.6016H41.5104C41.1254 15.1384 40.5452 13.7337 39.7855 12.4254L41.9181 10.2928C42.4901 9.7207 42.4901 8.79326 41.9181 8.22119L37.7748 4.07793C37.2027 3.50586 36.2752 3.50586 35.7031 4.07793L33.5705 6.21064C32.2622 5.45078 30.8575 4.87056 29.3943 4.48564V1.46484C29.3943 0.655859 28.7385 0 27.9295 0H22.0701C21.2611 0 20.6053 0.655859 20.6053 1.46484V4.48574C19.1421 4.87067 17.7375 5.45085 16.4292 6.21064L14.2966 4.07803C13.7245 3.50596 12.7971 3.50596 12.225 4.07803L8.08193 8.22119C7.50986 8.79326 7.50986 9.7207 8.08193 10.2928L10.2146 12.4254C9.45474 13.7337 8.87455 15.1384 8.48965 16.6016H5.46875C4.65977 16.6016 4.00391 17.2574 4.00391 18.0664V23.9258C4.00391 24.7348 4.65977 25.3906 5.46875 25.3906H8.48965C8.8746 26.8538 9.45478 28.2585 10.2146 29.5668L8.08193 31.6994C7.50986 32.2715 7.50986 33.1989 8.08193 33.771L12.2251 37.9142C12.7972 38.4862 13.7246 38.4862 14.2967 37.9142L16.4293 35.7815C17.7377 36.5414 19.1354 37.1177 20.6055 37.5053H29.3945C30.8646 37.1177 32.2623 36.5414 33.5707 35.7815L35.7033 37.9142C36.2754 38.4862 37.2028 38.4862 37.7749 37.9142L41.9182 33.7709C42.4902 33.1988 42.4902 32.2714 41.9182 31.6993L39.7855 29.5667C40.5454 28.2584 41.1255 26.8537 41.5104 25.3905H44.5312C45.3402 25.3905 45.9961 24.7347 45.9961 23.9257V18.0663C45.9961 17.2574 45.3402 16.6016 44.5312 16.6016Z" fill="url(#paint0_linear_3273_115)"/>
<path d="M36.2305 21.0945C36.2305 17.083 34.116 13.5564 30.9433 11.5698C29.9699 10.9603 28.7056 11.6667 28.7056 12.8151V18.0671L25 20.9968L21.2943 18.0671V12.8151C21.2943 11.6666 20.03 10.9603 19.0566 11.5698C15.884 13.5564 13.7695 17.083 13.7695 21.0945C13.7695 25.7279 16.5912 29.7125 20.6055 31.4264V48.5359C20.6055 49.3449 21.2613 50.0007 22.0703 50.0007H27.9297C28.7387 50.0007 29.3945 49.3449 29.3945 48.5359V31.4264C33.4088 29.7125 36.2305 25.7279 36.2305 21.0945Z" fill="url(#paint1_linear_3273_115)"/>
<defs>
<linearGradient id="paint0_linear_3273_115" x1="25" y1="38.3433" x2="25" y2="0" gradientUnits="userSpaceOnUse">
<stop stop-color="#FD5900"/>
<stop offset="1" stop-color="#FFDE00"/>
</linearGradient>
<linearGradient id="paint1_linear_3273_115" x1="25" y1="50.0007" x2="25" y2="11.3457" gradientUnits="userSpaceOnUse">
<stop stop-color="#FFEDAD"/>
<stop offset="1" stop-color="#FFFFE5"/>
</linearGradient>
</defs>
</svg>
