<svg width="50" height="50" viewBox="0 0 50 50" fill="none" xmlns="http://www.w3.org/2000/svg">
<g clip-path="url(#clip0_3273_135)">
<path d="M0 41.5039V4.39453C0 1.96748 1.96748 0 4.39453 0H35.6445C38.0716 0 40.0391 1.96748 40.0391 4.39453V33.6914C40.0391 36.1185 38.0716 38.0859 35.6445 38.0859H7.85459L2.40264 42.6292C1.44854 43.4243 0 42.7459 0 41.5039Z" fill="url(#paint0_linear_3273_135)"/>
<path d="M50 30.9546V48.5327C50 49.7026 48.6961 50.4005 47.7227 49.7516L42.2323 46.0913H22.168C19.7409 46.0913 17.7735 44.1238 17.7735 41.6968V38.0859H35.6446C38.0716 38.0859 40.0391 36.1185 40.0391 33.6914V26.5601H45.6055C48.0326 26.5601 50 28.5275 50 30.9546ZM32.9017 23.0976L29.972 28.172C29.5675 28.8726 28.6716 29.1127 27.971 28.7081L26.7648 28.0116C26.0404 28.5622 25.2508 29.0214 24.4141 29.3788V30.7617C24.4141 31.5707 23.7582 32.2266 22.9493 32.2266H17.0899C16.2809 32.2266 15.625 31.5707 15.625 30.7617V29.3788C14.7883 29.0213 13.9989 28.5622 13.2744 28.0116L12.0682 28.7081C11.3675 29.1126 10.4717 28.8726 10.0672 28.172L7.13753 23.0976C6.73304 22.397 6.97308 21.5011 7.67366 21.0966L8.87484 20.403C8.81818 19.9519 8.78958 19.4977 8.78919 19.043C8.78919 18.5938 8.8179 18.1391 8.87484 17.6829L7.67366 16.9894C6.97308 16.5849 6.73304 15.689 7.13753 14.9884L10.0672 9.91396C10.4717 9.21338 11.3676 8.97324 12.0682 9.37783L13.2744 10.0743C13.9989 9.52378 14.7883 9.0646 15.625 8.70713V7.32422C15.625 6.51523 16.2809 5.85938 17.0899 5.85938H22.9493C23.7582 5.85938 24.4141 6.51523 24.4141 7.32422V8.70703C25.2508 9.0645 26.0403 9.52368 26.7648 10.0742L27.971 9.37773C28.6717 8.97324 29.5675 9.21328 29.972 9.91387L32.9017 14.9883C33.3062 15.6889 33.0661 16.5848 32.3656 16.9893L31.1643 17.6828C31.2212 18.139 31.2499 18.5937 31.2499 19.0429C31.2499 19.492 31.2212 19.9467 31.1643 20.4029L32.3656 21.0965C33.0661 21.5011 33.3062 22.397 32.9017 23.0976ZM24.9023 19.043C24.9023 16.3506 22.7118 14.1602 20.0195 14.1602C17.3271 14.1602 15.1367 16.3506 15.1367 19.043C15.1367 21.7354 17.3271 23.9258 20.0195 23.9258C22.7118 23.9258 24.9023 21.7354 24.9023 19.043Z" fill="url(#paint1_linear_3273_135)"/>
</g>
<defs>
<linearGradient id="paint0_linear_3273_135" x1="20.0195" y1="42.9716" x2="20.0195" y2="0" gradientUnits="userSpaceOnUse">
<stop stop-color="#FFEDAD"/>
<stop offset="1" stop-color="#FFFFE5"/>
</linearGradient>
<linearGradient id="paint1_linear_3273_135" x1="28.4704" y1="50" x2="28.4704" y2="5.85938" gradientUnits="userSpaceOnUse">
<stop stop-color="#FD5900"/>
<stop offset="1" stop-color="#FFDE00"/>
</linearGradient>
<clipPath id="clip0_3273_135">
<rect width="50" height="50" fill="white"/>
</clipPath>
</defs>
</svg>
