<svg width="50" height="50" viewBox="0 0 50 50" fill="none" xmlns="http://www.w3.org/2000/svg">
<g clip-path="url(#clip0_3273_123)">
<path d="M42.5781 0H7.42188C4.99863 0 3.02734 1.97129 3.02734 4.39453V24.9023C3.02734 27.3256 4.99863 29.2969 7.42188 29.2969H12.3771L14.9006 34.3466C15.3984 35.3394 17.0234 35.3394 17.5213 34.3466L20.0447 29.2969H29.9553L32.4787 34.3466C32.7276 34.843 33.234 35.1562 33.7891 35.1562C34.3441 35.1562 34.8505 34.843 35.0994 34.3466L37.6229 29.2969H42.5781C45.0014 29.2969 46.9727 27.3256 46.9727 24.9023V4.39453C46.9727 1.97129 45.0015 0 42.5781 0Z" fill="url(#paint0_linear_3273_123)"/>
<path d="M45.6055 41.0156H39.7461C37.3229 41.0156 35.3516 42.9869 35.3516 45.4102V48.5352C35.3516 49.3448 36.0067 50 36.8164 50H48.5352C49.3448 50 50 49.3448 50 48.5352V45.4102C50 42.9869 48.0287 41.0156 45.6055 41.0156ZM27.9297 41.0156H22.0703C19.6471 41.0156 17.6758 42.9869 17.6758 45.4102V48.5352C17.6758 49.3448 18.331 50 19.1406 50H30.8594C31.669 50 32.3242 49.3448 32.3242 48.5352V45.4102C32.3242 42.9869 30.3529 41.0156 27.9297 41.0156ZM47.0703 36.6211C47.0703 34.1979 45.099 32.2266 42.6758 32.2266C40.2525 32.2266 38.2812 34.1979 38.2812 36.6211C38.2812 39.0444 40.2525 41.0156 42.6758 41.0156C45.099 41.0156 47.0703 39.0444 47.0703 36.6211ZM29.3945 36.6211C29.3945 34.1979 27.4232 32.2266 25 32.2266C22.5768 32.2266 20.6055 34.1979 20.6055 36.6211C20.6055 39.0444 22.5768 41.0156 25 41.0156C27.4232 41.0156 29.3945 39.0444 29.3945 36.6211ZM10.2539 41.0156H4.39453C1.97129 41.0156 0 42.9869 0 45.4102V48.5352C0 49.3448 0.655176 50 1.46484 50H13.1836C13.9933 50 14.6484 49.3448 14.6484 48.5352V45.4102C14.6484 42.9869 12.6771 41.0156 10.2539 41.0156ZM11.7188 36.6211C11.7188 34.1979 9.74746 32.2266 7.32422 32.2266C4.90098 32.2266 2.92969 34.1979 2.92969 36.6211C2.92969 39.0444 4.90098 41.0156 7.32422 41.0156C9.74746 41.0156 11.7188 39.0444 11.7188 36.6211ZM17.2466 19.4722L12.4229 14.6485L17.2467 9.82473C17.8188 9.25256 17.8188 8.32551 17.2467 7.75334C16.6745 7.18118 15.7475 7.18118 15.1753 7.75334L9.31592 13.6127C8.74375 14.1849 8.74375 15.1119 9.31592 15.6841L15.1753 21.5435C15.7476 22.1156 16.6745 22.1156 17.2467 21.5435C17.8188 20.9713 17.8188 20.0444 17.2466 19.4722ZM21.4151 21.8182C21.7627 21.9917 22.1649 22.0202 22.5335 21.8973C22.902 21.7745 23.2067 21.5104 23.3807 21.163L29.24 9.44426C29.6005 8.72043 29.3087 7.84065 28.5849 7.47874C27.8639 7.12258 26.9827 7.40862 26.6193 8.13391L20.76 19.8527C20.3995 20.5765 20.6913 21.4563 21.4151 21.8182ZM40.6841 13.6128L34.8247 7.75344C34.2525 7.18127 33.3255 7.18127 32.7533 7.75344C32.1812 8.32561 32.1812 9.25266 32.7533 9.82483L37.5771 14.6485L32.7533 19.4722C32.1812 20.0444 32.1812 20.9714 32.7533 21.5436C33.3256 22.1157 34.2525 22.1157 34.8247 21.5436L40.6841 15.6842C41.2563 15.1119 41.2563 14.185 40.6841 13.6128Z" fill="url(#paint1_linear_3273_123)"/>
</g>
<defs>
<linearGradient id="paint0_linear_3273_123" x1="25" y1="35.1562" x2="25" y2="3.77185e-05" gradientUnits="userSpaceOnUse">
<stop stop-color="#FFEDAD"/>
<stop offset="1" stop-color="#FFFFE5"/>
</linearGradient>
<linearGradient id="paint1_linear_3273_123" x1="25" y1="50.0001" x2="25" y2="7.32422" gradientUnits="userSpaceOnUse">
<stop stop-color="#FD5900"/>
<stop offset="1" stop-color="#FFDE00"/>
</linearGradient>
<clipPath id="clip0_3273_123">
<rect width="50" height="50" fill="white"/>
</clipPath>
</defs>
</svg>
