<svg width="50" height="50" viewBox="0 0 50 50" fill="none" xmlns="http://www.w3.org/2000/svg">
<path d="M11.8164 43.9453H38.1836V32.2266H11.8164V43.9453ZM13.2812 29.2969H36.7188C37.5284 29.2969 38.1836 28.6417 38.1836 27.832C38.1836 20.5763 32.2931 14.6484 25 14.6484C17.7302 14.6484 11.8164 20.5622 11.8164 27.832C11.8164 28.6417 12.4716 29.2969 13.2812 29.2969Z" fill="url(#paint0_linear_3273_119)"/>
<path d="M46.6211 26.8652C46.3282 26.543 45.918 26.3672 45.5078 26.3672H4.49219C4.08203 26.3672 3.67178 26.543 3.37891 26.8652C3.11533 27.1874 2.96875 27.627 3.02735 28.0371L5.95703 48.7402C6.07412 49.4727 6.68945 50 7.42188 50H42.5781C43.3105 50 43.9259 49.4727 44.043 48.7402L46.9727 28.0371C47.0313 27.627 46.8847 27.1874 46.6211 26.8652ZM20.1659 39.9901C20.7519 40.5468 20.7519 41.4843 20.1659 42.0409C19.639 42.6269 18.6425 42.6271 18.1152 42.0409L15.1855 39.1112C14.5996 38.5546 14.5996 37.6171 15.1855 37.0604L18.1152 34.1308C18.6719 33.5449 19.6093 33.5449 20.1659 34.1308C20.7519 34.6874 20.7519 35.6249 20.1659 36.1815L18.2911 38.0859L20.1659 39.9901ZM27.168 35.5078L25.7031 41.3672C25.4535 42.3241 24.3725 42.6504 23.916 42.4219C23.1249 42.2461 22.6563 41.4551 22.832 40.6642L24.2969 34.8048C24.502 34.0137 25.2929 33.545 26.084 33.7499C26.875 33.9257 27.3438 34.7167 27.168 35.5078ZM34.8144 39.1112L31.8847 42.0409C31.3577 42.6269 30.3612 42.6271 29.834 42.0409C29.248 41.4843 29.248 40.5468 29.834 39.9901L31.7089 38.0859L29.8341 36.1815C29.2481 35.6249 29.2481 34.6874 29.8341 34.1308C30.3907 33.5449 31.3281 33.5449 31.8848 34.1308L34.8145 37.0604C35.4004 37.6171 35.4004 38.5546 34.8144 39.1112ZM25 14.6484C29.0397 14.6484 32.3242 11.3626 32.3242 7.32422C32.3242 3.28584 29.0397 0 25 0C20.9603 0 17.6758 3.28584 17.6758 7.32422C17.6758 11.3626 20.9603 14.6484 25 14.6484Z" fill="url(#paint1_linear_3273_119)"/>
<defs>
<linearGradient id="paint0_linear_3273_119" x1="25" y1="43.9453" x2="25" y2="14.6484" gradientUnits="userSpaceOnUse">
<stop stop-color="#FD5900"/>
<stop offset="1" stop-color="#FFDE00"/>
</linearGradient>
<linearGradient id="paint1_linear_3273_119" x1="25" y1="50" x2="25" y2="5.36441e-05" gradientUnits="userSpaceOnUse">
<stop stop-color="#FFEDAD"/>
<stop offset="1" stop-color="#FFFFE5"/>
</linearGradient>
</defs>
</svg>
