<svg width="50" height="50" viewBox="0 0 50 50" fill="none" xmlns="http://www.w3.org/2000/svg">
<g clip-path="url(#clip0_3273_127)">
<path d="M24.4198 2.92969L0 5.85938V33.6914C0 34.5116 0.644434 35.1562 1.46484 35.1562H17.6758C18.1931 35.1562 24.074 39.2549 24.9022 39.8339L19.1406 42.7146V48.5352C19.1406 49.3554 19.7851 50 20.6055 50H29.3945C30.2149 50 30.8594 49.3554 30.8594 48.5352V42.7146L25.0978 39.8339C25.926 39.2549 31.8069 35.1562 32.3242 35.1562H48.5352C49.3556 35.1562 50 34.5116 50 33.6914V5.85938L24.4198 2.92969Z" fill="url(#paint0_linear_3273_127)"/>
<path d="M48.5352 0H1.46484C0.644434 0 0 0.644434 0 1.46484V5.85938H50V1.46484C50 0.644434 49.3556 0 48.5352 0ZM39.6484 14.6484C37.744 14.6484 36.1328 15.8789 35.5177 17.5781H14.4823C13.8672 15.8789 12.256 14.6484 10.3516 14.6484C7.91982 14.6484 5.95703 16.6113 5.95703 19.043C5.95703 21.4745 7.91982 23.4375 10.3516 23.4375C12.256 23.4375 13.8672 22.2069 14.4823 20.5078H22.627L16.3574 33.0468C16.1816 33.3983 16.1523 33.7792 16.2989 34.1601L19.1406 42.7146H30.8594L33.7011 34.1601C33.8477 33.7792 33.8184 33.3983 33.6426 33.0468L27.373 20.5078H35.5177C36.1328 22.2069 37.744 23.4375 39.6484 23.4375C42.0802 23.4375 44.043 21.4745 44.043 19.043C44.043 16.6113 42.0802 14.6484 39.6484 14.6484ZM26.4648 33.6914C26.4648 34.5116 25.8204 35.1562 25 35.1562C24.1796 35.1562 23.5352 34.5116 23.5352 33.6914V20.5078H26.4648V33.6914Z" fill="url(#paint1_linear_3273_127)"/>
</g>
<defs>
<linearGradient id="paint0_linear_3273_127" x1="25" y1="50" x2="25" y2="2.92974" gradientUnits="userSpaceOnUse">
<stop stop-color="#FFEDAD"/>
<stop offset="1" stop-color="#FFFFE5"/>
</linearGradient>
<linearGradient id="paint1_linear_3273_127" x1="25" y1="42.7147" x2="25" y2="0" gradientUnits="userSpaceOnUse">
<stop stop-color="#FD5900"/>
<stop offset="1" stop-color="#FFDE00"/>
</linearGradient>
<clipPath id="clip0_3273_127">
<rect width="50" height="50" fill="white"/>
</clipPath>
</defs>
</svg>
