<svg width="50" height="50" viewBox="0 0 50 50" fill="none" xmlns="http://www.w3.org/2000/svg">
<path d="M27.9314 38.0859H10.3533C9.5436 38.0859 8.88843 38.7411 8.88843 39.5508V45.6055C8.88843 45.9945 9.04292 46.3665 9.31763 46.6411L12.2473 49.5708C12.8195 50.143 13.7465 50.143 14.3187 49.5708L16.2127 47.6768L18.1068 49.5708C18.679 50.143 19.606 50.143 20.1782 49.5708L22.0722 47.6768L23.9663 49.5708C24.1021 49.707 24.2635 49.8151 24.4413 49.8888C24.619 49.9624 24.8095 50.0002 25.0019 50C25.3767 50 25.7515 49.8569 26.0375 49.5708L28.9672 46.6411C29.1033 46.5052 29.2113 46.3437 29.2849 46.166C29.3585 45.9883 29.3964 45.7978 29.3964 45.6055V39.5508C29.3962 38.7411 28.7411 38.0859 27.9314 38.0859ZM42.5798 5.85938H41.115L39.6501 20.5078L41.115 35.1562H42.5798C45.0116 35.1562 46.9744 33.1932 46.9744 30.7617V10.2539C46.9744 7.82227 45.0115 5.85938 42.5798 5.85938ZM33.3512 5.85938C32.5897 5.85938 31.9451 6.44531 31.8864 7.20693L30.8611 20.3905V4.39453H7.42358V36.6211H30.8611V35.0869C31.0016 35.1319 31.1491 35.1562 31.3006 35.1562H38.1853L39.6501 20.5078L38.1853 5.85938H33.3512Z" fill="url(#paint0_linear_3273_82)"/>
<path d="M33.7908 0H4.49393C4.08378 0 3.70282 0.175781 3.40995 0.468652C3.14618 0.761719 2.99979 1.17178 3.02909 1.58193L5.95878 39.6679C6.01747 40.4296 6.6619 41.0156 7.42362 41.0156H30.8611C31.6228 41.0156 32.2673 40.4297 32.326 39.6679L35.2557 1.58193C35.285 1.17178 35.1386 0.761719 34.8748 0.468652C34.5819 0.175781 34.201 0 33.7908 0ZM16.2127 35.1562H13.283C12.4626 35.1562 11.8182 34.5116 11.8182 33.6914C11.8182 32.871 12.4626 32.2266 13.283 32.2266H16.2127C17.0331 32.2266 17.6775 32.871 17.6775 33.6914C17.6775 34.5116 17.0331 35.1562 16.2127 35.1562ZM16.2127 29.2969H13.283C12.4626 29.2969 11.8182 28.6522 11.8182 27.832C11.8182 27.0116 12.4626 26.3672 13.283 26.3672H16.2127C17.0331 26.3672 17.6775 27.0116 17.6775 27.832C17.6775 28.6522 17.0331 29.2969 16.2127 29.2969ZM16.2127 23.4375H13.283C12.4626 23.4375 11.8182 22.7929 11.8182 21.9727C11.8182 21.1522 12.4626 20.5078 13.283 20.5078H16.2127C17.0331 20.5078 17.6775 21.1522 17.6775 21.9727C17.6775 22.7929 17.0331 23.4375 16.2127 23.4375ZM25.0017 35.1562H22.0721C21.2516 35.1562 20.6072 34.5116 20.6072 33.6914C20.6072 32.871 21.2516 32.2266 22.0721 32.2266H25.0017C25.8222 32.2266 26.4666 32.871 26.4666 33.6914C26.4666 34.5116 25.8222 35.1562 25.0017 35.1562ZM25.0017 29.2969H22.0721C21.2516 29.2969 20.6072 28.6522 20.6072 27.832C20.6072 27.0116 21.2516 26.3672 22.0721 26.3672H25.0017C25.8222 26.3672 26.4666 27.0116 26.4666 27.832C26.4666 28.6522 25.8222 29.2969 25.0017 29.2969ZM25.0017 23.4375H22.0721C21.2516 23.4375 20.6072 22.7929 20.6072 21.9727C20.6072 21.1522 21.2516 20.5078 22.0721 20.5078H25.0017C25.8222 20.5078 26.4666 21.1522 26.4666 21.9727C26.4666 22.7929 25.8222 23.4375 25.0017 23.4375ZM28.9276 7.44131L28.2537 16.2304C28.1952 16.9921 27.5506 17.5781 26.7889 17.5781H11.4959C10.7342 17.5781 10.0895 16.9922 10.031 16.2304L9.35712 7.44131C9.32802 7.03115 9.4744 6.62109 9.73798 6.32803C10.031 6.03506 10.4119 5.85938 10.822 5.85938H27.4628C27.8728 5.85938 28.2537 6.03516 28.5468 6.32803C28.8103 6.62109 28.9567 7.03115 28.9276 7.44131ZM38.1853 5.85938V35.1562H41.115V5.85938H38.1853Z" fill="url(#paint1_linear_3273_82)"/>
<defs>
<linearGradient id="paint0_linear_3273_82" x1="27.199" y1="35.2886" x2="27.199" y2="5.86572" gradientUnits="userSpaceOnUse">
<stop stop-color="#FFE398"/>
<stop offset="1" stop-color="#FDFDD3"/>
</linearGradient>
<linearGradient id="paint1_linear_3273_82" x1="22.0702" y1="41.0156" x2="22.0702" y2="0" gradientUnits="userSpaceOnUse">
<stop stop-color="#FB5900"/>
<stop offset="1" stop-color="#FFDC03"/>
</linearGradient>
</defs>
</svg>
