<svg width="50" height="50" viewBox="0 0 50 50" fill="none" xmlns="http://www.w3.org/2000/svg">
<g clip-path="url(#clip0_345_127)">
<path d="M40.5273 25.8789C38.8914 25.8789 37.4879 26.8903 36.9071 28.3203H25.7812V31.25H36.9071C37.4879 32.68 38.8913 33.6914 40.5273 33.6914C42.6812 33.6914 44.4336 31.9391 44.4336 29.7852C44.4336 27.6313 42.6812 25.8789 40.5273 25.8789ZM40.5273 30.7617C39.9889 30.7617 39.5508 30.3236 39.5508 29.7852C39.5508 29.2467 39.9889 28.8086 40.5273 28.8086C41.0658 28.8086 41.5039 29.2467 41.5039 29.7852C41.5039 30.3236 41.0658 30.7617 40.5273 30.7617Z" fill="#15D4EC"/>
<path d="M45.6055 0H4.39453C1.97139 0 0 1.97139 0 4.39453V45.6055C0 48.0286 1.97139 50 4.39453 50H45.6055C48.0286 50 50 48.0286 50 45.6055V4.39453C50 1.97139 48.0286 0 45.6055 0ZM47.0703 45.6055C47.0703 46.4132 46.4132 47.0703 45.6055 47.0703H4.39453C3.58682 47.0703 2.92969 46.4132 2.92969 45.6055V12.6953H47.0703V45.6055ZM47.0703 9.76562H2.92969V4.39453C2.92969 3.58682 3.58682 2.92969 4.39453 2.92969H45.6055C46.4132 2.92969 47.0703 3.58682 47.0703 4.39453V9.76562Z" fill="#15D4EC"/>
<path d="M17.0898 7.8125C17.8989 7.8125 18.5547 7.15667 18.5547 6.34766C18.5547 5.53865 17.8989 4.88281 17.0898 4.88281C16.2808 4.88281 15.625 5.53865 15.625 6.34766C15.625 7.15667 16.2808 7.8125 17.0898 7.8125Z" fill="#15D4EC"/>
<path d="M12.207 7.8125C13.016 7.8125 13.6719 7.15667 13.6719 6.34766C13.6719 5.53865 13.016 4.88281 12.207 4.88281C11.398 4.88281 10.7422 5.53865 10.7422 6.34766C10.7422 7.15667 11.398 7.8125 12.207 7.8125Z" fill="#15D4EC"/>
<path d="M7.32422 7.8125C8.13323 7.8125 8.78906 7.15667 8.78906 6.34766C8.78906 5.53865 8.13323 4.88281 7.32422 4.88281C6.51521 4.88281 5.85938 5.53865 5.85938 6.34766C5.85938 7.15667 6.51521 7.8125 7.32422 7.8125Z" fill="#15D4EC"/>
<path d="M14.3555 18.9575L5.46875 23.5383V33.9698L14.3555 38.3872L23.2422 33.9698V23.5383L14.3555 18.9575ZM12.8906 34.3874L8.39844 32.1544V28.0476L12.8906 30.2806V34.3874ZM8.93994 25.045L14.3555 22.2534L19.771 25.045L14.3555 27.737L8.93994 25.045ZM20.3125 32.1544L15.8203 34.3874V30.2806L20.3125 28.0476V32.1544ZM33.3077 18.5547C32.727 17.1247 31.3234 16.1133 29.6875 16.1133C27.5336 16.1133 25.7812 17.8656 25.7812 20.0195C25.7812 22.1734 27.5336 23.9258 29.6875 23.9258C31.3234 23.9258 32.727 22.9144 33.3077 21.4844H44.4336V18.5547H33.3077ZM29.6875 20.9961C29.149 20.9961 28.7109 20.558 28.7109 20.0195C28.7109 19.4811 29.149 19.043 29.6875 19.043C30.226 19.043 30.6641 19.4811 30.6641 20.0195C30.6641 20.558 30.226 20.9961 29.6875 20.9961ZM39.1671 38.0859C38.5863 36.656 37.1828 35.6445 35.5469 35.6445C33.9109 35.6445 32.5074 36.656 31.9267 38.0859H25.7812V41.0156H31.9267C32.5074 42.4456 33.9108 43.457 35.5469 43.457C37.1829 43.457 38.5863 42.4456 39.1671 41.0156H44.4336V38.0859H39.1671ZM35.5469 40.5273C35.0084 40.5273 34.5703 40.0893 34.5703 39.5508C34.5703 39.0123 35.0084 38.5742 35.5469 38.5742C36.0854 38.5742 36.5234 39.0123 36.5234 39.5508C36.5234 40.0893 36.0854 40.5273 35.5469 40.5273Z" fill="#15D4EC"/>
</g>
<defs>
<clipPath id="clip0_345_127">
<rect width="50" height="50" fill="white"/>
</clipPath>
</defs>
</svg>
