<svg width="55" height="55" viewBox="0 0 55 55" fill="none" xmlns="http://www.w3.org/2000/svg">
<path d="M18.3405 55C20.7716 55 23.1032 54.0342 24.8223 52.3151C26.5414 50.5961 27.5072 48.2645 27.5072 45.8333V36.6667H18.3405C15.9093 36.6667 13.5778 37.6324 11.8587 39.3515C10.1396 41.0706 9.17383 43.4022 9.17383 45.8333C9.17383 48.2645 10.1396 50.5961 11.8587 52.3151C13.5778 54.0342 15.9093 55 18.3405 55Z" fill="#0ACF83"/>
<path d="M9.17383 27.5C9.17383 25.0688 10.1396 22.7373 11.8587 21.0182C13.5778 19.2991 15.9093 18.3333 18.3405 18.3333H27.5072V36.6667H18.3405C15.9093 36.6667 13.5778 35.7009 11.8587 33.9818C10.1396 32.2627 9.17383 29.9311 9.17383 27.5Z" fill="#A259FF"/>
<path d="M9.17383 9.16667C9.17383 6.73676 10.1386 4.40626 11.8562 2.68739C13.5737 0.968507 15.9034 0.00189837 18.3333 0L27.5 0V18.3333H18.3405C15.9093 18.3333 13.5778 17.3676 11.8587 15.6485C10.1396 13.9294 9.17383 11.5978 9.17383 9.16667Z" fill="#F24E1E"/>
<path d="M27.5072 0H36.6738C39.105 0 41.4366 0.965771 43.1556 2.68485C44.8747 4.40394 45.8405 6.73551 45.8405 9.16667C45.8405 11.5978 44.8747 13.9294 43.1556 15.6485C41.4366 17.3676 39.105 18.3333 36.6738 18.3333H27.5072V0Z" fill="#FF7262"/>
<path d="M45.8405 27.5C45.8405 29.9311 44.8747 32.2627 43.1556 33.9818C41.4366 35.7009 39.105 36.6667 36.6738 36.6667C34.2427 36.6667 31.9111 35.7009 30.192 33.9818C28.4729 32.2627 27.5072 29.9311 27.5072 27.5C27.5072 25.0688 28.4729 22.7373 30.192 21.0182C31.9111 19.2991 34.2427 18.3333 36.6738 18.3333C39.105 18.3333 41.4366 19.2991 43.1556 21.0182C44.8747 22.7373 45.8405 25.0688 45.8405 27.5Z" fill="#1ABCFE"/>
</svg>
