<svg width="60" height="60" viewBox="0 0 60 60" fill="none" xmlns="http://www.w3.org/2000/svg">
<path d="M55 35.625H49.375V24.375H55C56.025 24.375 56.875 23.525 56.875 22.5C56.875 21.475 56.025 20.625 55 20.625H49.375V17.5C49.375 13.7 46.3 10.625 42.5 10.625H39.375V5C39.375 3.975 38.525 3.125 37.5 3.125C36.475 3.125 35.625 3.975 35.625 5V10.625H24.375V5C24.375 3.975 23.525 3.125 22.5 3.125C21.475 3.125 20.625 3.975 20.625 5V10.625H17.5C13.7 10.625 10.625 13.7 10.625 17.5V20.625H5C3.975 20.625 3.125 21.475 3.125 22.5C3.125 23.525 3.975 24.375 5 24.375H10.625V35.625H5C3.975 35.625 3.125 36.475 3.125 37.5C3.125 38.525 3.975 39.375 5 39.375H10.625V42.5C10.625 46.3 13.7 49.375 17.5 49.375H20.625V55C20.625 56.025 21.475 56.875 22.5 56.875C23.525 56.875 24.375 56.025 24.375 55V49.375H35.625V55C35.625 56.025 36.475 56.875 37.5 56.875C38.525 56.875 39.375 56.025 39.375 55V49.375H42.5C46.3 49.375 49.375 46.3 49.375 42.5V39.375H55C56.025 39.375 56.875 38.525 56.875 37.5C56.875 36.475 56.025 35.625 55 35.625ZM45.625 42.5C45.625 44.225 44.225 45.625 42.5 45.625H17.5C15.775 45.625 14.375 44.225 14.375 42.5V17.5C14.375 15.775 15.775 14.375 17.5 14.375H42.5C44.225 14.375 45.625 15.775 45.625 17.5V42.5ZM27.15 25.075L22.225 30L27.15 34.925C27.875 35.65 27.875 36.85 27.15 37.575C26.775 37.95 26.3 38.125 25.825 38.125C25.35 38.125 24.875 37.95 24.5 37.575L18.25 31.325C17.525 30.6 17.525 29.4 18.25 28.675L24.5 22.425C25.225 21.7 26.425 21.7 27.15 22.425C27.875 23.15 27.875 24.35 27.15 25.075ZM41.725 28.675C42.45 29.4 42.45 30.6 41.725 31.325L35.475 37.575C35.1 37.95 34.625 38.125 34.15 38.125C33.675 38.125 33.2 37.95 32.825 37.575C32.1 36.85 32.1 35.65 32.825 34.925L37.75 30L32.825 25.075C32.1 24.35 32.1 23.15 32.825 22.425C33.55 21.7 34.75 21.7 35.475 22.425L41.725 28.675Z" fill="#15D4EC"/>
</svg>
