<svg width="65" height="65" viewBox="0 0 65 65" fill="none" xmlns="http://www.w3.org/2000/svg">
<g clip-path="url(#clip0_3331_50)">
<path d="M32.5 65C50.4493 65 65 50.4493 65 32.5C65 14.5507 50.4493 0 32.5 0C14.5507 0 0 14.5507 0 32.5C0 50.4493 14.5507 65 32.5 65Z" fill="url(#paint0_linear_3331_50)"/>
<path d="M43.3559 28.2342C44.0042 28.8827 44.4469 29.6819 44.6516 30.553H35.1767C35.6849 28.4089 37.6157 26.8089 39.9152 26.8089C41.215 26.8089 42.4369 27.3151 43.3559 28.2342ZM39.9134 24.5625C40.9457 24.5625 41.7855 23.7227 41.7855 22.6905V21.1928C41.7855 20.1605 40.9457 19.3207 39.9134 19.3207C38.8812 19.3207 38.0414 20.1605 38.0414 21.1928V22.6905C38.0412 23.7227 38.881 24.5625 39.9134 24.5625ZM30.553 13.9881L22.9739 21.5672H30.553V13.9881ZM51.6699 14.4534V50.5468C51.6699 50.8447 51.5516 51.1304 51.3409 51.341C51.1303 51.5517 50.8446 51.67 50.5466 51.67H23.4392C23.1413 51.67 22.8556 51.5517 22.6449 51.341C22.4343 51.1304 22.3159 50.8447 22.3159 50.5468V48.0353C26.9753 47.3128 30.553 43.2743 30.553 38.4158C30.553 33.5573 26.9753 29.5188 22.3159 28.7963V23.8137H31.6762C31.9741 23.8137 32.2598 23.6954 32.4705 23.4847C32.6811 23.2741 32.7995 22.9884 32.7995 22.6905V13.3301H50.5466C50.8446 13.3301 51.1303 13.4484 51.3409 13.6591C51.5516 13.8697 51.6699 14.1554 51.6699 14.4534ZM47.0272 47.4016C47.0272 47.1037 46.9089 46.818 46.6982 46.6074C46.4876 46.3967 46.2019 46.2784 45.904 46.2784H33.9228C33.6249 46.2784 33.3391 46.3967 33.1285 46.6074C32.9178 46.818 32.7995 47.1037 32.7995 47.4016C32.7995 47.6995 32.9178 47.9853 33.1285 48.1959C33.3391 48.4066 33.6249 48.5249 33.9228 48.5249H45.904C46.2019 48.5249 46.4876 48.4065 46.6982 48.1959C46.9089 47.9852 47.0272 47.6995 47.0272 47.4016ZM47.0272 42.1599C47.0272 41.862 46.9089 41.5762 46.6982 41.3656C46.4876 41.1549 46.2019 41.0366 45.904 41.0366H33.9228C33.6249 41.0366 33.3391 41.1549 33.1285 41.3656C32.9178 41.5762 32.7995 41.862 32.7995 42.1599C32.7995 42.4578 32.9178 42.7435 33.1285 42.9541C33.3391 43.1648 33.6249 43.2831 33.9228 43.2831H45.904C46.2019 43.2831 46.4876 43.1648 46.6982 42.9541C46.9089 42.7435 47.0272 42.4578 47.0272 42.1599ZM47.0272 36.9181C47.0272 36.6202 46.9089 36.3345 46.6982 36.1238C46.4876 35.9132 46.2019 35.7948 45.904 35.7948H33.9228C33.6249 35.7948 33.3391 35.9132 33.1285 36.1238C32.9178 36.3345 32.7995 36.6202 32.7995 36.9181C32.7995 37.216 32.9178 37.5017 33.1285 37.7124C33.3391 37.923 33.6249 38.0414 33.9228 38.0414H45.904C46.2019 38.0413 46.4875 37.9229 46.6982 37.7123C46.9088 37.5017 47.0272 37.216 47.0272 36.9181ZM47.0272 31.6756C47.0275 29.7756 46.2879 27.9895 44.9446 26.6458C44.4029 26.1028 43.7771 25.6508 43.0913 25.3073C43.7002 24.5712 44.0329 23.6456 44.0319 22.6903V21.1927C44.0319 18.9217 42.1844 17.0742 39.9134 17.0742C37.6425 17.0742 35.7949 18.9217 35.7949 21.1927V22.6903C35.794 23.6473 36.1279 24.5744 36.7387 25.311C34.4054 26.4794 32.7996 28.8931 32.7996 31.6753V31.6762C32.7996 31.8237 32.8287 31.9698 32.8851 32.1061C32.9416 32.2423 33.0243 32.3662 33.1286 32.4705C33.2329 32.5748 33.3567 32.6575 33.493 32.714C33.6293 32.7704 33.7754 32.7995 33.9229 32.7995H45.9041C46.5243 32.7995 47.0271 32.2959 47.0272 31.6756ZM20.8183 45.904C16.6893 45.904 13.3301 42.5448 13.3301 38.4158C13.3301 34.2867 16.6893 30.9276 20.8183 30.9276C24.9473 30.9276 28.3065 34.2867 28.3065 38.4158C28.3065 42.5448 24.9473 45.904 20.8183 45.904ZM24.6078 35.482C24.5035 35.3777 24.3797 35.295 24.2434 35.2385C24.1072 35.1821 23.9611 35.153 23.8136 35.153C23.6661 35.153 23.5201 35.1821 23.3838 35.2385C23.2475 35.295 23.1237 35.3777 23.0194 35.482L19.5347 38.9667L18.6173 38.0494C18.4054 37.8447 18.1216 37.7315 17.8271 37.734C17.5325 37.7366 17.2507 37.8548 17.0424 38.0631C16.8341 38.2714 16.716 38.5532 16.7135 38.8477C16.7109 39.1423 16.8242 39.4261 17.0289 39.6379L18.7404 41.3495C18.8447 41.4538 18.9686 41.5366 19.1048 41.593C19.2411 41.6495 19.3872 41.6785 19.5347 41.6785C19.6822 41.6785 19.8282 41.6495 19.9645 41.593C20.1008 41.5366 20.2246 41.4538 20.3289 41.3495L24.608 37.0706C24.7123 36.9663 24.795 36.8424 24.8514 36.7061C24.9079 36.5698 24.9369 36.4238 24.9369 36.2763C24.9369 36.1287 24.9078 35.9827 24.8514 35.8464C24.7949 35.7101 24.7121 35.5863 24.6078 35.482Z" fill="url(#paint1_linear_3331_50)"/>
</g>
<defs>
<linearGradient id="paint0_linear_3331_50" x1="32.5" y1="65" x2="32.5" y2="0" gradientUnits="userSpaceOnUse">
<stop stop-color="#ADDCFF"/>
<stop offset="0.503" stop-color="#EAF6FF"/>
<stop offset="1" stop-color="#EAF6FF"/>
</linearGradient>
<linearGradient id="paint1_linear_3331_50" x1="32.5003" y1="51.6702" x2="32.5003" y2="13.3301" gradientUnits="userSpaceOnUse">
<stop stop-color="#00C0FF"/>
<stop offset="1" stop-color="#0176D3"/>
</linearGradient>
<clipPath id="clip0_3331_50">
<rect width="65" height="65" fill="white"/>
</clipPath>
</defs>
</svg>
