<svg width="40" height="40" viewBox="0 0 40 40" fill="none" xmlns="http://www.w3.org/2000/svg">
<path d="M31.7188 23.4375H8.28125L4.76562 26.9531L7.10938 35.1562V37.6562C7.10938 38.3124 7.62492 38.8281 8.28125 38.8281H31.7188C32.3751 38.8281 32.8906 38.3124 32.8906 37.6562V35.1562L35.2344 26.9531L31.7188 23.4375ZM20 21.0938C24.5227 21.0938 28.2031 17.4134 28.2031 12.8906V9.375L27.0312 7.03125H12.9688C12.321 7.03125 11.7969 7.55539 11.7969 8.20312V12.8906C11.7969 17.4134 15.4773 21.0938 20 21.0938Z" fill="url(#paint0_linear_2745_24)"/>
<path d="M29.375 21.0938H10.625C6.10156 21.0938 2.42188 24.7734 2.42188 29.2969V31.6406C2.42188 33.5859 3.99211 35.1562 5.9375 35.1562H7.10938V29.2969C7.10938 27.3515 8.67961 25.7812 10.625 25.7812H29.375C31.3204 25.7812 32.8906 27.3515 32.8906 29.2969V35.1562H34.0625C36.0079 35.1562 37.5781 33.5859 37.5781 31.6406V29.2969C37.5781 24.7734 33.8984 21.0938 29.375 21.0938ZM34.0625 37.6562H5.9375C5.28977 37.6562 4.76562 38.1804 4.76562 38.8281C4.76562 39.4759 5.28977 40 5.9375 40H34.0625C34.7102 40 35.2344 39.4759 35.2344 38.8281C35.2344 38.1804 34.7102 37.6562 34.0625 37.6562ZM21.1719 31.6406C21.1719 30.9934 20.6472 30.4688 20 30.4688C19.3528 30.4688 18.8281 30.9934 18.8281 31.6406C18.8281 32.2878 19.3528 32.8125 20 32.8125C20.6472 32.8125 21.1719 32.2878 21.1719 31.6406ZM16.4844 12.8906C16.4844 13.5378 17.0091 14.0625 17.6562 14.0625C18.3034 14.0625 18.8281 13.5378 18.8281 12.8906C18.8281 12.2434 18.3034 11.7188 17.6562 11.7188C17.0091 11.7188 16.4844 12.2434 16.4844 12.8906ZM21.1719 12.8906C21.1719 13.5378 21.6966 14.0625 22.3438 14.0625C22.9909 14.0625 23.5156 13.5378 23.5156 12.8906C23.5156 12.2434 22.9909 11.7188 22.3438 11.7188C21.6966 11.7188 21.1719 12.2434 21.1719 12.8906ZM12.9688 9.375H28.2031V5.85938C28.2031 3.91398 26.6329 2.34375 24.6875 2.34375H12.9688C12.3124 2.34375 11.7969 1.8282 11.7969 1.17188C11.7969 0.515547 11.2813 0 10.625 0C9.96867 0 9.45312 0.515547 9.45312 1.17188V5.85938C9.45312 7.80477 11.0234 9.375 12.9688 9.375Z" fill="url(#paint1_linear_2745_24)"/>
<defs>
<linearGradient id="paint0_linear_2745_24" x1="20" y1="38.8281" x2="20" y2="7.03125" gradientUnits="userSpaceOnUse">
<stop stop-color="#FFBEF9"/>
<stop offset="1" stop-color="#FFF1FF"/>
</linearGradient>
<linearGradient id="paint1_linear_2745_24" x1="20" y1="40" x2="20" y2="0" gradientUnits="userSpaceOnUse">
<stop stop-color="#A93AFF"/>
<stop offset="1" stop-color="#FF81FF"/>
</linearGradient>
</defs>
</svg>
