<svg width="50" height="50" viewBox="0 0 50 50" fill="none" xmlns="http://www.w3.org/2000/svg">
<g clip-path="url(#clip0_201_72)">
<path d="M43.4748 31.9029L41.748 31.2898V25.4883C41.748 24.6793 41.0922 24.0234 40.2832 24.0234H35.6947C35.9207 23.138 36.0352 22.2241 36.0352 21.2891H37.5C39.9231 21.2891 41.8945 19.3177 41.8945 16.8945C41.8945 14.4714 39.9231 12.5 37.5 12.5H36.1388C38.2934 11.2472 39.7461 8.91465 39.7461 6.24785V1.46484C39.7461 0.655859 39.0902 0 38.2812 0H21.1936C17.2077 0 13.9648 3.24277 13.9648 7.22871V12.0117V12.5H12.5C10.0769 12.5 8.10547 14.4714 8.10547 16.8945C8.10547 19.3177 10.0769 21.2891 12.5 21.2891H13.9648C13.9648 22.2243 14.0794 23.1382 14.3055 24.0234H9.7168C8.90781 24.0234 8.25195 24.6793 8.25195 25.4883V31.2898L6.5252 31.9029C2.62227 33.2886 0 37.0022 0 41.1438V48.5352C0 49.3441 0.655859 50 1.46484 50H48.5352C49.3441 50 50 49.3441 50 48.5352V41.1438C50 37.0022 47.3776 33.2886 43.4748 31.9029ZM38.9648 16.8945C38.9648 17.7022 38.3077 18.3594 37.5 18.3594H36.0352V15.4297H37.5C38.3077 15.4297 38.9648 16.0868 38.9648 16.8945ZM16.8945 7.22871C16.8945 4.8582 18.8231 2.92969 21.1936 2.92969H36.8164V6.24785C36.8164 8.61836 34.8879 10.5469 32.5174 10.5469H16.8945V7.22871ZM12.5 18.3594C11.6923 18.3594 11.0352 17.7022 11.0352 16.8945C11.0352 16.0868 11.6923 15.4297 12.5 15.4297H13.9648V18.3594H12.5ZM16.8945 21.2891V19.8242V13.4766C16.8945 13.4766 32.9112 13.4663 33.1055 13.4506V19.8242C33.126 21.1893 33.1406 22.7519 32.6337 24.0234H17.3667C17.0532 23.1521 16.8945 22.2359 16.8945 21.2891ZM11.1816 26.9531H38.8184V47.0703H11.1816V26.9531ZM2.92969 41.1438C2.9043 37.9272 5.18936 35.2178 8.25195 34.3986V47.0703H2.92969V41.1438ZM47.0703 47.0703H41.748V34.3987C44.8106 35.2177 47.0958 37.9275 47.0703 41.1438V47.0703Z" fill="#FC275E"/>
<path d="M32.3834 32.8997C31.8114 32.3277 30.8839 32.3277 30.3118 32.8997C29.7397 33.4717 29.7397 34.3992 30.3118 34.9713L32.3522 37.0116L30.3118 39.052C29.7397 39.624 29.7397 40.5515 30.3118 41.1236C30.8839 41.6957 31.8113 41.6957 32.3834 41.1236L35.4596 38.0474C36.0316 37.4755 36.0316 36.5479 35.4596 35.9759L32.3834 32.8997Z" fill="#FC275E"/>
<path d="M19.6881 32.8997C19.1161 32.3277 18.1886 32.3277 17.6165 32.8997L14.5403 35.9759C13.9683 36.5478 13.9683 37.4754 14.5403 38.0474L17.6165 41.1236C17.9025 41.4096 18.2774 41.5527 18.6522 41.5527C19.0271 41.5527 19.4021 41.4096 19.688 41.1236C20.2601 40.5516 20.2601 39.6241 19.688 39.052L17.6478 37.0116L19.6882 34.9712C20.2602 34.3992 20.2602 33.4717 19.6881 32.8997Z" fill="#FC275E"/>
<path d="M26.7331 30.2246C25.9493 30.0245 25.1517 30.4976 24.9514 31.2814L22.21 42.0176C22.0098 42.8013 22.483 43.5991 23.2669 43.7992C24.0298 44.0007 24.8515 43.5323 25.0486 42.7424L27.79 32.0062C27.9901 31.2224 27.517 30.4247 26.7331 30.2246Z" fill="#FC275E"/>
<path d="M21.2891 19.3359C22.0981 19.3359 22.7539 18.6801 22.7539 17.8711C22.7539 17.0621 22.0981 16.4062 21.2891 16.4062C20.4801 16.4062 19.8242 17.0621 19.8242 17.8711C19.8242 18.6801 20.4801 19.3359 21.2891 19.3359Z" fill="#FC275E"/>
<path d="M28.7109 19.3359C29.5199 19.3359 30.1758 18.6801 30.1758 17.8711C30.1758 17.0621 29.5199 16.4062 28.7109 16.4062C27.9019 16.4062 27.2461 17.0621 27.2461 17.8711C27.2461 18.6801 27.9019 19.3359 28.7109 19.3359Z" fill="#FC275E"/>
</g>
<defs>
<clipPath id="clip0_201_72">
<rect width="50" height="50" fill="white"/>
</clipPath>
</defs>
</svg>
