<svg width="64" height="64" viewBox="0 0 64 64" fill="none" xmlns="http://www.w3.org/2000/svg">
<g clip-path="url(#clip0_2661_92)">
<path d="M20.7447 49.104C21.2557 48.8765 21.7735 48.6673 22.296 48.471C22.886 48.2493 23.4807 48.0407 24.0835 47.8592C24.8337 47.6332 25.5903 47.4287 26.357 47.266C27.3916 47.0459 28.4377 46.8843 29.4905 46.7817C28.8954 48.6482 28.2444 50.4964 27.5385 52.3237C27.5676 52.6805 27.5863 53.0379 27.5945 53.3957C29.0455 53.1089 30.521 52.9643 32 52.964C33.5078 52.964 34.98 53.1145 36.4055 53.3957C36.4137 53.0379 36.4324 52.6805 36.4615 52.3237C35.7554 50.4964 35.1045 48.6482 34.5095 46.7817C35.5632 46.884 36.6093 47.0465 37.643 47.266C38.4095 47.4287 39.166 47.6332 39.9162 47.8592C40.5192 48.0407 41.114 48.2493 41.704 48.471C42.2267 48.6675 42.7447 48.8768 43.2557 49.1043C46.9497 50.7466 50.2406 53.1758 52.8983 56.222C59.6933 50.3542 64 41.6827 64 32C64 14.327 49.673 0 32 0C14.327 0 0 14.327 0 32C0 41.6827 4.30675 50.354 11.1018 56.222C13.7596 53.1757 17.0506 50.7464 20.7447 49.104Z" fill="#A5DBE8"/>
<path d="M43.256 49.1047L45.2425 55.9355L45.806 55.962C46.1718 55.962 46.429 56.0582 46.429 56.424C46.429 57.032 46.4605 57.7152 46.5188 58.3117C47.0138 58.732 47.6165 59.206 48.0735 59.6665C49.7847 58.6699 51.3999 57.517 52.8985 56.2225C50.2408 53.1762 46.95 50.7471 43.256 49.1047ZM39.3718 49.0365L41.7043 48.4715C41.1143 48.2497 40.5195 48.0412 39.9165 47.8597C39.1663 47.6337 38.4098 47.4292 37.6433 47.2665C36.6087 47.0464 35.5625 46.8847 34.5098 46.7822C35.1048 48.6487 35.7557 50.4969 36.4618 52.3242C36.4327 52.6809 36.414 53.0384 36.4058 53.3962C38.0585 53.7222 39.6835 54.2887 41.186 54.9532L39.3718 49.0365Z" fill="#525353"/>
<path d="M15.9258 59.6659C16.2973 59.8824 16.6725 60.0936 17.054 60.2954C17.1875 59.6541 17.401 58.7656 17.4655 58.1059C16.9705 58.5261 16.3828 59.2054 15.9258 59.6659ZM41.1458 54.8936C39.6257 54.2203 38.0355 53.7179 36.4045 53.3956C34.9536 53.1087 33.4781 52.9642 31.999 52.9639C30.491 52.9639 29.019 53.1144 27.5935 53.3956C25.941 53.7214 24.2168 54.2156 22.7148 54.8799L22.555 55.8751H41.4435L41.1458 54.8936Z" fill="black"/>
<path d="M17.4078 58.295C17.4663 57.6985 17.5086 57.1668 17.5086 56.5585C17.5086 56.193 17.7593 55.9588 18.1251 55.9588L18.7248 55.9378L20.7446 49.1035C17.0504 50.7459 13.7594 53.1752 11.1016 56.2215C12.6001 57.516 14.2154 58.6689 15.9266 59.6655C16.3835 59.2046 16.86 58.7633 17.3546 58.343" fill="#525353"/>
<path d="M46.7634 59.5116C46.8929 60.1616 46.9221 60.2911 46.9456 60.2959C47.3259 60.0937 47.7021 59.8839 48.0739 59.6664C47.6119 59.2004 47.1305 58.7543 46.6309 58.3291L46.7634 59.5116Z" fill="black"/>
<path d="M41.1463 54.8935L41.4441 55.875H45.3076L43.2553 49.104C42.7445 48.8776 42.227 48.6664 41.7036 48.4707L39.3711 49.0357L41.1463 54.8935Z" fill="#AA9678"/>
<path d="M18.7598 57.2432C18.78 57.2289 18.8005 57.2147 18.8205 57.2002H18.7625C18.762 57.2144 18.7605 57.2289 18.7598 57.2432Z" fill="#C4B6A1"/>
<path d="M45.2379 57.2002H45.1797L45.2404 57.2432C45.2399 57.2289 45.2384 57.2144 45.2379 57.2002Z" fill="#AA9678"/>
<path d="M45.1712 57.1006L31.9727 57.1156L32.0002 63.9996C36.9122 63.9996 41.5642 62.8898 45.7234 60.9118C45.4519 59.7188 45.4247 58.4338 45.3804 57.1833C45.3604 57.1688 45.1712 57.1006 45.1712 57.1006Z" fill="#AA9678"/>
<path d="M31.9793 57.145C31.9793 57.145 18.7081 57.1282 18.6878 57.1425C18.6438 58.3932 18.3858 59.8772 18.2773 60.9127C22.4366 62.8907 27.0886 64.0005 32.0006 64.0005L32.0081 57.1672L31.9793 57.145Z" fill="#C4B6A1"/>
<path d="M52.9292 31.7925C52.9302 31.801 52.9327 31.8085 52.9337 31.817C52.9345 31.8223 52.936 31.827 52.9367 31.832V31.834C52.952 31.9563 52.9577 32.084 52.9605 32.2128C52.961 32.2365 52.965 32.2588 52.965 32.2823L52.9652 32.291L52.965 32.3005C52.9647 32.326 52.9605 32.3498 52.9602 32.375C52.9585 32.4992 52.9508 32.6232 52.937 32.7465V32.7483L52.9335 32.7665C52.9325 32.7763 52.9295 32.785 52.9282 32.7945C52.9114 32.922 52.8875 33.0485 52.8565 33.1733L52.856 33.175L52.8605 33.1703L52.8622 33.1645V33.1648L53.6997 32.288L52.8555 31.4043L52.8557 31.406C52.8872 31.5293 52.9112 31.6588 52.9292 31.7925Z" fill="#676A6A"/>
<path d="M52.9267 32.7942C52.9289 32.7777 52.9332 32.763 52.9354 32.7462C52.9502 32.6262 52.9557 32.501 52.9587 32.3747C52.9589 32.3462 52.9634 32.3195 52.9634 32.2907C52.9634 32.264 52.9594 32.239 52.9589 32.2125C52.9574 32.0859 52.9495 31.9595 52.9352 31.8337C52.9332 31.8192 52.9294 31.8065 52.9277 31.7922C52.9107 31.6621 52.8861 31.533 52.8542 31.4057C52.8432 31.3627 52.8279 31.3245 52.8152 31.283C52.7394 31.0325 52.6362 30.8112 52.5137 30.6275C52.4668 30.5576 52.4155 30.4908 52.3602 30.4275C52.3096 30.3715 52.2542 30.3201 52.1947 30.2737C52.1727 30.257 52.1494 30.2452 52.1269 30.2307C52.0579 30.1854 51.9833 30.1493 51.9049 30.1235C51.8309 30.0989 51.7536 30.0856 51.6757 30.084C51.5972 30.084 51.5212 30.1005 51.4464 30.1235C51.3679 30.1492 51.2932 30.1853 51.2242 30.2307C51.2022 30.2452 51.1787 30.2567 51.1569 30.2735C51.054 30.3538 50.9635 30.4489 50.8884 30.5557C50.8709 30.5793 50.854 30.6033 50.8377 30.6277C50.7152 30.8115 50.6117 31.0327 50.5362 31.2832L50.5267 31.3132C50.4932 31.4282 50.4672 31.5492 50.4454 31.6735C50.4389 31.7115 50.4302 31.748 50.4249 31.787C50.4049 31.926 50.3947 32.071 50.3922 32.2195C50.3919 32.24 50.3887 32.2595 50.3887 32.28H50.3937C50.3937 33.499 50.9704 34.487 51.6817 34.487C51.8042 34.487 51.9219 34.455 52.0342 34.4002C52.1015 34.3672 52.165 34.3271 52.2237 34.2805C52.2479 34.261 52.2707 34.2375 52.2939 34.2155C52.3507 34.1625 52.4047 34.1025 52.4559 34.0357C52.4914 33.989 52.5264 33.9422 52.5589 33.89C52.5797 33.8567 52.5987 33.8207 52.6179 33.7852C52.6539 33.7187 52.6879 33.6495 52.7187 33.576C52.7302 33.5495 52.7419 33.5237 52.7524 33.4965C52.7917 33.3942 52.8259 33.2862 52.8549 33.173C52.8857 33.0522 52.9087 32.9252 52.9267 32.7942ZM51.7219 31.997C51.4552 31.997 51.2389 31.6262 51.2389 31.1692C51.2389 30.7125 51.4552 30.3417 51.7219 30.3417C51.9887 30.3417 52.2047 30.7125 52.2047 31.1692C52.2047 31.6262 51.9887 31.997 51.7219 31.997Z" fill="black"/>
<path d="M51.7232 30.3418C51.4565 30.3418 51.2402 30.7125 51.2402 31.1693C51.2402 31.6263 51.4565 31.997 51.7232 31.997C51.99 31.997 52.206 31.6263 52.206 31.1693C52.206 30.7125 51.99 30.3418 51.7232 30.3418Z" fill="white"/>
<path d="M50.5374 31.2835C50.6129 31.033 50.7164 30.8117 50.8389 30.628C50.8554 30.603 50.8721 30.5797 50.8896 30.556C50.9645 30.4489 51.055 30.3538 51.1581 30.2737C51.1799 30.257 51.2034 30.2455 51.2254 30.231C51.2943 30.1854 51.3691 30.1493 51.4476 30.1237C51.5221 30.1002 51.5984 30.0842 51.6769 30.0842C51.7554 30.0842 51.8316 30.1002 51.9061 30.1237C51.9845 30.1496 52.0591 30.1856 52.1281 30.231C52.1506 30.2455 52.1739 30.2572 52.1959 30.274C52.2534 30.318 52.3084 30.37 52.3614 30.4277C52.4167 30.4911 52.468 30.5579 52.5149 30.6277C52.6374 30.8115 52.7406 31.0327 52.8164 31.2832V31.2837L51.6769 26.0645L50.5374 31.2835Z" fill="#909393"/>
<path d="M36.574 32.242C36.5725 32.137 36.5657 32.0333 36.554 31.9313C36.5537 31.93 36.5533 31.9285 36.5533 31.927C36.5414 31.8272 36.5246 31.7281 36.503 31.63L36.501 31.6225C36.4796 31.5268 36.4534 31.4322 36.4227 31.339L36.4203 31.3328C36.3897 31.2404 36.3545 31.1496 36.3147 31.0608C36.3142 31.059 36.313 31.0573 36.3122 31.0553C35.9947 30.3485 35.4185 29.7903 34.702 29.4953L34.6933 29.492C34.5189 29.4209 34.3383 29.3664 34.1537 29.3293C34.149 29.3285 34.1445 29.3283 34.1397 29.3273C33.9493 29.2897 33.7556 29.2707 33.5615 29.2705C33.3667 29.2705 33.1775 29.2905 32.9932 29.3258L32.9737 29.3288C32.7905 29.3653 32.6138 29.4188 32.444 29.4868L32.4305 29.492C32.2589 29.5616 32.0941 29.6471 31.9382 29.7473C31.7825 29.8478 31.6363 29.962 31.5018 30.0883L31.4985 30.0985L31.4873 30.101C31.2718 30.306 31.0875 30.5413 30.94 30.7995L30.9345 30.8088C30.8895 30.888 30.8488 30.9705 30.8113 31.0545C30.8073 31.0635 30.8022 31.072 30.7985 31.081C30.7642 31.1588 30.7348 31.2393 30.7073 31.3203C30.702 31.3363 30.695 31.3513 30.69 31.367C30.666 31.4428 30.6465 31.5205 30.628 31.5983C30.6232 31.6208 30.616 31.6423 30.6112 31.6645C30.5952 31.7415 30.5843 31.8203 30.574 31.8993C30.571 31.9235 30.5657 31.9468 30.5632 31.971C30.5318 32.2704 30.5457 32.5728 30.6042 32.868C30.6047 32.8718 30.605 32.876 30.606 32.88C30.6438 33.0683 30.6992 33.2498 30.7705 33.4235C30.7715 33.426 30.772 33.4285 30.7733 33.4308C30.9175 33.7797 31.1257 34.0985 31.3873 34.3708C31.5923 34.5845 31.8283 34.7678 32.0878 34.9143L32.0915 34.9165C32.1725 34.962 32.2563 35.003 32.3415 35.041C32.3485 35.044 32.3553 35.048 32.3625 35.051C32.4415 35.0855 32.5233 35.1153 32.6055 35.143C32.6195 35.1478 32.633 35.1538 32.647 35.1583C32.723 35.1825 32.8015 35.202 32.88 35.22C32.9012 35.225 32.9218 35.232 32.9433 35.2365C33.0195 35.2523 33.098 35.263 33.177 35.2733C33.2007 35.276 33.2242 35.2815 33.2485 35.284C33.9526 35.3582 34.6602 35.1817 35.247 34.7855C35.568 34.5686 35.8445 34.2922 36.0615 33.9713C36.3977 33.4734 36.5771 32.8863 36.5765 32.2855C36.5765 32.2783 36.5755 32.2715 36.5755 32.2648C36.5752 32.257 36.5742 32.2498 36.574 32.242ZM33.5615 31.8888C33.4128 31.8887 33.2655 31.8594 33.1281 31.8025C32.9907 31.7456 32.8658 31.6621 32.7606 31.5569C32.6555 31.4517 32.5721 31.3269 32.5152 31.1895C32.4583 31.052 32.429 30.9047 32.429 30.756C32.429 30.6073 32.4583 30.46 32.5153 30.3226C32.5722 30.1852 32.6556 30.0603 32.7608 29.9552C32.866 29.85 32.9909 29.7666 33.1283 29.7097C33.2657 29.6528 33.413 29.6235 33.5617 29.6235C33.8621 29.6235 34.1502 29.7429 34.3626 29.9553C34.575 30.1678 34.6943 30.4559 34.6942 30.7563C34.6942 31.0566 34.5749 31.3447 34.3624 31.5571C34.15 31.7695 33.8619 31.8888 33.5615 31.8888Z" fill="black"/>
<path d="M33.5622 29.623C33.2618 29.623 32.9738 29.7424 32.7614 29.9547C32.549 30.1671 32.4297 30.4552 32.4297 30.7555C32.4297 31.0559 32.549 31.344 32.7614 31.5563C32.9738 31.7687 33.2618 31.888 33.5622 31.888C33.8625 31.888 34.1506 31.7687 34.363 31.5563C34.5754 31.344 34.6947 31.0559 34.6947 30.7555C34.6947 30.4552 34.5754 30.1671 34.363 29.9547C34.1506 29.7424 33.8625 29.623 33.5622 29.623Z" fill="white"/>
<path d="M31.4875 30.1009L31.4987 30.0984L31.502 30.0882L33.5785 23.7377V22.2514L33.5782 22.2347C32.4062 21.992 31.2126 21.8689 30.0157 21.8672C29.6095 21.8672 29.2065 21.8844 28.806 21.9117C28.7477 21.9157 28.6892 21.9192 28.6307 21.9237C26.5465 22.0819 24.494 22.6252 22.5935 23.4927C20.9637 24.2369 19.4495 25.2172 18.0882 26.3794L18.086 26.3817C17.7218 26.6936 17.3689 27.0185 17.0282 27.3559C16.9642 27.4184 16.8992 27.4804 16.836 27.5439C16.5139 27.8688 16.2023 28.2039 15.9017 28.5487C15.8365 28.6239 15.7722 28.7007 15.7077 28.7767C15.4044 29.1326 15.1124 29.498 14.8322 29.8724C14.809 29.9039 14.7872 29.9369 14.7642 29.9684C14.4985 30.3314 14.2437 30.7022 14.0002 31.0804C13.9525 31.1542 13.9035 31.2269 13.8567 31.3014C13.6592 31.6147 13.4755 31.9364 13.293 32.2589H22.7522L31.4875 30.1009Z" fill="#BBBCBD"/>
<path d="M39.4729 29.3861C39.4921 29.1384 39.5079 28.8909 39.5206 28.6429C39.5379 28.3074 39.5496 27.9714 39.5561 27.6356C39.5611 27.3749 39.5604 27.1139 39.5591 26.8531C39.5591 26.7779 39.5609 26.7026 39.5601 26.6271C39.5523 25.9539 39.5276 25.2809 39.4859 24.6089L39.4801 24.6051L39.4776 24.6004C39.2277 24.4568 38.9775 24.3138 38.7269 24.1714L38.7094 24.1614L38.5136 24.0506L38.5101 24.0486L38.3744 23.9726L38.3476 23.9576C38.3149 23.9394 38.2819 23.9215 38.2489 23.9039C37.814 23.6782 37.3704 23.4698 36.9191 23.2791C35.8434 22.8249 34.3944 22.4266 33.5781 22.2344V23.7374L35.6364 30.0981L35.6386 30.1034C35.8511 30.3059 36.0339 30.5386 36.1804 30.7951C36.2284 30.8791 36.2724 30.9661 36.3121 31.0549C36.3131 31.0569 36.3141 31.0586 36.3146 31.0604C36.3544 31.1489 36.3894 31.2396 36.4201 31.3324L36.4226 31.3386C36.4531 31.4314 36.4794 31.5259 36.5009 31.6221L36.5029 31.6296C36.5244 31.7269 36.5411 31.8261 36.5531 31.9266C36.5531 31.9281 36.5536 31.9296 36.5539 31.9309C36.5656 32.0329 36.5724 32.1366 36.5739 32.2416L36.5816 32.2586H39.1019C39.271 31.3337 39.3925 30.4007 39.4661 29.4634C39.4679 29.4376 39.4709 29.4119 39.4729 29.3861Z" fill="#E3DDDB"/>
<path d="M42.7701 27.1377C42.7684 27.1404 42.7671 27.1437 42.7656 27.1464L42.7701 27.1377Z" fill="#FCB03F"/>
<path d="M31.502 30.0878C31.6374 29.9609 31.7841 29.8465 31.9402 29.7461C32.0955 29.6463 32.2597 29.5611 32.4307 29.4916C32.4352 29.4896 32.44 29.4883 32.4442 29.4863C32.6155 29.4174 32.7929 29.3645 32.974 29.3283L32.9935 29.3253C33.1807 29.289 33.371 29.2705 33.5617 29.2701C33.7597 29.2701 33.9527 29.2901 34.14 29.3268C34.1447 29.3278 34.1492 29.3281 34.154 29.3288C34.3416 29.3665 34.5252 29.4221 34.7022 29.4948C35.0494 29.638 35.367 29.8443 35.639 30.1033L35.6367 30.0981L33.5785 23.7373L31.502 30.0878Z" fill="#909393"/>
<path d="M30.7716 33.4231C30.6995 33.2476 30.6444 33.0656 30.6071 32.8796C30.6061 32.8756 30.6058 32.8713 30.6053 32.8676C30.5467 32.5723 30.5329 32.27 30.5643 31.9706C30.5668 31.9463 30.5721 31.9231 30.5751 31.8988C30.5853 31.8198 30.5963 31.7411 30.6123 31.6641C30.6171 31.6418 30.6243 31.6203 30.6291 31.5978C30.6476 31.5201 30.6671 31.4423 30.6911 31.3666C30.6963 31.3508 30.7028 31.3358 30.7083 31.3198C30.7358 31.2388 30.7653 31.1583 30.7996 31.0806C30.8033 31.0716 30.8083 31.0631 30.8123 31.0541C30.8498 30.9701 30.8906 30.8876 30.9356 30.8083L30.9411 30.7991C31.0885 30.5409 31.2729 30.3055 31.4883 30.1006L22.7531 32.2586H22.7363L31.3883 34.3703C31.1268 34.0981 30.9186 33.7792 30.7743 33.4303C30.7731 33.4281 30.7726 33.4256 30.7716 33.4231Z" fill="#676A6A"/>
<path d="M50.4261 31.7874C50.4316 31.7484 50.4399 31.7119 50.4466 31.6739C50.4684 31.5497 50.4944 31.4287 50.5279 31.3137C50.5316 31.3007 50.5331 31.2859 50.5371 31.2732L51.6769 26.0542L51.6766 23.0784C50.7454 22.3092 49.7481 21.8887 48.7099 21.8887C47.3979 21.8887 46.1746 22.6132 45.2599 23.5079C44.2589 24.4872 43.4854 25.7192 42.8599 26.9624C42.8311 27.0197 42.8016 27.0747 42.7731 27.1322C42.9659 27.2992 43.1566 27.4684 43.3449 27.6407C43.7703 28.0312 44.1884 28.4297 44.5989 28.8359C44.7904 29.0249 44.9784 29.2179 45.1669 29.4102C45.3669 29.6139 45.5671 29.8172 45.7641 30.0242C46.1244 30.4026 46.4796 30.7858 46.8296 31.1737C47.13 31.505 47.4271 31.8392 47.7209 32.1764L47.7214 32.1769C47.7706 32.2284 47.8051 32.2654 47.8184 32.2804H50.3889C50.3889 32.2597 50.3931 32.2407 50.3934 32.2199C50.3959 32.0714 50.4061 31.9264 50.4261 31.7874ZM42.7729 27.1459L42.7701 27.1382L42.7656 27.1467L42.7769 27.1577C42.7757 27.1537 42.7743 27.1498 42.7729 27.1459Z" fill="#E3DDDB"/>
<path d="M11.7437 35.5432L11.7667 35.4857C12.1118 34.5901 12.5098 33.7158 12.9587 32.8674C13.0282 32.7354 13.0962 32.6029 13.1682 32.4722C13.2079 32.3999 13.2529 32.3309 13.2934 32.2589C13.4759 31.9364 13.6597 31.6147 13.8572 31.3014C13.9039 31.2267 13.9529 31.1542 14.0007 31.0804C14.2441 30.7022 14.4989 30.3313 14.7647 29.9684C14.7877 29.9369 14.8094 29.9039 14.8327 29.8724C15.1128 29.498 15.4048 29.1326 15.7082 28.7767C15.7727 28.7007 15.8367 28.6242 15.9022 28.5487C16.2028 28.2038 16.5143 27.8687 16.8364 27.5439C16.8999 27.4804 16.9647 27.4184 17.0287 27.3559C17.3694 27.0185 17.7222 26.6935 18.0864 26.3817L18.0887 26.3794C19.5264 21.5634 24.1689 18.6039 29.3742 18.6039C31.4692 18.6039 33.5527 19.2077 35.3382 20.2999C37.1697 21.4202 38.4184 22.5147 39.3879 24.4279L39.4024 24.4567C39.4269 24.5052 39.4544 24.5517 39.4784 24.6007L39.4809 24.6054L39.4867 24.6092C40.3008 25.1129 41.0764 25.6766 41.8069 26.2954C42.0527 26.5028 42.2937 26.7157 42.5299 26.9339C42.6079 27.0054 42.6882 27.0734 42.7652 27.1462C42.7667 27.1432 42.7679 27.1402 42.7697 27.1374C42.7704 27.1353 42.7713 27.1333 42.7724 27.1314C42.7989 27.0772 42.8249 27.0219 42.8517 26.9684C43.5852 22.3392 45.9157 19.8149 48.3242 19.8149C50.1397 19.8149 51.4594 20.8974 52.4562 23.8114L52.4664 23.8427L52.4689 23.8462C52.7628 24.1668 53.0372 24.5047 53.2907 24.8582L53.2902 24.8579C53.2954 24.8649 53.3009 24.8714 53.3062 24.8787C53.3204 24.9209 53.3327 24.9644 53.3464 25.0067L53.3089 24.8547C50.3127 15.9842 41.9227 9.59766 32.0407 9.59766C19.6457 9.59766 9.59766 19.6457 9.59766 32.0407C9.59766 34.4842 9.98816 36.8367 10.7132 39.0257L10.7162 39.0129C10.971 37.8322 11.3145 36.6723 11.7437 35.5432Z" fill="#525353"/>
<path d="M53.6445 32.2892L52.8618 33.1649V33.1647L52.86 33.1704C52.8303 33.2857 52.7938 33.3932 52.7535 33.4969C52.743 33.5242 52.7313 33.5499 52.7198 33.5764C52.6898 33.6478 52.6562 33.7177 52.619 33.7857C52.5998 33.8212 52.5808 33.8572 52.56 33.8904C52.5275 33.9424 52.4925 33.9897 52.457 34.0362C52.4081 34.1004 52.3539 34.1606 52.295 34.2159C52.2718 34.2377 52.2493 34.2614 52.2248 34.2809C52.1661 34.3275 52.1026 34.3677 52.0353 34.4007C51.923 34.4554 51.8053 34.4874 51.6828 34.4874C50.9715 34.4874 50.3948 33.4994 50.3948 32.2804H47.8105L47.812 32.2824C48.2976 32.8436 48.7754 33.4113 49.2455 33.9854C49.6973 34.5375 50.1435 35.0941 50.584 35.6552L50.649 35.7374C51.0665 36.2703 51.4802 36.8062 51.89 37.3449L52.0095 37.5009C52.4449 38.0741 52.8775 38.6493 53.3073 39.2267C54.0636 36.9878 54.4608 34.6434 54.4843 32.2804L53.7578 32.2529L53.6445 32.2892Z" fill="white"/>
<path d="M28.6304 21.9239C28.6889 21.9194 28.7474 21.9159 28.8056 21.9119C29.2083 21.8833 29.6118 21.8685 30.0154 21.8674C31.2324 21.8674 32.4214 21.9976 33.5779 22.2349C34.3941 22.4271 35.8434 22.8254 36.9191 23.2796C37.3704 23.4703 37.814 23.6787 38.2489 23.9044L38.3476 23.9581L38.3744 23.9731C38.4146 23.9956 38.4586 24.0199 38.5101 24.0491L38.5136 24.0511L38.7094 24.1619L38.7269 24.1719C39.0034 24.3286 39.3094 24.5044 39.4264 24.5714L39.4564 24.5886L39.4776 24.6009C39.4536 24.5519 39.4261 24.5054 39.4016 24.4569L39.3871 24.4281C38.4176 22.5149 36.9251 20.8739 35.0936 19.7536C33.3081 18.6614 31.2246 18.0576 29.1294 18.0576C23.9244 18.0576 19.5256 21.5636 18.0879 26.3796C19.4491 25.2174 20.9634 24.2371 22.5931 23.4929C24.4936 22.6254 26.5461 22.0821 28.6304 21.9239Z" fill="black"/>
<path d="M53.3055 24.8787C53.3003 24.8714 53.2948 24.8649 53.2895 24.8579L53.29 24.8582C53.0366 24.5047 52.7622 24.1668 52.4683 23.8462L52.461 23.8374C52.3358 23.7014 52.2065 23.5693 52.0733 23.4412C52.024 23.3939 51.973 23.3527 51.9233 23.3074C51.841 23.2327 51.7593 23.1554 51.6758 23.0869V26.0642L52.8155 31.2837C52.828 31.3242 52.843 31.3619 52.854 31.4039L53.6435 32.2887L53.6513 32.2799H54.4775C54.4785 32.2034 54.4833 32.1279 54.4833 32.0512V32.0499C54.4829 29.6564 54.0988 27.2784 53.3458 25.0064C53.332 24.9642 53.3198 24.9209 53.3055 24.8787Z" fill="#BBBCBD"/>
<path d="M45.2586 23.5072C46.1734 22.6124 47.3966 21.8879 48.7086 21.8879C49.7469 21.8879 50.7441 22.3084 51.6754 23.0777L51.6756 23.0867C51.7591 23.1552 51.8409 23.2324 51.9231 23.3072C51.9729 23.3524 52.0239 23.3937 52.0731 23.4409C52.2064 23.569 52.3357 23.7012 52.4609 23.8372L52.4681 23.8459C52.4675 23.8448 52.4668 23.8438 52.4659 23.8429L52.4656 23.8427L52.4554 23.8112C51.4586 20.8972 49.8504 19.0039 48.0354 19.0039C45.6266 19.0039 43.5844 22.3389 42.8509 26.9682L42.8586 26.9617C43.4841 25.7184 44.2576 24.4864 45.2586 23.5072ZM42.0039 51.9587C42.0039 51.9587 41.6796 51.7017 41.2679 51.2279C41.0763 51.0088 40.8978 50.7787 40.7331 50.5387C40.6806 50.4622 40.6286 50.3827 40.5769 50.3007C40.4211 50.0544 40.2969 49.7547 40.1599 49.4584C40.0014 49.1154 40.0009 48.8872 39.9099 48.5677C39.8429 48.3324 39.7898 48.0934 39.7506 47.8519C39.6875 47.4613 39.6621 47.0654 39.6749 46.6699C39.6819 46.4417 39.7054 46.2054 39.7396 45.9649C39.7737 45.7261 39.8201 45.4892 39.8789 45.2552C40.0604 44.5294 40.3741 43.7564 40.8636 42.9404L40.9881 42.6609C41.1481 42.3944 41.1836 42.4062 41.3356 42.1494C43.4766 38.5362 44.6316 35.8039 44.0666 31.5969C44.0047 31.1659 43.9343 30.7362 43.8556 30.3079C43.8064 30.6183 43.7543 30.9282 43.6994 31.2377C43.6781 31.3337 43.6199 31.4379 43.5979 31.5032C42.6679 34.2557 41.2039 36.2804 39.0974 38.5667C38.8041 38.8837 38.5072 39.1975 38.2069 39.5079C37.6704 40.0625 37.1283 40.6117 36.5806 41.1554C36.3526 41.3822 36.1201 41.6122 35.8836 41.8467C35.6664 42.0617 35.3961 42.5214 35.0736 42.8602C34.8746 43.4174 34.6484 44.0459 34.4571 44.7069C34.3709 44.6742 34.2886 44.6449 34.2009 44.6109C30.1089 43.0282 27.3691 40.9134 27.3691 40.9134C27.3691 40.9134 29.4771 43.6582 33.0286 46.2347C33.3552 46.4713 33.6939 46.6906 34.0434 46.8917C33.8969 49.2107 34.9199 51.4369 39.5376 52.1009C40.3184 52.2132 41.1179 52.2079 41.9231 52.1172C41.9151 52.0932 41.9681 52.0937 41.9639 52.0804C41.9594 52.0669 42.0069 52.0314 42.0069 52.0314" fill="black"/>
<path d="M39.5341 45.9896C43.6336 46.6511 49.7008 46.5426 55.9993 43.5936C56.1511 43.5226 56.3183 43.7096 56.4701 43.6351C56.4701 43.6351 52.1653 48.0318 47.0243 50.5176C46.8741 50.5901 46.7258 50.6673 46.5741 50.7363C46.0773 50.9633 45.5721 51.1611 45.0648 51.3436C44.0701 51.7011 43.0621 51.9723 42.0613 52.0976C42.0153 52.1036 41.9693 52.1123 41.9233 52.1173C41.917 52.0984 41.9107 52.0795 41.9046 52.0606L41.8978 52.0398C41.8978 52.0398 41.5733 51.7826 41.1616 51.3088C40.9698 51.0899 40.7913 50.8597 40.6271 50.6196C40.3976 50.2863 40.1968 49.9342 40.0268 49.5671C39.8831 49.2571 39.7639 48.9363 39.6701 48.6078C39.4936 47.9913 39.4143 47.351 39.4348 46.7101C39.4434 46.474 39.465 46.2387 39.4996 46.0051L39.5341 45.9896Z" fill="#9F2254"/>
<path d="M36.5962 41.3226C37.144 40.779 37.6862 40.2298 38.2227 39.6751C38.523 39.3647 38.8199 39.0509 39.1132 38.7339C41.2195 36.4476 42.7657 34.3081 43.696 31.5556C43.7177 31.4904 43.7397 31.4044 43.761 31.3076L43.771 31.2629C43.7927 31.1601 43.814 31.0459 43.8352 30.9171C43.8437 30.8284 44.122 30.6494 44.1297 30.5661C43.8965 29.3676 43.359 28.1076 42.7722 27.1456C42.7737 27.1495 42.775 27.1534 42.7762 27.1574L42.765 27.1464C42.688 27.0736 42.6077 27.0056 42.5297 26.9341C42.2935 26.7159 42.0525 26.503 41.8067 26.2956C41.0761 25.6768 40.3006 25.1132 39.4865 24.6094C39.5275 25.2829 39.5537 25.9556 39.5607 26.6276C39.5617 26.7031 39.5597 26.7784 39.5597 26.8536C39.561 27.1144 39.5617 27.3754 39.5567 27.6361C39.5503 27.972 39.5384 28.3078 39.5212 28.6434C39.5085 28.8914 39.4927 29.1389 39.4735 29.3866C39.4715 29.4124 39.4685 29.4381 39.4667 29.4639C39.3931 30.4012 39.2716 31.3342 39.1025 32.2591L38.8065 33.6589C38.1882 36.1654 36.9325 38.4389 35.9 40.7864C35.6262 41.4089 35.3665 42.0384 35.1387 42.6796L35.0742 42.8606C35.3453 42.5746 35.6203 42.2923 35.8992 42.0139C36.136 41.7796 36.3685 41.5494 36.5962 41.3226Z" fill="#FCB03F"/>
<path d="M23.0504 54.8037C24.5526 54.1392 25.9429 53.722 27.5954 53.3962C27.5871 53.0384 27.5685 52.6809 27.5394 52.3242C28.2453 50.4968 28.8963 48.6487 29.4914 46.7822C28.4386 46.8847 27.3925 47.0464 26.3579 47.2665C25.5911 47.4292 24.8346 47.6337 24.0844 47.8597C23.4816 48.0412 22.8869 48.2497 22.2969 48.4715L24.6296 49.0365L22.7526 54.928L23.0504 54.8037Z" fill="#525353"/>
<path d="M51.8895 37.3448C51.4796 36.8061 51.066 36.2702 50.6485 35.7373L50.5835 35.6551C50.1375 35.0871 49.6858 34.5236 49.2282 33.9648C48.7635 33.3977 48.2912 32.8368 47.8115 32.2823C47.7812 32.2471 47.751 32.2113 47.7202 32.1763C47.3249 31.7223 46.9235 31.2735 46.5162 30.8301C46.2679 30.5591 46.0169 30.2904 45.7635 30.0241C45.566 29.8179 45.3669 29.6132 45.1662 29.4101C44.9777 29.2178 44.7897 29.0248 44.5982 28.8358C44.1876 28.4298 43.7695 28.0313 43.3442 27.6406C43.1558 27.4685 42.9651 27.2989 42.7722 27.1318C42.7712 27.1338 42.7703 27.1358 42.7695 27.1378C43.175 28.3033 43.6377 29.4833 43.8695 30.6988C43.9297 31.0151 43.9795 31.3226 44.02 31.6231C44.585 35.8298 43.237 38.5766 41.0962 42.1898C40.9395 42.4539 40.7821 42.7176 40.624 42.9808C40.1345 43.7973 39.821 44.5701 39.6392 45.2958C39.5806 45.5299 39.5341 45.7668 39.5 46.0056C43.6982 46.6831 50.0112 46.8093 56.4705 43.6356C56.4705 43.6356 55.2037 41.7738 53.2977 39.2146C52.8709 38.6413 52.4414 38.07 52.009 37.5008C51.9695 37.4486 51.9292 37.3966 51.8895 37.3448Z" fill="#DF0067"/>
<path d="M22.5278 55.9802L24.6278 49.0357L22.2951 48.4707C21.7726 48.667 21.2548 48.8762 20.7438 49.1037L18.6641 55.9802L20.9858 56.0165L22.5278 55.9802Z" fill="#AA9678"/>
<path d="M24.0055 52.9758C24.2105 53.0545 24.419 53.1255 24.627 53.1983C27.0096 54.0344 29.5165 54.461 32.0415 54.46C34.9139 54.4617 37.7598 53.9101 40.4235 52.8355C40.5605 52.7805 40.6948 52.72 40.8303 52.6623C41.05 52.569 41.2683 52.4722 41.4851 52.372C41.6786 52.282 41.872 52.1928 42.0625 52.0975C42.0165 52.1035 41.9705 52.1123 41.9245 52.1173C41.1193 52.208 40.3198 52.2133 39.5391 52.101C34.9213 51.437 33.8983 49.2108 34.0448 46.8918C33.6953 46.6907 33.3566 46.4714 33.03 46.2348C29.4785 43.6583 27.3706 40.9135 27.3706 40.9135C27.3706 40.9135 30.1103 43.0283 34.2023 44.611C34.2901 44.645 34.3723 44.6743 34.4585 44.707C34.6498 44.046 34.876 43.4175 35.075 42.8603L35.1395 42.6793C35.3673 42.038 35.627 41.4085 35.9008 40.786C36.9333 38.4385 38.1891 36.165 38.8073 33.6585L39.1033 32.2588H36.5778L36.5775 32.259L36.5778 32.264L36.5768 32.2645C36.5768 32.2713 36.5778 32.278 36.5778 32.2853C36.5784 32.886 36.399 33.4732 36.0628 33.971C35.7351 34.4553 35.2745 34.8345 34.7363 35.063C34.2675 35.2614 33.756 35.3374 33.2498 35.2838C33.2255 35.2813 33.2023 35.276 33.1783 35.273C33.0993 35.2628 33.0208 35.252 32.9445 35.2363C32.923 35.2315 32.9025 35.2248 32.8813 35.2198C32.8028 35.2018 32.7243 35.1823 32.6483 35.158C32.6343 35.1533 32.6208 35.1475 32.6068 35.1428C32.5245 35.115 32.4428 35.0853 32.3638 35.0508C32.3565 35.0478 32.3498 35.044 32.3428 35.0408C32.2576 35.0032 32.1742 34.9616 32.0928 34.9163L32.089 34.914C31.8303 34.768 31.5943 34.5849 31.3885 34.3705L22.7365 32.2588H13.294C13.2535 32.3308 13.2085 32.3998 13.1688 32.472C13.0968 32.6028 13.0288 32.7355 12.9593 32.8673C12.7273 33.3056 12.5088 33.751 12.3043 34.2028C12.1131 34.6251 11.934 35.0529 11.7673 35.4855L11.7443 35.543C11.3152 36.6722 10.9717 37.832 10.7168 39.0128C12.2033 43.5468 15.0955 47.4428 18.8763 50.1888C18.9863 50.2685 19.1023 50.3395 19.2138 50.4175C19.8536 50.8668 20.5164 51.2822 21.1995 51.6623C22.1032 52.1649 23.0408 52.6038 24.0055 52.9758Z" fill="white"/>
<path d="M46.6447 58.3432C46.5842 57.7431 46.5528 57.1404 46.5507 56.5372C46.5507 56.3617 46.4809 56.1932 46.3568 56.0691C46.2327 55.9449 46.0643 55.8751 45.8887 55.875H18.1107C17.9351 55.8751 17.7667 55.9449 17.6425 56.069C17.5183 56.1932 17.4485 56.3616 17.4484 56.5372C17.4484 57.1452 17.4127 57.7467 17.3544 58.3432C17.2897 58.9988 17.1896 59.6504 17.0547 60.2952C17.4574 60.5082 17.8634 60.7155 18.2764 60.912C18.5526 59.7068 18.7143 58.4781 18.7594 57.2425C18.7602 57.2282 18.7617 57.2137 18.7622 57.1995H45.2372C45.2377 57.2137 45.2392 57.2282 45.2397 57.2425C45.285 58.4781 45.4468 59.7068 45.7229 60.912C46.1345 60.7151 46.5418 60.5094 46.9447 60.2952C46.8098 59.6504 46.7096 58.9988 46.6447 58.3432Z" fill="#8B7460"/>
</g>
<defs>
<clipPath id="clip0_2661_92">
<rect width="64" height="64" fill="white"/>
</clipPath>
</defs>
</svg>
