<svg width="60" height="60" viewBox="0 0 60 60" fill="none" xmlns="http://www.w3.org/2000/svg">
<g clip-path="url(#clip0_345_45)">
<path d="M53.1816 6.82892C48.7779 2.42523 42.9227 0 36.6943 0C30.4665 0 24.6112 2.42523 20.2071 6.82892C17.774 9.26193 15.992 12.1037 14.8613 15.135L12.9657 13.7265C13.25 12.9845 13.4056 12.1793 13.4056 11.3383C13.4056 7.64282 10.3986 4.63577 6.70258 4.63577C3.00659 4.63577 0 7.64282 0 11.3388C0 15.0343 3.00659 18.0414 6.70258 18.0414C8.2869 18.0414 9.74442 17.4889 10.8929 16.5665L13.8359 18.7537C12.7116 24.4327 13.7091 30.4527 16.8292 35.527L1.59256 50.7632C-0.517273 52.8731 -0.517273 56.3054 1.59256 58.4152C2.61429 59.437 3.97339 60 5.41901 60C6.86417 60 8.22327 59.437 9.24545 58.4152L24.4775 43.1836C28.1149 45.4294 32.3122 46.6301 36.6943 46.6301C42.9227 46.6301 48.7779 44.2049 53.1816 39.8012C62.2728 30.7104 62.2728 15.9196 53.1816 6.82892ZM6.70258 14.5258C4.94568 14.5258 3.51654 13.0962 3.51654 11.3388C3.51654 9.58145 4.94568 8.1514 6.70258 8.1514C8.45993 8.1514 9.88953 9.58145 9.88953 11.3388C9.88953 13.0962 8.45993 14.5258 6.70258 14.5258ZM6.75888 55.9296C6.40091 56.2871 5.92484 56.4844 5.41901 56.4844C4.91272 56.4844 4.43665 56.2871 4.07913 55.9296C3.33984 55.1903 3.33984 53.9882 4.07913 53.2489L7.37137 49.9571L10.0511 52.6373L6.75888 55.9296ZM12.5372 50.1508L9.85748 47.471L18.9212 38.4073C19.3277 38.8852 19.7562 39.3503 20.2071 39.8012C20.657 40.2512 21.1217 40.6801 21.601 41.088L12.5372 50.1508ZM50.695 37.3155C46.9556 41.055 41.9833 43.1145 36.6943 43.1145C31.4058 43.1145 26.4336 41.055 22.6936 37.3155C18.2767 32.8981 16.3866 26.8964 17.0242 21.123L24.5471 26.7128C24.2633 27.4553 24.1072 28.2605 24.1072 29.1014C24.1072 32.7969 27.1143 35.804 30.8102 35.804C34.5062 35.804 37.5128 32.7969 37.5128 29.1014C37.5128 27.8902 37.1901 26.7531 36.6257 25.7716L44.615 17.7818L43.9915 22.197C43.856 23.1583 44.5253 24.0472 45.4866 24.1832C45.5699 24.1951 45.6528 24.2006 45.7347 24.2006C46.5967 24.2006 47.3492 23.5661 47.4733 22.6881L48.4904 15.4834C48.6497 14.3541 48.279 13.244 47.4724 12.4379C46.6658 11.6318 45.5553 11.2605 44.4269 11.4198L37.2221 12.437C36.2604 12.5729 35.5911 13.4624 35.7271 14.4232C35.8626 15.3845 36.7525 16.0538 37.7138 15.9183L42.1294 15.2948L34.1396 23.2855C33.1581 22.7216 32.021 22.3988 30.8098 22.3988C29.2259 22.3988 27.7684 22.9509 26.6199 23.8733L17.8212 17.3351C18.7463 14.399 20.3705 11.6377 22.6936 9.31458C26.4336 5.5751 31.4058 3.51562 36.6943 3.51562C41.9833 3.51562 46.9556 5.5751 50.695 9.31458C58.4157 17.0343 58.4157 29.5958 50.695 37.3155ZM27.6237 29.101C27.6237 27.3441 29.0529 25.914 30.8098 25.914C32.5671 25.914 33.9963 27.3441 33.9963 29.101C33.9963 30.8583 32.5671 32.2884 30.8098 32.2884C29.0529 32.2884 27.6237 30.8583 27.6237 29.101Z" fill="#15D4EC"/>
</g>
<defs>
<clipPath id="clip0_345_45">
<rect width="60" height="60" fill="white"/>
</clipPath>
</defs>
</svg>
