<svg width="64" height="64" viewBox="0 0 64 64" fill="none" xmlns="http://www.w3.org/2000/svg">
<path d="M64.0001 22.0273V56.5068C64.0001 60.6464 60.6463 64 56.5067 64H22.0272C17.8876 64 14.534 60.6464 14.534 56.5068V22.0273C14.534 17.8876 17.8876 14.534 22.0272 14.534H56.5067C60.6463 14.534 64.0001 17.8876 64.0001 22.0273ZM7.49326 0C3.35362 0 0 3.35364 0 7.49326C0 11.6329 3.35362 14.9865 7.49326 14.9865C11.6329 14.9865 14.9865 11.6329 14.9865 7.49326C14.9865 3.35364 11.6329 0 7.49326 0Z" fill="url(#paint0_linear_2661_145)"/>
<defs>
<linearGradient id="paint0_linear_2661_145" x1="9.46285" y1="54.5388" x2="54.5397" y2="9.46195" gradientUnits="userSpaceOnUse">
<stop stop-color="#7381FD"/>
<stop offset="1" stop-color="#76C7FF"/>
</linearGradient>
</defs>
</svg>
