<svg width="50" height="50" viewBox="0 0 50 50" fill="none" xmlns="http://www.w3.org/2000/svg">
<path d="M25 0C13.1254 0 3.51562 9.60977 3.51562 21.4844V32.4219C3.51562 35.6527 6.14414 38.2812 9.375 38.2812C12.6059 38.2812 15.2344 35.6527 15.2344 32.4219V25.3906C15.2344 22.1598 12.6059 19.5312 9.375 19.5312C8.71904 19.5312 8.08867 19.6412 7.49932 19.8409C8.33076 10.9161 15.8616 3.90625 25 3.90625C34.1384 3.90625 41.6692 10.9161 42.5007 19.8409C41.9113 19.6412 41.281 19.5312 40.625 19.5312C37.3941 19.5312 34.7656 22.1598 34.7656 25.3906V32.4219C34.7656 35.6527 37.3941 38.2812 40.625 38.2812C41.2163 38.2812 41.7871 38.1924 42.3256 38.0287C41.595 40.4327 39.3583 42.1875 36.7188 42.1875H30.5234C29.7172 39.9143 27.5462 38.2812 25 38.2812C21.7691 38.2812 19.1406 40.9098 19.1406 44.1406C19.1406 47.3715 21.7691 50 25 50C27.5462 50 29.7171 48.367 30.5234 46.0938H36.7188C42.1035 46.0938 46.4844 41.7129 46.4844 36.3281V21.4844C46.4844 9.60977 36.8746 0 25 0ZM9.375 23.4375C10.452 23.4375 11.3281 24.3137 11.3281 25.3906V32.4219C11.3281 33.4988 10.452 34.375 9.375 34.375C8.29805 34.375 7.42188 33.4988 7.42188 32.4219V25.3906C7.42188 24.3137 8.29805 23.4375 9.375 23.4375ZM25 46.0938C23.923 46.0938 23.0469 45.2176 23.0469 44.1406C23.0469 43.0637 23.923 42.1875 25 42.1875C26.077 42.1875 26.9531 43.0637 26.9531 44.1406C26.9531 45.2176 26.077 46.0938 25 46.0938ZM40.625 34.375C39.548 34.375 38.6719 33.4988 38.6719 32.4219V25.3906C38.6719 24.3137 39.548 23.4375 40.625 23.4375C41.702 23.4375 42.5781 24.3137 42.5781 25.3906V32.4219C42.5781 33.4988 41.702 34.375 40.625 34.375Z" fill="#FC275E"/>
</svg>
