<svg width="50" height="50" viewBox="0 0 50 50" fill="none" xmlns="http://www.w3.org/2000/svg">
<g clip-path="url(#clip0_197_47)">
<mask id="mask0_197_47" style="mask-type:luminance" maskUnits="userSpaceOnUse" x="0" y="0" width="50" height="50">
<path d="M50 0H0V50H50V0Z" fill="white"/>
</mask>
<g mask="url(#mask0_197_47)">
<path fill-rule="evenodd" clip-rule="evenodd" d="M24.9672 44.1378C24.1577 44.1378 23.5015 44.794 23.5015 45.6034C23.5015 46.4128 24.1577 47.069 24.9672 47.069C25.7766 47.069 26.4328 46.4128 26.4328 45.6034C26.4328 44.794 25.7766 44.1378 24.9672 44.1378ZM20.5703 45.6034C20.5703 43.1751 22.5388 41.2065 24.9672 41.2065C27.3955 41.2065 29.364 43.1751 29.364 45.6034C29.364 48.0317 27.3955 50.0002 24.9672 50.0002C22.5388 50.0002 20.5703 48.0317 20.5703 45.6034Z" fill="#FC275E"/>
<path fill-rule="evenodd" clip-rule="evenodd" d="M12.0047 10.0996C12.8141 10.0996 13.4703 10.7558 13.4703 11.5652V28.61H36.472V11.5652C36.472 10.7558 37.1282 10.0996 37.9376 10.0996C38.747 10.0996 39.4032 10.7558 39.4032 11.5652V30.0756C39.4032 30.885 38.747 31.5412 37.9376 31.5412H26.4367V42.5742C26.4367 43.3836 25.7805 44.0398 24.9711 44.0398C24.1616 44.0398 23.5055 43.3836 23.5055 42.5742V31.5412H12.0047C11.1952 31.5412 10.5391 30.885 10.5391 30.0756V11.5652C10.5391 10.7558 11.1952 10.0996 12.0047 10.0996Z" fill="#FC275E"/>
<path fill-rule="evenodd" clip-rule="evenodd" d="M24.0944 0.287517C24.6124 -0.095838 25.3201 -0.095839 25.8381 0.287514L41.7104 12.0336C42.3611 12.5152 42.4982 13.4329 42.0167 14.0836C41.5352 14.7342 40.6174 14.8714 39.9667 14.3899L24.9662 3.28892L9.96584 14.3899C9.31519 14.8714 8.3974 14.7342 7.91589 14.0836C7.43438 13.4329 7.5715 12.5152 8.22215 12.0337L24.0944 0.287517ZM15.4428 28.61C16.2523 28.61 16.9085 29.2662 16.9085 30.0756V37.7239C16.9085 38.5333 16.2523 39.1895 15.4428 39.1895H7.32499C6.51555 39.1895 5.85938 38.5333 5.85938 37.7239C5.85938 36.9145 6.51555 36.2583 7.32499 36.2583H13.9772V30.0756C13.9772 29.2662 14.6334 28.61 15.4428 28.61Z" fill="#FC275E"/>
<path fill-rule="evenodd" clip-rule="evenodd" d="M4.39685 36.2584C3.58741 36.2584 2.93123 36.9146 2.93123 37.724C2.93123 38.5334 3.58741 39.1897 4.39685 39.1897C5.20629 39.1897 5.86247 38.5334 5.86247 37.724C5.86247 36.9146 5.20629 36.2584 4.39685 36.2584ZM0 37.724C0 35.2957 1.96854 33.3271 4.39685 33.3271C6.82516 33.3271 8.7937 35.2957 8.7937 37.724C8.7937 40.1523 6.82516 42.1208 4.39685 42.1208C1.96854 42.1208 0 40.1523 0 37.724Z" fill="#FC275E"/>
<path fill-rule="evenodd" clip-rule="evenodd" d="M34.5359 28.6099C35.3454 28.6099 36.0015 29.266 36.0015 30.0755V36.2581H42.6538C43.4632 36.2581 44.1194 36.9143 44.1194 37.7237C44.1194 38.5332 43.4632 39.1894 42.6538 39.1894H34.5359C33.7265 39.1894 33.0703 38.5332 33.0703 37.7237V30.0755C33.0703 29.266 33.7265 28.6099 34.5359 28.6099Z" fill="#FC275E"/>
<path fill-rule="evenodd" clip-rule="evenodd" d="M45.5922 36.2584C44.7827 36.2584 44.1265 36.9146 44.1265 37.724C44.1265 38.5334 44.7827 39.1897 45.5922 39.1897C46.4016 39.1897 47.0578 38.5334 47.0578 37.724C47.0578 36.9146 46.4016 36.2584 45.5922 36.2584ZM41.1953 37.724C41.1953 35.2957 43.1638 33.3271 45.5922 33.3271C48.0205 33.3271 49.989 35.2957 49.989 37.724C49.989 40.1523 48.0205 42.1208 45.5922 42.1208C43.1638 42.1208 41.1953 40.1523 41.1953 37.724Z" fill="#FC275E"/>
<path fill-rule="evenodd" clip-rule="evenodd" d="M4.3953 7.24316C5.20474 7.24316 5.86092 7.89934 5.86092 8.70878V21.5303H12.0014C12.8108 21.5303 13.467 22.1865 13.467 22.9959C13.467 23.8053 12.8108 24.4615 12.0014 24.4615H4.3953C3.58587 24.4615 2.92969 23.8053 2.92969 22.9959V8.70878C2.92969 7.89934 3.58587 7.24316 4.3953 7.24316ZM31.0028 17.2638C27.345 14.3851 22.5906 14.3851 18.9328 17.2638C18.2968 17.7644 17.3753 17.6546 16.8747 17.0185C16.3741 16.3824 16.4839 15.461 17.12 14.9604C21.8414 11.2446 28.0942 11.2446 32.8156 14.9604C33.4517 15.461 33.5615 16.3824 33.0609 17.0185C32.5603 17.6546 31.6389 17.7644 31.0028 17.2638ZM28.28 21.3616C26.2351 19.9103 23.7006 19.9103 21.6555 21.3616C20.9954 21.8301 20.0805 21.6747 19.612 21.0146C19.1436 20.3545 19.299 19.4396 19.9591 18.9711C23.0202 16.7989 26.9155 16.7988 29.9765 18.9712C30.6366 19.4396 30.7919 20.3545 30.3235 21.0146C29.855 21.6747 28.9402 21.8301 28.28 21.3616ZM25.6605 25.5545C25.2193 25.2735 24.7164 25.2735 24.275 25.5545C23.5922 25.9892 22.6863 25.7881 22.2516 25.1053C21.8169 24.4225 22.018 23.5166 22.7008 23.0819C24.1025 22.1894 25.8331 22.1894 27.2348 23.0819C27.9176 23.5166 28.1187 24.4226 27.6839 25.1054C27.2492 25.7881 26.3433 25.9892 25.6605 25.5545Z" fill="#FC275E"/>
<path fill-rule="evenodd" clip-rule="evenodd" d="M4.42029 4.31209C3.61085 4.31209 2.95467 4.96827 2.95467 5.77771C2.95467 6.58715 3.61085 7.24333 4.42029 7.24333C5.22972 7.24333 5.8859 6.58715 5.8859 5.77771C5.8859 4.96827 5.22972 4.31209 4.42029 4.31209ZM0.0234375 5.77771C0.0234375 3.3494 1.99197 1.38086 4.42029 1.38086C6.8486 1.38086 8.81714 3.3494 8.81714 5.77771C8.81714 8.20602 6.8486 10.1746 4.42029 10.1746C1.99197 10.1746 0.0234375 8.20602 0.0234375 5.77771Z" fill="#FC275E"/>
<path fill-rule="evenodd" clip-rule="evenodd" d="M45.6186 7.24316C46.428 7.24316 47.0842 7.89934 47.0842 8.70878V22.9959C47.0842 23.8053 46.428 24.4615 45.6186 24.4615H38.0125C37.2031 24.4615 36.5469 23.8053 36.5469 22.9959C36.5469 22.1865 37.2031 21.5303 38.0125 21.5303H44.1529V8.70878C44.1529 7.89934 44.8091 7.24316 45.6186 7.24316Z" fill="#FC275E"/>
<path fill-rule="evenodd" clip-rule="evenodd" d="M45.6 4.31209C44.7905 4.31209 44.1344 4.96827 44.1344 5.77771C44.1344 6.58715 44.7905 7.24333 45.6 7.24333C46.4094 7.24333 47.0656 6.58715 47.0656 5.77771C47.0656 4.96827 46.4094 4.31209 45.6 4.31209ZM41.2031 5.77771C41.2031 3.3494 43.1717 1.38086 45.6 1.38086C48.0283 1.38086 49.9968 3.3494 49.9968 5.77771C49.9968 8.20602 48.0283 10.1746 45.6 10.1746C43.1717 10.1746 41.2031 8.20602 41.2031 5.77771Z" fill="#FC275E"/>
<path fill-rule="evenodd" clip-rule="evenodd" d="M35.3016 2.43701C36.111 2.43701 36.7672 3.09319 36.7672 3.90263V8.70858C36.7672 9.51802 36.111 10.1742 35.3016 10.1742C34.4921 10.1742 33.8359 9.51802 33.8359 8.70858V3.90263C33.8359 3.09319 34.4921 2.43701 35.3016 2.43701Z" fill="#FC275E"/>
</g>
</g>
<defs>
<clipPath id="clip0_197_47">
<rect width="50" height="50" fill="white"/>
</clipPath>
</defs>
</svg>
