<svg width="50" height="50" viewBox="0 0 50 50" fill="none" xmlns="http://www.w3.org/2000/svg">
<g clip-path="url(#clip0_198_39)">
<path d="M12.6666 13.66L12.6666 13.6601C13.0113 14.0046 13.57 14.0048 13.9145 13.6601C14.9892 12.5857 16.7376 12.5858 17.8116 13.66L17.8116 13.66C17.9839 13.8324 18.2101 13.9185 18.4356 13.9185C18.6611 13.9185 18.8872 13.8324 19.0596 13.66C19.4042 13.3154 19.4042 12.7567 19.0594 12.4121C17.2969 10.6497 14.4293 10.6495 12.6667 12.4122C12.322 12.7568 12.322 13.3154 12.6666 13.66Z" fill="#FC275E" stroke="#FC275E" stroke-width="0.3"/>
<path d="M10.9921 9.81073L10.9921 9.81073C13.6781 7.12491 18.0479 7.12471 20.7342 9.81071L10.9921 9.81073ZM10.9921 9.81073C10.6475 10.1553 10.6474 10.7141 10.9921 11.0586C11.3368 11.4032 11.8954 11.4032 12.24 11.0586L12.24 11.0586M10.9921 9.81073L12.24 11.0586M12.24 11.0586C14.2377 9.06084 17.4886 9.06103 19.4861 11.0586L19.5922 10.9525M12.24 11.0586L19.5922 10.9525M19.5922 10.9525L19.4861 11.0586C19.6584 11.2309 19.8846 11.3171 20.1101 11.3171C20.3357 11.3171 20.5618 11.2309 20.7342 11.0586M19.5922 10.9525L20.7342 11.0586M20.7342 11.0586C21.0788 10.714 21.0788 10.1553 20.7342 9.81073L20.7342 11.0586Z" fill="#FC275E" stroke="#FC275E" stroke-width="0.3"/>
<path d="M10.5656 8.45704L10.5656 8.45706C10.2209 8.80163 9.6623 8.80167 9.31768 8.45706L10.5656 8.45704ZM10.5656 8.45704C11.9808 7.04181 13.8617 6.26269 15.8632 6.26269C17.8645 6.26269 19.7455 7.04181 21.1606 8.45704L21.2667 8.35098M10.5656 8.45704L21.2667 8.35098M21.2667 8.35098L21.1606 8.45704C21.333 8.62937 21.559 8.71553 21.7847 8.71553M21.2667 8.35098L21.7847 8.71553M21.7847 8.71553C22.0102 8.71553 22.2364 8.62938 22.4087 8.45704M21.7847 8.71553L22.4087 8.45704M22.4087 8.45704C22.7533 8.11244 22.7533 7.5537 22.4087 7.20917V8.45704ZM22.4087 7.20915C20.6605 5.46101 18.3355 4.49795 15.8632 4.49795C13.3909 4.49795 11.0658 5.46102 9.31766 7.20917C8.97306 7.55377 8.97303 8.11251 9.31766 8.45704L22.4087 7.20915Z" fill="#FC275E" stroke="#FC275E" stroke-width="0.3"/>
<path d="M15.8631 14.271C15.2582 14.271 14.6893 14.5066 14.2617 14.9343C13.8339 15.3621 13.5982 15.9309 13.5982 16.5358C13.5982 17.1408 13.8339 17.7097 14.2616 18.1373C14.6894 18.565 15.2582 18.8007 15.8632 18.8007C16.4682 18.8007 17.037 18.565 17.4646 18.1373C17.8925 17.7096 18.1281 17.1407 18.1281 16.5357C18.1281 15.9308 17.8925 15.362 17.4646 14.9342C17.0368 14.5066 16.4681 14.271 15.8631 14.271ZM16.4288 17.1016C16.2777 17.2526 16.0768 17.3358 15.8631 17.3358C15.6494 17.3358 15.4485 17.2526 15.2974 17.1015C15.1463 16.9504 15.0631 16.7495 15.0631 16.5358C15.0631 16.3222 15.1463 16.1213 15.2975 15.9701C15.4485 15.819 15.6494 15.7358 15.8631 15.7358C16.0768 15.7358 16.2777 15.819 16.4288 15.9701C16.5799 16.1212 16.6632 16.3222 16.6632 16.5358C16.6632 16.7496 16.58 16.9505 16.4288 17.1016Z" fill="#FC275E"/>
<path d="M17.1604 31.8027H14.5659C14.1613 31.8027 13.8335 32.1307 13.8335 32.5352C13.8335 32.9396 14.1613 33.2676 14.5659 33.2676H17.1604C17.5649 33.2676 17.8928 32.9396 17.8928 32.5352C17.8928 32.1307 17.5648 31.8027 17.1604 31.8027Z" fill="#FC275E"/>
<mask id="path-6-outside-1_198_39" maskUnits="userSpaceOnUse" x="-1" y="16.0933" width="52" height="30" fill="black">
<rect fill="white" x="-1" y="16.0933" width="52" height="30"/>
<path d="M49.0155 28.5179C48.7199 28.2146 48.3792 27.9724 48.0081 27.7976C48.5687 27.1813 48.9106 26.3629 48.9106 25.4662C48.9106 23.5535 47.3546 21.9975 45.442 21.9975H40.6515L40.1492 20.095C39.9069 19.1767 39.1431 18.4952 38.2031 18.3588L29.7307 17.1292C28.3694 16.9318 27.0228 17.5598 26.2993 18.7296L23.1027 23.8996C23.0975 23.9082 23.0883 23.9133 23.0782 23.9133H19.0983L18.9243 23.2347C18.7736 22.6467 18.2443 22.236 17.6373 22.236H14.0889C13.4817 22.236 12.9524 22.6467 12.8018 23.2347L12.6277 23.9133H8.67363C8.26914 23.9133 7.94121 24.2413 7.94121 24.6458C7.94121 25.0503 8.26914 25.3782 8.67363 25.3782H12.2521L11.8637 26.8932C10.8606 26.9582 10.0638 27.7926 10.0638 28.8119V36.2586C10.0638 37.2778 10.8606 38.1123 11.8637 38.1772L12.2373 39.6342H1.70898C1.57432 39.6342 1.46484 39.5247 1.46484 39.3901V25.6223C1.46484 25.4878 1.57432 25.3782 1.70898 25.3782H5.48164C5.88623 25.3782 6.21406 25.0503 6.21406 24.6458C6.21406 24.2413 5.88623 23.9133 5.48164 23.9133H1.70898C0.766699 23.9133 0 24.68 0 25.6223V39.3901C0 40.3324 0.766699 41.0991 1.70898 41.0991L12.6129 41.0992L12.8018 41.8359C12.9525 42.4239 13.4817 42.8345 14.0889 42.8345H17.6375C18.2445 42.8345 18.7737 42.4239 18.9245 41.8359L19.1134 41.0992H22.5658C22.5752 41.0992 22.584 41.1037 22.5893 41.1114L24.3408 43.6031C25.111 44.6985 26.3701 45.3525 27.7092 45.3525H44.3562C46.2687 45.3525 47.8248 43.7964 47.8248 41.8838C47.8248 41.4976 47.7605 41.1157 47.6335 40.7479C47.4741 40.2878 47.224 39.8775 46.9074 39.5342C48.0613 38.9831 48.877 37.8311 48.9112 36.5024C48.9348 35.5909 48.6102 34.728 47.9954 34.0616C49.1491 33.5104 49.9646 32.3585 49.9988 31.0298C50.0231 30.0855 49.674 29.1935 49.0155 28.5179ZM14.1944 23.7008H17.5318L18.3487 26.887H13.3775L14.1944 23.7008ZM17.5318 41.3697H14.1944L13.3775 38.1836H18.3488L17.5318 41.3697ZM46.4697 32.9425H45.4437C45.0392 32.9425 44.7113 33.2705 44.7113 33.675C44.7113 34.0794 45.0392 34.4074 45.4437 34.4074C45.9888 34.4074 46.4985 34.6224 46.8789 35.0128C47.2593 35.4031 47.4609 35.9186 47.4469 36.4645C47.4191 37.54 46.4928 38.415 45.3821 38.415H44.3562C43.9516 38.415 43.6237 38.7429 43.6237 39.1474C43.6237 39.5519 43.9516 39.8798 44.3562 39.8798C45.2092 39.8798 45.97 40.4214 46.2492 41.2267C46.3216 41.4366 46.36 41.6638 46.36 41.8837C46.36 42.9886 45.461 43.8876 44.3562 43.8876H27.7092C26.8466 43.8876 26.0353 43.4663 25.5392 42.7605L23.7876 40.269C23.5083 39.8715 23.0515 39.6343 22.5656 39.6343H19.4888L19.8624 38.1773C20.8654 38.1124 21.6623 37.2779 21.6623 36.2586V35.741C21.6623 35.3365 21.3345 35.0085 20.9299 35.0085C20.5253 35.0085 20.1975 35.3365 20.1975 35.741V36.2586C20.1975 36.5124 19.9911 36.7187 19.7374 36.7187H11.9885C11.7348 36.7187 11.5284 36.5124 11.5284 36.2586V28.812C11.5284 28.5583 11.7348 28.3519 11.9885 28.3519H19.7374C19.9911 28.3519 20.1975 28.5584 20.1975 28.812V32.549C20.1975 32.9535 20.5253 33.2814 20.9299 33.2814C21.3345 33.2814 21.6623 32.9535 21.6623 32.549V28.8119C21.6623 27.7926 20.8654 26.9582 19.8623 26.8932L19.4738 25.3782H23.0782C23.5995 25.3782 24.0743 25.1135 24.3486 24.6701L27.5452 19.5001C27.9616 18.8267 28.7367 18.4652 29.5203 18.5788L37.9928 19.8085C38.3502 19.8603 38.6407 20.1195 38.7328 20.4687L39.1363 21.9974H32.3521C31.9476 21.9974 31.6197 22.3253 31.6197 22.7298C31.6197 23.1343 31.9476 23.4623 32.3521 23.4623H39.7489C39.8085 23.4623 39.866 23.4544 39.9215 23.441C39.9752 23.4535 40.0302 23.4623 40.0872 23.4623H45.4419C46.5469 23.4623 47.4457 24.3612 47.4457 25.4661C47.4457 26.571 46.5468 27.47 45.4418 27.47C45.0372 27.47 44.7094 27.7979 44.7094 28.2024C44.7094 28.6069 45.0372 28.9348 45.4418 28.9348H46.5312C47.0762 28.9348 47.5859 29.1499 47.9663 29.5402C48.3467 29.9304 48.5483 30.446 48.5344 30.992C48.5068 32.0675 47.5806 32.9425 46.4697 32.9425Z"/>
</mask>
<path d="M49.0155 28.5179C48.7199 28.2146 48.3792 27.9724 48.0081 27.7976C48.5687 27.1813 48.9106 26.3629 48.9106 25.4662C48.9106 23.5535 47.3546 21.9975 45.442 21.9975H40.6515L40.1492 20.095C39.9069 19.1767 39.1431 18.4952 38.2031 18.3588L29.7307 17.1292C28.3694 16.9318 27.0228 17.5598 26.2993 18.7296L23.1027 23.8996C23.0975 23.9082 23.0883 23.9133 23.0782 23.9133H19.0983L18.9243 23.2347C18.7736 22.6467 18.2443 22.236 17.6373 22.236H14.0889C13.4817 22.236 12.9524 22.6467 12.8018 23.2347L12.6277 23.9133H8.67363C8.26914 23.9133 7.94121 24.2413 7.94121 24.6458C7.94121 25.0503 8.26914 25.3782 8.67363 25.3782H12.2521L11.8637 26.8932C10.8606 26.9582 10.0638 27.7926 10.0638 28.8119V36.2586C10.0638 37.2778 10.8606 38.1123 11.8637 38.1772L12.2373 39.6342H1.70898C1.57432 39.6342 1.46484 39.5247 1.46484 39.3901V25.6223C1.46484 25.4878 1.57432 25.3782 1.70898 25.3782H5.48164C5.88623 25.3782 6.21406 25.0503 6.21406 24.6458C6.21406 24.2413 5.88623 23.9133 5.48164 23.9133H1.70898C0.766699 23.9133 0 24.68 0 25.6223V39.3901C0 40.3324 0.766699 41.0991 1.70898 41.0991L12.6129 41.0992L12.8018 41.8359C12.9525 42.4239 13.4817 42.8345 14.0889 42.8345H17.6375C18.2445 42.8345 18.7737 42.4239 18.9245 41.8359L19.1134 41.0992H22.5658C22.5752 41.0992 22.584 41.1037 22.5893 41.1114L24.3408 43.6031C25.111 44.6985 26.3701 45.3525 27.7092 45.3525H44.3562C46.2687 45.3525 47.8248 43.7964 47.8248 41.8838C47.8248 41.4976 47.7605 41.1157 47.6335 40.7479C47.4741 40.2878 47.224 39.8775 46.9074 39.5342C48.0613 38.9831 48.877 37.8311 48.9112 36.5024C48.9348 35.5909 48.6102 34.728 47.9954 34.0616C49.1491 33.5104 49.9646 32.3585 49.9988 31.0298C50.0231 30.0855 49.674 29.1935 49.0155 28.5179ZM14.1944 23.7008H17.5318L18.3487 26.887H13.3775L14.1944 23.7008ZM17.5318 41.3697H14.1944L13.3775 38.1836H18.3488L17.5318 41.3697ZM46.4697 32.9425H45.4437C45.0392 32.9425 44.7113 33.2705 44.7113 33.675C44.7113 34.0794 45.0392 34.4074 45.4437 34.4074C45.9888 34.4074 46.4985 34.6224 46.8789 35.0128C47.2593 35.4031 47.4609 35.9186 47.4469 36.4645C47.4191 37.54 46.4928 38.415 45.3821 38.415H44.3562C43.9516 38.415 43.6237 38.7429 43.6237 39.1474C43.6237 39.5519 43.9516 39.8798 44.3562 39.8798C45.2092 39.8798 45.97 40.4214 46.2492 41.2267C46.3216 41.4366 46.36 41.6638 46.36 41.8837C46.36 42.9886 45.461 43.8876 44.3562 43.8876H27.7092C26.8466 43.8876 26.0353 43.4663 25.5392 42.7605L23.7876 40.269C23.5083 39.8715 23.0515 39.6343 22.5656 39.6343H19.4888L19.8624 38.1773C20.8654 38.1124 21.6623 37.2779 21.6623 36.2586V35.741C21.6623 35.3365 21.3345 35.0085 20.9299 35.0085C20.5253 35.0085 20.1975 35.3365 20.1975 35.741V36.2586C20.1975 36.5124 19.9911 36.7187 19.7374 36.7187H11.9885C11.7348 36.7187 11.5284 36.5124 11.5284 36.2586V28.812C11.5284 28.5583 11.7348 28.3519 11.9885 28.3519H19.7374C19.9911 28.3519 20.1975 28.5584 20.1975 28.812V32.549C20.1975 32.9535 20.5253 33.2814 20.9299 33.2814C21.3345 33.2814 21.6623 32.9535 21.6623 32.549V28.8119C21.6623 27.7926 20.8654 26.9582 19.8623 26.8932L19.4738 25.3782H23.0782C23.5995 25.3782 24.0743 25.1135 24.3486 24.6701L27.5452 19.5001C27.9616 18.8267 28.7367 18.4652 29.5203 18.5788L37.9928 19.8085C38.3502 19.8603 38.6407 20.1195 38.7328 20.4687L39.1363 21.9974H32.3521C31.9476 21.9974 31.6197 22.3253 31.6197 22.7298C31.6197 23.1343 31.9476 23.4623 32.3521 23.4623H39.7489C39.8085 23.4623 39.866 23.4544 39.9215 23.441C39.9752 23.4535 40.0302 23.4623 40.0872 23.4623H45.4419C46.5469 23.4623 47.4457 24.3612 47.4457 25.4661C47.4457 26.571 46.5468 27.47 45.4418 27.47C45.0372 27.47 44.7094 27.7979 44.7094 28.2024C44.7094 28.6069 45.0372 28.9348 45.4418 28.9348H46.5312C47.0762 28.9348 47.5859 29.1499 47.9663 29.5402C48.3467 29.9304 48.5483 30.446 48.5344 30.992C48.5068 32.0675 47.5806 32.9425 46.4697 32.9425Z" fill="#FC275E"/>
<path d="M49.0155 28.5179C48.7199 28.2146 48.3792 27.9724 48.0081 27.7976C48.5687 27.1813 48.9106 26.3629 48.9106 25.4662C48.9106 23.5535 47.3546 21.9975 45.442 21.9975H40.6515L40.1492 20.095C39.9069 19.1767 39.1431 18.4952 38.2031 18.3588L29.7307 17.1292C28.3694 16.9318 27.0228 17.5598 26.2993 18.7296L23.1027 23.8996C23.0975 23.9082 23.0883 23.9133 23.0782 23.9133H19.0983L18.9243 23.2347C18.7736 22.6467 18.2443 22.236 17.6373 22.236H14.0889C13.4817 22.236 12.9524 22.6467 12.8018 23.2347L12.6277 23.9133H8.67363C8.26914 23.9133 7.94121 24.2413 7.94121 24.6458C7.94121 25.0503 8.26914 25.3782 8.67363 25.3782H12.2521L11.8637 26.8932C10.8606 26.9582 10.0638 27.7926 10.0638 28.8119V36.2586C10.0638 37.2778 10.8606 38.1123 11.8637 38.1772L12.2373 39.6342H1.70898C1.57432 39.6342 1.46484 39.5247 1.46484 39.3901V25.6223C1.46484 25.4878 1.57432 25.3782 1.70898 25.3782H5.48164C5.88623 25.3782 6.21406 25.0503 6.21406 24.6458C6.21406 24.2413 5.88623 23.9133 5.48164 23.9133H1.70898C0.766699 23.9133 0 24.68 0 25.6223V39.3901C0 40.3324 0.766699 41.0991 1.70898 41.0991L12.6129 41.0992L12.8018 41.8359C12.9525 42.4239 13.4817 42.8345 14.0889 42.8345H17.6375C18.2445 42.8345 18.7737 42.4239 18.9245 41.8359L19.1134 41.0992H22.5658C22.5752 41.0992 22.584 41.1037 22.5893 41.1114L24.3408 43.6031C25.111 44.6985 26.3701 45.3525 27.7092 45.3525H44.3562C46.2687 45.3525 47.8248 43.7964 47.8248 41.8838C47.8248 41.4976 47.7605 41.1157 47.6335 40.7479C47.4741 40.2878 47.224 39.8775 46.9074 39.5342C48.0613 38.9831 48.877 37.8311 48.9112 36.5024C48.9348 35.5909 48.6102 34.728 47.9954 34.0616C49.1491 33.5104 49.9646 32.3585 49.9988 31.0298C50.0231 30.0855 49.674 29.1935 49.0155 28.5179ZM14.1944 23.7008H17.5318L18.3487 26.887H13.3775L14.1944 23.7008ZM17.5318 41.3697H14.1944L13.3775 38.1836H18.3488L17.5318 41.3697ZM46.4697 32.9425H45.4437C45.0392 32.9425 44.7113 33.2705 44.7113 33.675C44.7113 34.0794 45.0392 34.4074 45.4437 34.4074C45.9888 34.4074 46.4985 34.6224 46.8789 35.0128C47.2593 35.4031 47.4609 35.9186 47.4469 36.4645C47.4191 37.54 46.4928 38.415 45.3821 38.415H44.3562C43.9516 38.415 43.6237 38.7429 43.6237 39.1474C43.6237 39.5519 43.9516 39.8798 44.3562 39.8798C45.2092 39.8798 45.97 40.4214 46.2492 41.2267C46.3216 41.4366 46.36 41.6638 46.36 41.8837C46.36 42.9886 45.461 43.8876 44.3562 43.8876H27.7092C26.8466 43.8876 26.0353 43.4663 25.5392 42.7605L23.7876 40.269C23.5083 39.8715 23.0515 39.6343 22.5656 39.6343H19.4888L19.8624 38.1773C20.8654 38.1124 21.6623 37.2779 21.6623 36.2586V35.741C21.6623 35.3365 21.3345 35.0085 20.9299 35.0085C20.5253 35.0085 20.1975 35.3365 20.1975 35.741V36.2586C20.1975 36.5124 19.9911 36.7187 19.7374 36.7187H11.9885C11.7348 36.7187 11.5284 36.5124 11.5284 36.2586V28.812C11.5284 28.5583 11.7348 28.3519 11.9885 28.3519H19.7374C19.9911 28.3519 20.1975 28.5584 20.1975 28.812V32.549C20.1975 32.9535 20.5253 33.2814 20.9299 33.2814C21.3345 33.2814 21.6623 32.9535 21.6623 32.549V28.8119C21.6623 27.7926 20.8654 26.9582 19.8623 26.8932L19.4738 25.3782H23.0782C23.5995 25.3782 24.0743 25.1135 24.3486 24.6701L27.5452 19.5001C27.9616 18.8267 28.7367 18.4652 29.5203 18.5788L37.9928 19.8085C38.3502 19.8603 38.6407 20.1195 38.7328 20.4687L39.1363 21.9974H32.3521C31.9476 21.9974 31.6197 22.3253 31.6197 22.7298C31.6197 23.1343 31.9476 23.4623 32.3521 23.4623H39.7489C39.8085 23.4623 39.866 23.4544 39.9215 23.441C39.9752 23.4535 40.0302 23.4623 40.0872 23.4623H45.4419C46.5469 23.4623 47.4457 24.3612 47.4457 25.4661C47.4457 26.571 46.5468 27.47 45.4418 27.47C45.0372 27.47 44.7094 27.7979 44.7094 28.2024C44.7094 28.6069 45.0372 28.9348 45.4418 28.9348H46.5312C47.0762 28.9348 47.5859 29.1499 47.9663 29.5402C48.3467 29.9304 48.5483 30.446 48.5344 30.992C48.5068 32.0675 47.5806 32.9425 46.4697 32.9425Z" stroke="#FC275E" stroke-width="1.2" mask="url(#path-6-outside-1_198_39)"/>
</g>
<defs>
<clipPath id="clip0_198_39">
<rect width="50" height="50" fill="white"/>
</clipPath>
</defs>
</svg>
