<svg width="50" height="50" viewBox="0 0 50 50" fill="none" xmlns="http://www.w3.org/2000/svg">
<g clip-path="url(#clip0_196_14)">
<mask id="mask0_196_14" style="mask-type:luminance" maskUnits="userSpaceOnUse" x="0" y="0" width="50" height="50">
<path d="M50 0H0V50H50V0Z" fill="white"/>
</mask>
<g mask="url(#mask0_196_14)">
<path fill-rule="evenodd" clip-rule="evenodd" d="M7.32422 2.92969C4.89719 2.92969 2.92969 4.89719 2.92969 7.32422V42.6758C2.92969 45.1028 4.89719 47.0703 7.32422 47.0703H19.043C21.47 47.0703 23.4375 45.1028 23.4375 42.6758V38.6719C23.4375 37.8629 24.0933 37.207 24.9023 37.207C25.7114 37.207 26.3672 37.8629 26.3672 38.6719V42.6758C26.3672 46.7208 23.088 50 19.043 50H7.32422C3.27917 50 0 46.7208 0 42.6758V7.32422C0 3.27917 3.27917 0 7.32422 0H19.043C23.088 0 26.3672 3.27917 26.3672 7.32422V32.8125C26.3672 33.6215 25.7114 34.2773 24.9023 34.2773C24.0933 34.2773 23.4375 33.6215 23.4375 32.8125V7.32422C23.4375 4.89719 21.47 2.92969 19.043 2.92969H7.32422Z" fill="#FC275E"/>
<path fill-rule="evenodd" clip-rule="evenodd" d="M13.1836 31.3477C10.7566 31.3477 8.78905 33.3152 8.78905 35.7422C8.78905 38.1692 10.7566 40.1367 13.1836 40.1367C15.6106 40.1367 17.5781 38.1692 17.5781 35.7422C17.5781 33.3152 15.6106 31.3477 13.1836 31.3477ZM5.85938 35.7422C5.85938 31.6971 9.13854 28.418 13.1836 28.418C17.2286 28.418 20.5078 31.6971 20.5078 35.7422C20.5078 39.7872 17.2286 43.0664 13.1836 43.0664C9.13854 43.0664 5.85938 39.7872 5.85938 35.7422Z" fill="#FC275E"/>
<path fill-rule="evenodd" clip-rule="evenodd" d="M40.249 10.8398C37.4167 10.8398 34.8554 11.9859 32.9989 13.8432C32.427 14.4154 31.4995 14.4156 30.9273 13.8437C30.3551 13.2717 30.3549 12.3442 30.9269 11.7721C33.3106 9.38719 36.6087 7.91016 40.249 7.91016C43.8894 7.91016 47.1874 9.38719 49.5712 11.7721C50.1431 12.3442 50.1429 13.2717 49.5707 13.8437C48.9985 14.4156 48.071 14.4154 47.4991 13.8432C45.6426 11.9859 43.0813 10.8398 40.249 10.8398ZM40.249 16.6992C39.0346 16.6992 37.9381 17.1892 37.1413 17.986C36.5692 18.5581 35.6417 18.5581 35.0697 17.986C34.4976 17.4139 34.4976 16.4865 35.0697 15.9144C36.3939 14.5901 38.2271 13.7695 40.249 13.7695C42.271 13.7695 44.1041 14.5901 45.4284 15.9144C46.0004 16.4865 46.0004 17.4139 45.4284 17.986C44.8563 18.5581 43.9288 18.5581 43.3568 17.986C42.56 17.1892 41.4634 16.6992 40.249 16.6992ZM13.1836 23.4375C13.9926 23.4375 14.6484 24.0933 14.6484 24.9023V29.8828C14.6484 30.6918 13.9926 31.3477 13.1836 31.3477C12.3746 31.3477 11.7188 30.6918 11.7188 29.8828V24.9023C11.7188 24.0933 12.3746 23.4375 13.1836 23.4375ZM16.7939 32.8125C16.7939 32.0035 17.4498 31.3477 18.2588 31.3477H36.7256C39.1527 31.3477 41.1201 33.3151 41.1201 35.7422C41.1201 38.1693 39.1527 40.1367 36.7256 40.1367H18.2588C17.4498 40.1367 16.7939 39.4809 16.7939 38.6719C16.7939 37.8629 17.4498 37.207 18.2588 37.207H36.7256C37.5346 37.207 38.1904 36.5512 38.1904 35.7422C38.1904 34.9331 37.5346 34.2773 36.7256 34.2773H18.2588C17.4498 34.2773 16.7939 33.6215 16.7939 32.8125Z" fill="#FC275E"/>
<path d="M42.2812 20.6055C42.2812 21.792 41.3194 22.7539 40.1328 22.7539C38.9463 22.7539 37.9844 21.792 37.9844 20.6055C37.9844 19.4189 38.9463 18.457 40.1328 18.457C41.3194 18.457 42.2812 19.4189 42.2812 20.6055Z" fill="#FC275E"/>
<path d="M9.57422 8.25195C9.57422 9.1958 8.80908 9.96094 7.86523 9.96094C6.92139 9.96094 6.15625 9.1958 6.15625 8.25195C6.15625 7.30811 6.92139 6.54297 7.86523 6.54297C8.80908 6.54297 9.57422 7.30811 9.57422 8.25195Z" fill="#FC275E"/>
<path d="M14.9492 8.25195C14.9492 9.1958 14.1841 9.96094 13.2402 9.96094C12.2964 9.96094 11.5312 9.1958 11.5312 8.25195C11.5312 7.30811 12.2964 6.54297 13.2402 6.54297C14.1841 6.54297 14.9492 7.30811 14.9492 8.25195Z" fill="#FC275E"/>
<path d="M20.3164 8.25195C20.3164 9.1958 19.5513 9.96094 18.6074 9.96094C17.6636 9.96094 16.8984 9.1958 16.8984 8.25195C16.8984 7.30811 17.6636 6.54297 18.6074 6.54297C19.5513 6.54297 20.3164 7.30811 20.3164 8.25195Z" fill="#FC275E"/>
<path d="M9.57422 13.4277C9.57422 14.3716 8.80908 15.1367 7.86523 15.1367C6.92139 15.1367 6.15625 14.3716 6.15625 13.4277C6.15625 12.4839 6.92139 11.7188 7.86523 11.7188C8.80908 11.7188 9.57422 12.4839 9.57422 13.4277Z" fill="#FC275E"/>
<path d="M14.9492 13.4277C14.9492 14.3716 14.1841 15.1367 13.2402 15.1367C12.2964 15.1367 11.5312 14.3716 11.5312 13.4277C11.5312 12.4839 12.2964 11.7188 13.2402 11.7188C14.1841 11.7188 14.9492 12.4839 14.9492 13.4277Z" fill="#FC275E"/>
<path d="M20.3164 13.4277C20.3164 14.3716 19.5513 15.1367 18.6074 15.1367C17.6636 15.1367 16.8984 14.3716 16.8984 13.4277C16.8984 12.4839 17.6636 11.7188 18.6074 11.7188C19.5513 11.7188 20.3164 12.4839 20.3164 13.4277Z" fill="#FC275E"/>
<path d="M9.57422 18.6035C9.57422 19.5474 8.80908 20.3125 7.86523 20.3125C6.92139 20.3125 6.15625 19.5474 6.15625 18.6035C6.15625 17.6597 6.92139 16.8945 7.86523 16.8945C8.80908 16.8945 9.57422 17.6597 9.57422 18.6035Z" fill="#FC275E"/>
<path d="M14.9492 18.6035C14.9492 19.5474 14.1841 20.3125 13.2402 20.3125C12.2964 20.3125 11.5312 19.5474 11.5312 18.6035C11.5312 17.6597 12.2964 16.8945 13.2402 16.8945C14.1841 16.8945 14.9492 17.6597 14.9492 18.6035Z" fill="#FC275E"/>
<path d="M20.3164 18.6035C20.3164 19.5474 19.5513 20.3125 18.6074 20.3125C17.6636 20.3125 16.8984 19.5474 16.8984 18.6035C16.8984 17.6597 17.6636 16.8945 18.6074 16.8945C19.5513 16.8945 20.3164 17.6597 20.3164 18.6035Z" fill="#FC275E"/>
</g>
</g>
<defs>
<clipPath id="clip0_196_14">
<rect width="50" height="50" fill="white"/>
</clipPath>
</defs>
</svg>
