<svg width="50" height="50" viewBox="0 0 50 50" fill="none" xmlns="http://www.w3.org/2000/svg">
<path d="M27.9297 32.3242H23.5352V22.0703C23.5352 18.4183 25.4992 15.0207 28.6593 13.204C28.8827 13.0756 29.0684 12.8906 29.1975 12.6676C29.3266 12.4445 29.3945 12.1914 29.3945 11.9337V4.39453C29.3945 1.97129 27.4232 0 25 0H7.42188C4.99854 0 3.02734 1.97129 3.02734 4.39453V45.6055C3.02734 48.0287 4.99863 50 7.42188 50H25C27.4232 50 29.3945 48.0287 29.3945 45.6055V33.7891C29.3945 32.9794 28.7394 32.3242 27.9297 32.3242ZM40.255 15.6044C39.1123 14.4588 37.2537 14.46 36.1122 15.6044L27.3231 24.3935C26.1759 25.5438 26.1803 27.3903 27.3231 28.5362C28.4658 29.6818 30.3244 29.6807 31.4659 28.5362L40.255 19.7472C41.4022 18.5969 41.3979 16.7502 40.255 15.6044ZM26.4648 17.6758C26.4648 19.2908 27.778 20.6055 29.3945 20.6055C31.011 20.6055 32.3242 19.2908 32.3242 17.6758C32.3242 16.0607 31.011 14.7461 29.3945 14.7461C27.778 14.7461 26.4648 16.0607 26.4648 17.6758ZM38.1836 23.5352C36.5671 23.5352 35.2539 24.8498 35.2539 26.4648C35.2539 28.0799 36.5671 29.3945 38.1836 29.3945C39.8001 29.3945 41.1133 28.0799 41.1133 26.4648C41.1133 24.8498 39.8001 23.5352 38.1836 23.5352Z" fill="url(#paint0_linear_3273_102)"/>
<path d="M43.1089 12.7362C38.9375 8.62354 32.2899 7.73232 27.2002 10.6635C23.1317 13.0022 20.6055 17.3725 20.6055 22.0703V33.7891C20.6055 34.5987 21.2606 35.2539 22.0703 35.2539H33.7891C41.0589 35.2539 46.9727 29.3401 46.9727 22.0703C46.9727 18.5784 45.6051 15.2683 43.1089 12.7362ZM29.3945 16.2109C30.2035 16.2109 30.8594 16.8667 30.8594 17.6758C30.8594 18.4848 30.2035 19.1406 29.3945 19.1406C28.5855 19.1406 27.9297 18.4848 27.9297 17.6758C27.9297 16.8666 28.5855 16.2109 29.3945 16.2109ZM38.1836 27.9297C37.3746 27.9297 36.7188 27.2738 36.7188 26.4648C36.7188 25.6558 37.3746 25 38.1836 25C38.9926 25 39.6484 25.6558 39.6484 26.4648C39.6484 27.2738 38.9926 27.9297 38.1836 27.9297ZM39.2193 18.7114L30.4303 27.5005C29.8581 28.0727 28.9311 28.0728 28.3589 27.5005C27.7867 26.9283 27.7867 26.0013 28.3589 25.4291L37.1479 16.64C37.7201 16.0679 38.6472 16.0679 39.2193 16.64C39.7915 17.2122 39.7915 18.1393 39.2193 18.7114ZM16.2109 23.5352H13.2812C12.4716 23.5352 11.8164 24.1903 11.8164 25C11.8164 25.8097 12.4716 26.4648 13.2812 26.4648H16.2109C17.0206 26.4648 17.6758 25.8097 17.6758 25C17.6758 24.1903 17.0206 23.5352 16.2109 23.5352ZM10.3516 20.6055H13.2812C14.0909 20.6055 14.7461 19.9503 14.7461 19.1406C14.7461 18.331 14.0909 17.6758 13.2812 17.6758H10.3516C9.54189 17.6758 8.88672 18.331 8.88672 19.1406C8.88672 19.9503 9.54189 20.6055 10.3516 20.6055ZM13.2812 29.3945H10.3516C9.54189 29.3945 8.88672 30.0497 8.88672 30.8594C8.88672 31.669 9.54189 32.3242 10.3516 32.3242H13.2812C14.0909 32.3242 14.7461 31.669 14.7461 30.8594C14.7461 30.0497 14.0909 29.3945 13.2812 29.3945ZM16.2109 41.1133C15.402 41.1133 14.7461 41.7691 14.7461 42.5781C14.7461 43.3871 15.402 44.043 16.2109 44.043C17.0199 44.043 17.6758 43.3871 17.6758 42.5781C17.6758 41.7691 17.0199 41.1133 16.2109 41.1133ZM16.2109 5.95703C15.402 5.95703 14.7461 6.61289 14.7461 7.42188C14.7461 8.23086 15.402 8.88672 16.2109 8.88672C17.0199 8.88672 17.6758 8.23086 17.6758 7.42188C17.6758 6.61289 17.0199 5.95703 16.2109 5.95703Z" fill="url(#paint1_linear_3273_102)"/>
<defs>
<linearGradient id="paint0_linear_3273_102" x1="22.0706" y1="50" x2="22.0706" y2="0" gradientUnits="userSpaceOnUse">
<stop stop-color="#FD5900"/>
<stop offset="1" stop-color="#FFDE00"/>
</linearGradient>
<linearGradient id="paint1_linear_3273_102" x1="27.9297" y1="44.043" x2="27.9297" y2="5.95703" gradientUnits="userSpaceOnUse">
<stop stop-color="#FFE59A"/>
<stop offset="1" stop-color="#FFFFD5"/>
</linearGradient>
</defs>
</svg>
