<svg width="50" height="50" viewBox="0 0 50 50" fill="none" xmlns="http://www.w3.org/2000/svg">
<g clip-path="url(#clip0_345_67)">
<path d="M32.4219 14.8438H17.5781V17.6758H16.1133V20.6055H17.5781V23.6328H16.1133V26.5625H17.5781V29.5898H16.1133V32.5195H17.5781V35.3516H32.4219V32.5195H33.8867V29.5898H32.4219V26.5625H33.8867V23.6328H32.4219V20.6055H33.8867V17.6758H32.4219V14.8438ZM29.4922 26.5625H20.5078V23.6328H29.4922V26.5625ZM29.4922 32.4219H20.5078V29.4922H29.4922V32.4219ZM20.5078 20.7031V17.7734H29.4922V20.7031H20.5078Z" fill="#15D4EC"/>
<path d="M49.1687 30.7038C48.6796 28.8423 47.9861 26.9597 47.1103 25.0864C50.135 18.6085 50.8789 12.2277 48.8429 7.45814C49.5571 6.6765 49.9931 5.63743 49.9931 4.49798C49.9931 2.07532 48.0224 0.104621 45.5996 0.104621C44.4601 0.104621 43.4207 0.540656 42.639 1.25482C37.87 -0.781121 31.4891 -0.0371758 25.0114 2.98743C23.138 2.11155 21.255 1.4181 19.3939 0.928645C12.7918 -0.805926 7.20016 0.19466 3.64879 3.74613C0.0967399 7.29798 -0.903846 12.8898 0.831115 19.4913C1.32018 21.3534 2.01373 23.236 2.88951 25.1093C-0.135096 31.587 -0.878943 37.9674 1.15699 42.7369C0.442834 43.5186 0.00679877 44.558 0.00679877 45.6975C0.00679877 48.1199 1.9775 50.0909 4.40026 50.0909C5.54 50.0909 6.57955 49.6544 7.36119 48.9401C9.1694 49.7121 11.2083 50.0856 13.3975 50.0856C16.9822 50.0856 20.9667 49.0862 24.9885 47.2081C26.8619 48.084 28.7449 48.7775 30.606 49.2665C32.7224 49.8228 34.7347 50.0978 36.6096 50.0978C40.583 50.0978 43.9384 48.8622 46.3512 46.4491C49.903 42.8976 50.9037 37.3055 49.1687 30.7039V30.7038ZM45.5997 3.03353C46.4073 3.03353 47.0641 3.69046 47.0641 4.49808C47.0641 5.30521 46.4073 5.96214 45.5997 5.96214C44.7921 5.96214 44.1352 5.30521 44.1352 4.49808C44.1352 3.69046 44.7921 3.03353 45.5997 3.03353ZM29.6165 4.2806C34.1102 2.77454 38.1855 2.63411 41.2544 3.85257C41.2225 4.06627 41.2064 4.28202 41.2063 4.49808C41.2063 6.92034 43.1774 8.89144 45.5997 8.89144C45.819 8.89144 46.0342 8.87464 46.2452 8.84378C47.4635 11.9122 47.3228 15.9871 45.8171 20.4816C45.6753 20.9058 45.5203 21.3312 45.3555 21.7576C43.394 18.4213 40.8711 15.1757 37.8966 12.201C34.9223 9.22669 31.6764 6.70374 28.3405 4.74222C28.7622 4.57855 29.1876 4.42464 29.6165 4.2806ZM43.8515 25.089C41.9006 28.869 39.1476 32.6013 35.8257 35.9235C32.5035 39.2453 28.7709 41.9985 24.9913 43.9492C21.2327 42.0121 17.5286 39.2778 14.1744 35.9235C10.8201 32.5689 8.08571 28.8652 6.1486 25.1061C8.09938 21.3266 10.8521 17.5944 14.1744 14.2721C17.4966 10.9502 21.2289 8.1972 25.0088 6.24632C28.7674 8.18343 32.4715 10.9178 35.8257 14.2721C39.18 17.6263 41.9144 21.33 43.8515 25.089ZM3.66363 18.7472C2.20445 13.194 2.93453 8.60228 5.71969 5.81751C7.56676 3.97005 10.2085 3.02708 13.3991 3.02708C15.0184 3.02708 16.7796 3.27044 18.6493 3.76146C19.6517 4.02503 20.662 4.35501 21.6747 4.74486C18.3746 6.68079 15.1169 9.18743 12.1032 12.2011C9.08951 15.2148 6.58297 18.4724 4.64703 21.7725C4.25719 20.7598 3.92721 19.7495 3.66363 18.7471V18.7472ZM4.40026 47.1621C3.59264 47.1621 2.93571 46.5052 2.93571 45.6976C2.93571 44.89 3.59264 44.2331 4.40026 44.2331C5.20787 44.2331 5.86471 44.8901 5.86471 45.6976C5.86471 46.5052 5.20748 47.1621 4.40026 47.1621ZM20.3835 45.9151C15.8893 47.4207 11.8144 47.5616 8.74557 46.3431C8.77743 46.1294 8.79349 45.9136 8.79361 45.6976C8.79361 43.2753 6.82252 41.3042 4.40026 41.3042C4.1842 41.3043 3.96844 41.3204 3.75475 41.3523C2.53639 38.2834 2.67672 34.2085 4.18248 29.7144C4.32679 29.2855 4.4808 28.8599 4.6444 28.438C6.60592 31.7743 9.12887 35.02 12.1032 37.9947C15.0776 40.969 18.3231 43.4919 21.6594 45.4534C21.2377 45.6171 20.8123 45.771 20.3835 45.9151ZM44.2802 44.3781C41.4955 47.1627 36.9038 47.8933 31.3506 46.4341C30.3486 46.1705 29.3384 45.8409 28.3263 45.4511C31.6261 43.5152 34.8835 41.0077 37.8966 37.9945C40.9103 34.9809 43.417 31.7232 45.3529 28.4231C45.7427 29.4355 46.0727 30.446 46.3363 31.4481C47.7955 37.0016 47.0653 41.5933 44.2802 44.3781Z" fill="#15D4EC"/>
</g>
<defs>
<clipPath id="clip0_345_67">
<rect width="50" height="50" fill="white"/>
</clipPath>
</defs>
</svg>
