<svg width="18" height="18" viewBox="0 0 18 18" fill="none" xmlns="http://www.w3.org/2000/svg">
<g clip-path="url(#clip0_3631_3)">
<path d="M8.97036 18.0069L8.44755 17.5587C7.72681 16.9552 1.43359 11.5202 1.43359 7.54457C1.43359 3.38214 4.80793 0.0078125 8.97036 0.0078125C13.1328 0.0078125 16.5071 3.38214 16.5071 7.54457C16.5071 11.5202 10.2139 16.9553 9.49615 17.5617L8.97036 18.0069ZM8.97036 1.63748C5.70951 1.64117 3.06699 4.28369 3.0633 7.54454C3.0633 10.0421 6.93512 14.0319 8.97036 15.858C11.0056 14.0312 14.8774 10.0391 14.8774 7.54454C14.8737 4.28369 12.2312 1.64121 8.97036 1.63748Z" fill="white"/>
<path d="M8.97188 10.5336C7.32193 10.5336 5.98438 9.19605 5.98438 7.5461C5.98438 5.89615 7.32193 4.55859 8.97188 4.55859C10.6218 4.55859 11.9594 5.89615 11.9594 7.5461C11.9594 9.19605 10.6219 10.5336 8.97188 10.5336ZM8.97188 6.05231C8.14691 6.05231 7.47813 6.72109 7.47813 7.54607C7.47813 8.37104 8.14691 9.03982 8.97188 9.03982C9.79686 9.03982 10.4656 8.37104 10.4656 7.54607C10.4656 6.72109 9.79689 6.05231 8.97188 6.05231Z" fill="white"/>
</g>
<defs>
<clipPath id="clip0_3631_3">
<rect width="18" height="18" fill="white"/>
</clipPath>
</defs>
</svg>
