<svg width="50" height="50" viewBox="0 0 50 50" fill="none" xmlns="http://www.w3.org/2000/svg">
<g clip-path="url(#clip0_3273_78)">
<path d="M38.1836 39.6002V48.5353C38.1836 49.3443 37.5277 50.0001 36.7188 50.0001H1.5625C0.753516 50.0001 0.0976562 49.3443 0.0976562 48.5353V39.6002C0.0976562 37.9299 0.675976 36.2946 1.72607 34.9957C2.77617 33.6967 4.254 32.7886 5.88721 32.4386L10.7837 31.3894L18.1048 38.7105C18.6769 39.2826 19.6043 39.2826 20.1764 38.7105L27.4975 31.3894L32.394 32.4386C34.0272 32.7886 35.5051 33.6967 36.5552 34.9957C37.6053 36.2946 38.1836 37.9298 38.1836 39.6002ZM43.0664 35.3517V39.258H45.9961V35.3517H43.0664ZM28.418 20.0197V12.6955H24.9998C23.7112 12.6954 22.4403 12.3954 21.2877 11.8191C20.1351 11.2428 19.1325 10.4061 18.3594 9.37514C17.7061 8.50395 16.3644 8.62494 15.8773 9.59887C15.4121 10.5293 14.6969 11.3119 13.812 11.8588C12.9271 12.4058 11.9074 12.6954 10.8671 12.6955C10.3127 12.6955 9.86328 13.1449 9.86328 13.6993V20.0197C9.86328 25.1434 14.0169 29.297 19.1406 29.297C24.2644 29.297 28.418 25.1434 28.418 20.0197Z" fill="url(#paint0_linear_3273_78)"/>
<path d="M8.88672 50H5.95703V43.6523C5.95703 42.8434 6.61289 42.1875 7.42188 42.1875C8.23086 42.1875 8.88672 42.8434 8.88672 43.6523V50ZM31.8513 5.85928C30.8278 5.86582 29.9057 5.21699 29.5663 4.25098C28.5803 1.68975 26.119 0 23.3745 0H19.3712C17.7892 0 16.3397 0.729883 15.4057 1.95312H14.2578C11.8308 1.95312 9.86328 3.92061 9.86328 6.34766V13.6991C9.86328 13.1447 10.3127 12.6953 10.8671 12.6953C11.9074 12.6953 12.9271 12.4056 13.812 11.8587C14.697 11.3118 15.4121 10.5293 15.8773 9.59883C16.3644 8.6249 17.7061 8.50381 18.3594 9.375C19.1325 10.4059 20.1351 11.2427 21.2877 11.819C22.4403 12.3953 23.7112 12.6953 24.9998 12.6953H28.418C31.1146 12.6953 33.3008 10.5092 33.3008 7.8125V7.30225C33.3008 6.50508 32.6484 5.8542 31.8513 5.85928ZM48.4375 27.5391H40.625C39.816 27.5391 39.1602 28.1949 39.1602 29.0039V33.8867C39.1602 34.6957 39.816 35.3516 40.625 35.3516H48.4375C49.2465 35.3516 49.9023 34.6957 49.9023 33.8867V29.0039C49.9023 28.1949 49.2465 27.5391 48.4375 27.5391ZM49.9023 48.5352V40.7227C49.9023 39.9137 49.2465 39.2578 48.4375 39.2578H29.8828C29.0738 39.2578 28.418 39.9137 28.418 40.7227V50H48.4375C49.2465 50 49.9023 49.3441 49.9023 48.5352ZM23.5352 28.1917C22.2271 28.8966 20.7307 29.2969 19.1406 29.2969C17.5506 29.2969 16.0541 28.8966 14.7461 28.1917V30.5401L10.7838 31.3892L18.1049 38.7103C18.677 39.2823 19.6044 39.2823 20.1765 38.7103L27.4976 31.3892L23.5352 30.5401V28.1917Z" fill="url(#paint1_linear_3273_78)"/>
</g>
<defs>
<linearGradient id="paint0_linear_3273_78" x1="23.0469" y1="50.0001" x2="23.0469" y2="8.78911" gradientUnits="userSpaceOnUse">
<stop stop-color="#FFEDAD"/>
<stop offset="1" stop-color="#FFFFE5"/>
</linearGradient>
<linearGradient id="paint1_linear_3273_78" x1="27.9296" y1="49.9998" x2="27.9296" y2="4.17231e-05" gradientUnits="userSpaceOnUse">
<stop stop-color="#FD5900"/>
<stop offset="1" stop-color="#FFDE00"/>
</linearGradient>
<clipPath id="clip0_3273_78">
<rect width="50" height="50" fill="white"/>
</clipPath>
</defs>
</svg>
