<svg width="50" height="50" viewBox="0 0 50 50" fill="none" xmlns="http://www.w3.org/2000/svg">
<path fill-rule="evenodd" clip-rule="evenodd" d="M13.9605 20.1562C13.311 20.1562 12.7844 20.6828 12.7844 21.3323V23.0651C12.7844 23.7147 13.3109 24.2412 13.9605 24.2412C14.61 24.2412 15.1366 23.7147 15.1366 23.0651V21.3323C15.1366 20.6828 14.61 20.1562 13.9605 20.1562ZM9.85474 21.3323C9.85474 19.0647 11.693 17.2266 13.9605 17.2266C16.2281 17.2266 18.0663 19.0649 18.0663 21.3323V23.0651C18.0663 25.3328 16.228 27.1709 13.9605 27.1709C11.6929 27.1709 9.85474 25.3326 9.85474 23.0651V21.3323ZM29.7513 20.1562C29.1018 20.1562 28.5752 20.6828 28.5752 21.3323V23.0651C28.5752 23.7147 29.1018 24.2412 29.7513 24.2412C30.4008 24.2412 30.9274 23.7147 30.9274 23.0651V21.3323C30.9274 20.6828 30.4009 20.1562 29.7513 20.1562ZM25.6456 21.3323C25.6456 19.0647 27.4839 17.2266 29.7513 17.2266C32.019 17.2266 33.8571 19.0649 33.8571 21.3323V23.0651C33.8571 25.3328 32.0188 27.1709 29.7513 27.1709C27.4837 27.1709 25.6456 25.3326 25.6456 23.0651V21.3323ZM20.3921 26.2785V18.0566H23.3218V26.2785H20.3921ZM36.183 26.2785V18.0566H39.1126V26.2785H36.183ZM20.2488 32.345C19.5993 32.345 19.0727 32.8715 19.0727 33.5211V35.2539C19.0727 35.9034 19.5992 36.43 20.2488 36.43C20.8984 36.43 21.4249 35.9034 21.4249 35.254V33.5211C21.4249 32.8716 20.8983 32.345 20.2488 32.345ZM16.143 33.5211C16.143 31.2535 17.9813 29.4153 20.2488 29.4153C22.5164 29.4153 24.3545 31.2536 24.3545 33.5211V35.2538C24.3545 35.2538 24.3545 35.2539 24.3545 35.2539C24.3546 37.5215 22.5163 39.3597 20.2488 39.3597C17.9811 39.3597 16.143 37.5214 16.143 35.2539V33.5211ZM36.0396 32.345C35.3901 32.345 34.8635 32.8715 34.8635 33.5211V35.2539C34.8635 35.9034 35.3901 36.43 36.0396 36.43C36.6892 36.43 37.2157 35.9034 37.2157 35.254V33.5211C37.2157 32.8716 36.6891 32.345 36.0396 32.345ZM31.9338 33.5211C31.9338 31.2535 33.7721 29.4153 36.0396 29.4153C38.3072 29.4153 40.1454 31.2536 40.1454 33.5211V35.2538C40.1454 35.2538 40.1454 35.2539 40.1454 35.2539C40.1455 37.5215 38.3071 39.3597 36.0396 39.3597C33.772 39.3597 31.9338 37.5214 31.9338 35.2539V33.5211ZM10.8611 38.4673V30.2453H13.7908V38.4673H10.8611ZM26.6519 38.4673V30.2453H29.5816V38.4673H26.6519Z" fill="#15D4EC"/>
<path fill-rule="evenodd" clip-rule="evenodd" d="M0 4.48633H50V45.5133H0V4.48633ZM2.92969 7.41602V10.9594H16.3535L14.366 7.41602H2.92969ZM17.7251 7.41602L19.7127 10.9594H35.5268V7.41602H17.7251ZM38.4564 7.41602V10.9594H41.2231V7.41602H38.4564ZM44.1528 7.41602V10.9594H47.0703V7.41602H44.1528ZM47.0703 13.8891H2.92969V42.5836H47.0703V13.8891Z" fill="#15D4EC"/>
</svg>
