<svg width="50" height="50" viewBox="0 0 50 50" fill="none" xmlns="http://www.w3.org/2000/svg">
<g clip-path="url(#clip0_345_135)">
<path fill-rule="evenodd" clip-rule="evenodd" d="M39.2295 2.92969H4.56677V0H39.2295C41.6565 0 43.624 1.96745 43.624 4.39453V10.293H40.6943V4.39453C40.6943 3.58548 40.0385 2.92969 39.2295 2.92969ZM8.9613 47.0703V11.5919H6.03162V50H43.6239V16.1523H40.6942V47.0703H8.9613ZM11.9371 23.3203H14.8668V26.25H11.9371V23.3203ZM17.7965 23.3203H37.7183V26.25H17.7965V23.3203ZM11.9398 29.1797H14.8695V32.1094H11.9398V29.1797ZM17.7992 29.1797H37.7211V32.1094H17.7992V29.1797ZM11.9398 35.0391H14.8695V37.9687H11.9398V35.0391ZM17.7992 35.0391H37.7211V37.9687H17.7992V35.0391ZM11.9398 40.8984H14.8695V43.8281H11.9398V40.8984ZM17.7992 40.8984H37.7211V43.8281H17.7992V40.8984Z" fill="#15D4EC"/>
<path fill-rule="evenodd" clip-rule="evenodd" d="M24.8278 8.82812C22.4007 8.82812 20.4332 10.7956 20.4332 13.2227C20.4332 15.6497 22.4007 17.6172 24.8278 17.6172C27.2548 17.6172 29.2223 15.6497 29.2223 13.2227C29.2223 10.7956 27.2548 8.82812 24.8278 8.82812ZM17.5035 13.2227C17.5035 9.1776 20.7827 5.89844 24.8278 5.89844C28.8728 5.89844 32.152 9.1776 32.152 13.2227C32.152 17.2677 28.8728 20.5469 24.8278 20.5469C20.7827 20.5469 17.5035 17.2677 17.5035 13.2227Z" fill="#15D4EC"/>
<path fill-rule="evenodd" clip-rule="evenodd" d="M4.56677 2.92969C3.75772 2.92969 3.10193 3.58548 3.10193 4.39453V10.1271H6.03162V4.39453C6.03162 3.58548 5.37583 2.92969 4.56677 2.92969ZM0.172241 4.39453C0.172241 1.96745 2.1397 0 4.56677 0C6.99385 0 8.9613 1.96745 8.9613 4.39453V13.0567H0.172241V4.39453ZM34.9254 8.82813H45.4332C47.8603 8.82813 49.8277 10.7956 49.8277 13.2227C49.8277 15.6497 47.8603 17.6172 45.4332 17.6172H34.9254V14.6875H30.6871V11.7578H34.9254V8.82813ZM37.8551 14.6875H45.4332C46.2422 14.6875 46.898 14.0317 46.898 13.2227C46.898 12.4136 46.2422 11.7578 45.4332 11.7578H37.8551V14.6875Z" fill="#15D4EC"/>
</g>
<defs>
<clipPath id="clip0_345_135">
<rect width="50" height="50" fill="white"/>
</clipPath>
</defs>
</svg>
