<svg width="50" height="50" viewBox="0 0 50 50" fill="none" xmlns="http://www.w3.org/2000/svg">
<g clip-path="url(#clip0_3534_3817)">
<path d="M45.6055 17.5781H4.39453C1.97129 17.5781 0 19.5494 0 21.9727V45.6055C0 48.0287 1.97129 50 4.39453 50H45.6055C48.0287 50 50 48.0287 50 45.6055V21.9727C50 19.5494 48.0287 17.5781 45.6055 17.5781Z" fill="url(#paint0_linear_3534_3817)"/>
<path d="M10.3516 20.5078H12.6075C12.7833 20.9472 12.9591 21.3573 13.1349 21.7676L11.5527 23.3789C10.967 23.9063 10.9669 24.9022 11.5527 25.4297L15.6837 29.5604C16.2403 30.1464 17.1778 30.1464 17.7345 29.5604L19.3458 27.9784C19.756 28.1542 20.166 28.33 20.6056 28.5058V30.7617C20.6056 31.5819 21.25 32.2266 22.0704 32.2266H27.9298C28.7502 32.2266 29.3946 31.5819 29.3946 30.7617V28.5058C29.8342 28.33 30.2441 28.1542 30.6544 27.9784L32.2657 29.5604C32.8224 30.1464 33.7599 30.1464 34.3165 29.5604L38.4475 25.4297C39.0332 24.9022 39.0333 23.9063 38.4475 23.3789L36.8652 21.7676C37.041 21.3573 37.2168 20.9472 37.3926 20.5078H39.6484C40.4688 20.5078 41.1133 19.8632 41.1133 19.043V13.1836C41.1133 12.3632 40.4688 11.7188 39.6484 11.7188H37.3925C37.2167 11.2792 37.0409 10.869 36.8651 10.459L38.4473 8.84756C39.033 8.32041 39.0331 7.32412 38.4473 6.79687L34.3164 2.66592C33.7598 2.07998 32.8223 2.07998 32.2656 2.66592L30.6543 4.24805C30.2441 4.07227 29.8341 3.89629 29.3945 3.72051V1.46484C29.3945 0.644434 28.7501 0 27.9297 0H22.0703C21.2499 0 20.6055 0.644434 20.6055 1.46484V3.72061C20.1659 3.89639 19.756 4.07236 19.3457 4.24814L17.7344 2.66602C17.1777 2.08008 16.2402 2.08008 15.6836 2.66602L11.5526 6.79687C10.9669 7.32402 10.9668 8.32041 11.5526 8.84756L13.1348 10.459C12.959 10.869 12.7832 11.2792 12.6074 11.7188H10.3516C9.53115 11.7188 8.88672 12.3632 8.88672 13.1836V19.043C8.88672 19.8632 9.53115 20.5078 10.3516 20.5078ZM25 8.78906C29.043 8.78906 32.3242 12.0703 32.3242 16.1133C32.3242 20.1563 29.043 23.4375 25 23.4375C20.957 23.4375 17.6758 20.1563 17.6758 16.1133C17.6758 12.0703 20.957 8.78906 25 8.78906ZM42.5781 38.1836H20.3356C19.7289 36.4822 18.1182 35.2539 16.2109 35.2539C14.3037 35.2539 12.693 36.4822 12.0862 38.1836H7.42188C6.61221 38.1836 5.95703 38.8388 5.95703 39.6484C5.95703 40.4581 6.61221 41.1133 7.42188 41.1133H12.0862C12.693 42.8146 14.3037 44.043 16.2109 44.043C18.1182 44.043 19.7289 42.8146 20.3356 41.1133H42.5781C43.3878 41.1133 44.043 40.4581 44.043 39.6484C44.043 38.8388 43.3878 38.1836 42.5781 38.1836Z" fill="url(#paint1_linear_3534_3817)"/>
</g>
<defs>
<linearGradient id="paint0_linear_3534_3817" x1="25" y1="50" x2="25" y2="17.5781" gradientUnits="userSpaceOnUse">
<stop stop-color="#A93AFF"/>
<stop offset="1" stop-color="#FF81FF"/>
</linearGradient>
<linearGradient id="paint1_linear_3534_3817" x1="25" y1="44.043" x2="25" y2="0" gradientUnits="userSpaceOnUse">
<stop stop-color="#FFBEF9"/>
<stop offset="1" stop-color="#FFF1FF"/>
</linearGradient>
<clipPath id="clip0_3534_3817">
<rect width="50" height="50" fill="white"/>
</clipPath>
</defs>
</svg>
