<svg width="65" height="65" viewBox="0 0 65 65" fill="none" xmlns="http://www.w3.org/2000/svg">
<g clip-path="url(#clip0_3331_26)">
<path d="M32.5 65C50.4493 65 65 50.4493 65 32.5C65 14.5507 50.4493 0 32.5 0C14.5507 0 0 14.5507 0 32.5C0 50.4493 14.5507 65 32.5 65Z" fill="url(#paint0_linear_3331_26)"/>
<path d="M41.5208 20.0958H40.1854C40.3117 20.4502 40.3931 20.8262 40.3931 21.2234V37.0104C40.3931 37.5334 40.2698 38.0565 40.0362 38.5234L38.1378 42.3193V42.6486H41.5207C43.3861 42.6486 44.9036 41.1312 44.9036 39.2657V23.4787C44.9037 21.6133 43.3863 20.0958 41.5208 20.0958ZM35.8826 16.7129C35.8826 16.0907 36.388 15.5853 37.0102 15.5853H37.0356C37.1837 15.5854 37.3303 15.5562 37.4672 15.4996C37.604 15.443 37.7284 15.3599 37.8331 15.2552C37.9378 15.1505 38.0209 15.0261 38.0775 14.8893C38.1341 14.7524 38.1632 14.6058 38.1632 14.4577C38.1632 14.3096 38.1341 14.1629 38.0775 14.0261C38.0209 13.8892 37.9378 13.7649 37.8331 13.6602C37.7284 13.5554 37.604 13.4724 37.4672 13.4157C37.3303 13.3591 37.1837 13.33 37.0356 13.3301H25.7284C23.8662 13.3301 22.3509 14.8475 22.3509 16.713V17.8087H35.8826V16.7129ZM25.7338 31.3723H32.4997V26.8618H25.7338V31.3723ZM38.1379 21.2234C38.138 21.0753 38.1089 20.9286 38.0522 20.7918C37.9956 20.6549 37.9125 20.5306 37.8078 20.4259C37.7031 20.3211 37.5788 20.2381 37.4419 20.1815C37.3051 20.1248 37.1584 20.0957 37.0103 20.0958H21.2233C21.0752 20.0957 20.9285 20.1248 20.7917 20.1815C20.6548 20.2381 20.5305 20.3211 20.4258 20.4259C20.3211 20.5306 20.238 20.6549 20.1814 20.7918C20.1247 20.9286 20.0956 21.0753 20.0957 21.2234V37.0104C20.0957 37.1855 20.1364 37.3582 20.2147 37.5148L22.351 41.7875V50.5422C22.3509 50.6903 22.3801 50.837 22.4367 50.9738C22.4933 51.1107 22.5764 51.235 22.6811 51.3397C22.7858 51.4444 22.9102 51.5275 23.047 51.5841C23.1839 51.6408 23.3305 51.6699 23.4786 51.6698H34.755C34.9031 51.6699 35.0497 51.6408 35.1866 51.5841C35.3234 51.5275 35.4478 51.4444 35.5525 51.3397C35.6572 51.235 35.7403 51.1107 35.7969 50.9738C35.8536 50.837 35.8827 50.6903 35.8826 50.5422V41.7875L38.0189 37.5148C38.0972 37.3582 38.1379 37.1855 38.1379 37.0104V21.2234ZM26.8614 47.1595C26.5624 47.1595 26.2756 47.0407 26.0641 46.8293C25.8526 46.6178 25.7338 46.331 25.7338 46.0319C25.7338 45.7329 25.8526 45.4461 26.0641 45.2346C26.2756 45.0231 26.5624 44.9043 26.8614 44.9043C27.1605 44.9043 27.4473 45.0231 27.6587 45.2346C27.8702 45.4461 27.989 45.7329 27.989 46.0319C27.9891 46.6546 27.4841 47.1595 26.8614 47.1595ZM26.8614 42.6489C26.5624 42.6489 26.2756 42.5301 26.0641 42.3186C25.8526 42.1072 25.7338 41.8203 25.7338 41.5213C25.7338 41.2222 25.8526 40.9354 26.0641 40.724C26.2756 40.5125 26.5624 40.3937 26.8614 40.3937C27.1605 40.3937 27.4473 40.5125 27.6587 40.724C27.8702 40.9354 27.989 41.2222 27.989 41.5213C27.9891 42.144 27.4841 42.6489 26.8614 42.6489ZM26.8614 38.1384C26.5624 38.1384 26.2756 38.0196 26.0641 37.8081C25.8526 37.5966 25.7338 37.3098 25.7338 37.0108C25.7338 36.7117 25.8526 36.4249 26.0641 36.2134C26.2756 36.002 26.5624 35.8832 26.8614 35.8832C27.1605 35.8832 27.4473 36.002 27.6587 36.2134C27.8702 36.4249 27.989 36.7117 27.989 37.0108C27.9891 37.6335 27.4841 38.1384 26.8614 38.1384ZM31.3721 47.1595C31.223 47.1611 31.075 47.1331 30.9368 47.0771C30.7986 47.0212 30.6729 46.9383 30.5669 46.8335C30.461 46.7286 30.3768 46.6037 30.3194 46.4661C30.262 46.3285 30.2324 46.1809 30.2324 46.0318C30.2324 45.8827 30.262 45.7351 30.3195 45.5975C30.3769 45.4599 30.461 45.335 30.567 45.2302C30.673 45.1253 30.7988 45.0425 30.937 44.9866C31.0752 44.9306 31.2231 44.9026 31.3722 44.9042C31.6692 44.9074 31.9529 45.0276 32.1618 45.2387C32.3707 45.4499 32.4879 45.7349 32.4879 46.0319C32.4879 46.329 32.3707 46.614 32.1618 46.8251C31.9528 47.0362 31.6691 47.1564 31.3721 47.1595ZM31.3721 42.6489C31.223 42.6505 31.075 42.6225 30.9368 42.5665C30.7986 42.5105 30.6729 42.4277 30.5669 42.3228C30.461 42.2179 30.3768 42.0931 30.3194 41.9555C30.262 41.8179 30.2324 41.6703 30.2324 41.5212C30.2324 41.3721 30.262 41.2244 30.3195 41.0868C30.3769 40.9492 30.461 40.8244 30.567 40.7195C30.673 40.6147 30.7988 40.5319 30.937 40.4759C31.0752 40.42 31.2231 40.392 31.3722 40.3936C31.6692 40.3967 31.9529 40.5169 32.1618 40.7281C32.3707 40.9392 32.4879 41.2243 32.4879 41.5213C32.4879 41.8183 32.3707 42.1033 32.1618 42.3144C31.9528 42.5256 31.6691 42.6458 31.3721 42.6489ZM31.3721 38.1384C31.223 38.1399 31.075 38.1119 30.9368 38.056C30.7986 38 30.6729 37.9172 30.5669 37.8123C30.461 37.7074 30.3768 37.5826 30.3194 37.445C30.262 37.3074 30.2324 37.1597 30.2324 37.0106C30.2324 36.8615 30.262 36.7139 30.3195 36.5763C30.3769 36.4387 30.461 36.3139 30.567 36.209C30.673 36.1042 30.7988 36.0214 30.937 35.9654C31.0752 35.9094 31.2231 35.8815 31.3722 35.883C31.6692 35.8862 31.9529 36.0064 32.1618 36.2176C32.3707 36.4287 32.4879 36.7138 32.4879 37.0108C32.4879 37.3078 32.3707 37.5928 32.1618 37.8039C31.9528 38.0151 31.6691 38.1352 31.3721 38.1384ZM34.755 32.4999C34.7551 32.648 34.726 32.7946 34.6693 32.9315C34.6127 33.0683 34.5296 33.1927 34.4249 33.2974C34.3202 33.4021 34.1958 33.4852 34.059 33.5418C33.9222 33.5984 33.7755 33.6276 33.6274 33.6275H24.6062C24.4581 33.6276 24.3115 33.5984 24.1746 33.5418C24.0378 33.4852 23.9134 33.4021 23.8087 33.2974C23.704 33.1927 23.6209 33.0683 23.5643 32.9315C23.5076 32.7946 23.4785 32.648 23.4786 32.4999V25.734C23.4785 25.5859 23.5076 25.4393 23.5643 25.3024C23.6209 25.1656 23.704 25.0412 23.8087 24.9365C23.9134 24.8318 24.0378 24.7487 24.1746 24.6921C24.3115 24.6355 24.4581 24.6064 24.6062 24.6064H33.6274C33.7755 24.6064 33.9222 24.6355 34.059 24.6921C34.1958 24.7487 34.3202 24.8318 34.4249 24.9365C34.5296 25.0412 34.6127 25.1656 34.6693 25.3024C34.726 25.4393 34.7551 25.5859 34.755 25.734V32.4999Z" fill="url(#paint1_linear_3331_26)"/>
</g>
<defs>
<linearGradient id="paint0_linear_3331_26" x1="32.5" y1="65" x2="32.5" y2="0" gradientUnits="userSpaceOnUse">
<stop stop-color="#ADDCFF"/>
<stop offset="0.503" stop-color="#EAF6FF"/>
<stop offset="1" stop-color="#EAF6FF"/>
</linearGradient>
<linearGradient id="paint1_linear_3331_26" x1="32.4999" y1="51.6699" x2="32.4999" y2="13.3301" gradientUnits="userSpaceOnUse">
<stop stop-color="#00C0FF"/>
<stop offset="1" stop-color="#0176D3"/>
</linearGradient>
<clipPath id="clip0_3331_26">
<rect width="65" height="65" fill="white"/>
</clipPath>
</defs>
</svg>
