<svg width="65" height="65" viewBox="0 0 65 65" fill="none" xmlns="http://www.w3.org/2000/svg">
<g clip-path="url(#clip0_3331_42)">
<path d="M32.5 65C50.4493 65 65 50.4493 65 32.5C65 14.5507 50.4493 0 32.5 0C14.5507 0 0 14.5507 0 32.5C0 50.4493 14.5507 65 32.5 65Z" fill="url(#paint0_linear_3331_42)"/>
<path d="M35.8827 25.7342C35.8827 26.3552 35.3761 26.8618 34.7551 26.8618H33.6275V24.6064H34.7551C35.3761 24.6066 35.8827 25.1131 35.8827 25.7342ZM25.7339 24.6066C25.1129 24.6066 24.6063 25.1131 24.6063 25.7342V26.8618H26.8616V25.7342C26.8615 25.1131 26.355 24.6066 25.7339 24.6066ZM40.3932 38.1382V40.3936H46.0314C46.1795 40.3935 46.3262 40.4226 46.463 40.4792C46.5999 40.5359 46.7242 40.6189 46.8289 40.7236C46.9337 40.8284 47.0167 40.9527 47.0734 41.0896C47.13 41.2264 47.1591 41.3731 47.159 41.5212V45.1118C48.4688 45.5788 49.4143 46.8188 49.4143 48.287C49.4143 50.1525 47.8969 51.6699 46.0314 51.6699C44.166 51.6699 42.6485 50.1525 42.6485 48.287C42.6485 46.8188 43.5941 45.5788 44.9038 45.1118V42.6488H39.2656C39.1175 42.6488 38.9708 42.6197 38.834 42.5631C38.6971 42.5065 38.5728 42.4234 38.4681 42.3187C38.3633 42.214 38.2803 42.0896 38.2237 41.9528C38.167 41.8159 38.1379 41.6693 38.138 41.5212V38.1382H33.6275V45.1118C34.9372 45.5788 35.8828 46.8188 35.8828 48.287C35.8827 50.1525 34.3652 51.6699 32.4997 51.6699C30.6343 51.6699 29.1168 50.1525 29.1168 48.287C29.1168 46.8188 30.0624 45.5788 31.3721 45.1118V38.1382H26.8616V41.5212C26.8617 41.6693 26.8326 41.8159 26.776 41.9528C26.7193 42.0896 26.6363 42.214 26.5316 42.3187C26.4268 42.4234 26.3025 42.5065 26.1656 42.5631C26.0288 42.6197 25.8821 42.6488 25.734 42.6488H20.0958V45.1118C21.4056 45.5788 22.3511 46.8188 22.3511 48.287C22.3511 50.1525 20.8336 51.6699 18.9682 51.6699C17.1027 51.6699 15.5853 50.1525 15.5853 48.287C15.5853 46.8188 16.5308 45.5788 17.8406 45.1118V41.5212C17.8405 41.3731 17.8696 41.2264 17.9263 41.0896C17.9829 40.9527 18.066 40.8284 18.1707 40.7236C18.2754 40.6189 18.3997 40.5359 18.5366 40.4792C18.6734 40.4226 18.8201 40.3935 18.9682 40.3936H24.6064V38.1382H21.2235C16.8716 38.1382 13.3301 34.5968 13.3301 30.2448C13.3301 27.1922 15.114 24.4348 17.8472 23.1397C18.0256 17.6998 22.5075 13.3301 27.9894 13.3301C30.8459 13.3301 33.502 14.5128 35.4226 16.6095C36.6031 15.9378 37.9135 15.5854 39.2658 15.5854C43.5033 15.5854 46.9722 18.9441 47.1527 23.1375C49.8857 24.4325 51.6697 27.1921 51.6697 30.2447C51.6697 34.5966 48.1282 38.1381 43.7762 38.1381L40.3932 38.1382ZM40.3932 32.5C40.3931 32.6481 40.4222 32.7948 40.4788 32.9316C40.5355 33.0685 40.6185 33.1928 40.7233 33.2975C40.828 33.4022 40.9523 33.4853 41.0892 33.5419C41.226 33.5986 41.3727 33.6277 41.5208 33.6276C41.6689 33.6277 41.8155 33.5986 41.9524 33.5419C42.0892 33.4853 42.2136 33.4022 42.3183 33.2975C42.423 33.1928 42.5061 33.0685 42.5627 32.9316C42.6194 32.7948 42.6485 32.6481 42.6484 32.5V23.4788C42.6485 23.3307 42.6194 23.1841 42.5627 23.0472C42.5061 22.9104 42.423 22.786 42.3183 22.6813C42.2136 22.5766 42.0892 22.4935 41.9524 22.4369C41.8155 22.3803 41.6689 22.3512 41.5208 22.3512C41.3727 22.3512 41.226 22.3803 41.0892 22.4369C40.9523 22.4935 40.828 22.5766 40.7233 22.6813C40.6185 22.786 40.5355 22.9104 40.4788 23.0472C40.4222 23.1841 40.3931 23.3307 40.3932 23.4788V32.5ZM29.1168 25.7342C29.1168 23.8687 27.5994 22.3512 25.7339 22.3512C23.8685 22.3512 22.351 23.8687 22.351 25.7342V32.5C22.351 33.1233 22.8554 33.6276 23.4786 33.6276C24.1018 33.6276 24.6062 33.1232 24.6062 32.5V29.1171H26.8615V32.5C26.8614 32.6481 26.8905 32.7948 26.9472 32.9316C27.0038 33.0685 27.0869 33.1928 27.1916 33.2975C27.2963 33.4022 27.4206 33.4853 27.5575 33.5419C27.6943 33.5986 27.841 33.6277 27.9891 33.6276C28.1372 33.6277 28.2839 33.5986 28.4207 33.5419C28.5576 33.4853 28.6819 33.4022 28.7866 33.2975C28.8913 33.1928 28.9744 33.0685 29.031 32.9316C29.0877 32.7948 29.1168 32.6481 29.1167 32.5L29.1168 25.7342ZM38.138 25.7342C38.138 23.8687 36.6205 22.3512 34.7551 22.3512H32.4997C32.3516 22.3512 32.205 22.3803 32.0681 22.4369C31.9313 22.4935 31.807 22.5766 31.7022 22.6813C31.5975 22.786 31.5145 22.9104 31.4578 23.0472C31.4012 23.1841 31.3721 23.3307 31.3721 23.4788V32.5C31.3721 33.1233 31.8765 33.6276 32.4997 33.6276C33.123 33.6276 33.6273 33.1232 33.6273 32.5V29.1171H34.7549C36.6205 29.1171 38.138 27.5996 38.138 25.7342Z" fill="url(#paint1_linear_3331_42)"/>
</g>
<defs>
<linearGradient id="paint0_linear_3331_42" x1="32.5" y1="65" x2="32.5" y2="0" gradientUnits="userSpaceOnUse">
<stop stop-color="#ADDCFF"/>
<stop offset="0.503" stop-color="#EAF6FF"/>
<stop offset="1" stop-color="#EAF6FF"/>
</linearGradient>
<linearGradient id="paint1_linear_3331_42" x1="32.5002" y1="51.67" x2="32.5002" y2="13.3301" gradientUnits="userSpaceOnUse">
<stop stop-color="#00C0FF"/>
<stop offset="1" stop-color="#0176D3"/>
</linearGradient>
<clipPath id="clip0_3331_42">
<rect width="65" height="65" fill="white"/>
</clipPath>
</defs>
</svg>
