<svg width="65" height="65" viewBox="0 0 65 65" fill="none" xmlns="http://www.w3.org/2000/svg">
<g clip-path="url(#clip0_3330_2)">
<path d="M32.5 65C50.4493 65 65 50.4493 65 32.5C65 14.5507 50.4493 0 32.5 0C14.5507 0 0 14.5507 0 32.5C0 50.4493 14.5507 65 32.5 65Z" fill="url(#paint0_linear_3330_2)"/>
<path d="M33.986 45.2917L32.6642 42.6488H30.2442C27.1347 42.6488 24.6045 40.1192 24.6045 37.0105V23.4788C24.6045 20.3701 27.1347 17.8406 30.2442 17.8406H38.1396V16.713C38.1396 14.8475 36.6218 13.3301 34.7558 13.3301H21.2207C19.3548 13.3301 17.8369 14.8475 17.8369 16.713V48.287C17.8369 50.1525 19.3548 51.6699 21.2207 51.6699H34.7558C36.6218 51.6699 38.1396 50.1525 38.1396 48.287V46.9445C37.7814 47.0714 37.4074 47.1594 37.0117 47.1594C35.723 47.1594 34.5643 46.4436 33.986 45.2917ZM30.2442 47.1594H25.7325C25.109 47.1594 24.6045 46.655 24.6045 46.0318C24.6045 45.4086 25.109 44.9042 25.7325 44.9042H30.2442C30.8676 44.9042 31.3721 45.4086 31.3721 46.0318C31.3721 46.655 30.8676 47.1594 30.2442 47.1594ZM37.3388 28.91L37.0117 28.256L36.6845 28.91C36.6035 29.0719 36.4847 29.2119 36.3382 29.3182C36.1918 29.4246 36.0219 29.4942 35.8429 29.5212L35.1193 29.6302L35.6415 30.1434C35.7702 30.2704 35.8666 30.4266 35.9224 30.5987C35.9781 30.7708 35.9917 30.9538 35.962 31.1322L35.8419 31.8536L36.4918 31.5166C36.6524 31.4334 36.8307 31.39 37.0117 31.39C37.1926 31.39 37.3709 31.4334 37.5315 31.5166L38.1814 31.8536L38.0613 31.1322C38.0316 30.9538 38.0452 30.7708 38.101 30.5987C38.1567 30.4266 38.2531 30.2704 38.3819 30.1434L38.9039 29.6302L38.1803 29.5212C38.0013 29.4942 37.8315 29.4245 37.685 29.3182C37.5386 29.2118 37.4199 29.0718 37.3388 28.91ZM43.7793 20.0959H30.2442C28.3782 20.0959 26.8604 21.6134 26.8604 23.4788V37.0105C26.8604 38.876 28.3782 40.3934 30.2442 40.3934H34.0586L36.0028 44.2807C36.0966 44.468 36.2407 44.6254 36.4189 44.7354C36.5971 44.8455 36.8024 44.9037 37.0118 44.9037C37.2212 44.9037 37.4265 44.8455 37.6047 44.7354C37.7829 44.6254 37.927 44.468 38.0208 44.2807L39.965 40.3934H43.7794C45.6454 40.3934 47.1632 38.876 47.1632 37.0105V23.4788C47.1631 21.6134 45.6452 20.0959 43.7793 20.0959ZM42.0951 29.6545L40.3823 31.3393L40.7766 33.7091C40.8112 33.9156 40.7875 34.1277 40.7081 34.3215C40.6287 34.5152 40.4967 34.683 40.3272 34.8058C40.1577 34.9291 39.9573 35.0028 39.7484 35.0185C39.5394 35.0343 39.3302 34.9915 39.1442 34.8951L37.0118 33.7883L34.8792 34.8951C34.497 35.0911 34.041 35.057 33.6963 34.8058C33.5267 34.683 33.3949 34.5152 33.3155 34.3214C33.2361 34.1277 33.2123 33.9156 33.2469 33.7091L33.6412 31.3393L31.9283 29.6545C31.7792 29.5073 31.674 29.3216 31.6244 29.118C31.5749 28.9145 31.5829 28.7011 31.6478 28.5019C31.7126 28.3027 31.8316 28.1254 31.9914 27.99C32.1513 27.8546 32.3456 27.7663 32.5528 27.7351L34.9287 27.3783L36.0026 25.2299C36.386 24.4656 37.6373 24.4656 38.0206 25.2299L39.0945 27.3783L41.4704 27.7351C41.6777 27.7664 41.8722 27.8547 42.0321 27.9903C42.192 28.1259 42.311 28.3033 42.3758 28.5026C42.4405 28.7018 42.4485 28.915 42.3989 29.1184C42.3494 29.3218 42.2442 29.5074 42.0951 29.6545Z" fill="url(#paint1_linear_3330_2)"/>
</g>
<defs>
<linearGradient id="paint0_linear_3330_2" x1="32.5" y1="65" x2="32.5" y2="0" gradientUnits="userSpaceOnUse">
<stop stop-color="#ADDCFF"/>
<stop offset="0.503" stop-color="#EAF6FF"/>
<stop offset="1" stop-color="#EAF6FF"/>
</linearGradient>
<linearGradient id="paint1_linear_3330_2" x1="32.5003" y1="51.67" x2="32.5003" y2="13.3301" gradientUnits="userSpaceOnUse">
<stop stop-color="#00C0FF"/>
<stop offset="1" stop-color="#0176D3"/>
</linearGradient>
<clipPath id="clip0_3330_2">
<rect width="65" height="65" fill="white"/>
</clipPath>
</defs>
</svg>
