<svg width="65" height="65" viewBox="0 0 65 65" fill="none" xmlns="http://www.w3.org/2000/svg">
<g clip-path="url(#clip0_3330_18)">
<path d="M32.5 65C50.4493 65 65 50.4493 65 32.5C65 14.5507 50.4493 0 32.5 0C14.5507 0 0 14.5507 0 32.5C0 50.4493 14.5507 65 32.5 65Z" fill="url(#paint0_linear_3330_18)"/>
<path d="M33.6285 47.1594H31.3715C30.7488 47.1594 30.243 47.6648 30.243 48.287V51.6699H34.757V48.287C34.757 47.6648 34.2511 47.1594 33.6285 47.1594ZM39.2708 13.3301H25.7292C23.8624 13.3301 22.3438 14.8475 22.3438 16.713V48.287C22.3438 50.1525 23.8624 51.6699 25.7292 51.6699H27.9862V48.287C27.9862 46.4216 29.5048 44.9041 31.3716 44.9041H33.6286C35.4955 44.9041 37.0141 46.4216 37.0141 48.287V51.6699H39.271C41.1376 51.6699 42.6562 50.1525 42.6562 48.287V16.713C42.6562 14.8475 41.1376 13.3301 39.2708 13.3301ZM32.5 17.8406C33.1232 17.8406 33.6285 18.3454 33.6285 18.9682C33.6285 19.5909 33.1232 20.0958 32.5 20.0958C31.8768 20.0958 31.3715 19.5909 31.3715 18.9682C31.3715 18.3454 31.8768 17.8406 32.5 17.8406ZM33.6285 37.9304V39.2658C33.6285 39.8892 33.1237 40.3934 32.5 40.3934C31.8763 40.3934 31.3715 39.8891 31.3715 39.2658V37.9194C30.753 37.6981 30.1936 37.3205 29.7923 36.7859C29.4187 36.2871 29.519 35.5801 30.0172 35.2069C30.5186 34.8358 31.2239 34.9348 31.5975 35.4316C31.702 35.5724 31.8381 35.6866 31.9949 35.765C32.1517 35.8435 32.3247 35.8839 32.5 35.883C33.1227 35.883 33.6285 35.3776 33.6285 34.7554C33.6285 34.0154 33.4853 33.8965 32.2366 33.597C31.0685 33.3162 29.1145 32.8471 29.1145 30.2449C29.1145 28.7767 30.0607 27.5368 31.3715 27.0697V25.7343C31.3715 25.1109 31.8763 24.6066 32.5 24.6066C33.1237 24.6066 33.6285 25.1109 33.6285 25.7343V27.0808C34.247 27.3022 34.8064 27.6797 35.2077 28.2142C35.5813 28.713 35.481 29.42 34.9828 29.7932C34.4847 30.1665 33.7761 30.0686 33.4025 29.5685C32.8141 28.779 31.3715 29.2636 31.3715 30.2447C31.3715 30.9847 31.5147 31.1036 32.7634 31.4031C33.9315 31.6839 35.8855 32.153 35.8855 34.7552C35.8855 36.2235 34.9392 37.4635 33.6285 37.9304Z" fill="url(#paint1_linear_3330_18)"/>
</g>
<defs>
<linearGradient id="paint0_linear_3330_18" x1="32.5" y1="65" x2="32.5" y2="0" gradientUnits="userSpaceOnUse">
<stop stop-color="#ADDCFF"/>
<stop offset="0.503" stop-color="#EAF6FF"/>
<stop offset="1" stop-color="#EAF6FF"/>
</linearGradient>
<linearGradient id="paint1_linear_3330_18" x1="32.5002" y1="51.67" x2="32.5002" y2="13.3301" gradientUnits="userSpaceOnUse">
<stop stop-color="#00C0FF"/>
<stop offset="1" stop-color="#0176D3"/>
</linearGradient>
<clipPath id="clip0_3330_18">
<rect width="65" height="65" fill="white"/>
</clipPath>
</defs>
</svg>
