<svg width="65" height="65" viewBox="0 0 65 65" fill="none" xmlns="http://www.w3.org/2000/svg">
<g clip-path="url(#clip0_3331_30)">
<path d="M32.5 65C50.4493 65 65 50.4493 65 32.5C65 14.5507 50.4493 0 32.5 0C14.5507 0 0 14.5507 0 32.5C0 50.4493 14.5507 65 32.5 65Z" fill="url(#paint0_linear_3331_30)"/>
<path d="M32.5 22.3198C34.9763 22.3198 36.991 20.3052 36.991 17.8289C36.991 15.3526 34.9763 13.3379 32.5 13.3379C30.0237 13.3379 28.009 15.3526 28.009 17.8289C28.009 20.3052 30.0237 22.3198 32.5 22.3198ZM23.5181 22.3198C23.5181 19.8436 21.5034 17.8289 19.0271 17.8289C16.5508 17.8289 14.5361 19.8436 14.5361 22.3198C14.5361 24.7962 16.5508 26.8108 19.0271 26.8108C21.5034 26.8108 23.5181 24.7962 23.5181 22.3198ZM50.4639 22.3198C50.4639 19.8436 48.4492 17.8289 45.9729 17.8289C43.4966 17.8289 41.4819 19.8436 41.4819 22.3198C41.4819 24.7962 43.4966 26.8108 45.9729 26.8108C48.4492 26.8108 50.4639 24.7962 50.4639 22.3198ZM47.0957 26.8108H44.8501C42.9928 26.8108 41.4819 28.3218 41.4819 30.179V31.3018H44.8501C45.145 31.3062 45.4263 31.4264 45.6332 31.6365C45.8401 31.8466 45.9561 32.1296 45.9561 32.4245C45.9561 32.7194 45.8401 33.0025 45.6332 33.2125C45.4263 33.4226 45.145 33.5429 44.8501 33.5473H20.1499C20.0024 33.5473 19.8564 33.5183 19.7202 33.4618C19.584 33.4054 19.4602 33.3227 19.356 33.2185C19.2517 33.1142 19.169 32.9904 19.1126 32.8542C19.0561 32.718 19.0271 32.572 19.0271 32.4245C19.0271 32.2771 19.0561 32.1311 19.1126 31.9949C19.169 31.8586 19.2517 31.7349 19.356 31.6306C19.4602 31.5263 19.584 31.4436 19.7202 31.3872C19.8564 31.3308 20.0024 31.3018 20.1499 31.3018H23.5181V30.179C23.5181 28.3218 22.0071 26.8108 20.1499 26.8108H17.9043C16.047 26.8108 14.5361 28.3218 14.5361 30.179V39.1609C14.5361 40.6246 15.4748 41.8725 16.7817 42.336V49.4153H15.6589C15.3641 49.4197 15.0828 49.54 14.8758 49.7501C14.6689 49.9601 14.5529 50.2432 14.5529 50.5381C14.5529 50.833 14.6689 51.116 14.8758 51.3261C15.0828 51.5362 15.3641 51.6564 15.6589 51.6609H20.1499C20.4477 51.6609 20.7332 51.5426 20.9438 51.332C21.1544 51.1214 21.2726 50.8359 21.2726 50.5381C21.2726 50.2403 21.1544 49.9547 20.9438 49.7442C20.7332 49.5336 20.4477 49.4153 20.1499 49.4153H19.0271V42.5291H24.6408C25.26 42.5291 25.7636 43.0329 25.7636 43.6519V50.5381C25.7636 51.1581 26.2662 51.6609 26.8864 51.6609C27.5066 51.6609 28.0092 51.1582 28.0092 50.5381V43.6519C28.0092 41.7947 26.4982 40.2837 24.641 40.2837H23.5182V35.7927H31.3774V50.5381C31.3774 51.1581 31.88 51.6609 32.5001 51.6609C33.1203 51.6609 33.6229 51.1582 33.6229 50.5381V35.7927H41.4821V40.2837H40.3593C38.502 40.2837 36.9911 41.7947 36.9911 43.6519V50.5381C36.9911 51.1581 37.4937 51.6609 38.1139 51.6609C38.734 51.6609 39.2366 51.1582 39.2366 50.5381V43.6519C39.2366 43.0329 39.7403 42.5291 40.3594 42.5291H45.9732V49.4153H44.8504C44.5555 49.4197 44.2743 49.54 44.0673 49.7501C43.8604 49.9601 43.7444 50.2432 43.7444 50.5381C43.7444 50.833 43.8604 51.116 44.0673 51.3261C44.2743 51.5362 44.5555 51.6564 44.8504 51.6609H49.3413C49.6391 51.6609 49.9247 51.5426 50.1353 51.332C50.3458 51.1214 50.4641 50.8359 50.4641 50.5381C50.4641 50.2403 50.3458 49.9547 50.1353 49.7442C49.9247 49.5336 49.6391 49.4153 49.3413 49.4153H48.2186V42.336C49.5253 41.8725 50.4641 40.6246 50.4641 39.1609V30.179C50.4639 28.3219 48.9529 26.8108 47.0957 26.8108ZM39.2364 25.6881C39.2364 23.8309 37.7254 22.32 35.8682 22.32H33.6226V27.9337C33.6226 28.5537 33.12 29.0565 32.4999 29.0565C31.8797 29.0565 31.3771 28.5539 31.3771 27.9337V22.32H29.1316C27.2742 22.32 25.7634 23.8309 25.7634 25.6881V31.3019H39.2363V25.6881H39.2364Z" fill="url(#paint1_linear_3331_30)"/>
</g>
<defs>
<linearGradient id="paint0_linear_3331_30" x1="32.5" y1="65" x2="32.5" y2="0" gradientUnits="userSpaceOnUse">
<stop stop-color="#ADDCFF"/>
<stop offset="0.503" stop-color="#EAF6FF"/>
<stop offset="1" stop-color="#EAF6FF"/>
</linearGradient>
<linearGradient id="paint1_linear_3331_30" x1="32.5004" y1="51.661" x2="32.5004" y2="13.3379" gradientUnits="userSpaceOnUse">
<stop stop-color="#00C0FF"/>
<stop offset="1" stop-color="#0176D3"/>
</linearGradient>
<clipPath id="clip0_3331_30">
<rect width="65" height="65" fill="white"/>
</clipPath>
</defs>
</svg>
