<svg width="65" height="65" viewBox="0 0 65 65" fill="none" xmlns="http://www.w3.org/2000/svg">
<g clip-path="url(#clip0_3330_6)">
<path d="M32.5 65C50.4493 65 65 50.4493 65 32.5C65 14.5507 50.4493 0 32.5 0C14.5507 0 0 14.5507 0 32.5C0 50.4493 14.5507 65 32.5 65Z" fill="url(#paint0_linear_3330_6)"/>
<path d="M19.7394 36.3633H17.493V33.7424C17.493 33.4444 17.6113 33.1587 17.822 32.9481C18.0327 32.7374 18.3184 32.6191 18.6163 32.6191H31.0468V30.2228H24.6817C21.585 30.2228 19.0656 27.7035 19.0656 24.6067C19.0656 21.8919 21.0016 19.6209 23.5655 19.1019C23.7028 16.5398 25.8303 14.4975 28.4259 14.4975C29.2657 14.4975 30.0725 14.709 30.7865 15.1073C31.8386 13.7971 33.4462 13 35.1653 13C38.262 13 40.7814 15.5194 40.7814 18.6162C40.7814 18.7774 40.7743 18.9385 40.7601 19.0991C43.331 19.6126 45.2743 21.8871 45.2743 24.6067C45.2743 27.7035 42.7549 30.2228 39.6581 30.2228H33.2931V32.6191H45.7236C46.0215 32.6191 46.3072 32.7374 46.5178 32.9481C46.7285 33.1587 46.8468 33.4444 46.8468 33.7424V36.3633H44.6004V34.8656H33.2932V36.3633H31.0468V34.8656H19.7396V36.3633H19.7394ZM36.6629 38.6099H27.6771C27.3791 38.6099 27.0934 38.7282 26.8828 38.9389C26.6721 39.1495 26.5538 39.4352 26.5538 39.7332V45.7238C26.5538 46.0217 26.6721 46.3074 26.8828 46.5181C27.0934 46.7288 27.3791 46.8471 27.6771 46.8471H31.0468V49.0935H29.9235C29.6256 49.0935 29.3399 49.2119 29.1292 49.4225C28.9186 49.6332 28.8002 49.9189 28.8002 50.2168C28.8002 50.5147 28.9186 50.8004 29.1292 51.0111C29.3399 51.2218 29.6256 51.3401 29.9235 51.3401H34.4165C34.7144 51.3401 35.0001 51.2218 35.2108 51.0111C35.4214 50.8004 35.5398 50.5147 35.5398 50.2168C35.5398 49.9189 35.4214 49.6332 35.2108 49.4225C35.0001 49.2119 34.7144 49.0935 34.4165 49.0935H33.2932V46.8471H36.6629C36.9608 46.8471 37.2465 46.7288 37.4572 46.5181C37.6679 46.3074 37.7862 46.0217 37.7862 45.7238V39.7332C37.7862 39.4353 37.6678 39.1496 37.4572 38.9389C37.2465 38.7283 36.9608 38.6099 36.6629 38.6099ZM50.2166 38.6099H41.2307C40.9328 38.6099 40.6471 38.7282 40.4364 38.9389C40.2258 39.1495 40.1074 39.4352 40.1074 39.7332V45.7238C40.1074 46.0217 40.2258 46.3074 40.4364 46.5181C40.6471 46.7288 40.9328 46.8471 41.2307 46.8471H44.6004V49.0935H43.4771C43.1822 49.098 42.9008 49.2183 42.6938 49.4284C42.4868 49.6386 42.3707 49.9217 42.3707 50.2167C42.3707 50.5117 42.4868 50.7948 42.6938 51.005C42.9008 51.2151 43.1822 51.3354 43.4771 51.3398H47.9701C48.268 51.3398 48.5537 51.2215 48.7644 51.0108C48.9751 50.8002 49.0934 50.5145 49.0934 50.2166C49.0934 49.9187 48.9751 49.6329 48.7644 49.4223C48.5537 49.2116 48.268 49.0933 47.9701 49.0933H46.8468V46.8468H50.2166C50.5145 46.8468 50.8002 46.7285 51.0108 46.5178C51.2215 46.3072 51.3398 46.0215 51.3398 45.7236V39.7329C51.3398 39.5854 51.3108 39.4394 51.2543 39.3031C51.1978 39.1668 51.1151 39.043 51.0108 38.9387C50.9065 38.8345 50.7827 38.7517 50.6464 38.6953C50.5101 38.6389 50.3641 38.6099 50.2166 38.6099ZM23.1092 38.6099H14.1233C13.8254 38.6099 13.5397 38.7282 13.329 38.9389C13.1183 39.1495 13 39.4352 13 39.7332V45.7238C13 46.0217 13.1183 46.3074 13.329 46.5181C13.5397 46.7288 13.8254 46.8471 14.1233 46.8471H17.493V49.0935H16.3697C16.0718 49.0935 15.7861 49.2119 15.5754 49.4225C15.3648 49.6332 15.2464 49.9189 15.2464 50.2168C15.2464 50.5147 15.3648 50.8004 15.5754 51.0111C15.7861 51.2218 16.0718 51.3401 16.3697 51.3401H20.8627C21.1606 51.3401 21.4463 51.2218 21.657 51.0111C21.8677 50.8004 21.986 50.5147 21.986 50.2168C21.986 49.9189 21.8677 49.6332 21.657 49.4225C21.4463 49.2119 21.1606 49.0935 20.8627 49.0935H19.7394V46.8471H23.1092C23.4071 46.8471 23.6928 46.7288 23.9034 46.5181C24.1141 46.3074 24.2324 46.0217 24.2324 45.7238V39.7332C24.2324 39.4352 24.1141 39.1495 23.9034 38.9389C23.6928 38.7282 23.4071 38.6099 23.1092 38.6099Z" fill="url(#paint1_linear_3330_6)"/>
</g>
<defs>
<linearGradient id="paint0_linear_3330_6" x1="32.5" y1="65" x2="32.5" y2="0" gradientUnits="userSpaceOnUse">
<stop stop-color="#ADDCFF"/>
<stop offset="0.503" stop-color="#EAF6FF"/>
<stop offset="1" stop-color="#EAF6FF"/>
</linearGradient>
<linearGradient id="paint1_linear_3330_6" x1="32.1702" y1="51.3402" x2="32.1702" y2="13" gradientUnits="userSpaceOnUse">
<stop stop-color="#00C0FF"/>
<stop offset="1" stop-color="#0176D3"/>
</linearGradient>
<clipPath id="clip0_3330_6">
<rect width="65" height="65" fill="white"/>
</clipPath>
</defs>
</svg>
