<svg width="65" height="65" viewBox="0 0 65 65" fill="none" xmlns="http://www.w3.org/2000/svg">
<g clip-path="url(#clip0_2407_117)">
<path d="M32.5 65C50.4493 65 65 50.4493 65 32.5C65 14.5507 50.4493 0 32.5 0C14.5507 0 0 14.5507 0 32.5C0 50.4493 14.5507 65 32.5 65Z" fill="url(#paint0_linear_2407_117)"/>
<path d="M41.521 13.3301H30.2446C29.993 13.3301 29.7486 13.4142 29.5503 13.569C29.352 13.7239 29.2111 13.9405 29.15 14.1846L24.6395 32.2268C24.5979 32.3931 24.5947 32.5667 24.6303 32.7344C24.6658 32.902 24.7392 33.0594 24.8447 33.1945C24.9503 33.3295 25.0852 33.4388 25.2393 33.5138C25.3935 33.5889 25.5627 33.6278 25.7341 33.6276H28.7999L24.6395 50.269C24.5753 50.5267 24.6042 50.7989 24.721 51.0374C24.8379 51.2759 25.0352 51.4655 25.2782 51.5728C25.768 51.7922 26.3612 51.6327 26.6723 51.1676L40.2039 30.8702C40.3176 30.7005 40.3828 30.5031 40.3925 30.2991C40.4023 30.0952 40.3561 29.8924 40.259 29.7127C40.163 29.5327 40.0199 29.3822 39.8449 29.2773C39.6699 29.1724 39.4698 29.1169 39.2658 29.117H36.4643L42.5584 14.9015C42.6313 14.7298 42.6606 14.5427 42.6437 14.3569C42.6268 14.1711 42.5642 13.9924 42.4615 13.8366C42.359 13.6808 42.2194 13.553 42.0552 13.4646C41.891 13.3762 41.7074 13.3299 41.521 13.3301ZM51.6125 27.6326L49.3571 20.8668C49.2819 20.6424 49.1382 20.4473 48.9461 20.3089C48.7541 20.1706 48.5235 20.0961 48.2868 20.0959H45.34L47.1019 14.8145C47.298 14.2232 46.9787 13.5845 46.3883 13.3885C45.8024 13.1936 45.1594 13.5107 44.9611 14.1009L42.7058 20.8668C42.6492 21.0364 42.6338 21.2171 42.661 21.3939C42.6882 21.5707 42.7572 21.7384 42.8622 21.8832C42.9664 22.0282 43.1037 22.1463 43.2627 22.2276C43.4216 22.309 43.5977 22.3513 43.7763 22.3511H47.4742L49.4718 28.3461C49.6687 28.9327 50.3043 29.2569 50.899 29.0586C51.4891 28.8627 51.8085 28.224 51.6125 27.6326ZM26.0908 13.3885C25.5049 13.1936 24.8619 13.5107 24.6636 14.1009L22.8201 19.6334L19.4725 17.9596C18.9153 17.6842 18.2391 17.9078 17.9595 18.4639L13.4489 27.485C13.1714 28.0422 13.3961 28.7195 13.9533 28.998C14.2209 29.1316 14.5305 29.1535 14.8142 29.0589C15.0979 28.9644 15.3325 28.761 15.4664 28.4936L19.4726 20.4812L22.9745 22.2322C23.2652 22.3787 23.6066 22.3896 23.9105 22.2652C24.0597 22.2032 24.1939 22.11 24.304 21.9919C24.4142 21.8737 24.4978 21.7334 24.5492 21.5803L26.8045 14.8144C27.0004 14.2232 26.6811 13.5845 26.0908 13.3885Z" fill="url(#paint1_linear_2407_117)"/>
</g>
<defs>
<linearGradient id="paint0_linear_2407_117" x1="32.5" y1="65" x2="32.5" y2="0" gradientUnits="userSpaceOnUse">
<stop stop-color="#ADDCFF"/>
<stop offset="0.503" stop-color="#EAF6FF"/>
<stop offset="1" stop-color="#EAF6FF"/>
</linearGradient>
<linearGradient id="paint1_linear_2407_117" x1="32.5004" y1="51.6701" x2="32.5004" y2="13.3301" gradientUnits="userSpaceOnUse">
<stop stop-color="#00C0FF"/>
<stop offset="1" stop-color="#0176D3"/>
</linearGradient>
<clipPath id="clip0_2407_117">
<rect width="65" height="65" fill="white"/>
</clipPath>
</defs>
</svg>
