<svg width="65" height="65" viewBox="0 0 65 65" fill="none" xmlns="http://www.w3.org/2000/svg">
<g clip-path="url(#clip0_3331_46)">
<path d="M32.5 65C50.4493 65 65 50.4493 65 32.5C65 14.5507 50.4493 0 32.5 0C14.5507 0 0 14.5507 0 32.5C0 50.4493 14.5507 65 32.5 65Z" fill="url(#paint0_linear_3331_46)"/>
<path d="M47.1594 29.1171V27.9895C47.1594 19.9065 40.5829 13.3301 32.5 13.3301C24.4171 13.3301 17.8406 19.9065 17.8406 27.9895V29.1171C15.3541 29.1171 13.3301 31.1399 13.3301 33.6276V38.1381C13.3301 40.6258 15.3541 42.6488 17.8406 42.6488V46.0317C17.8406 47.8971 19.3581 49.4146 21.2235 49.4146H29.3248C29.7918 50.7244 31.0318 51.6699 32.5 51.6699H34.7553C36.6208 51.6699 38.1382 50.1525 38.1382 48.287C38.1382 46.4216 36.6208 44.9041 34.7553 44.9041H32.5C31.0318 44.9041 29.7918 45.8496 29.3248 47.1594H21.2235C20.6025 47.1594 20.0959 46.654 20.0959 46.0318V42.6489H21.2235C21.3716 42.649 21.5183 42.6199 21.6552 42.5632C21.792 42.5066 21.9164 42.4235 22.0211 42.3188C22.1258 42.214 22.2089 42.0897 22.2655 41.9528C22.3221 41.816 22.3512 41.6693 22.3511 41.5212V30.2448C22.3512 30.0967 22.3221 29.95 22.2655 29.8132C22.2088 29.6763 22.1258 29.552 22.021 29.4473C21.9163 29.3426 21.792 29.2595 21.6551 29.2029C21.5183 29.1462 21.3716 29.1171 21.2235 29.1172H20.0959V27.9896C20.0959 21.15 25.6614 15.5855 32.5 15.5855C39.3386 15.5855 44.9041 21.15 44.9041 27.9896V29.1172H43.7765C43.6284 29.1171 43.4817 29.1462 43.3449 29.2029C43.208 29.2595 43.0837 29.3426 42.979 29.4473C42.8742 29.552 42.7912 29.6763 42.7345 29.8132C42.6779 29.95 42.6488 30.0967 42.6489 30.2448V41.5212C42.6488 41.6693 42.6779 41.8159 42.7345 41.9528C42.7912 42.0896 42.8742 42.214 42.979 42.3187C43.0837 42.4235 43.208 42.5065 43.3449 42.5632C43.4817 42.6198 43.6284 42.649 43.7765 42.6489H47.1594C49.6459 42.6489 51.6699 40.6259 51.6699 38.1382V33.6277C51.6699 31.14 49.6459 29.1171 47.1594 29.1171ZM30.2447 35.8829C30.3928 35.883 30.5394 35.8539 30.6763 35.7973C30.8131 35.7406 30.9375 35.6576 31.0422 35.5528C31.1469 35.4481 31.23 35.3238 31.2866 35.1869C31.3432 35.0501 31.3724 34.9034 31.3723 34.7553V30.2448C31.3724 30.0967 31.3432 29.95 31.2866 29.8132C31.23 29.6763 31.1469 29.552 31.0422 29.4473C30.9375 29.3426 30.8131 29.2595 30.6763 29.2029C30.5394 29.1462 30.3928 29.1171 30.2447 29.1172H25.7342C25.1108 29.1172 24.6066 29.6216 24.6066 30.2448C24.6066 30.868 25.1109 31.3724 25.7342 31.3724H29.1171V33.6277H25.7342C25.5861 33.6276 25.4394 33.6568 25.3025 33.7134C25.1657 33.77 25.0414 33.8531 24.9366 33.9578C24.8319 34.0625 24.7489 34.1869 24.6922 34.3237C24.6356 34.4606 24.6065 34.6072 24.6066 34.7553V39.2658C24.6065 39.4139 24.6356 39.5606 24.6922 39.6975C24.7489 39.8343 24.8319 39.9586 24.9366 40.0634C25.0414 40.1681 25.1657 40.2511 25.3025 40.3078C25.4394 40.3644 25.5861 40.3935 25.7342 40.3934H30.2447C30.868 40.3934 31.3723 39.8891 31.3723 39.2658C31.3723 38.6426 30.8679 38.1382 30.2447 38.1382H26.8618V35.8829H30.2447ZM39.2658 29.1171C39.1177 29.117 38.9711 29.1461 38.8342 29.2027C38.6974 29.2594 38.573 29.3424 38.4683 29.4472C38.3636 29.5519 38.2805 29.6762 38.2239 29.8131C38.1673 29.9499 38.1382 30.0966 38.1382 30.2447V33.6276H35.8829V30.2447C35.8829 29.6213 35.3785 29.1171 34.7553 29.1171C34.1321 29.1171 33.6277 29.6215 33.6277 30.2447V34.7552C33.6276 34.9033 33.6568 35.05 33.7134 35.1868C33.77 35.3236 33.8531 35.448 33.9578 35.5527C34.0625 35.6574 34.1869 35.7405 34.3237 35.7971C34.4606 35.8538 34.6072 35.8829 34.7553 35.8828H38.1382V39.2657C38.1382 39.4138 38.1673 39.5605 38.2239 39.6973C38.2805 39.8342 38.3636 39.9585 38.4683 40.0632C38.573 40.168 38.6974 40.251 38.8342 40.3076C38.9711 40.3643 39.1177 40.3934 39.2658 40.3933C39.4139 40.3934 39.5606 40.3643 39.6975 40.3076C39.8343 40.251 39.9586 40.168 40.0634 40.0632C40.1681 39.9585 40.2511 39.8342 40.3078 39.6973C40.3644 39.5605 40.3935 39.4138 40.3934 39.2657V30.2445C40.3935 30.0965 40.3644 29.9498 40.3077 29.813C40.2511 29.6761 40.168 29.5518 40.0633 29.4471C39.9586 29.3424 39.8343 29.2594 39.6974 29.2027C39.5606 29.1461 39.4139 29.117 39.2658 29.1171Z" fill="url(#paint1_linear_3331_46)"/>
</g>
<defs>
<linearGradient id="paint0_linear_3331_46" x1="32.5" y1="65" x2="32.5" y2="0" gradientUnits="userSpaceOnUse">
<stop stop-color="#ADDCFF"/>
<stop offset="0.503" stop-color="#EAF6FF"/>
<stop offset="1" stop-color="#EAF6FF"/>
</linearGradient>
<linearGradient id="paint1_linear_3331_46" x1="32.5003" y1="51.67" x2="32.5003" y2="13.3301" gradientUnits="userSpaceOnUse">
<stop stop-color="#00C0FF"/>
<stop offset="1" stop-color="#0176D3"/>
</linearGradient>
<clipPath id="clip0_3331_46">
<rect width="65" height="65" fill="white"/>
</clipPath>
</defs>
</svg>
