<svg width="65" height="65" viewBox="0 0 65 65" fill="none" xmlns="http://www.w3.org/2000/svg">
<g clip-path="url(#clip0_3330_22)">
<path d="M32.5 65C50.4493 65 65 50.4493 65 32.5C65 14.5507 50.4493 0 32.5 0C14.5507 0 0 14.5507 0 32.5C0 50.4493 14.5507 65 32.5 65Z" fill="url(#paint0_linear_3330_22)"/>
<path d="M21.7704 35.9453H21.801V33.6276H39.8202V35.8829H34.1892C33.5668 35.8829 33.063 36.3873 33.063 37.0105V44.9041H48.8297V37.0105C48.8297 36.3873 48.326 35.8829 47.7035 35.8829H42.0725V32.5C42.0725 31.8767 41.5688 31.3724 40.9463 31.3724H31.9367V26.8618H37.5677C40.051 26.8618 42.0725 24.8389 42.0725 22.3512C42.0725 20.2215 40.59 18.4309 38.6038 17.9607C38.1287 15.331 35.8258 13.3301 33.0632 13.3301C31.2265 13.3301 29.5196 14.2397 28.477 15.7143C26.5458 15.2287 24.4913 16.1767 23.5278 17.8716C21.2908 18.1326 19.5487 20.0421 19.5487 22.3514C19.5487 24.839 21.5702 26.8619 24.0536 26.8619H29.6846V31.3725H20.675C20.0525 31.3725 19.5487 31.8769 19.5487 32.5001V35.9454H19.5793C16.9315 36.2357 15.0439 37.5647 15.0439 39.266C15.0439 41.1941 17.4657 42.6489 20.675 42.6489C23.8842 42.6489 26.306 41.1943 26.306 39.266C26.306 37.5647 24.4184 36.2356 21.7704 35.9453ZM15.0439 43.3241V43.7765C15.0439 45.7046 17.4657 47.1594 20.675 47.1594C23.8842 47.1594 26.306 45.7046 26.306 43.7765V43.3241C24.9076 44.3158 22.9474 44.9041 20.675 44.9041C18.4025 44.9041 16.4423 44.3158 15.0439 43.3241ZM15.0439 47.8347V48.287C15.0439 50.2152 17.4657 51.6699 20.675 51.6699C23.8842 51.6699 26.306 50.2153 26.306 48.287V47.8347C24.9076 48.8263 22.9474 49.4146 20.675 49.4146C18.4025 49.4146 16.4423 48.8263 15.0439 47.8347ZM48.8299 47.1594H33.0632C32.4412 47.1594 31.937 47.6642 31.937 48.287V49.4146C31.937 50.6601 32.9454 51.6699 34.1894 51.6699H47.7038C48.9478 51.6699 49.9562 50.6601 49.9562 49.4146V48.287C49.9561 47.6642 49.4518 47.1594 48.8299 47.1594Z" fill="url(#paint1_linear_3330_22)"/>
</g>
<defs>
<linearGradient id="paint0_linear_3330_22" x1="32.5" y1="65" x2="32.5" y2="0" gradientUnits="userSpaceOnUse">
<stop stop-color="#ADDCFF"/>
<stop offset="0.503" stop-color="#EAF6FF"/>
<stop offset="1" stop-color="#EAF6FF"/>
</linearGradient>
<linearGradient id="paint1_linear_3330_22" x1="32.5004" y1="51.67" x2="32.5004" y2="13.3301" gradientUnits="userSpaceOnUse">
<stop stop-color="#00C0FF"/>
<stop offset="1" stop-color="#0176D3"/>
</linearGradient>
<clipPath id="clip0_3330_22">
<rect width="65" height="65" fill="white"/>
</clipPath>
</defs>
</svg>
