<svg width="65" height="65" viewBox="0 0 65 65" fill="none" xmlns="http://www.w3.org/2000/svg">
<g clip-path="url(#clip0_3330_14)">
<path d="M32.5 65C50.4493 65 65 50.4493 65 32.5C65 14.5507 50.4493 0 32.5 0C14.5507 0 0 14.5507 0 32.5C0 50.4493 14.5507 65 32.5 65Z" fill="url(#paint0_linear_3330_14)"/>
<path d="M51.67 29.8789V35.1207C51.6701 35.3725 51.5855 35.6169 51.4299 35.8148C51.2743 36.0128 51.0567 36.1527 50.8121 36.2121L48.8164 36.6971C48.4236 38.2269 47.8151 39.6901 47.0013 41.0625L48.0737 42.8232C48.2047 43.0382 48.2596 43.291 48.2296 43.541C48.1997 43.791 48.0867 44.0237 47.9087 44.2018L44.2022 47.9083C44.0241 48.0863 43.7914 48.1994 43.5414 48.2293C43.2914 48.2592 43.0386 48.2043 42.8236 48.0733L41.0629 47.001C40.0142 47.6237 38.9006 48.1298 37.7419 48.5104V41.5806C40.8754 39.7679 42.9837 36.3802 42.9837 32.4999C42.9837 26.7099 38.2901 22.0163 32.5001 22.0163C26.7102 22.0163 22.0166 26.7099 22.0166 32.4999C22.0166 36.3802 24.1249 39.7679 27.2584 41.5806V48.5104C26.0997 48.1298 24.9861 47.6237 23.9374 47.001L22.1767 48.0733C21.9616 48.2043 21.7088 48.2593 21.4588 48.2293C21.2088 48.1994 20.9761 48.0863 20.7981 47.9083L17.0916 44.2018C16.9136 44.0237 16.8005 43.7911 16.7706 43.5411C16.7406 43.2911 16.7955 43.0384 16.9264 42.8233L17.9988 41.0626C17.1849 39.6902 16.5765 38.227 16.1837 36.6972L14.188 36.2122C13.9434 36.1528 13.7258 36.0129 13.5703 35.8149C13.4147 35.617 13.3301 35.3726 13.3301 35.1208V29.8791C13.3301 29.6273 13.4147 29.3828 13.5702 29.1849C13.7258 28.987 13.9434 28.8471 14.188 28.7876L16.1837 28.3027C16.5765 26.7728 17.1849 25.3096 17.9988 23.9371L16.9264 22.1764C16.7954 21.9614 16.7405 21.7086 16.7705 21.4586C16.8004 21.2086 16.9135 20.976 17.0916 20.798L20.7981 17.0914C20.9762 16.9134 21.2088 16.8004 21.4588 16.7705C21.7088 16.7405 21.9616 16.7955 22.1767 16.9264L23.9374 17.9988C25.3099 17.1849 26.773 16.5765 28.3028 16.1837L28.7878 14.188C28.8472 13.9434 28.9872 13.7258 29.1851 13.5702C29.3831 13.4146 29.6275 13.3301 29.8793 13.3301H35.1211C35.3728 13.3301 35.6173 13.4146 35.8153 13.5702C36.0132 13.7258 36.1531 13.9434 36.2126 14.188L36.6976 16.1837C38.2274 16.5766 39.6905 17.185 41.063 17.9988L42.8237 16.9264C43.0387 16.7955 43.2915 16.7405 43.5415 16.7705C43.7915 16.8004 44.0242 16.9134 44.2023 17.0914L47.9088 20.798C48.0868 20.976 48.1999 21.2087 48.2298 21.4587C48.2597 21.7087 48.2048 21.9615 48.0738 22.1766L47.0015 23.9373C47.8154 25.3098 48.4237 26.7729 48.8165 28.3028L50.8122 28.7878C51.0568 28.8472 51.2744 28.9871 51.4299 29.1849C51.5855 29.3828 51.67 29.6272 51.67 29.8789ZM36.3452 27.9138C35.8603 27.508 35.1209 27.8605 35.1209 28.4929V31.0023L32.5001 33.2486L29.8792 31.0022V28.4927C29.8792 27.8604 29.1398 27.5078 28.655 27.9137C27.3443 29.0109 26.5095 30.6563 26.5095 32.4997C26.5095 34.7158 27.7159 36.6462 29.5048 37.6824V50.5464C29.5048 50.6939 29.5339 50.84 29.5903 50.9762C29.6468 51.1125 29.7295 51.2364 29.8338 51.3407C29.9381 51.445 30.0619 51.5277 30.1982 51.5842C30.3345 51.6406 30.4806 51.6697 30.6281 51.6697H34.3722C34.5197 51.6697 34.6658 51.6406 34.802 51.5842C34.9383 51.5277 35.0622 51.445 35.1665 51.3407C35.2708 51.2364 35.3535 51.1125 35.41 50.9762C35.4664 50.84 35.4955 50.6939 35.4955 50.5464V37.6825C37.2844 36.6462 38.4908 34.716 38.4908 32.4999C38.4908 30.6564 37.6559 29.0111 36.3452 27.9138Z" fill="url(#paint1_linear_3330_14)"/>
</g>
<defs>
<linearGradient id="paint0_linear_3330_14" x1="32.5" y1="65" x2="32.5" y2="0" gradientUnits="userSpaceOnUse">
<stop stop-color="#ADDCFF"/>
<stop offset="0.503" stop-color="#EAF6FF"/>
<stop offset="1" stop-color="#EAF6FF"/>
</linearGradient>
<linearGradient id="paint1_linear_3330_14" x1="32.5004" y1="51.6698" x2="32.5004" y2="13.3301" gradientUnits="userSpaceOnUse">
<stop stop-color="#00C0FF"/>
<stop offset="1" stop-color="#0176D3"/>
</linearGradient>
<clipPath id="clip0_3330_14">
<rect width="65" height="65" fill="white"/>
</clipPath>
</defs>
</svg>
