<svg width="65" height="65" viewBox="0 0 65 65" fill="none" xmlns="http://www.w3.org/2000/svg">
<g clip-path="url(#clip0_3330_10)">
<path d="M32.5 65C50.4493 65 65 50.4493 65 32.5C65 14.5507 50.4493 0 32.5 0C14.5507 0 0 14.5507 0 32.5C0 50.4493 14.5507 65 32.5 65Z" fill="url(#paint0_linear_3330_10)"/>
<path d="M17.8406 48.2591C17.8406 48.8813 18.345 49.3847 18.9682 49.3847H23.4787C23.7391 49.3847 23.9915 49.2946 24.193 49.1297C24.3946 48.9648 24.5328 48.7353 24.5843 48.48L26.2073 40.3797H17.8406V48.2591ZM50.5423 26.8721H49.4147V35.8771H50.5423C51.1657 35.8771 51.6699 35.3737 51.6699 34.7516V27.9978C51.6699 27.3755 51.1655 26.8721 50.5423 26.8721ZM13.3301 27.9977V34.7515C13.3301 36.62 14.8411 38.1283 16.713 38.1283H26.8618V24.6209H16.713C14.8411 24.6209 13.3301 26.1291 13.3301 27.9977ZM46.6181 15.7734C46.2797 15.5707 45.8737 15.5707 45.5355 15.7283L29.117 23.923V38.8264L45.5355 47.021C45.6933 47.0884 45.8512 47.1336 46.0317 47.1336C46.2347 47.1336 46.4377 47.0885 46.6181 46.9759C46.9563 46.7507 47.1593 46.3905 47.1593 46.0079V16.7414C47.1594 16.3585 46.9563 15.9984 46.6181 15.7734Z" fill="url(#paint1_linear_3330_10)"/>
</g>
<defs>
<linearGradient id="paint0_linear_3330_10" x1="32.5" y1="65" x2="32.5" y2="0" gradientUnits="userSpaceOnUse">
<stop stop-color="#ADDCFF"/>
<stop offset="0.503" stop-color="#EAF6FF"/>
<stop offset="1" stop-color="#EAF6FF"/>
</linearGradient>
<linearGradient id="paint1_linear_3330_10" x1="32.5003" y1="49.3848" x2="32.5003" y2="15.6152" gradientUnits="userSpaceOnUse">
<stop stop-color="#00C0FF"/>
<stop offset="1" stop-color="#0176D3"/>
</linearGradient>
<clipPath id="clip0_3330_10">
<rect width="65" height="65" fill="white"/>
</clipPath>
</defs>
</svg>
