<svg width="65" height="65" viewBox="0 0 65 65" fill="none" xmlns="http://www.w3.org/2000/svg">
<g clip-path="url(#clip0_3331_38)">
<path d="M32.5 65C50.4493 65 65 50.4493 65 32.5C65 14.5507 50.4493 0 32.5 0C14.5507 0 0 14.5507 0 32.5C0 50.4493 14.5507 65 32.5 65Z" fill="url(#paint0_linear_3331_38)"/>
<path d="M47.1525 20.8183H40.363V14.0287C40.4788 14.1177 40.5887 14.214 40.6921 14.317L46.8643 20.4893C46.9683 20.5934 47.064 20.7036 47.1525 20.8183ZM38.1165 44.8556H40.3629V42.6092H38.1165V44.8556ZM33.6236 20.1444H31.3772V22.3908H33.6236V20.1444ZM24.6376 35.8697H26.8841V33.6233H24.6376V35.8697ZM24.6376 44.8556H26.8841V42.6092H24.6376V44.8556ZM47.8512 23.0648V48.3002C47.8512 50.1583 46.3396 51.6699 44.4815 51.6699H20.5191C18.661 51.6699 17.1494 50.1583 17.1494 48.3002V16.6998C17.1494 14.8417 18.661 13.3301 20.5191 13.3301H38.1165V21.9416C38.1165 22.0891 38.1455 22.2351 38.202 22.3714C38.2584 22.5077 38.3412 22.6315 38.4455 22.7358C38.5498 22.8401 38.6736 22.9229 38.8099 22.9793C38.9462 23.0358 39.0923 23.0648 39.2398 23.0648H47.8512ZM42.6095 32.5C42.6095 32.2021 42.4911 31.9164 42.2805 31.7057C42.0698 31.4951 41.7841 31.3767 41.4862 31.3767H40.3629V28.007C40.3629 27.8595 40.3339 27.7134 40.2774 27.5771C40.221 27.4409 40.1382 27.317 40.0339 27.2127C39.9296 27.1084 39.8058 27.0257 39.6695 26.9692C39.5332 26.9128 39.3871 26.8837 39.2396 26.8837H33.6235V24.6373H34.7468C35.0447 24.6373 35.3304 24.5189 35.541 24.3083C35.7517 24.0976 35.87 23.8119 35.87 23.514V19.021C35.87 18.8735 35.841 18.7274 35.7845 18.5911C35.7281 18.4549 35.6454 18.331 35.541 18.2267C35.4367 18.1224 35.3129 18.0397 35.1766 17.9832C35.0403 17.9268 34.8943 17.8977 34.7468 17.8977H30.2538C30.1063 17.8977 29.9602 17.9268 29.8239 17.9832C29.6876 18.0397 29.5638 18.1224 29.4595 18.2267C29.3552 18.331 29.2724 18.4549 29.216 18.5911C29.1595 18.7274 29.1305 18.8735 29.1305 19.021V23.514C29.1305 23.8119 29.2488 24.0976 29.4595 24.3083C29.6701 24.5189 29.9559 24.6373 30.2538 24.6373H31.377V26.8837H25.7609C25.6134 26.8837 25.4673 26.9128 25.331 26.9692C25.1948 27.0257 25.0709 27.1084 24.9666 27.2127C24.8623 27.317 24.7796 27.4409 24.7231 27.5771C24.6667 27.7134 24.6376 27.8595 24.6376 28.007V31.3767H23.5143C23.2164 31.3767 22.9307 31.4951 22.7201 31.7057C22.5094 31.9164 22.3911 32.2021 22.3911 32.5V36.993C22.3911 37.2909 22.5094 37.5766 22.7201 37.7873C22.9307 37.9979 23.2164 38.1163 23.5143 38.1163H24.6376V40.3627H23.5143C23.2164 40.3627 22.9307 40.4811 22.7201 40.6917C22.5094 40.9024 22.3911 41.1881 22.3911 41.486V45.979C22.3911 46.2769 22.5094 46.5626 22.7201 46.7733C22.9307 46.9839 23.2164 47.1023 23.5143 47.1023H28.0073C28.1548 47.1023 28.3009 47.0732 28.4372 47.0168C28.5735 46.9603 28.6973 46.8776 28.8016 46.7733C28.9059 46.669 28.9887 46.5451 29.0451 46.4089C29.1016 46.2726 29.1306 46.1265 29.1306 45.979V41.486C29.1306 41.3385 29.1016 41.1924 29.0451 41.0561C28.9887 40.9199 28.9059 40.796 28.8016 40.6917C28.6973 40.5874 28.5735 40.5047 28.4372 40.4482C28.3009 40.3918 28.1548 40.3627 28.0073 40.3627H26.8841V38.1163H28.0073C28.1548 38.1163 28.3009 38.0872 28.4372 38.0308C28.5735 37.9743 28.6973 37.8916 28.8016 37.7873C28.9059 37.683 28.9887 37.5591 29.0451 37.4229C29.1016 37.2866 29.1306 37.1405 29.1306 36.993V32.5C29.1306 32.3525 29.1016 32.2064 29.0451 32.0701C28.9887 31.9339 28.9059 31.81 28.8016 31.7057C28.6973 31.6014 28.5735 31.5187 28.4372 31.4622C28.3009 31.4058 28.1548 31.3767 28.0073 31.3767H26.8841V29.1303H38.1165V31.3767H36.9932C36.6953 31.3767 36.4096 31.4951 36.1989 31.7057C35.9883 31.9164 35.8699 32.2021 35.8699 32.5V36.993C35.8699 37.2909 35.9883 37.5766 36.1989 37.7873C36.4096 37.9979 36.6953 38.1163 36.9932 38.1163H38.1165V40.3627H36.9932C36.6953 40.3627 36.4096 40.4811 36.1989 40.6917C35.9883 40.9024 35.8699 41.1881 35.8699 41.486V45.979C35.8699 46.2769 35.9883 46.5626 36.1989 46.7733C36.4096 46.9839 36.6953 47.1023 36.9932 47.1023H41.4862C41.7841 47.1023 42.0698 46.9839 42.2805 46.7733C42.4911 46.5626 42.6095 46.2769 42.6095 45.979V41.486C42.6095 41.1881 42.4911 40.9024 42.2805 40.6917C42.0698 40.4811 41.7841 40.3627 41.4862 40.3627H40.3629V38.1163H41.4862C41.7841 38.1163 42.0698 37.9979 42.2805 37.7873C42.4911 37.5766 42.6095 37.2909 42.6095 36.993V32.5ZM38.1165 35.8697H40.3629V33.6233H38.1165V35.8697Z" fill="url(#paint1_linear_3331_38)"/>
</g>
<defs>
<linearGradient id="paint0_linear_3331_38" x1="32.5" y1="65" x2="32.5" y2="0" gradientUnits="userSpaceOnUse">
<stop stop-color="#ADDCFF"/>
<stop offset="0.503" stop-color="#EAF6FF"/>
<stop offset="1" stop-color="#EAF6FF"/>
</linearGradient>
<linearGradient id="paint1_linear_3331_38" x1="32.5006" y1="51.67" x2="32.5006" y2="13.3301" gradientUnits="userSpaceOnUse">
<stop stop-color="#00C0FF"/>
<stop offset="1" stop-color="#0176D3"/>
</linearGradient>
<clipPath id="clip0_3331_38">
<rect width="65" height="65" fill="white"/>
</clipPath>
</defs>
</svg>
