<svg width="24" height="24" viewBox="0 0 24 24" fill="none" xmlns="http://www.w3.org/2000/svg">
<g clip-path="url(#clip0_937_1955)">
<mask id="mask0_937_1955" style="mask-type:luminance" maskUnits="userSpaceOnUse" x="0" y="0" width="24" height="24">
<path d="M24 0H0V24H24V0Z" fill="white"/>
</mask>
<g mask="url(#mask0_937_1955)">
<path opacity="0.4" d="M19.2008 3.59961H4.80078V20.3996H19.2008V3.59961Z" fill="#191919"/>
<path d="M6.8556 9.6282e-05C5.05002 -0.00949174 3.31433 0.697367 2.02917 1.96566C0.744004 3.23395 0.014272 4.96015 0 6.7657C0.0019307 7.90585 0.296534 9.02642 0.8556 10.0201C0.545834 11.6668 0.605531 13.3617 1.03038 14.9825C1.45523 16.6033 2.23464 18.1095 3.31234 19.3925C4.39004 20.6755 5.73915 21.7032 7.26229 22.4014C8.78542 23.0996 10.4446 23.451 12.12 23.4301C12.7682 23.4338 13.4157 23.3836 14.0556 23.2801C15.0161 23.7557 16.0738 24.0022 17.1456 24.0001C18.9508 24.0094 20.686 23.3025 21.9708 22.0345C23.2557 20.7665 23.9854 19.0408 24 17.2357C24.0012 16.2494 23.7809 15.2755 23.3556 14.3857C23.513 13.6407 23.5934 12.8815 23.5956 12.1201C23.5699 9.09971 22.3474 6.21281 20.1961 4.09257C18.0448 1.97234 15.1404 0.791876 12.12 0.810096C11.5226 0.810369 10.9261 0.855698 10.3356 0.945696C9.28045 0.326344 8.07909 -9.49629e-05 6.8556 9.6282e-05ZM12.0456 4.5001C12.912 4.48275 13.7762 4.59396 14.61 4.8301C15.2633 5.01424 15.8783 5.3142 16.4256 5.7157C16.8626 6.03275 17.2301 6.4358 17.5056 6.9001C17.7229 7.2799 17.8413 7.7082 17.85 8.1457C17.8457 8.34041 17.8024 8.53229 17.7227 8.70997C17.6429 8.88765 17.5283 9.04752 17.3856 9.1801C17.2405 9.33146 17.0655 9.45101 16.8717 9.53116C16.6779 9.61131 16.4696 9.65031 16.26 9.6457C15.921 9.66777 15.5855 9.56632 15.3156 9.3601C15.0521 9.11174 14.8293 8.8234 14.6556 8.5057C14.4235 8.03386 14.0904 7.61885 13.68 7.2901C13.1201 6.97217 12.4771 6.83118 11.8356 6.8857C11.1704 6.85022 10.509 7.00641 9.93 7.3357C9.73501 7.43574 9.56994 7.58555 9.45151 7.76995C9.33307 7.95434 9.26549 8.16677 9.2556 8.3857C9.25127 8.616 9.33105 8.83998 9.48 9.0157C9.65889 9.21949 9.87892 9.38308 10.1256 9.4957C10.4087 9.63862 10.7048 9.75395 11.01 9.8401C11.316 9.9229 11.8368 10.0537 12.54 10.2157C13.4292 10.4053 14.2464 10.6033 14.97 10.8301C15.63 11.0319 16.2606 11.3196 16.8456 11.6857C17.3589 12.0084 17.786 12.4511 18.09 12.9757C18.3988 13.5616 18.549 14.2182 18.5256 14.8801C18.5347 15.7464 18.2664 16.5928 17.76 17.2957C17.1894 18.056 16.4145 18.6386 15.5256 18.9757C14.4287 19.3899 13.2621 19.5883 12.09 19.5601C10.7339 19.61 9.38582 19.3322 8.16 18.7501C7.43759 18.3716 6.81565 17.8266 6.3456 17.1601C5.91248 16.5998 5.66574 15.9178 5.64 15.2101C5.64046 15.0167 5.68224 14.8257 5.76254 14.6498C5.84284 14.4739 5.95981 14.3171 6.1056 14.1901C6.41673 13.9075 6.8255 13.7569 7.2456 13.7701C7.59937 13.7603 7.94497 13.8774 8.22 14.1001C8.50468 14.3556 8.72575 14.6741 8.8656 15.0301C9.03098 15.4192 9.24249 15.787 9.4956 16.1257C9.73883 16.4311 10.0526 16.6728 10.41 16.8301C10.9186 17.0392 11.4661 17.1366 12.0156 17.1157C12.7909 17.1504 13.5587 16.9518 14.22 16.5457C14.4632 16.412 14.6673 16.2171 14.812 15.9803C14.9568 15.7436 15.0373 15.4731 15.0456 15.1957C15.0518 15.0019 15.0162 14.809 14.941 14.6303C14.8658 14.4516 14.7529 14.2912 14.61 14.1601C14.2718 13.8655 13.8721 13.6503 13.44 13.5301C12.9396 13.3777 12.2676 13.2097 11.43 13.0357C10.4459 12.8391 9.48183 12.5527 8.55 12.1801C7.817 11.8883 7.16767 11.4196 6.66 10.8157C6.17321 10.2029 5.91824 9.438 5.94 8.65569C5.9319 7.8566 6.19645 7.07861 6.69 6.4501C7.24749 5.77287 7.9863 5.2684 8.82 4.9957C9.85824 4.64435 10.9498 4.47664 12.0456 4.5001Z" fill="#191919"/>
</g>
</g>
<defs>
<clipPath id="clip0_937_1955">
<rect width="24" height="24" fill="white"/>
</clipPath>
</defs>
</svg>
