<svg width="50" height="50" viewBox="0 0 50 50" fill="none" xmlns="http://www.w3.org/2000/svg">
<g clip-path="url(#clip0_200_48)">
<path d="M49.4217 24.8238C49.041 25.2022 48.5428 25.3914 48.0453 25.3914C47.5433 25.3914 47.0417 25.1991 46.6598 24.815L45.1157 23.2605V37.3051C45.1157 38.3839 44.2413 39.2582 43.1625 39.2582C42.0841 39.2582 41.2098 38.3839 41.2098 37.3051V19.3287L26.3557 4.377C25.6267 3.75253 24.5537 3.75024 23.822 4.37166L8.78868 19.3756V37.3051C8.78868 38.3839 7.91435 39.2582 6.83593 39.2582C5.75714 39.2582 4.88281 38.3839 4.88281 37.3051V23.2739L3.3329 24.8207C2.5692 25.5825 1.33285 25.5818 0.570676 24.8181C-0.191119 24.0547 -0.189975 22.818 0.573346 22.0558L21.109 1.56099C21.1353 1.53467 21.162 1.50949 21.1899 1.48469C23.4203 -0.501238 26.7784 -0.49399 29.0005 1.5011C29.0279 1.52589 29.055 1.55145 29.081 1.57777L49.4308 22.0619C50.1911 22.8272 50.1869 24.0635 49.4217 24.8238ZM28.6125 21.8758C28.6125 19.9883 27.0821 18.4582 25.1945 18.4582C23.307 18.4582 21.7766 19.9883 21.7766 21.8758C21.7766 23.037 22.3564 24.0624 23.2414 24.6803V43.7779C22.3564 44.3955 21.7766 45.4208 21.7766 46.582C21.7766 48.4699 23.307 50 25.1945 50C27.0821 50 28.6125 48.4699 28.6125 46.582C28.6125 45.4208 28.0327 44.3955 27.1477 43.7779V24.6803C28.0327 24.0624 28.6125 23.037 28.6125 21.8758ZM16.2106 23.4383C14.3227 23.4383 12.7926 24.9687 12.7926 26.8562C12.7926 28.0174 13.3724 29.0428 14.2574 29.6604V40.9882L11.8309 43.4147C11.4342 43.2537 11.0008 43.1645 10.5465 43.1645C8.65898 43.1645 7.12852 44.6945 7.12852 46.582C7.12852 48.4699 8.65898 50 10.5465 50C12.3562 50 13.8363 48.5931 13.9557 46.814L17.5915 43.1782C17.9577 42.812 18.1637 42.3153 18.1637 41.7973V29.6604C19.0487 29.0428 19.6281 28.0174 19.6281 26.8562C19.6281 24.9687 18.0981 23.4383 16.2106 23.4383ZM39.2567 43.1645C39.0221 43.1645 38.7932 43.1881 38.5719 43.2331L36.1317 40.7929V32.4925C37.0167 31.8749 37.5965 30.8495 37.5965 29.6883C37.5965 27.8004 36.066 26.2703 34.1785 26.2703C32.291 26.2703 30.7606 27.8004 30.7606 29.6883C30.7606 30.8495 31.3404 31.8749 32.2254 32.4925V41.602C32.2254 42.12 32.4314 42.6167 32.7976 42.9829L35.878 46.0632C35.852 46.2326 35.8387 46.4058 35.8387 46.582C35.8387 48.4699 37.3688 50 39.2567 50C41.1442 50 42.6742 48.4699 42.6742 46.582C42.6742 44.6945 41.1442 43.1645 39.2567 43.1645Z" fill="#FC275E"/>
</g>
<defs>
<clipPath id="clip0_200_48">
<rect width="50" height="50" fill="white"/>
</clipPath>
</defs>
</svg>
