<svg width="50" height="50" viewBox="0 0 50 50" fill="none" xmlns="http://www.w3.org/2000/svg">
<g clip-path="url(#clip0_3273_86)">
<path d="M19.043 20.5152C19.8634 20.5152 20.5078 19.8706 20.5078 19.0504V7.33164C20.5078 6.8335 20.2733 6.39414 19.8634 6.10107L11.0743 0.241699C10.5762 -0.0805664 9.93174 -0.0805664 9.4335 0.241699L0.644434 6.10107C0.234473 6.39414 0 6.8335 0 7.33164V19.0504C0 19.8706 0.644434 20.5152 1.46484 20.5152H5.85938L10.2539 16.1207L14.6484 20.5152H19.043ZM48.5352 5.82077e-09H41.2109L39.7461 2.92969L38.2812 5.82077e-09H30.957C30.1366 5.82077e-09 29.4922 0.644434 29.4922 1.46484V19.043C29.4922 19.8632 30.1366 20.5078 30.957 20.5078H48.5352C49.3556 20.5078 50 19.8632 50 19.043V1.46484C50 0.644434 49.3556 5.82077e-09 48.5352 5.82077e-09ZM37.4219 32.5977C36.9239 32.3339 36.3672 32.3633 35.8983 32.6562L29.3945 37.0215V33.8867C29.3945 33.3594 29.1017 32.8612 28.6328 32.5977C28.1349 32.3339 27.5781 32.3633 27.1093 32.6562L20.6055 37.0215V30.957C20.6055 30.1366 19.961 29.4922 19.1406 29.4922H13.2812C12.4608 29.4922 11.8164 30.1366 11.8164 30.957V48.5352C11.8164 49.3554 12.4608 50 13.2812 50H20.6055L22.0703 47.0703L23.5352 50H29.3945L30.8594 47.0703L32.3242 50H36.7188C37.5392 50 38.1836 49.3554 38.1836 48.5352V33.8867C38.1836 33.3594 37.8907 32.8612 37.4219 32.5977Z" fill="url(#paint0_linear_3273_86)"/>
<path d="M13.1836 11.7262H7.32422C6.50381 11.7262 5.85938 12.3706 5.85938 13.191V20.5152H14.6484V13.191C14.6484 12.3706 14.004 11.7262 13.1836 11.7262ZM4.49219 29.3945C5.30186 29.3945 5.95703 28.7394 5.95703 27.9297V25C5.95703 24.1903 5.30186 23.5352 4.49219 23.5352C3.68252 23.5352 3.02734 24.1903 3.02734 25V27.9297C3.02734 28.7394 3.68252 29.3945 4.49219 29.3945ZM7.42188 38.1836H5.95703V33.7891C5.95703 32.9794 5.30186 32.3242 4.49219 32.3242C3.68252 32.3242 3.02734 32.9794 3.02734 33.7891V39.6484C3.02734 40.4581 3.68252 41.1133 4.49219 41.1133H7.42188C8.23154 41.1133 8.88672 40.4581 8.88672 39.6484C8.88672 38.8388 8.23154 38.1836 7.42188 38.1836ZM45.5078 32.3242C44.6981 32.3242 44.043 32.9794 44.043 33.7891V38.1836H42.5781C41.7685 38.1836 41.1133 38.8388 41.1133 39.6484C41.1133 40.4581 41.7685 41.1133 42.5781 41.1133H45.5078C46.3175 41.1133 46.9727 40.4581 46.9727 39.6484V33.7891C46.9727 32.9794 46.3175 32.3242 45.5078 32.3242ZM45.5078 23.5352C44.6981 23.5352 44.043 24.1903 44.043 25V27.9297C44.043 28.7394 44.6981 29.3945 45.5078 29.3945C46.3175 29.3945 46.9727 28.7394 46.9727 27.9297V25C46.9727 24.1903 46.3175 23.5352 45.5078 23.5352ZM22.0703 44.1406C21.2499 44.1406 20.6055 44.7851 20.6055 45.6055V50H23.5352V45.6055C23.5352 44.7851 22.8907 44.1406 22.0703 44.1406ZM30.8594 44.1406C30.039 44.1406 29.3945 44.7851 29.3945 45.6055V50H32.3242V45.6055C32.3242 44.7851 31.6798 44.1406 30.8594 44.1406ZM41.2109 0H38.2812V7.32422C38.2812 8.14443 38.9257 8.78906 39.7461 8.78906C40.5665 8.78906 41.2109 8.14443 41.2109 7.32422V0Z" fill="url(#paint1_linear_3273_86)"/>
</g>
<defs>
<linearGradient id="paint0_linear_3273_86" x1="25" y1="50" x2="25" y2="0" gradientUnits="userSpaceOnUse">
<stop stop-color="#FB5900"/>
<stop offset="1" stop-color="#FFDC03"/>
</linearGradient>
<linearGradient id="paint1_linear_3273_86" x1="25" y1="33.871" x2="25" y2="1.61295" gradientUnits="userSpaceOnUse">
<stop stop-color="#FFE398"/>
<stop offset="1" stop-color="#FDFDD3"/>
</linearGradient>
<clipPath id="clip0_3273_86">
<rect width="50" height="50" fill="white"/>
</clipPath>
</defs>
</svg>
