<svg width="40" height="40" viewBox="0 0 40 40" fill="none" xmlns="http://www.w3.org/2000/svg">
<g clip-path="url(#clip0_2745_32)">
<path d="M29.4115 3.5293H10.588V12.9411H29.4115V3.5293ZM30.7857 19.3473H9.21389L7.05859 19.9999V38.8234C7.05859 39.4737 7.58479 39.9999 8.23506 39.9999H31.7645C32.4148 39.9999 32.9409 39.4737 32.9409 38.8234V19.9999L30.7857 19.3473Z" fill="url(#paint0_linear_2745_32)"/>
<path d="M8.23524 16.4706H31.7647C32.4236 16.4706 32.9411 15.9529 32.9411 15.2941V1.17647C32.9411 0.517569 32.4236 0 31.7647 0H8.23524C7.57633 0 7.05877 0.517569 7.05877 1.17647V15.2941C7.05877 15.9529 7.57633 16.4706 8.23524 16.4706ZM23.8824 6.70588C23.4118 6.25882 23.4118 5.5058 23.8824 5.05882C24.3294 4.58831 25.0823 4.58831 25.5294 5.05882L27.8823 7.41177C28.3529 7.85882 28.3529 8.61177 27.8823 9.05882L25.5294 11.4118C25.1061 11.8824 24.3058 11.8825 23.8824 11.4118C23.4118 10.9647 23.4118 10.2117 23.8824 9.76471L25.3881 8.2353L23.8824 6.70588ZM18.2588 10.3059L19.4352 5.6C19.5999 4.96463 20.2352 4.58831 20.8705 4.75286C21.5059 4.89404 21.8823 5.52941 21.7411 6.16471L20.5646 10.8706C20.3642 11.6391 19.4959 11.9012 19.1294 11.7176C18.4941 11.5765 18.1176 10.9411 18.2588 10.3059ZM12.1177 7.41169L14.4706 5.05875C14.9177 4.58824 15.6705 4.58824 16.1176 5.05875C16.5882 5.5058 16.5882 6.25875 16.1176 6.7058L14.6118 8.2353L16.1175 9.76463C16.5881 10.2117 16.5881 10.9646 16.1175 11.4117C15.6943 11.8823 14.894 11.8824 14.4705 11.4117L12.1176 9.05875C11.647 8.61169 11.647 7.85875 12.1177 7.41169ZM39.6552 26.2271L32.5964 19.1682C32.4444 19.0162 32.0589 18.8235 31.7647 18.8235H8.23524C7.93759 18.8235 7.54575 19.0259 7.40347 19.1682L0.344647 26.2271C-0.114882 26.6866 -0.114882 27.4311 0.344647 27.8907C0.804177 28.3502 1.54865 28.3502 2.00826 27.8907L8.05233 21.8466L11.9623 27.7115C12.0697 27.8726 12.2153 28.0047 12.386 28.0961C12.5568 28.1875 12.7475 28.2353 12.9411 28.2354H27.0588C27.4517 28.2354 27.8193 28.0389 28.0376 27.7115L31.9476 21.8466L37.9916 27.8907C38.4512 28.3502 39.1956 28.3502 39.6552 27.8907C40.1148 27.4311 40.1148 26.6866 39.6552 26.2271Z" fill="url(#paint1_linear_2745_32)"/>
</g>
<defs>
<linearGradient id="paint0_linear_2745_32" x1="19.9998" y1="39.9999" x2="19.9998" y2="3.5293" gradientUnits="userSpaceOnUse">
<stop stop-color="#A93AFF"/>
<stop offset="1" stop-color="#FF81FF"/>
</linearGradient>
<linearGradient id="paint1_linear_2745_32" x1="19.9999" y1="28.2353" x2="19.9999" y2="0" gradientUnits="userSpaceOnUse">
<stop stop-color="#FFBEF9"/>
<stop offset="1" stop-color="#FFF1FF"/>
</linearGradient>
<clipPath id="clip0_2745_32">
<rect width="40" height="40" fill="white"/>
</clipPath>
</defs>
</svg>
