<svg width="40" height="40" viewBox="0 0 40 40" fill="none" xmlns="http://www.w3.org/2000/svg">
<g clip-path="url(#clip0_2745_16)">
<path d="M34.8438 7.96875H25.8594V5.07812C25.8594 4.43094 25.3347 3.90625 24.6875 3.90625H15.3125C14.6653 3.90625 14.1406 4.43094 14.1406 5.07812V7.96875H5.15625C3.21773 7.96875 1.64062 9.54586 1.64062 11.4844V31.4062H14.5312C14.842 31.4062 15.1401 31.5297 15.3598 31.7495L16.5791 32.9688H23.4208L24.6401 31.7495C24.7489 31.6407 24.8781 31.5544 25.0203 31.4955C25.1625 31.4366 25.3148 31.4063 25.4688 31.4062H38.3594V11.4844C38.3594 9.54586 36.7823 7.96875 34.8438 7.96875Z" fill="url(#paint0_linear_2745_16)"/>
<path d="M35.7031 40H4.29688C1.92758 40 0 38.0724 0 35.7031V32.5781C0 31.9309 0.524687 31.4062 1.17188 31.4062H14.5312C14.842 31.4062 15.1401 31.5297 15.3598 31.7495L16.5791 32.9688H23.4208L24.6401 31.7495C24.8599 31.5297 25.1579 31.4063 25.4688 31.4062H38.8281C39.4753 31.4062 40 31.9309 40 32.5781V35.7031C40 38.0724 38.0724 40 35.7031 40ZM29.375 0H10.625C9.97781 0 9.45312 0.524687 9.45312 1.17188V27.7344C9.45312 28.3816 9.97781 28.9062 10.625 28.9062H29.375C30.0222 28.9062 30.5469 28.3816 30.5469 27.7344V1.17188C30.5469 0.524687 30.0222 0 29.375 0ZM23.4527 21.1607L19.5856 25.0277C19.128 25.4854 18.386 25.4854 17.9284 25.0277L16.5473 23.6466C16.0896 23.189 16.0896 22.447 16.5473 21.9894C17.0049 21.5317 17.7469 21.5317 18.2045 21.9894L18.757 22.5418L21.7953 19.5034C22.253 19.0458 22.9949 19.0458 23.4526 19.5034C23.9103 19.9611 23.9103 20.7031 23.4527 21.1607ZM24.6875 16.4062H15.3125C14.6653 16.4062 14.1406 15.8816 14.1406 15.2344C14.1406 14.5872 14.6653 14.0625 15.3125 14.0625H24.6875C25.3347 14.0625 25.8594 14.5872 25.8594 15.2344C25.8594 15.8816 25.3347 16.4062 24.6875 16.4062ZM25.8594 9.76562C25.8594 10.4128 25.3347 10.9375 24.6875 10.9375H15.3125C14.6653 10.9375 14.1406 10.4128 14.1406 9.76562V5.07812C14.1406 4.43094 14.6653 3.90625 15.3125 3.90625H24.6875C25.3347 3.90625 25.8594 4.43094 25.8594 5.07812V9.76562Z" fill="url(#paint1_linear_2745_16)"/>
</g>
<defs>
<linearGradient id="paint0_linear_2745_16" x1="20" y1="32.9688" x2="20" y2="3.90625" gradientUnits="userSpaceOnUse">
<stop stop-color="#FFBEF9"/>
<stop offset="1" stop-color="#FFF1FF"/>
</linearGradient>
<linearGradient id="paint1_linear_2745_16" x1="20" y1="40" x2="20" y2="0" gradientUnits="userSpaceOnUse">
<stop stop-color="#A93AFF"/>
<stop offset="1" stop-color="#FF81FF"/>
</linearGradient>
<clipPath id="clip0_2745_16">
<rect width="40" height="40" fill="white"/>
</clipPath>
</defs>
</svg>
