<?xml version="1.0" encoding="utf-8"?>
<!-- Generator: Adobe Illustrator 22.0.1, SVG Export Plug-In . SVG Version: 6.00 Build 0)  -->
<svg version="1.1" id="_x31__x2C_5" xmlns="http://www.w3.org/2000/svg" xmlns:xlink="http://www.w3.org/1999/xlink" x="0px"
	 y="0px" viewBox="0 0 512 426.8" style="enable-background:new 0 0 512 426.8;" xml:space="preserve">
<style type="text/css">
	.st0{fill:#1F9CFF;}
</style>
<path class="st0" d="M474.7,362.8H37.3C16.7,362.8,0,346.1,0,325.5v-288C0,16.9,16.7,0.2,37.3,0.2h437.3c20.6,0,37.3,16.7,37.3,37.3
	v288C512,346.1,495.3,362.8,474.7,362.8z M37.3,32.2c-2.9,0-5.3,2.4-5.3,5.3v288c0,2.9,2.4,5.3,5.3,5.3h437.3c2.9,0,5.3-2.4,5.3-5.3
	v-288c0-2.9-2.4-5.3-5.3-5.3H37.3z"/>
<path class="st0" d="M496,288.2H16c-8.8,0-16-7.2-16-16c0-8.8,7.2-16,16-16h480c8.8,0,16,7.2,16,16C512,281,504.8,288.2,496,288.2z"
	/>
<path class="st0" d="M325.3,426.8H186.7c-6.5,0-12.3-3.9-14.8-9.9s-1.1-12.9,3.5-17.4c22.2-22.2,27-54.4,27-54.8
	c1.2-8.8,9.2-15,17.9-13.8c8.8,1.2,14.9,9.2,13.8,17.9c-0.2,1.3-3.1,22.7-15.9,45.9h75.2c-12.6-23.1-15.7-44.5-15.9-45.8
	c-1.2-8.7,4.9-16.8,13.7-18c8.8-1.2,16.8,4.9,18,13.6c0.1,1,4.9,31.3,25.3,53.1c4.2,2.9,6.9,7.7,6.9,13.2
	C341.3,419.7,334.2,426.8,325.3,426.8L325.3,426.8z"/>
<path class="st0" d="M325.3,202.8c-3.7,0-7.4-1.3-10.4-3.9c-6.7-5.8-7.5-15.9-1.7-22.6l23.1-26.9l-23.1-26.9
	c-5.8-6.7-5-16.8,1.7-22.6c6.7-5.8,16.8-5,22.6,1.7l32,37.3c5.1,6,5.1,14.8,0,20.8l-32,37.3C334.3,200.9,329.8,202.8,325.3,202.8
	L325.3,202.8z"/>
<path class="st0" d="M186.7,202.8c-4.5,0-9-1.9-12.2-5.6l-32-37.3c-5.1-6-5.1-14.8,0-20.8l32-37.3c5.7-6.7,15.9-7.5,22.6-1.7
	c6.7,5.8,7.5,15.9,1.7,22.6l-23.1,26.9l23.1,26.9c5.8,6.7,5,16.8-1.7,22.6C194.1,201.6,190.4,202.8,186.7,202.8L186.7,202.8z"/>
<path class="st0" d="M240,234.8c-1.2,0-2.4-0.1-3.6-0.4c-8.6-2-14-10.6-12-19.2l32-138.7c2-8.6,10.6-13.9,19.2-12
	c8.6,2,14,10.6,12,19.2l-32,138.7C253.9,229.8,247.3,234.8,240,234.8L240,234.8z"/>
</svg>
