<svg width="40" height="40" viewBox="0 0 40 40" fill="none" xmlns="http://www.w3.org/2000/svg">
<g clip-path="url(#clip0_2745_28)">
<path d="M39.6564 5.03077L36.0627 0.343299C35.6049 -0.114433 34.8633 -0.114433 34.4056 0.343299L30.89 5.03077C30.7259 5.19457 30.6142 5.4034 30.569 5.63077C30.5237 5.85815 30.547 6.09384 30.6359 6.30795C30.7245 6.52214 30.8747 6.70521 31.0674 6.83398C31.2601 6.96274 31.4867 7.03139 31.7185 7.03123H32.8904V15.3124C32.8904 15.9602 33.4145 16.4843 34.0622 16.4843H36.406C37.0537 16.4843 37.5778 15.9602 37.5778 15.3124V7.03123H38.8278C39.0596 7.0314 39.2862 6.96275 39.4789 6.83399C39.6717 6.70523 39.8218 6.52215 39.9104 6.30795C39.9993 6.09385 40.0227 5.85816 39.9774 5.63077C39.9322 5.40339 39.8205 5.19456 39.6564 5.03077ZM23.5155 17.3494V4.68749L21.2458 2.34376H12.2902L9.45307 4.68749V17.3494L0.599684 32.9419C0.207108 33.6274 0 34.4205 0 35.2342C0 37.8194 2.10225 39.9998 4.68747 39.9998H28.203C30.7882 39.9998 32.8904 37.8194 32.8904 35.2342C32.8904 34.4205 32.6833 33.6275 32.2942 32.9488L23.5155 17.3494Z" fill="url(#paint0_linear_2745_28)"/>
<path d="M15.3124 16.4841C15.9596 16.4841 16.4842 15.9594 16.4842 15.3123C16.4842 14.6651 15.9596 14.1404 15.3124 14.1404C14.6652 14.1404 14.1405 14.6651 14.1405 15.3123C14.1405 15.9594 14.6652 16.4841 15.3124 16.4841ZM15.3124 23.5153C14.6652 23.5153 14.1405 24.04 14.1405 24.6872C14.1405 25.3344 14.6652 25.8591 15.3124 25.8591C15.9596 25.8591 16.4842 25.3344 16.4842 24.6872C16.4842 24.04 15.9596 23.5153 15.3124 23.5153ZM10.6249 28.2028C9.97772 28.2028 9.45303 28.7275 9.45303 29.3747C9.45303 30.0219 9.97772 30.5465 10.6249 30.5465C11.2721 30.5465 11.7968 30.0219 11.7968 29.3747C11.7968 28.7275 11.2722 28.2028 10.6249 28.2028ZM15.3124 32.8903C14.6652 32.8903 14.1405 33.415 14.1405 34.0621C14.1405 34.7093 14.6652 35.234 15.3124 35.234C15.9596 35.234 16.4842 34.7093 16.4842 34.0621C16.4842 33.415 15.9596 32.8903 15.3124 32.8903ZM17.6561 18.8279C17.0089 18.8279 16.4842 19.3525 16.4842 19.9997C16.4842 20.6469 17.0089 21.1716 17.6561 21.1716C18.3033 21.1716 18.828 20.6469 18.828 19.9997C18.828 19.3525 18.3034 18.8279 17.6561 18.8279ZM17.6561 9.45291C17.0089 9.45291 16.4842 9.9776 16.4842 10.6248C16.4842 11.272 17.0089 11.7967 17.6561 11.7967C18.3033 11.7967 18.828 11.272 18.828 10.6248C18.828 9.9776 18.3034 9.45291 17.6561 9.45291ZM24.6874 0H8.28124C7.63351 0 7.10938 0.524138 7.10938 1.17187C7.10938 1.8196 7.63351 2.34374 8.28124 2.34374C8.9278 2.34374 9.45311 2.86905 9.45311 3.5156V4.68747H23.5155V3.5156C23.5155 2.86905 24.0408 2.34374 24.6874 2.34374C25.3351 2.34374 25.8593 1.8196 25.8593 1.17187C25.8593 0.524138 25.3351 0 24.6874 0ZM22.3436 28.2028C21.6964 28.2028 21.1717 28.7275 21.1717 29.3747C21.1717 30.0219 21.6964 30.5465 22.3436 30.5465C22.9908 30.5465 23.5155 30.0219 23.5155 29.3747C23.5155 28.7275 22.9908 28.2028 22.3436 28.2028Z" fill="url(#paint1_linear_2745_28)"/>
</g>
<defs>
<linearGradient id="paint0_linear_2745_28" x1="20" y1="39.9997" x2="20" y2="-7.62935e-05" gradientUnits="userSpaceOnUse">
<stop stop-color="#FD5900"/>
<stop offset="1" stop-color="#FFDE00"/>
</linearGradient>
<linearGradient id="paint1_linear_2745_28" x1="16.4843" y1="35.234" x2="16.4843" y2="0" gradientUnits="userSpaceOnUse">
<stop stop-color="#FFE59A"/>
<stop offset="1" stop-color="#FFFFD5"/>
</linearGradient>
<clipPath id="clip0_2745_28">
<rect width="40" height="40" fill="white"/>
</clipPath>
</defs>
</svg>
