<svg width="40" height="40" viewBox="0 0 40 40" fill="none" xmlns="http://www.w3.org/2000/svg">
<path d="M40 25.4688H0V5.9375C0 3.99898 1.57711 2.42188 3.51562 2.42188H36.4844C38.4229 2.42188 40 3.99898 40 5.9375V25.4688ZM14.1406 35.2344H25.8594V31.3281H14.1406V35.2344Z" fill="url(#paint0_linear_1117_489)"/>
<path d="M40 25.4688V27.8125C40 29.751 38.4229 31.3281 36.4844 31.3281H3.51562C1.57711 31.3281 0 29.751 0 27.8125V25.4688H40ZM28.9844 36.4062C28.9844 35.7591 28.4597 35.2344 27.8125 35.2344H12.1875C11.5403 35.2344 11.0156 35.7591 11.0156 36.4062C11.0156 37.0534 11.5403 37.5781 12.1875 37.5781H27.8125C28.4597 37.5781 28.9844 37.0534 28.9844 36.4062ZM35.2344 12.9688V8.28125C35.2344 7.63406 34.7097 7.10938 34.0625 7.10938H24.6875C24.0403 7.10938 23.5156 7.63406 23.5156 8.28125V12.9688C23.5156 13.6159 24.0403 14.1406 24.6875 14.1406H34.0625C34.7097 14.1406 35.2344 13.6159 35.2344 12.9688ZM34.0625 18.0469H26.6406V17.6562C26.6406 17.0091 26.1159 16.4844 25.4688 16.4844C24.8216 16.4844 24.2969 17.0091 24.2969 17.6562V18.0469H21.5625C20.9153 18.0469 20.3906 18.5716 20.3906 19.2188C20.3906 19.8659 20.9153 20.3906 21.5625 20.3906H24.2969V20.7812C24.2969 21.4284 24.8216 21.9531 25.4688 21.9531C26.1159 21.9531 26.6406 21.4284 26.6406 20.7812V20.3906H34.0625C34.7097 20.3906 35.2344 19.8659 35.2344 19.2188C35.2344 18.5716 34.7097 18.0469 34.0625 18.0469ZM19.6094 14.5312C19.6094 15.1784 19.0847 15.7031 18.4375 15.7031H17.929C17.7788 16.4374 17.4884 17.1358 17.0737 17.7601L17.4356 18.122C17.8933 18.5797 17.8933 19.3216 17.4356 19.7793C16.978 20.237 16.236 20.237 15.7784 19.7793L15.4164 19.4173C14.8016 19.8249 14.1064 20.1205 13.3595 20.2727V20.7812C13.3595 21.4284 12.8348 21.9531 12.1876 21.9531C11.5404 21.9531 11.0157 21.4284 11.0157 20.7812V20.2727C10.2814 20.1226 9.58302 19.8322 8.95875 19.4174L8.5968 19.7794C8.13914 20.237 7.39719 20.237 6.93953 19.7794C6.48187 19.3217 6.48187 18.5798 6.93953 18.1221L7.30148 17.7602C6.89391 17.1454 6.59836 16.4502 6.44617 15.7032H5.9375C5.29031 15.7032 4.76562 15.1785 4.76562 14.5313C4.76562 13.8841 5.29031 13.3595 5.9375 13.3595H6.44602C6.59619 12.6252 6.8866 11.9268 7.30133 11.3025L6.93937 10.9405C6.48172 10.4829 6.48172 9.74094 6.93937 9.28328C7.39703 8.82562 8.13898 8.82562 8.59664 9.28328L8.95859 9.64523C9.57336 9.23766 10.2686 8.94211 11.0155 8.78992V8.28125C11.0155 7.63406 11.5402 7.10938 12.1874 7.10938C12.8346 7.10938 13.3593 7.63406 13.3593 8.28125V8.78977C14.0936 8.93994 14.792 9.23035 15.4163 9.64508L15.7782 9.28312C16.2359 8.82547 16.9778 8.82547 17.4355 9.28312C17.8931 9.74078 17.8931 10.4827 17.4355 10.9404L17.0735 11.3023C17.4811 11.9171 17.7766 12.6123 17.9288 13.3593H18.4375C19.0847 13.3594 19.6094 13.8841 19.6094 14.5312ZM14.5312 14.5312C14.5312 13.2368 13.482 12.1875 12.1875 12.1875C10.893 12.1875 9.84375 13.2368 9.84375 14.5312C9.84375 15.8257 10.893 16.875 12.1875 16.875C13.482 16.875 14.5312 15.8257 14.5312 14.5312Z" fill="url(#paint1_linear_1117_489)"/>
<defs>
<linearGradient id="paint0_linear_1117_489" x1="20" y1="35.2344" x2="20" y2="2.42188" gradientUnits="userSpaceOnUse">
<stop stop-color="#FD5900"/>
<stop offset="1" stop-color="#FFDE00"/>
</linearGradient>
<linearGradient id="paint1_linear_1117_489" x1="20" y1="37.5781" x2="20" y2="7.10938" gradientUnits="userSpaceOnUse">
<stop stop-color="#FFEDAD"/>
<stop offset="1" stop-color="#FFFFE5"/>
</linearGradient>
</defs>
</svg>
