<svg width="40" height="40" viewBox="0 0 40 40" fill="none" xmlns="http://www.w3.org/2000/svg">
<g clip-path="url(#clip0_2745_6)">
<path d="M14.5312 31.4062C14.842 31.4062 15.1401 31.5297 15.3598 31.7495L16.5791 32.9688H23.4208L24.6401 31.7495C24.7489 31.6407 24.8781 31.5544 25.0203 31.4955C25.1625 31.4366 25.3148 31.4063 25.4688 31.4062H38.3594V11.4844C38.3594 9.54586 36.7823 7.96875 34.8438 7.96875H5.15625C3.21773 7.96875 1.64062 9.54586 1.64062 11.4844V31.4062H14.5312Z" fill="url(#paint0_linear_2745_6)"/>
<path d="M35.7031 40H4.29688C1.92758 40 0 38.0724 0 35.7031V32.5781C0 31.9309 0.524687 31.4062 1.17188 31.4062H14.5312C14.842 31.4062 15.1401 31.5297 15.3598 31.7495L16.5791 32.9688H23.4208L24.6401 31.7495C24.8599 31.5297 25.1579 31.4063 25.4688 31.4062H38.8281C39.4753 31.4062 40 31.9309 40 32.5781V35.7031C40 38.0724 38.0724 40 35.7031 40ZM31.3755 21.8276C30.9179 21.3699 30.1759 21.3699 29.7183 21.8276L28.2031 23.3427L26.688 21.8277C26.2303 21.37 25.4884 21.37 25.0307 21.8277C24.573 22.2853 24.573 23.0273 25.0307 23.4849L26.5459 25L25.0308 26.5151C24.5731 26.9727 24.5731 27.7147 25.0308 28.1723C25.4884 28.63 26.2304 28.63 26.688 28.1723L28.2031 26.6573L29.7183 28.1723C30.1759 28.63 30.9179 28.63 31.3755 28.1723C31.8332 27.7147 31.8332 26.9727 31.3755 26.5151L29.8604 25L31.3755 23.4849C31.8332 23.0273 31.8332 22.2852 31.3755 21.8276ZM11.5838 27.912L15.7505 23.7453C16.2082 23.2877 16.2082 22.5457 15.7505 22.088C15.2929 21.6304 14.5509 21.6304 14.0933 22.088L10.7552 25.4261L9.50055 24.1714C9.04289 23.7138 8.30094 23.7138 7.84328 24.1714C7.38562 24.6291 7.38562 25.371 7.84328 25.8287L9.92664 27.912C10.3842 28.3696 11.1262 28.3696 11.5838 27.912ZM28.2031 9.76562C28.2031 9.32539 28.1678 8.8932 28.1007 8.47164L28.9073 8.00602C29.4677 7.68242 29.6598 6.9657 29.3362 6.40523L27.5784 3.36062C27.2548 2.80016 26.538 2.60805 25.9775 2.93172L25.167 3.39969C24.4944 2.85225 23.7392 2.41492 22.9296 2.10398V1.17188C22.9296 0.524687 22.4049 0 21.7577 0H18.2421C17.5949 0 17.0702 0.524687 17.0702 1.17188V2.10375C16.2607 2.41473 15.5055 2.85206 14.8328 3.39945L14.0223 2.93148C13.4619 2.60789 12.7452 2.79992 12.4215 3.36039L10.6637 6.405C10.3401 6.96547 10.5321 7.68219 11.0926 8.00578L11.8991 8.47141C11.7626 9.32874 11.7627 10.2023 11.8993 11.0596L11.0927 11.5252C10.5323 11.8488 10.3402 12.5655 10.6638 13.126L12.4216 16.1706C12.7452 16.7311 13.462 16.9232 14.0225 16.5995L14.833 16.1316C15.5056 16.679 16.2608 17.1163 17.0704 17.4273V18.3594C17.0704 19.0066 17.5951 19.5312 18.2423 19.5312H21.7579C22.4051 19.5312 22.9298 19.0066 22.9298 18.3594V17.4275C23.7393 17.1165 24.4945 16.6792 25.1672 16.1318L25.9777 16.5998C26.5381 16.9234 27.2548 16.7313 27.5785 16.1709L29.3363 13.1263C29.6599 12.5658 29.4679 11.8491 28.9074 11.5255L28.1009 11.0598C28.1689 10.6318 28.2031 10.199 28.2031 9.76562ZM20 13.2812C18.0584 13.2812 16.4844 11.7073 16.4844 9.76562C16.4844 7.82398 18.0584 6.25 20 6.25C21.9416 6.25 23.5156 7.82398 23.5156 9.76562C23.5156 11.7073 21.9416 13.2812 20 13.2812Z" fill="url(#paint1_linear_2745_6)"/>
</g>
<defs>
<linearGradient id="paint0_linear_2745_6" x1="20" y1="32.9688" x2="20" y2="7.96875" gradientUnits="userSpaceOnUse">
<stop stop-color="#FFBEF9"/>
<stop offset="1" stop-color="#FFF1FF"/>
</linearGradient>
<linearGradient id="paint1_linear_2745_6" x1="20" y1="40" x2="20" y2="0" gradientUnits="userSpaceOnUse">
<stop stop-color="#A93AFF"/>
<stop offset="1" stop-color="#FF81FF"/>
</linearGradient>
<clipPath id="clip0_2745_6">
<rect width="40" height="40" fill="white"/>
</clipPath>
</defs>
</svg>
