<svg width="45" height="45" viewBox="0 0 45 45" fill="none" xmlns="http://www.w3.org/2000/svg">
<circle cx="22.5001" cy="22.4999" r="22.5001" transform="rotate(-90 22.5001 22.4999)" fill="white"/>
<path fill-rule="evenodd" clip-rule="evenodd" d="M12.1641 22.1152L12.1641 22.6194L24.9393 22.6194C24.9074 25.3251 23.7592 29.0862 23.4713 29.988C23.4285 30.0882 23.4064 30.1567 23.4064 30.188C23.4064 30.188 23.43 30.1174 23.4713 29.988C24.0128 28.7225 27.876 22.4071 32.6046 22.3025L32.6046 22.2968C27.8526 22.1916 23.9703 16.3687 23.4627 15.2238C23.4267 15.1117 23.4064 15.0509 23.4064 15.0509C23.4061 15.0802 23.4252 15.1392 23.4627 15.2238C23.7255 16.0436 24.8246 19.6027 24.9316 22.1152L12.1641 22.1152Z" fill="#191919"/>
</svg>
